solid OpenSCAD_Model
  facet normal 1 0 0
    outer loop
      vertex 50 50 20
      vertex 50 15 13
      vertex 50 50 0
    endloop
  endfacet
  facet normal 1 0 0
    outer loop
      vertex 50 50 20
      vertex 50 -13 13
      vertex 50 15 13
    endloop
  endfacet
  facet normal 1 0 0
    outer loop
      vertex 50 -50 0
      vertex 50 -13 13
      vertex 50 -50 20
    endloop
  endfacet
  facet normal 1 -0 0
    outer loop
      vertex 50 -50 20
      vertex 50 -13 13
      vertex 50 50 20
    endloop
  endfacet
  facet normal 1 -0 0
    outer loop
      vertex 50 15 5
      vertex 50 50 0
      vertex 50 15 13
    endloop
  endfacet
  facet normal 1 -0 0
    outer loop
      vertex 50 -13 5
      vertex 50 50 0
      vertex 50 15 5
    endloop
  endfacet
  facet normal 1 0 0
    outer loop
      vertex 50 -13 5
      vertex 50 -50 0
      vertex 50 50 0
    endloop
  endfacet
  facet normal 1 0 0
    outer loop
      vertex 50 -13 13
      vertex 50 -50 0
      vertex 50 -13 5
    endloop
  endfacet
  facet normal 0 0 1
    outer loop
      vertex 50 50 20
      vertex 49 49 20
      vertex 50 -50 20
    endloop
  endfacet
  facet normal 0 0 1
    outer loop
      vertex 50 50 20
      vertex -49 49 20
      vertex 49 49 20
    endloop
  endfacet
  facet normal 0 0 1
    outer loop
      vertex -49 49 20
      vertex -50 50 20
      vertex -49 -49 20
    endloop
  endfacet
  facet normal -0 0 1
    outer loop
      vertex -50 50 20
      vertex -49 49 20
      vertex 50 50 20
    endloop
  endfacet
  facet normal -0 0 1
    outer loop
      vertex 49 -49 20
      vertex 50 -50 20
      vertex 49 49 20
    endloop
  endfacet
  facet normal -0 0 1
    outer loop
      vertex -49 -49 20
      vertex 50 -50 20
      vertex 49 -49 20
    endloop
  endfacet
  facet normal 0 0 1
    outer loop
      vertex -49 -49 20
      vertex -50 -50 20
      vertex 50 -50 20
    endloop
  endfacet
  facet normal 0 0 1
    outer loop
      vertex -50 -50 20
      vertex -49 -49 20
      vertex -50 50 20
    endloop
  endfacet
  facet normal 0 0 -1
    outer loop
      vertex -50 -50 0
      vertex 50 50 0
      vertex 50 -50 0
    endloop
  endfacet
  facet normal -0 0 -1
    outer loop
      vertex 50 50 0
      vertex -50 -50 0
      vertex -50 50 0
    endloop
  endfacet
  facet normal -1 0 0
    outer loop
      vertex -50 -50 0
      vertex -50 50 20
      vertex -50 50 0
    endloop
  endfacet
  facet normal -1 -0 0
    outer loop
      vertex -50 50 20
      vertex -50 -50 0
      vertex -50 -50 20
    endloop
  endfacet
  facet normal 0 1 -0
    outer loop
      vertex 50 50 0
      vertex -50 50 20
      vertex 50 50 20
    endloop
  endfacet
  facet normal 0 1 0
    outer loop
      vertex -50 50 20
      vertex 50 50 0
      vertex -50 50 0
    endloop
  endfacet
  facet normal 0 -1 0
    outer loop
      vertex 19.4379 -50 8.44686
      vertex 50 -50 20
      vertex -50 -50 20
    endloop
  endfacet
  facet normal 0 -1 0
    outer loop
      vertex 50 -50 20
      vertex 19.4379 -50 8.44686
      vertex 19.8116 -50 8.49408
    endloop
  endfacet
  facet normal 0 -1 0
    outer loop
      vertex -50 -50 20
      vertex 19.0729 -50 8.35317
      vertex 19.4379 -50 8.44686
    endloop
  endfacet
  facet normal 0 -1 0
    outer loop
      vertex -50 -50 20
      vertex 18.7227 -50 8.21448
      vertex 19.0729 -50 8.35317
    endloop
  endfacet
  facet normal 0 -1 0
    outer loop
      vertex -50 -50 20
      vertex 18.3925 -50 8.03298
      vertex 18.7227 -50 8.21448
    endloop
  endfacet
  facet normal 0 -1 0
    outer loop
      vertex -50 -50 20
      vertex 18.0877 -50 7.81154
      vertex 18.3925 -50 8.03298
    endloop
  endfacet
  facet normal 0 -1 0
    outer loop
      vertex -50 -50 20
      vertex 17.8131 -50 7.55364
      vertex 18.0877 -50 7.81154
    endloop
  endfacet
  facet normal 0 -1 0
    outer loop
      vertex -50 -50 20
      vertex 17.5729 -50 7.26336
      vertex 17.8131 -50 7.55364
    endloop
  endfacet
  facet normal 0 -1 0
    outer loop
      vertex -50 -50 20
      vertex 17.3711 -50 6.94526
      vertex 17.5729 -50 7.26336
    endloop
  endfacet
  facet normal 0 -1 0
    outer loop
      vertex -50 -50 20
      vertex 17.2107 -50 6.60437
      vertex 17.3711 -50 6.94526
    endloop
  endfacet
  facet normal 0 -1 0
    outer loop
      vertex -50 -50 20
      vertex 17.0942 -50 6.24607
      vertex 17.2107 -50 6.60437
    endloop
  endfacet
  facet normal 0 -1 0
    outer loop
      vertex -50 -50 20
      vertex 17.0237 -50 5.876
      vertex 17.0942 -50 6.24607
    endloop
  endfacet
  facet normal 0 -1 0
    outer loop
      vertex -50 -50 0
      vertex 17.0237 -50 5.876
      vertex -50 -50 20
    endloop
  endfacet
  facet normal 0 -1 0
    outer loop
      vertex 17.0237 -50 5.876
      vertex -50 -50 0
      vertex 17 -50 5.5
    endloop
  endfacet
  facet normal 0 -1 -0
    outer loop
      vertex 17 -50 5.5
      vertex -50 -50 0
      vertex 17.0237 -50 5.124
    endloop
  endfacet
  facet normal 0 -1 -0
    outer loop
      vertex 17.0237 -50 5.124
      vertex -50 -50 0
      vertex 17.0942 -50 4.75393
    endloop
  endfacet
  facet normal 0 -1 -0
    outer loop
      vertex 17.0942 -50 4.75393
      vertex -50 -50 0
      vertex 17.2107 -50 4.39563
    endloop
  endfacet
  facet normal 0 -1 -0
    outer loop
      vertex 17.2107 -50 4.39563
      vertex -50 -50 0
      vertex 17.3711 -50 4.05474
    endloop
  endfacet
  facet normal 0 -1 -0
    outer loop
      vertex 17.3711 -50 4.05474
      vertex -50 -50 0
      vertex 17.5729 -50 3.73664
    endloop
  endfacet
  facet normal 0 -1 -0
    outer loop
      vertex 17.5729 -50 3.73664
      vertex -50 -50 0
      vertex 17.8131 -50 3.44636
    endloop
  endfacet
  facet normal 0 -1 -0
    outer loop
      vertex 17.8131 -50 3.44636
      vertex -50 -50 0
      vertex 18.0877 -50 3.18846
    endloop
  endfacet
  facet normal 0 -1 -0
    outer loop
      vertex 18.0877 -50 3.18846
      vertex -50 -50 0
      vertex 18.3925 -50 2.96702
    endloop
  endfacet
  facet normal 0 -1 -0
    outer loop
      vertex 18.3925 -50 2.96702
      vertex -50 -50 0
      vertex 18.7227 -50 2.78552
    endloop
  endfacet
  facet normal 0 -1 -0
    outer loop
      vertex 18.7227 -50 2.78552
      vertex -50 -50 0
      vertex 19.0729 -50 2.64683
    endloop
  endfacet
  facet normal 0 -1 0
    outer loop
      vertex 50 -50 0
      vertex 19.8116 -50 2.50592
      vertex -50 -50 0
    endloop
  endfacet
  facet normal 0 -1 -0
    outer loop
      vertex 19.4379 -50 2.55314
      vertex -50 -50 0
      vertex 19.8116 -50 2.50592
    endloop
  endfacet
  facet normal 0 -1 -0
    outer loop
      vertex 19.0729 -50 2.64683
      vertex -50 -50 0
      vertex 19.4379 -50 2.55314
    endloop
  endfacet
  facet normal 0 -1 0
    outer loop
      vertex 20.1884 -50 8.49408
      vertex 50 -50 20
      vertex 19.8116 -50 8.49408
    endloop
  endfacet
  facet normal 0 -1 0
    outer loop
      vertex 20.5621 -50 8.44686
      vertex 50 -50 20
      vertex 20.1884 -50 8.49408
    endloop
  endfacet
  facet normal 0 -1 0
    outer loop
      vertex 20.9271 -50 8.35317
      vertex 50 -50 20
      vertex 20.5621 -50 8.44686
    endloop
  endfacet
  facet normal 0 -1 0
    outer loop
      vertex 21.2773 -50 8.21448
      vertex 50 -50 20
      vertex 20.9271 -50 8.35317
    endloop
  endfacet
  facet normal 0 -1 0
    outer loop
      vertex 21.6075 -50 8.03298
      vertex 50 -50 20
      vertex 21.2773 -50 8.21448
    endloop
  endfacet
  facet normal 0 -1 0
    outer loop
      vertex 21.9123 -50 7.81154
      vertex 50 -50 20
      vertex 21.6075 -50 8.03298
    endloop
  endfacet
  facet normal 0 -1 0
    outer loop
      vertex 22.1869 -50 7.55364
      vertex 50 -50 20
      vertex 21.9123 -50 7.81154
    endloop
  endfacet
  facet normal 0 -1 0
    outer loop
      vertex 22.4271 -50 7.26336
      vertex 50 -50 20
      vertex 22.1869 -50 7.55364
    endloop
  endfacet
  facet normal 0 -1 0
    outer loop
      vertex 22.6289 -50 6.94526
      vertex 50 -50 20
      vertex 22.4271 -50 7.26336
    endloop
  endfacet
  facet normal 0 -1 0
    outer loop
      vertex 22.7893 -50 6.60437
      vertex 50 -50 20
      vertex 22.6289 -50 6.94526
    endloop
  endfacet
  facet normal 0 -1 0
    outer loop
      vertex 22.9058 -50 6.24607
      vertex 50 -50 20
      vertex 22.7893 -50 6.60437
    endloop
  endfacet
  facet normal 0 -1 0
    outer loop
      vertex 50 -50 0
      vertex 22.9058 -50 6.24607
      vertex 22.9763 -50 5.876
    endloop
  endfacet
  facet normal 0 -1 0
    outer loop
      vertex 50 -50 0
      vertex 22.9763 -50 5.876
      vertex 23 -50 5.5
    endloop
  endfacet
  facet normal 0 -1 0
    outer loop
      vertex 50 -50 0
      vertex 23 -50 5.5
      vertex 22.9763 -50 5.124
    endloop
  endfacet
  facet normal 0 -1 0
    outer loop
      vertex 50 -50 0
      vertex 22.9763 -50 5.124
      vertex 22.9058 -50 4.75393
    endloop
  endfacet
  facet normal 0 -1 0
    outer loop
      vertex 50 -50 0
      vertex 22.9058 -50 4.75393
      vertex 22.7893 -50 4.39563
    endloop
  endfacet
  facet normal 0 -1 0
    outer loop
      vertex 50 -50 0
      vertex 22.7893 -50 4.39563
      vertex 22.6289 -50 4.05474
    endloop
  endfacet
  facet normal 0 -1 0
    outer loop
      vertex 50 -50 0
      vertex 22.6289 -50 4.05474
      vertex 22.4271 -50 3.73664
    endloop
  endfacet
  facet normal 0 -1 0
    outer loop
      vertex 50 -50 0
      vertex 22.4271 -50 3.73664
      vertex 22.1869 -50 3.44636
    endloop
  endfacet
  facet normal 0 -1 0
    outer loop
      vertex 50 -50 0
      vertex 22.1869 -50 3.44636
      vertex 21.9123 -50 3.18846
    endloop
  endfacet
  facet normal 0 -1 0
    outer loop
      vertex 50 -50 0
      vertex 21.9123 -50 3.18846
      vertex 21.6075 -50 2.96702
    endloop
  endfacet
  facet normal 0 -1 0
    outer loop
      vertex 22.9058 -50 6.24607
      vertex 50 -50 0
      vertex 50 -50 20
    endloop
  endfacet
  facet normal 0 -1 0
    outer loop
      vertex 21.2773 -50 2.78552
      vertex 50 -50 0
      vertex 21.6075 -50 2.96702
    endloop
  endfacet
  facet normal 0 -1 0
    outer loop
      vertex 20.9271 -50 2.64683
      vertex 50 -50 0
      vertex 21.2773 -50 2.78552
    endloop
  endfacet
  facet normal 0 -1 0
    outer loop
      vertex 20.5621 -50 2.55314
      vertex 50 -50 0
      vertex 20.9271 -50 2.64683
    endloop
  endfacet
  facet normal 0 -1 0
    outer loop
      vertex 20.1884 -50 2.50592
      vertex 50 -50 0
      vertex 20.5621 -50 2.55314
    endloop
  endfacet
  facet normal 0 -1 0
    outer loop
      vertex 19.8116 -50 2.50592
      vertex 50 -50 0
      vertex 20.1884 -50 2.50592
    endloop
  endfacet
  facet normal -1 0 0
    outer loop
      vertex 49 -22 1
      vertex 49 -49 1
      vertex 49 -22 15
    endloop
  endfacet
  facet normal -1 0 0
    outer loop
      vertex 49 15 13
      vertex 49 19 4
      vertex 49 15 5
    endloop
  endfacet
  facet normal -1 0 0
    outer loop
      vertex 49 19 4
      vertex 49 -13 5
      vertex 49 15 5
    endloop
  endfacet
  facet normal -1 -0 0
    outer loop
      vertex 49 -13 5
      vertex 49 -20 4
      vertex 49 -13 13
    endloop
  endfacet
  facet normal -1 0 0
    outer loop
      vertex 49 -20 4
      vertex 49 -13 5
      vertex 49 19 4
    endloop
  endfacet
  facet normal -1 0 0
    outer loop
      vertex 49 20 15
      vertex 49 49 1
      vertex 49 20 1
    endloop
  endfacet
  facet normal -1 0 0
    outer loop
      vertex 49 49 1
      vertex 49 20 15
      vertex 49 49 20
    endloop
  endfacet
  facet normal -1 0 0
    outer loop
      vertex 49 19 15
      vertex 49 49 20
      vertex 49 20 15
    endloop
  endfacet
  facet normal -1 0 0
    outer loop
      vertex 49 19 4
      vertex 49 15 13
      vertex 49 19 15
    endloop
  endfacet
  facet normal -1 0 0
    outer loop
      vertex 49 -13 13
      vertex 49 19 15
      vertex 49 15 13
    endloop
  endfacet
  facet normal -1 0 0
    outer loop
      vertex 49 -20 15
      vertex 49 19 15
      vertex 49 -13 13
    endloop
  endfacet
  facet normal -1 0 0
    outer loop
      vertex 49 -20 15
      vertex 49 -13 13
      vertex 49 -20 4
    endloop
  endfacet
  facet normal -1 0 0
    outer loop
      vertex 49 19 15
      vertex 49 -20 15
      vertex 49 49 20
    endloop
  endfacet
  facet normal -1 0 0
    outer loop
      vertex 49 -49 20
      vertex 49 -20 15
      vertex 49 -22 15
    endloop
  endfacet
  facet normal -1 0 0
    outer loop
      vertex 49 -20 15
      vertex 49 -49 20
      vertex 49 49 20
    endloop
  endfacet
  facet normal -1 0 0
    outer loop
      vertex 49 -49 20
      vertex 49 -22 15
      vertex 49 -49 1
    endloop
  endfacet
  facet normal 0 0 1
    outer loop
      vertex 49 49 1
      vertex 44 20 1
      vertex 49 20 1
    endloop
  endfacet
  facet normal -0 0 1
    outer loop
      vertex 0 10 1
      vertex 44 -22 1
      vertex 44 20 1
    endloop
  endfacet
  facet normal 0 0 1
    outer loop
      vertex 0 10 1
      vertex 44 20 1
      vertex 49 49 1
    endloop
  endfacet
  facet normal 0 -0 1
    outer loop
      vertex 18.9 -40 1
      vertex 44 -22 1
      vertex 0 10 1
    endloop
  endfacet
  facet normal 0 0 1
    outer loop
      vertex 21.1 -40 1
      vertex 18.9 -40 1
      vertex 21.1 -41 1
    endloop
  endfacet
  facet normal 0 0 1
    outer loop
      vertex 44 -22 1
      vertex 21.1 -40 1
      vertex 25.5 -40 1
    endloop
  endfacet
  facet normal 0 0 1
    outer loop
      vertex 44 -22 1
      vertex 18.9 -40 1
      vertex 21.1 -40 1
    endloop
  endfacet
  facet normal 0 0 1
    outer loop
      vertex 0 -49 1
      vertex 14.5 -40 1
      vertex 0 10 1
    endloop
  endfacet
  facet normal 0 0 1
    outer loop
      vertex 18.9 -40 1
      vertex 0 10 1
      vertex 14.5 -40 1
    endloop
  endfacet
  facet normal -0 0 1
    outer loop
      vertex -49 49 1
      vertex 0 10 1
      vertex 49 49 1
    endloop
  endfacet
  facet normal 0 0 1
    outer loop
      vertex -14 10 1
      vertex -24 10 1
      vertex -14 9 1
    endloop
  endfacet
  facet normal 0 0 1
    outer loop
      vertex 0 10 1
      vertex -49 49 1
      vertex -14 10 1
    endloop
  endfacet
  facet normal 0 0 1
    outer loop
      vertex -14 10 1
      vertex -49 49 1
      vertex -24 10 1
    endloop
  endfacet
  facet normal 0 0 1
    outer loop
      vertex -24 10 1
      vertex -49 49 1
      vertex -49 10 1
    endloop
  endfacet
  facet normal -0 0 1
    outer loop
      vertex 44 -22 1
      vertex 49 -49 1
      vertex 49 -22 1
    endloop
  endfacet
  facet normal -0 0 1
    outer loop
      vertex 25.5 -40 1
      vertex 49 -49 1
      vertex 44 -22 1
    endloop
  endfacet
  facet normal -0 0 1
    outer loop
      vertex 25.5 -43.6 1
      vertex 49 -49 1
      vertex 25.5 -40 1
    endloop
  endfacet
  facet normal 0 0 1
    outer loop
      vertex 24.5 -49 1
      vertex 25.5 -43.6 1
      vertex 24.5 -43.6 1
    endloop
  endfacet
  facet normal 0 0 1
    outer loop
      vertex 25.5 -43.6 1
      vertex 24.5 -49 1
      vertex 49 -49 1
    endloop
  endfacet
  facet normal -0 0 1
    outer loop
      vertex 21.1 -41 1
      vertex 23.5 -49 1
      vertex 23.5 -41 1
    endloop
  endfacet
  facet normal 0 0 1
    outer loop
      vertex 18.9 -41 1
      vertex 21.1 -41 1
      vertex 18.9 -40 1
    endloop
  endfacet
  facet normal 0 0 1
    outer loop
      vertex 21.1 -41 1
      vertex 18.9 -41 1
      vertex 23.5 -49 1
    endloop
  endfacet
  facet normal 0 0 1
    outer loop
      vertex 16.5 -49 1
      vertex 18.9 -41 1
      vertex 16.5 -41 1
    endloop
  endfacet
  facet normal 0 0 1
    outer loop
      vertex 18.9 -41 1
      vertex 16.5 -49 1
      vertex 23.5 -49 1
    endloop
  endfacet
  facet normal -0 0 1
    outer loop
      vertex 14.5 -43.6 1
      vertex 15.5 -49 1
      vertex 15.5 -43.6 1
    endloop
  endfacet
  facet normal 0 0 1
    outer loop
      vertex 14.5 -40 1
      vertex 0 -49 1
      vertex 14.5 -43.6 1
    endloop
  endfacet
  facet normal 0 0 1
    outer loop
      vertex 14.5 -43.6 1
      vertex 0 -49 1
      vertex 15.5 -49 1
    endloop
  endfacet
  facet normal -0 0 1
    outer loop
      vertex -14 9 1
      vertex -1 -49 1
      vertex -1 9 1
    endloop
  endfacet
  facet normal 0 0 1
    outer loop
      vertex -24 9 1
      vertex -14 9 1
      vertex -24 10 1
    endloop
  endfacet
  facet normal 0 0 1
    outer loop
      vertex -14 9 1
      vertex -24 9 1
      vertex -1 -49 1
    endloop
  endfacet
  facet normal 0 0 1
    outer loop
      vertex -49 -49 1
      vertex -24 9 1
      vertex -49 9 1
    endloop
  endfacet
  facet normal 0 0 1
    outer loop
      vertex -24 9 1
      vertex -49 -49 1
      vertex -1 -49 1
    endloop
  endfacet
  facet normal 1 0 0
    outer loop
      vertex -49 49 20
      vertex -49 10 18
      vertex -49 49 1
    endloop
  endfacet
  facet normal 1 0 0
    outer loop
      vertex -49 49 20
      vertex -49 9 18
      vertex -49 10 18
    endloop
  endfacet
  facet normal 1 -0 0
    outer loop
      vertex -49 -49 20
      vertex -49 9 18
      vertex -49 49 20
    endloop
  endfacet
  facet normal 1 0 0
    outer loop
      vertex -49 -49 1
      vertex -49 9 18
      vertex -49 -49 20
    endloop
  endfacet
  facet normal 1 0 0
    outer loop
      vertex -49 9 18
      vertex -49 -49 1
      vertex -49 9 1
    endloop
  endfacet
  facet normal 1 0 0
    outer loop
      vertex -49 49 1
      vertex -49 10 18
      vertex -49 10 1
    endloop
  endfacet
  facet normal 0 -1 0
    outer loop
      vertex -49 49 1
      vertex 49 49 20
      vertex -49 49 20
    endloop
  endfacet
  facet normal 0 -1 -0
    outer loop
      vertex 49 49 20
      vertex -49 49 1
      vertex 49 49 1
    endloop
  endfacet
  facet normal 0 1 0
    outer loop
      vertex 15.5 -49 7
      vertex 15.5 -49 1
      vertex 14.5 -49 7
    endloop
  endfacet
  facet normal 0 1 0
    outer loop
      vertex 23.5 -49 10
      vertex 20.1884 -49 8.49408
      vertex 16.5 -49 10
    endloop
  endfacet
  facet normal 0 1 0
    outer loop
      vertex 23.5 -49 10
      vertex 20.5621 -49 8.44686
      vertex 20.1884 -49 8.49408
    endloop
  endfacet
  facet normal 0 1 0
    outer loop
      vertex 23.5 -49 10
      vertex 20.9271 -49 8.35317
      vertex 20.5621 -49 8.44686
    endloop
  endfacet
  facet normal 0 1 0
    outer loop
      vertex 23.5 -49 10
      vertex 21.2773 -49 8.21448
      vertex 20.9271 -49 8.35317
    endloop
  endfacet
  facet normal 0 1 0
    outer loop
      vertex 23.5 -49 10
      vertex 21.6075 -49 8.03298
      vertex 21.2773 -49 8.21448
    endloop
  endfacet
  facet normal 0 1 0
    outer loop
      vertex 23.5 -49 10
      vertex 21.9123 -49 7.81154
      vertex 21.6075 -49 8.03298
    endloop
  endfacet
  facet normal 0 1 0
    outer loop
      vertex 23.5 -49 10
      vertex 22.1869 -49 7.55364
      vertex 21.9123 -49 7.81154
    endloop
  endfacet
  facet normal 0 1 0
    outer loop
      vertex 23.5 -49 10
      vertex 22.4271 -49 7.26336
      vertex 22.1869 -49 7.55364
    endloop
  endfacet
  facet normal 0 1 0
    outer loop
      vertex 23.5 -49 10
      vertex 22.6289 -49 6.94526
      vertex 22.4271 -49 7.26336
    endloop
  endfacet
  facet normal 0 1 0
    outer loop
      vertex 23.5 -49 10
      vertex 22.7893 -49 6.60437
      vertex 22.6289 -49 6.94526
    endloop
  endfacet
  facet normal 0 1 0
    outer loop
      vertex 23.5 -49 10
      vertex 22.9058 -49 6.24607
      vertex 22.7893 -49 6.60437
    endloop
  endfacet
  facet normal 0 1 0
    outer loop
      vertex 23.5 -49 10
      vertex 22.9763 -49 5.876
      vertex 22.9058 -49 6.24607
    endloop
  endfacet
  facet normal 0 1 0
    outer loop
      vertex 23.5 -49 10
      vertex 23 -49 5.5
      vertex 22.9763 -49 5.876
    endloop
  endfacet
  facet normal 0 1 -0
    outer loop
      vertex 23.5 -49 1
      vertex 23 -49 5.5
      vertex 23.5 -49 10
    endloop
  endfacet
  facet normal 0 1 0
    outer loop
      vertex 20.1884 -49 2.50592
      vertex 23.5 -49 1
      vertex 19.8116 -49 2.50592
    endloop
  endfacet
  facet normal 0 1 0
    outer loop
      vertex 20.5621 -49 2.55314
      vertex 23.5 -49 1
      vertex 20.1884 -49 2.50592
    endloop
  endfacet
  facet normal 0 1 0
    outer loop
      vertex 20.9271 -49 2.64683
      vertex 23.5 -49 1
      vertex 20.5621 -49 2.55314
    endloop
  endfacet
  facet normal 0 1 0
    outer loop
      vertex 21.2773 -49 2.78552
      vertex 23.5 -49 1
      vertex 20.9271 -49 2.64683
    endloop
  endfacet
  facet normal 0 1 0
    outer loop
      vertex 21.6075 -49 2.96702
      vertex 23.5 -49 1
      vertex 21.2773 -49 2.78552
    endloop
  endfacet
  facet normal 0 1 0
    outer loop
      vertex 21.9123 -49 3.18846
      vertex 23.5 -49 1
      vertex 21.6075 -49 2.96702
    endloop
  endfacet
  facet normal 0 1 0
    outer loop
      vertex 22.1869 -49 3.44636
      vertex 23.5 -49 1
      vertex 21.9123 -49 3.18846
    endloop
  endfacet
  facet normal 0 1 0
    outer loop
      vertex 22.4271 -49 3.73664
      vertex 23.5 -49 1
      vertex 22.1869 -49 3.44636
    endloop
  endfacet
  facet normal 0 1 0
    outer loop
      vertex 22.6289 -49 4.05474
      vertex 23.5 -49 1
      vertex 22.4271 -49 3.73664
    endloop
  endfacet
  facet normal 0 1 0
    outer loop
      vertex 22.7893 -49 4.39563
      vertex 23.5 -49 1
      vertex 22.6289 -49 4.05474
    endloop
  endfacet
  facet normal 0 1 0
    outer loop
      vertex 22.9058 -49 4.75393
      vertex 23.5 -49 1
      vertex 22.7893 -49 4.39563
    endloop
  endfacet
  facet normal 0 1 0
    outer loop
      vertex 22.9763 -49 5.124
      vertex 23.5 -49 1
      vertex 22.9058 -49 4.75393
    endloop
  endfacet
  facet normal 0 1 0
    outer loop
      vertex 23 -49 5.5
      vertex 23.5 -49 1
      vertex 22.9763 -49 5.124
    endloop
  endfacet
  facet normal 0 1 0
    outer loop
      vertex 49 -49 20
      vertex 0 -49 18
      vertex -49 -49 20
    endloop
  endfacet
  facet normal 0 1 0
    outer loop
      vertex 23.5 -49 10
      vertex 49 -49 20
      vertex 25.5 -49 10
    endloop
  endfacet
  facet normal 0 1 -0
    outer loop
      vertex 49 -49 1
      vertex 25.5 -49 10
      vertex 49 -49 20
    endloop
  endfacet
  facet normal 0 1 0
    outer loop
      vertex 25.5 -49 10
      vertex 49 -49 1
      vertex 25.5 -49 7
    endloop
  endfacet
  facet normal 0 1 0
    outer loop
      vertex 24.5 -49 1
      vertex 25.5 -49 7
      vertex 49 -49 1
    endloop
  endfacet
  facet normal 0 1 0
    outer loop
      vertex 25.5 -49 7
      vertex 24.5 -49 1
      vertex 24.5 -49 7
    endloop
  endfacet
  facet normal 0 1 -0
    outer loop
      vertex -1 -49 18
      vertex -49 -49 20
      vertex 0 -49 18
    endloop
  endfacet
  facet normal 0 1 0
    outer loop
      vertex -49 -49 1
      vertex -1 -49 18
      vertex -1 -49 1
    endloop
  endfacet
  facet normal 0 1 0
    outer loop
      vertex -1 -49 18
      vertex -49 -49 1
      vertex -49 -49 20
    endloop
  endfacet
  facet normal 0 1 0
    outer loop
      vertex 49 -49 20
      vertex 23.5 -49 10
      vertex 0 -49 18
    endloop
  endfacet
  facet normal 0 1 -0
    outer loop
      vertex 16.5 -49 10
      vertex 0 -49 18
      vertex 23.5 -49 10
    endloop
  endfacet
  facet normal 0 1 -0
    outer loop
      vertex 14.5 -49 10
      vertex 0 -49 18
      vertex 16.5 -49 10
    endloop
  endfacet
  facet normal 0 1 0
    outer loop
      vertex 0 -49 1
      vertex 14.5 -49 10
      vertex 14.5 -49 7
    endloop
  endfacet
  facet normal 0 1 0
    outer loop
      vertex 0 -49 1
      vertex 14.5 -49 7
      vertex 15.5 -49 1
    endloop
  endfacet
  facet normal 0 1 0
    outer loop
      vertex 14.5 -49 10
      vertex 0 -49 1
      vertex 0 -49 18
    endloop
  endfacet
  facet normal 0 1 -0
    outer loop
      vertex 19.8116 -49 8.49408
      vertex 16.5 -49 10
      vertex 20.1884 -49 8.49408
    endloop
  endfacet
  facet normal 0 1 -0
    outer loop
      vertex 19.4379 -49 8.44686
      vertex 16.5 -49 10
      vertex 19.8116 -49 8.49408
    endloop
  endfacet
  facet normal 0 1 -0
    outer loop
      vertex 19.0729 -49 8.35317
      vertex 16.5 -49 10
      vertex 19.4379 -49 8.44686
    endloop
  endfacet
  facet normal 0 1 -0
    outer loop
      vertex 18.7227 -49 8.21448
      vertex 16.5 -49 10
      vertex 19.0729 -49 8.35317
    endloop
  endfacet
  facet normal 0 1 -0
    outer loop
      vertex 18.3925 -49 8.03298
      vertex 16.5 -49 10
      vertex 18.7227 -49 8.21448
    endloop
  endfacet
  facet normal 0 1 -0
    outer loop
      vertex 18.0877 -49 7.81154
      vertex 16.5 -49 10
      vertex 18.3925 -49 8.03298
    endloop
  endfacet
  facet normal 0 1 -0
    outer loop
      vertex 17.8131 -49 7.55364
      vertex 16.5 -49 10
      vertex 18.0877 -49 7.81154
    endloop
  endfacet
  facet normal 0 1 -0
    outer loop
      vertex 17.5729 -49 7.26336
      vertex 16.5 -49 10
      vertex 17.8131 -49 7.55364
    endloop
  endfacet
  facet normal 0 1 -0
    outer loop
      vertex 17.3711 -49 6.94526
      vertex 16.5 -49 10
      vertex 17.5729 -49 7.26336
    endloop
  endfacet
  facet normal 0 1 -0
    outer loop
      vertex 17.2107 -49 6.60437
      vertex 16.5 -49 10
      vertex 17.3711 -49 6.94526
    endloop
  endfacet
  facet normal 0 1 -0
    outer loop
      vertex 17.0942 -49 6.24607
      vertex 16.5 -49 10
      vertex 17.2107 -49 6.60437
    endloop
  endfacet
  facet normal 0 1 -0
    outer loop
      vertex 17.0237 -49 5.876
      vertex 16.5 -49 10
      vertex 17.0942 -49 6.24607
    endloop
  endfacet
  facet normal 0 1 -0
    outer loop
      vertex 17 -49 5.5
      vertex 16.5 -49 10
      vertex 17.0237 -49 5.876
    endloop
  endfacet
  facet normal 0 1 0
    outer loop
      vertex 16.5 -49 1
      vertex 17 -49 5.5
      vertex 17.0237 -49 5.124
    endloop
  endfacet
  facet normal 0 1 0
    outer loop
      vertex 16.5 -49 1
      vertex 19.8116 -49 2.50592
      vertex 23.5 -49 1
    endloop
  endfacet
  facet normal 0 1 0
    outer loop
      vertex 19.8116 -49 2.50592
      vertex 16.5 -49 1
      vertex 19.4379 -49 2.55314
    endloop
  endfacet
  facet normal 0 1 0
    outer loop
      vertex 17 -49 5.5
      vertex 16.5 -49 1
      vertex 16.5 -49 10
    endloop
  endfacet
  facet normal 0 1 0
    outer loop
      vertex 17.0942 -49 4.75393
      vertex 16.5 -49 1
      vertex 17.0237 -49 5.124
    endloop
  endfacet
  facet normal 0 1 0
    outer loop
      vertex 17.2107 -49 4.39563
      vertex 16.5 -49 1
      vertex 17.0942 -49 4.75393
    endloop
  endfacet
  facet normal 0 1 0
    outer loop
      vertex 17.3711 -49 4.05474
      vertex 16.5 -49 1
      vertex 17.2107 -49 4.39563
    endloop
  endfacet
  facet normal 0 1 0
    outer loop
      vertex 17.5729 -49 3.73664
      vertex 16.5 -49 1
      vertex 17.3711 -49 4.05474
    endloop
  endfacet
  facet normal 0 1 0
    outer loop
      vertex 17.8131 -49 3.44636
      vertex 16.5 -49 1
      vertex 17.5729 -49 3.73664
    endloop
  endfacet
  facet normal 0 1 0
    outer loop
      vertex 18.0877 -49 3.18846
      vertex 16.5 -49 1
      vertex 17.8131 -49 3.44636
    endloop
  endfacet
  facet normal 0 1 0
    outer loop
      vertex 18.3925 -49 2.96702
      vertex 16.5 -49 1
      vertex 18.0877 -49 3.18846
    endloop
  endfacet
  facet normal 0 1 0
    outer loop
      vertex 18.7227 -49 2.78552
      vertex 16.5 -49 1
      vertex 18.3925 -49 2.96702
    endloop
  endfacet
  facet normal 0 1 0
    outer loop
      vertex 19.0729 -49 2.64683
      vertex 16.5 -49 1
      vertex 18.7227 -49 2.78552
    endloop
  endfacet
  facet normal 0 1 0
    outer loop
      vertex 19.4379 -49 2.55314
      vertex 16.5 -49 1
      vertex 19.0729 -49 2.64683
    endloop
  endfacet
  facet normal 0 1 0
    outer loop
      vertex 49 20 15
      vertex 44 20 3
      vertex 43 20 15
    endloop
  endfacet
  facet normal 0 1 -0
    outer loop
      vertex 49 20 1
      vertex 44 20 3
      vertex 49 20 15
    endloop
  endfacet
  facet normal 0 1 0
    outer loop
      vertex 44 20 3
      vertex 49 20 1
      vertex 44 20 1
    endloop
  endfacet
  facet normal 0 1 0
    outer loop
      vertex 43 20 15
      vertex 44 20 3
      vertex 43 20 3
    endloop
  endfacet
  facet normal -0 0 1
    outer loop
      vertex 43 -20 15
      vertex 49 -22 15
      vertex 49 -20 15
    endloop
  endfacet
  facet normal 0 0 1
    outer loop
      vertex 49 -22 15
      vertex 43 -20 15
      vertex 43 -22 15
    endloop
  endfacet
  facet normal 0 0 1
    outer loop
      vertex 49 20 15
      vertex 44.5 19 15
      vertex 49 19 15
    endloop
  endfacet
  facet normal -0 0 1
    outer loop
      vertex 43 20 15
      vertex 44.5 19 15
      vertex 49 20 15
    endloop
  endfacet
  facet normal 0 0 1
    outer loop
      vertex 43 -17 15
      vertex 44.5 19 15
      vertex 43 20 15
    endloop
  endfacet
  facet normal 0 0 1
    outer loop
      vertex 44.5 19 15
      vertex 43 -17 15
      vertex 44.5 -17 15
    endloop
  endfacet
  facet normal 0 0 -1
    outer loop
      vertex 43 -22 3
      vertex 44 20 3
      vertex 44 -22 3
    endloop
  endfacet
  facet normal -0 0 -1
    outer loop
      vertex 44 20 3
      vertex 43 -22 3
      vertex 43 20 3
    endloop
  endfacet
  facet normal 0 -1 0
    outer loop
      vertex 44 -22 3
      vertex 43 -22 15
      vertex 43 -22 3
    endloop
  endfacet
  facet normal 0 -1 0
    outer loop
      vertex 43 -22 15
      vertex 44 -22 3
      vertex 49 -22 15
    endloop
  endfacet
  facet normal 0 -1 0
    outer loop
      vertex 49 -22 1
      vertex 44 -22 3
      vertex 44 -22 1
    endloop
  endfacet
  facet normal 0 -1 0
    outer loop
      vertex 44 -22 3
      vertex 49 -22 1
      vertex 49 -22 15
    endloop
  endfacet
  facet normal -1 0 0
    outer loop
      vertex 43 20 3
      vertex 43 -17 4
      vertex 43 20 15
    endloop
  endfacet
  facet normal -1 0 0
    outer loop
      vertex 43 -22 3
      vertex 43 -17 4
      vertex 43 20 3
    endloop
  endfacet
  facet normal -1 -0 0
    outer loop
      vertex 43 -17 4
      vertex 43 -22 3
      vertex 43 -20 4
    endloop
  endfacet
  facet normal -1 0 0
    outer loop
      vertex 43 -22 15
      vertex 43 -20 4
      vertex 43 -22 3
    endloop
  endfacet
  facet normal -1 0 0
    outer loop
      vertex 43 -20 4
      vertex 43 -22 15
      vertex 43 -20 15
    endloop
  endfacet
  facet normal -1 -0 0
    outer loop
      vertex 43 20 15
      vertex 43 -17 4
      vertex 43 -17 15
    endloop
  endfacet
  facet normal 0 -1 0
    outer loop
      vertex 44.5 19 4
      vertex 49 19 15
      vertex 44.5 19 15
    endloop
  endfacet
  facet normal 0 -1 -0
    outer loop
      vertex 49 19 15
      vertex 44.5 19 4
      vertex 49 19 4
    endloop
  endfacet
  facet normal 0 0 1
    outer loop
      vertex 44.5 -17 4
      vertex 49 19 4
      vertex 44.5 19 4
    endloop
  endfacet
  facet normal 0 0 1
    outer loop
      vertex 49 19 4
      vertex 44.5 -17 4
      vertex 49 -20 4
    endloop
  endfacet
  facet normal 0 0 1
    outer loop
      vertex 43 -20 4
      vertex 44.5 -17 4
      vertex 43 -17 4
    endloop
  endfacet
  facet normal 0 0 1
    outer loop
      vertex 44.5 -17 4
      vertex 43 -20 4
      vertex 49 -20 4
    endloop
  endfacet
  facet normal 0 1 -0
    outer loop
      vertex 49 -20 4
      vertex 43 -20 15
      vertex 49 -20 15
    endloop
  endfacet
  facet normal 0 1 0
    outer loop
      vertex 43 -20 15
      vertex 49 -20 4
      vertex 43 -20 4
    endloop
  endfacet
  facet normal 1 -0 0
    outer loop
      vertex 44.5 -17 15
      vertex 44.5 19 4
      vertex 44.5 19 15
    endloop
  endfacet
  facet normal 1 0 0
    outer loop
      vertex 44.5 19 4
      vertex 44.5 -17 15
      vertex 44.5 -17 4
    endloop
  endfacet
  facet normal 0 -1 0
    outer loop
      vertex 43 -17 4
      vertex 44.5 -17 15
      vertex 43 -17 15
    endloop
  endfacet
  facet normal 0 -1 -0
    outer loop
      vertex 44.5 -17 15
      vertex 43 -17 4
      vertex 44.5 -17 4
    endloop
  endfacet
  facet normal -0 0 1
    outer loop
      vertex 19.8116 -49 2.50592
      vertex 20.1884 -50 2.50592
      vertex 20.1884 -49 2.50592
    endloop
  endfacet
  facet normal 0 0 1
    outer loop
      vertex 20.1884 -50 2.50592
      vertex 19.8116 -49 2.50592
      vertex 19.8116 -50 2.50592
    endloop
  endfacet
  facet normal 0.248625 0 -0.9686
    outer loop
      vertex 19.0729 -50 8.35317
      vertex 19.4379 -49 8.44686
      vertex 19.4379 -50 8.44686
    endloop
  endfacet
  facet normal 0.248625 0 -0.9686
    outer loop
      vertex 19.4379 -49 8.44686
      vertex 19.0729 -50 8.35317
      vertex 19.0729 -49 8.35317
    endloop
  endfacet
  facet normal -0.982333 0 -0.187139
    outer loop
      vertex 22.9763 -50 5.876
      vertex 22.9058 -49 6.24607
      vertex 22.9763 -49 5.876
    endloop
  endfacet
  facet normal -0.982333 -0 -0.187139
    outer loop
      vertex 22.9058 -49 6.24607
      vertex 22.9763 -50 5.876
      vertex 22.9058 -50 6.24607
    endloop
  endfacet
  facet normal -0.998019 0 -0.0629071
    outer loop
      vertex 23 -50 5.5
      vertex 22.9763 -49 5.876
      vertex 23 -49 5.5
    endloop
  endfacet
  facet normal -0.998019 -0 -0.0629071
    outer loop
      vertex 22.9763 -49 5.876
      vertex 23 -50 5.5
      vertex 22.9763 -50 5.876
    endloop
  endfacet
  facet normal 0.844415 -0 0.53569
    outer loop
      vertex 17.3711 -50 4.05474
      vertex 17.5729 -49 3.73664
      vertex 17.3711 -49 4.05474
    endloop
  endfacet
  facet normal 0.844415 0 0.53569
    outer loop
      vertex 17.5729 -49 3.73664
      vertex 17.3711 -50 4.05474
      vertex 17.5729 -50 3.73664
    endloop
  endfacet
  facet normal -0.368207 0 -0.929744
    outer loop
      vertex 20.9271 -50 8.35317
      vertex 21.2773 -49 8.21448
      vertex 21.2773 -50 8.21448
    endloop
  endfacet
  facet normal -0.368207 0 -0.929744
    outer loop
      vertex 21.2773 -49 8.21448
      vertex 20.9271 -50 8.35317
      vertex 20.9271 -49 8.35317
    endloop
  endfacet
  facet normal -0.684594 0 -0.728924
    outer loop
      vertex 21.9123 -50 7.81154
      vertex 22.1869 -49 7.55364
      vertex 22.1869 -50 7.55364
    endloop
  endfacet
  facet normal -0.684594 0 -0.728924
    outer loop
      vertex 22.1869 -49 7.55364
      vertex 21.9123 -50 7.81154
      vertex 21.9123 -49 7.81154
    endloop
  endfacet
  facet normal -0.587768 0 -0.80903
    outer loop
      vertex 21.6075 -50 8.03298
      vertex 21.9123 -49 7.81154
      vertex 21.9123 -50 7.81154
    endloop
  endfacet
  facet normal -0.587768 0 -0.80903
    outer loop
      vertex 21.9123 -49 7.81154
      vertex 21.6075 -50 8.03298
      vertex 21.6075 -49 8.03298
    endloop
  endfacet
  facet normal 0.368207 0 -0.929744
    outer loop
      vertex 18.7227 -50 8.21448
      vertex 19.0729 -49 8.35317
      vertex 19.0729 -50 8.35317
    endloop
  endfacet
  facet normal 0.368207 0 -0.929744
    outer loop
      vertex 19.0729 -49 8.35317
      vertex 18.7227 -50 8.21448
      vertex 18.7227 -49 8.21448
    endloop
  endfacet
  facet normal -0.844415 0 -0.53569
    outer loop
      vertex 22.6289 -50 6.94526
      vertex 22.4271 -49 7.26336
      vertex 22.6289 -49 6.94526
    endloop
  endfacet
  facet normal -0.844415 -0 -0.53569
    outer loop
      vertex 22.4271 -49 7.26336
      vertex 22.6289 -50 6.94526
      vertex 22.4271 -50 7.26336
    endloop
  endfacet
  facet normal 0.982333 -0 0.187139
    outer loop
      vertex 17.0237 -50 5.124
      vertex 17.0942 -49 4.75393
      vertex 17.0237 -49 5.124
    endloop
  endfacet
  facet normal 0.982333 0 0.187139
    outer loop
      vertex 17.0942 -49 4.75393
      vertex 17.0237 -50 5.124
      vertex 17.0942 -50 4.75393
    endloop
  endfacet
  facet normal 0.368207 0 0.929744
    outer loop
      vertex 18.7227 -49 2.78552
      vertex 19.0729 -50 2.64683
      vertex 19.0729 -49 2.64683
    endloop
  endfacet
  facet normal 0.368207 0 0.929744
    outer loop
      vertex 19.0729 -50 2.64683
      vertex 18.7227 -49 2.78552
      vertex 18.7227 -50 2.78552
    endloop
  endfacet
  facet normal -0.844415 0 0.53569
    outer loop
      vertex 22.4271 -50 3.73664
      vertex 22.6289 -49 4.05474
      vertex 22.4271 -49 3.73664
    endloop
  endfacet
  facet normal -0.844415 0 0.53569
    outer loop
      vertex 22.6289 -49 4.05474
      vertex 22.4271 -50 3.73664
      vertex 22.6289 -50 4.05474
    endloop
  endfacet
  facet normal 0.125361 0 -0.992111
    outer loop
      vertex 19.4379 -50 8.44686
      vertex 19.8116 -49 8.49408
      vertex 19.8116 -50 8.49408
    endloop
  endfacet
  facet normal 0.125361 0 -0.992111
    outer loop
      vertex 19.8116 -49 8.49408
      vertex 19.4379 -50 8.44686
      vertex 19.4379 -49 8.44686
    endloop
  endfacet
  facet normal 0.684594 0 0.728924
    outer loop
      vertex 17.8131 -49 3.44636
      vertex 18.0877 -50 3.18846
      vertex 18.0877 -49 3.18846
    endloop
  endfacet
  facet normal 0.684594 0 0.728924
    outer loop
      vertex 18.0877 -50 3.18846
      vertex 17.8131 -49 3.44636
      vertex 17.8131 -50 3.44636
    endloop
  endfacet
  facet normal 0.684594 0 -0.728924
    outer loop
      vertex 17.8131 -50 7.55364
      vertex 18.0877 -49 7.81154
      vertex 18.0877 -50 7.81154
    endloop
  endfacet
  facet normal 0.684594 0 -0.728924
    outer loop
      vertex 18.0877 -49 7.81154
      vertex 17.8131 -50 7.55364
      vertex 17.8131 -49 7.55364
    endloop
  endfacet
  facet normal -0.950993 0 -0.309212
    outer loop
      vertex 22.9058 -50 6.24607
      vertex 22.7893 -49 6.60437
      vertex 22.9058 -49 6.24607
    endloop
  endfacet
  facet normal -0.950993 -0 -0.309212
    outer loop
      vertex 22.7893 -49 6.60437
      vertex 22.9058 -50 6.24607
      vertex 22.7893 -50 6.60437
    endloop
  endfacet
  facet normal 0.481695 0 -0.876339
    outer loop
      vertex 18.3925 -50 8.03298
      vertex 18.7227 -49 8.21448
      vertex 18.7227 -50 8.21448
    endloop
  endfacet
  facet normal 0.481695 0 -0.876339
    outer loop
      vertex 18.7227 -49 8.21448
      vertex 18.3925 -50 8.03298
      vertex 18.3925 -49 8.03298
    endloop
  endfacet
  facet normal -0.368207 0 0.929744
    outer loop
      vertex 20.9271 -49 2.64683
      vertex 21.2773 -50 2.78552
      vertex 21.2773 -49 2.78552
    endloop
  endfacet
  facet normal -0.368207 0 0.929744
    outer loop
      vertex 21.2773 -50 2.78552
      vertex 20.9271 -49 2.64683
      vertex 20.9271 -50 2.64683
    endloop
  endfacet
  facet normal 0.998019 0 -0.0629071
    outer loop
      vertex 17.0237 -50 5.876
      vertex 17 -49 5.5
      vertex 17.0237 -49 5.876
    endloop
  endfacet
  facet normal 0.998019 0 -0.0629071
    outer loop
      vertex 17 -49 5.5
      vertex 17.0237 -50 5.876
      vertex 17 -50 5.5
    endloop
  endfacet
  facet normal -0.481695 0 0.876339
    outer loop
      vertex 21.2773 -49 2.78552
      vertex 21.6075 -50 2.96702
      vertex 21.6075 -49 2.96702
    endloop
  endfacet
  facet normal -0.481695 0 0.876339
    outer loop
      vertex 21.6075 -50 2.96702
      vertex 21.2773 -49 2.78552
      vertex 21.2773 -50 2.78552
    endloop
  endfacet
  facet normal -0.587768 0 0.80903
    outer loop
      vertex 21.6075 -49 2.96702
      vertex 21.9123 -50 3.18846
      vertex 21.9123 -49 3.18846
    endloop
  endfacet
  facet normal -0.587768 0 0.80903
    outer loop
      vertex 21.9123 -50 3.18846
      vertex 21.6075 -49 2.96702
      vertex 21.6075 -50 2.96702
    endloop
  endfacet
  facet normal 0.587768 0 0.80903
    outer loop
      vertex 18.0877 -49 3.18846
      vertex 18.3925 -50 2.96702
      vertex 18.3925 -49 2.96702
    endloop
  endfacet
  facet normal 0.587768 0 0.80903
    outer loop
      vertex 18.3925 -50 2.96702
      vertex 18.0877 -49 3.18846
      vertex 18.0877 -50 3.18846
    endloop
  endfacet
  facet normal 0.248625 0 0.9686
    outer loop
      vertex 19.0729 -49 2.64683
      vertex 19.4379 -50 2.55314
      vertex 19.4379 -49 2.55314
    endloop
  endfacet
  facet normal 0.248625 0 0.9686
    outer loop
      vertex 19.4379 -50 2.55314
      vertex 19.0729 -49 2.64683
      vertex 19.0729 -50 2.64683
    endloop
  endfacet
  facet normal 0.904838 0 -0.425756
    outer loop
      vertex 17.3711 -50 6.94526
      vertex 17.2107 -49 6.60437
      vertex 17.3711 -49 6.94526
    endloop
  endfacet
  facet normal 0.904838 0 -0.425756
    outer loop
      vertex 17.2107 -49 6.60437
      vertex 17.3711 -50 6.94526
      vertex 17.2107 -50 6.60437
    endloop
  endfacet
  facet normal -0.684594 0 0.728924
    outer loop
      vertex 21.9123 -49 3.18846
      vertex 22.1869 -50 3.44636
      vertex 22.1869 -49 3.44636
    endloop
  endfacet
  facet normal -0.684594 0 0.728924
    outer loop
      vertex 22.1869 -50 3.44636
      vertex 21.9123 -49 3.18846
      vertex 21.9123 -50 3.18846
    endloop
  endfacet
  facet normal 0.950993 -0 0.309212
    outer loop
      vertex 17.0942 -50 4.75393
      vertex 17.2107 -49 4.39563
      vertex 17.0942 -49 4.75393
    endloop
  endfacet
  facet normal 0.950993 0 0.309212
    outer loop
      vertex 17.2107 -49 4.39563
      vertex 17.0942 -50 4.75393
      vertex 17.2107 -50 4.39563
    endloop
  endfacet
  facet normal 0 0 -1
    outer loop
      vertex 19.8116 -50 8.49408
      vertex 20.1884 -49 8.49408
      vertex 20.1884 -50 8.49408
    endloop
  endfacet
  facet normal -0 0 -1
    outer loop
      vertex 20.1884 -49 8.49408
      vertex 19.8116 -50 8.49408
      vertex 19.8116 -49 8.49408
    endloop
  endfacet
  facet normal 0.587768 0 -0.80903
    outer loop
      vertex 18.0877 -50 7.81154
      vertex 18.3925 -49 8.03298
      vertex 18.3925 -50 8.03298
    endloop
  endfacet
  facet normal 0.587768 0 -0.80903
    outer loop
      vertex 18.3925 -49 8.03298
      vertex 18.0877 -50 7.81154
      vertex 18.0877 -49 7.81154
    endloop
  endfacet
  facet normal -0.950993 0 0.309212
    outer loop
      vertex 22.7893 -50 4.39563
      vertex 22.9058 -49 4.75393
      vertex 22.7893 -49 4.39563
    endloop
  endfacet
  facet normal -0.950993 0 0.309212
    outer loop
      vertex 22.9058 -49 4.75393
      vertex 22.7893 -50 4.39563
      vertex 22.9058 -50 4.75393
    endloop
  endfacet
  facet normal 0.904838 -0 0.425756
    outer loop
      vertex 17.2107 -50 4.39563
      vertex 17.3711 -49 4.05474
      vertex 17.2107 -49 4.39563
    endloop
  endfacet
  facet normal 0.904838 0 0.425756
    outer loop
      vertex 17.3711 -49 4.05474
      vertex 17.2107 -50 4.39563
      vertex 17.3711 -50 4.05474
    endloop
  endfacet
  facet normal 0.844415 0 -0.53569
    outer loop
      vertex 17.5729 -50 7.26336
      vertex 17.3711 -49 6.94526
      vertex 17.5729 -49 7.26336
    endloop
  endfacet
  facet normal 0.844415 0 -0.53569
    outer loop
      vertex 17.3711 -49 6.94526
      vertex 17.5729 -50 7.26336
      vertex 17.3711 -50 6.94526
    endloop
  endfacet
  facet normal -0.982333 0 0.187139
    outer loop
      vertex 22.9058 -50 4.75393
      vertex 22.9763 -49 5.124
      vertex 22.9058 -49 4.75393
    endloop
  endfacet
  facet normal -0.982333 0 0.187139
    outer loop
      vertex 22.9763 -49 5.124
      vertex 22.9058 -50 4.75393
      vertex 22.9763 -50 5.124
    endloop
  endfacet
  facet normal -0.904838 0 0.425756
    outer loop
      vertex 22.6289 -50 4.05474
      vertex 22.7893 -49 4.39563
      vertex 22.6289 -49 4.05474
    endloop
  endfacet
  facet normal -0.904838 0 0.425756
    outer loop
      vertex 22.7893 -49 4.39563
      vertex 22.6289 -50 4.05474
      vertex 22.7893 -50 4.39563
    endloop
  endfacet
  facet normal -0.904838 0 -0.425756
    outer loop
      vertex 22.7893 -50 6.60437
      vertex 22.6289 -49 6.94526
      vertex 22.7893 -49 6.60437
    endloop
  endfacet
  facet normal -0.904838 -0 -0.425756
    outer loop
      vertex 22.6289 -49 6.94526
      vertex 22.7893 -50 6.60437
      vertex 22.6289 -50 6.94526
    endloop
  endfacet
  facet normal -0.248625 0 0.9686
    outer loop
      vertex 20.5621 -49 2.55314
      vertex 20.9271 -50 2.64683
      vertex 20.9271 -49 2.64683
    endloop
  endfacet
  facet normal -0.248625 0 0.9686
    outer loop
      vertex 20.9271 -50 2.64683
      vertex 20.5621 -49 2.55314
      vertex 20.5621 -50 2.55314
    endloop
  endfacet
  facet normal -0.998019 0 0.0629071
    outer loop
      vertex 22.9763 -50 5.124
      vertex 23 -49 5.5
      vertex 22.9763 -49 5.124
    endloop
  endfacet
  facet normal -0.998019 0 0.0629071
    outer loop
      vertex 23 -49 5.5
      vertex 22.9763 -50 5.124
      vertex 23 -50 5.5
    endloop
  endfacet
  facet normal -0.481695 0 -0.876339
    outer loop
      vertex 21.2773 -50 8.21448
      vertex 21.6075 -49 8.03298
      vertex 21.6075 -50 8.03298
    endloop
  endfacet
  facet normal -0.481695 0 -0.876339
    outer loop
      vertex 21.6075 -49 8.03298
      vertex 21.2773 -50 8.21448
      vertex 21.2773 -49 8.21448
    endloop
  endfacet
  facet normal 0.770436 0 -0.637518
    outer loop
      vertex 17.8131 -50 7.55364
      vertex 17.5729 -49 7.26336
      vertex 17.8131 -49 7.55364
    endloop
  endfacet
  facet normal 0.770436 0 -0.637518
    outer loop
      vertex 17.5729 -49 7.26336
      vertex 17.8131 -50 7.55364
      vertex 17.5729 -50 7.26336
    endloop
  endfacet
  facet normal -0.770436 0 -0.637518
    outer loop
      vertex 22.4271 -50 7.26336
      vertex 22.1869 -49 7.55364
      vertex 22.4271 -49 7.26336
    endloop
  endfacet
  facet normal -0.770436 -0 -0.637518
    outer loop
      vertex 22.1869 -49 7.55364
      vertex 22.4271 -50 7.26336
      vertex 22.1869 -50 7.55364
    endloop
  endfacet
  facet normal -0.125361 0 0.992111
    outer loop
      vertex 20.1884 -49 2.50592
      vertex 20.5621 -50 2.55314
      vertex 20.5621 -49 2.55314
    endloop
  endfacet
  facet normal -0.125361 0 0.992111
    outer loop
      vertex 20.5621 -50 2.55314
      vertex 20.1884 -49 2.50592
      vertex 20.1884 -50 2.50592
    endloop
  endfacet
  facet normal 0.998019 -0 0.0629071
    outer loop
      vertex 17 -50 5.5
      vertex 17.0237 -49 5.124
      vertex 17 -49 5.5
    endloop
  endfacet
  facet normal 0.998019 0 0.0629071
    outer loop
      vertex 17.0237 -49 5.124
      vertex 17 -50 5.5
      vertex 17.0237 -50 5.124
    endloop
  endfacet
  facet normal -0.770436 0 0.637518
    outer loop
      vertex 22.1869 -50 3.44636
      vertex 22.4271 -49 3.73664
      vertex 22.1869 -49 3.44636
    endloop
  endfacet
  facet normal -0.770436 0 0.637518
    outer loop
      vertex 22.4271 -49 3.73664
      vertex 22.1869 -50 3.44636
      vertex 22.4271 -50 3.73664
    endloop
  endfacet
  facet normal -0.125361 0 -0.992111
    outer loop
      vertex 20.1884 -50 8.49408
      vertex 20.5621 -49 8.44686
      vertex 20.5621 -50 8.44686
    endloop
  endfacet
  facet normal -0.125361 0 -0.992111
    outer loop
      vertex 20.5621 -49 8.44686
      vertex 20.1884 -50 8.49408
      vertex 20.1884 -49 8.49408
    endloop
  endfacet
  facet normal -0.248625 0 -0.9686
    outer loop
      vertex 20.5621 -50 8.44686
      vertex 20.9271 -49 8.35317
      vertex 20.9271 -50 8.35317
    endloop
  endfacet
  facet normal -0.248625 0 -0.9686
    outer loop
      vertex 20.9271 -49 8.35317
      vertex 20.5621 -50 8.44686
      vertex 20.5621 -49 8.44686
    endloop
  endfacet
  facet normal 0.982333 0 -0.187139
    outer loop
      vertex 17.0942 -50 6.24607
      vertex 17.0237 -49 5.876
      vertex 17.0942 -49 6.24607
    endloop
  endfacet
  facet normal 0.982333 0 -0.187139
    outer loop
      vertex 17.0237 -49 5.876
      vertex 17.0942 -50 6.24607
      vertex 17.0237 -50 5.876
    endloop
  endfacet
  facet normal 0.770436 -0 0.637518
    outer loop
      vertex 17.5729 -50 3.73664
      vertex 17.8131 -49 3.44636
      vertex 17.5729 -49 3.73664
    endloop
  endfacet
  facet normal 0.770436 0 0.637518
    outer loop
      vertex 17.8131 -49 3.44636
      vertex 17.5729 -50 3.73664
      vertex 17.8131 -50 3.44636
    endloop
  endfacet
  facet normal 0.125361 0 0.992111
    outer loop
      vertex 19.4379 -49 2.55314
      vertex 19.8116 -50 2.50592
      vertex 19.8116 -49 2.50592
    endloop
  endfacet
  facet normal 0.125361 0 0.992111
    outer loop
      vertex 19.8116 -50 2.50592
      vertex 19.4379 -49 2.55314
      vertex 19.4379 -50 2.55314
    endloop
  endfacet
  facet normal 0.950993 0 -0.309212
    outer loop
      vertex 17.2107 -50 6.60437
      vertex 17.0942 -49 6.24607
      vertex 17.2107 -49 6.60437
    endloop
  endfacet
  facet normal 0.950993 0 -0.309212
    outer loop
      vertex 17.0942 -49 6.24607
      vertex 17.2107 -50 6.60437
      vertex 17.0942 -50 6.24607
    endloop
  endfacet
  facet normal 0.481695 0 0.876339
    outer loop
      vertex 18.3925 -49 2.96702
      vertex 18.7227 -50 2.78552
      vertex 18.7227 -49 2.78552
    endloop
  endfacet
  facet normal 0.481695 0 0.876339
    outer loop
      vertex 18.7227 -50 2.78552
      vertex 18.3925 -49 2.96702
      vertex 18.3925 -50 2.96702
    endloop
  endfacet
  facet normal 0 0 -1
    outer loop
      vertex 49 -13 13
      vertex 50 15 13
      vertex 50 -13 13
    endloop
  endfacet
  facet normal -0 0 -1
    outer loop
      vertex 50 15 13
      vertex 49 -13 13
      vertex 49 15 13
    endloop
  endfacet
  facet normal 0 1 -0
    outer loop
      vertex 50 -13 5
      vertex 49 -13 13
      vertex 50 -13 13
    endloop
  endfacet
  facet normal 0 1 0
    outer loop
      vertex 49 -13 13
      vertex 50 -13 5
      vertex 49 -13 5
    endloop
  endfacet
  facet normal -0 0 1
    outer loop
      vertex 49 15 5
      vertex 50 -13 5
      vertex 50 15 5
    endloop
  endfacet
  facet normal 0 0 1
    outer loop
      vertex 50 -13 5
      vertex 49 15 5
      vertex 49 -13 5
    endloop
  endfacet
  facet normal 0 -1 0
    outer loop
      vertex 49 15 5
      vertex 50 15 13
      vertex 49 15 13
    endloop
  endfacet
  facet normal 0 -1 -0
    outer loop
      vertex 50 15 13
      vertex 49 15 5
      vertex 50 15 5
    endloop
  endfacet
  facet normal 0 0 1
    outer loop
      vertex 0 10 18
      vertex -1 9 18
      vertex 0 -49 18
    endloop
  endfacet
  facet normal -0 0 1
    outer loop
      vertex -49 10 18
      vertex -1 9 18
      vertex 0 10 18
    endloop
  endfacet
  facet normal 0 0 1
    outer loop
      vertex -1 9 18
      vertex -49 10 18
      vertex -49 9 18
    endloop
  endfacet
  facet normal 0 0 1
    outer loop
      vertex 0 -49 18
      vertex -1 9 18
      vertex -1 -49 18
    endloop
  endfacet
  facet normal 0 1 0
    outer loop
      vertex -24 10 8
      vertex 0 10 18
      vertex -14 10 8
    endloop
  endfacet
  facet normal 0 1 -0
    outer loop
      vertex 0 10 1
      vertex -14 10 8
      vertex 0 10 18
    endloop
  endfacet
  facet normal 0 1 0
    outer loop
      vertex -14 10 8
      vertex 0 10 1
      vertex -14 10 1
    endloop
  endfacet
  facet normal 0 1 0
    outer loop
      vertex 0 10 18
      vertex -24 10 8
      vertex -49 10 18
    endloop
  endfacet
  facet normal 0 1 0
    outer loop
      vertex -49 10 1
      vertex -24 10 8
      vertex -24 10 1
    endloop
  endfacet
  facet normal 0 1 0
    outer loop
      vertex -24 10 8
      vertex -49 10 1
      vertex -49 10 18
    endloop
  endfacet
  facet normal 1 -0 0
    outer loop
      vertex 0 -49 18
      vertex 0 10 1
      vertex 0 10 18
    endloop
  endfacet
  facet normal 1 0 0
    outer loop
      vertex 0 10 1
      vertex 0 -49 18
      vertex 0 -49 1
    endloop
  endfacet
  facet normal 0 -1 0
    outer loop
      vertex -49 9 18
      vertex -24 9 8
      vertex -1 9 18
    endloop
  endfacet
  facet normal 0 -1 0
    outer loop
      vertex -49 9 1
      vertex -24 9 8
      vertex -49 9 18
    endloop
  endfacet
  facet normal 0 -1 -0
    outer loop
      vertex -24 9 8
      vertex -49 9 1
      vertex -24 9 1
    endloop
  endfacet
  facet normal 0 -1 0
    outer loop
      vertex -14 9 8
      vertex -1 9 18
      vertex -24 9 8
    endloop
  endfacet
  facet normal 0 -1 0
    outer loop
      vertex -1 9 1
      vertex -14 9 8
      vertex -14 9 1
    endloop
  endfacet
  facet normal 0 -1 0
    outer loop
      vertex -14 9 8
      vertex -1 9 1
      vertex -1 9 18
    endloop
  endfacet
  facet normal -1 0 0
    outer loop
      vertex -1 -49 1
      vertex -1 9 18
      vertex -1 9 1
    endloop
  endfacet
  facet normal -1 -0 0
    outer loop
      vertex -1 9 18
      vertex -1 -49 1
      vertex -1 -49 18
    endloop
  endfacet
  facet normal 0 0 -1
    outer loop
      vertex -24 9 8
      vertex -14 10 8
      vertex -14 9 8
    endloop
  endfacet
  facet normal -0 0 -1
    outer loop
      vertex -14 10 8
      vertex -24 9 8
      vertex -24 10 8
    endloop
  endfacet
  facet normal -1 0 0
    outer loop
      vertex -14 9 1
      vertex -14 10 8
      vertex -14 10 1
    endloop
  endfacet
  facet normal -1 -0 0
    outer loop
      vertex -14 10 8
      vertex -14 9 1
      vertex -14 9 8
    endloop
  endfacet
  facet normal 1 -0 0
    outer loop
      vertex -24 9 8
      vertex -24 10 1
      vertex -24 10 8
    endloop
  endfacet
  facet normal 1 0 0
    outer loop
      vertex -24 10 1
      vertex -24 9 8
      vertex -24 9 1
    endloop
  endfacet
  facet normal 1 0 0
    outer loop
      vertex 25.5 -41 10
      vertex 25.5 -43.6 7
      vertex 25.5 -41 2
    endloop
  endfacet
  facet normal 1 -0 0
    outer loop
      vertex 25.5 -49 10
      vertex 25.5 -43.6 7
      vertex 25.5 -41 10
    endloop
  endfacet
  facet normal 1 0 0
    outer loop
      vertex 25.5 -43.6 7
      vertex 25.5 -49 10
      vertex 25.5 -49 7
    endloop
  endfacet
  facet normal 1 -0 0
    outer loop
      vertex 25.5 -41 2
      vertex 25.5 -40 1
      vertex 25.5 -40 2
    endloop
  endfacet
  facet normal 1 0 0
    outer loop
      vertex 25.5 -41 2
      vertex 25.5 -43.6 1
      vertex 25.5 -40 1
    endloop
  endfacet
  facet normal 1 0 0
    outer loop
      vertex 25.5 -43.6 1
      vertex 25.5 -41 2
      vertex 25.5 -43.6 7
    endloop
  endfacet
  facet normal -0 0 1
    outer loop
      vertex 14.5 -41 10
      vertex 16.5 -49 10
      vertex 16.5 -41 10
    endloop
  endfacet
  facet normal 0 0 1
    outer loop
      vertex 16.5 -49 10
      vertex 14.5 -41 10
      vertex 14.5 -49 10
    endloop
  endfacet
  facet normal -0 0 1
    outer loop
      vertex 23.5 -41 10
      vertex 25.5 -49 10
      vertex 25.5 -41 10
    endloop
  endfacet
  facet normal 0 0 1
    outer loop
      vertex 25.5 -49 10
      vertex 23.5 -41 10
      vertex 23.5 -49 10
    endloop
  endfacet
  facet normal -1 0 0
    outer loop
      vertex 14.5 -40 1
      vertex 14.5 -41 2
      vertex 14.5 -40 2
    endloop
  endfacet
  facet normal -1 0 0
    outer loop
      vertex 14.5 -43.6 1
      vertex 14.5 -41 2
      vertex 14.5 -40 1
    endloop
  endfacet
  facet normal -1 0 0
    outer loop
      vertex 14.5 -43.6 7
      vertex 14.5 -41 2
      vertex 14.5 -43.6 1
    endloop
  endfacet
  facet normal -1 0 0
    outer loop
      vertex 14.5 -41 2
      vertex 14.5 -43.6 7
      vertex 14.5 -41 10
    endloop
  endfacet
  facet normal -1 0 0
    outer loop
      vertex 14.5 -49 10
      vertex 14.5 -43.6 7
      vertex 14.5 -49 7
    endloop
  endfacet
  facet normal -1 0 0
    outer loop
      vertex 14.5 -43.6 7
      vertex 14.5 -49 10
      vertex 14.5 -41 10
    endloop
  endfacet
  facet normal 0 1 -0
    outer loop
      vertex 16.5 -41 2
      vertex 14.5 -41 10
      vertex 16.5 -41 10
    endloop
  endfacet
  facet normal 0 1 0
    outer loop
      vertex 14.5 -41 10
      vertex 16.5 -41 2
      vertex 14.5 -41 2
    endloop
  endfacet
  facet normal 0 1 -0
    outer loop
      vertex 25.5 -41 2
      vertex 23.5 -41 10
      vertex 25.5 -41 10
    endloop
  endfacet
  facet normal 0 1 0
    outer loop
      vertex 23.5 -41 10
      vertex 25.5 -41 2
      vertex 23.5 -41 2
    endloop
  endfacet
  facet normal 0 -1 0
    outer loop
      vertex 16.5 -41 1
      vertex 18.9 -41 2
      vertex 16.5 -41 2
    endloop
  endfacet
  facet normal 0 -1 -0
    outer loop
      vertex 18.9 -41 2
      vertex 16.5 -41 1
      vertex 18.9 -41 1
    endloop
  endfacet
  facet normal 0 -1 0
    outer loop
      vertex 21.1 -41 1
      vertex 23.5 -41 2
      vertex 21.1 -41 2
    endloop
  endfacet
  facet normal 0 -1 -0
    outer loop
      vertex 23.5 -41 2
      vertex 21.1 -41 1
      vertex 23.5 -41 1
    endloop
  endfacet
  facet normal 0 0 1
    outer loop
      vertex 18.9 -40 2
      vertex 16.5 -40.5 2
      vertex 18.9 -40.5 2
    endloop
  endfacet
  facet normal -0 0 1
    outer loop
      vertex 14.5 -40 2
      vertex 16.5 -40.5 2
      vertex 18.9 -40 2
    endloop
  endfacet
  facet normal 0 0 1
    outer loop
      vertex 14.5 -41 2
      vertex 16.5 -40.5 2
      vertex 14.5 -40 2
    endloop
  endfacet
  facet normal 0 0 1
    outer loop
      vertex 16.5 -40.5 2
      vertex 14.5 -41 2
      vertex 16.5 -41 2
    endloop
  endfacet
  facet normal 0 0 1
    outer loop
      vertex 25.5 -40 2
      vertex 23.5 -40.5 2
      vertex 25.5 -41 2
    endloop
  endfacet
  facet normal -0 0 1
    outer loop
      vertex 21.1 -40 2
      vertex 23.5 -40.5 2
      vertex 25.5 -40 2
    endloop
  endfacet
  facet normal 0 0 1
    outer loop
      vertex 23.5 -40.5 2
      vertex 21.1 -40 2
      vertex 21.1 -40.5 2
    endloop
  endfacet
  facet normal 0 0 1
    outer loop
      vertex 25.5 -41 2
      vertex 23.5 -40.5 2
      vertex 23.5 -41 2
    endloop
  endfacet
  facet normal -0 0 1
    outer loop
      vertex 16.5 -40.5 2
      vertex 18.9 -41 2
      vertex 18.9 -40.5 2
    endloop
  endfacet
  facet normal 0 0 1
    outer loop
      vertex 18.9 -41 2
      vertex 16.5 -40.5 2
      vertex 16.5 -41 2
    endloop
  endfacet
  facet normal -0 0 1
    outer loop
      vertex 21.1 -40.5 2
      vertex 23.5 -41 2
      vertex 23.5 -40.5 2
    endloop
  endfacet
  facet normal 0 0 1
    outer loop
      vertex 23.5 -41 2
      vertex 21.1 -40.5 2
      vertex 21.1 -41 2
    endloop
  endfacet
  facet normal 0 1 -0
    outer loop
      vertex 18.9 -40 1
      vertex 14.5 -40 2
      vertex 18.9 -40 2
    endloop
  endfacet
  facet normal 0 1 0
    outer loop
      vertex 14.5 -40 2
      vertex 18.9 -40 1
      vertex 14.5 -40 1
    endloop
  endfacet
  facet normal 0 1 -0
    outer loop
      vertex 25.5 -40 1
      vertex 21.1 -40 2
      vertex 25.5 -40 2
    endloop
  endfacet
  facet normal 0 1 0
    outer loop
      vertex 21.1 -40 2
      vertex 25.5 -40 1
      vertex 21.1 -40 1
    endloop
  endfacet
  facet normal 0 0 -1
    outer loop
      vertex 24.5 -49 7
      vertex 25.5 -43.6 7
      vertex 25.5 -49 7
    endloop
  endfacet
  facet normal -0 0 -1
    outer loop
      vertex 25.5 -43.6 7
      vertex 24.5 -49 7
      vertex 24.5 -43.6 7
    endloop
  endfacet
  facet normal 1 -0 0
    outer loop
      vertex 24.5 -49 7
      vertex 24.5 -43.6 1
      vertex 24.5 -43.6 7
    endloop
  endfacet
  facet normal 1 0 0
    outer loop
      vertex 24.5 -43.6 1
      vertex 24.5 -49 7
      vertex 24.5 -49 1
    endloop
  endfacet
  facet normal 0 -1 0
    outer loop
      vertex 24.5 -43.6 1
      vertex 25.5 -43.6 7
      vertex 24.5 -43.6 7
    endloop
  endfacet
  facet normal 0 -1 -0
    outer loop
      vertex 25.5 -43.6 7
      vertex 24.5 -43.6 1
      vertex 25.5 -43.6 1
    endloop
  endfacet
  facet normal -1 0 0
    outer loop
      vertex 15.5 -49 1
      vertex 15.5 -43.6 7
      vertex 15.5 -43.6 1
    endloop
  endfacet
  facet normal -1 -0 0
    outer loop
      vertex 15.5 -43.6 7
      vertex 15.5 -49 1
      vertex 15.5 -49 7
    endloop
  endfacet
  facet normal 0 0 -1
    outer loop
      vertex 14.5 -49 7
      vertex 15.5 -43.6 7
      vertex 15.5 -49 7
    endloop
  endfacet
  facet normal -0 0 -1
    outer loop
      vertex 15.5 -43.6 7
      vertex 14.5 -49 7
      vertex 14.5 -43.6 7
    endloop
  endfacet
  facet normal 0 -1 0
    outer loop
      vertex 14.5 -43.6 1
      vertex 15.5 -43.6 7
      vertex 14.5 -43.6 7
    endloop
  endfacet
  facet normal 0 -1 -0
    outer loop
      vertex 15.5 -43.6 7
      vertex 14.5 -43.6 1
      vertex 15.5 -43.6 1
    endloop
  endfacet
  facet normal -1 0 0
    outer loop
      vertex 21.1 -40 1
      vertex 21.1 -40.5 2
      vertex 21.1 -40 2
    endloop
  endfacet
  facet normal -1 0 0
    outer loop
      vertex 21.1 -41 1
      vertex 21.1 -40.5 2
      vertex 21.1 -40 1
    endloop
  endfacet
  facet normal -1 -0 0
    outer loop
      vertex 21.1 -40.5 2
      vertex 21.1 -41 1
      vertex 21.1 -41 2
    endloop
  endfacet
  facet normal 1 -0 0
    outer loop
      vertex 18.9 -40.5 2
      vertex 18.9 -40 1
      vertex 18.9 -40 2
    endloop
  endfacet
  facet normal 1 0 0
    outer loop
      vertex 18.9 -41 1
      vertex 18.9 -40.5 2
      vertex 18.9 -41 2
    endloop
  endfacet
  facet normal 1 0 0
    outer loop
      vertex 18.9 -40.5 2
      vertex 18.9 -41 1
      vertex 18.9 -40 1
    endloop
  endfacet
  facet normal -1 0 0
    outer loop
      vertex 23.5 -49 1
      vertex 23.5 -41 2
      vertex 23.5 -41 1
    endloop
  endfacet
  facet normal -1 0 0
    outer loop
      vertex 23.5 -49 10
      vertex 23.5 -41 2
      vertex 23.5 -49 1
    endloop
  endfacet
  facet normal -1 0 0
    outer loop
      vertex 23.5 -41 2
      vertex 23.5 -49 10
      vertex 23.5 -41 10
    endloop
  endfacet
  facet normal 1 -0 0
    outer loop
      vertex 16.5 -49 10
      vertex 16.5 -41 2
      vertex 16.5 -41 10
    endloop
  endfacet
  facet normal 1 0 0
    outer loop
      vertex 16.5 -49 1
      vertex 16.5 -41 2
      vertex 16.5 -49 10
    endloop
  endfacet
  facet normal 1 0 0
    outer loop
      vertex 16.5 -41 2
      vertex 16.5 -49 1
      vertex 16.5 -41 1
    endloop
  endfacet
  facet normal -1 0 0
    outer loop
      vertex 44 -22 1
      vertex 44 20 3
      vertex 44 20 1
    endloop
  endfacet
  facet normal -1 -0 0
    outer loop
      vertex 44 20 3
      vertex 44 -22 1
      vertex 44 -22 3
    endloop
  endfacet
  facet normal 1 -0 0
    outer loop
      vertex -57 -10 2
      vertex -57 -5 0
      vertex -57 -5 2
    endloop
  endfacet
  facet normal 1 0 0
    outer loop
      vertex -57 -5 0
      vertex -57 -10 2
      vertex -57 -10 0
    endloop
  endfacet
  facet normal 0 0 1
    outer loop
      vertex -57 -5 2
      vertex -58 -6 2
      vertex -57 -10 2
    endloop
  endfacet
  facet normal 0 0 1
    outer loop
      vertex -57 -5 2
      vertex -69 -6 2
      vertex -58 -6 2
    endloop
  endfacet
  facet normal 0 0 1
    outer loop
      vertex -69 -6 2
      vertex -70 -5 2
      vertex -69 -9 2
    endloop
  endfacet
  facet normal -0 0 1
    outer loop
      vertex -70 -5 2
      vertex -69 -6 2
      vertex -57 -5 2
    endloop
  endfacet
  facet normal -0 0 1
    outer loop
      vertex -58 -9 2
      vertex -57 -10 2
      vertex -58 -6 2
    endloop
  endfacet
  facet normal 0 0 1
    outer loop
      vertex -59 -10 2
      vertex -58 -9 2
      vertex -59 -9 2
    endloop
  endfacet
  facet normal 0 0 1
    outer loop
      vertex -58 -9 2
      vertex -59 -10 2
      vertex -57 -10 2
    endloop
  endfacet
  facet normal -0 0 1
    outer loop
      vertex -69 -9 2
      vertex -68 -10 2
      vertex -68 -9 2
    endloop
  endfacet
  facet normal 0 0 1
    outer loop
      vertex -69 -9 2
      vertex -70 -10 2
      vertex -68 -10 2
    endloop
  endfacet
  facet normal 0 0 1
    outer loop
      vertex -70 -10 2
      vertex -69 -9 2
      vertex -70 -5 2
    endloop
  endfacet
  facet normal 0 0 -1
    outer loop
      vertex -68 -10 0
      vertex -69 -9 0
      vertex -68 -9 0
    endloop
  endfacet
  facet normal -0 0 -1
    outer loop
      vertex -69 -9 0
      vertex -70 -10 0
      vertex -69 -6 0
    endloop
  endfacet
  facet normal 0 0 -1
    outer loop
      vertex -70 -10 0
      vertex -69 -9 0
      vertex -68 -10 0
    endloop
  endfacet
  facet normal 0 0 -1
    outer loop
      vertex -57 -10 0
      vertex -58 -9 0
      vertex -57 -5 0
    endloop
  endfacet
  facet normal 0 0 -1
    outer loop
      vertex -59 -10 0
      vertex -58 -9 0
      vertex -57 -10 0
    endloop
  endfacet
  facet normal -0 0 -1
    outer loop
      vertex -58 -9 0
      vertex -59 -10 0
      vertex -59 -9 0
    endloop
  endfacet
  facet normal 0 0 -1
    outer loop
      vertex -58 -6 0
      vertex -57 -5 0
      vertex -58 -9 0
    endloop
  endfacet
  facet normal 0 0 -1
    outer loop
      vertex -69 -6 0
      vertex -57 -5 0
      vertex -58 -6 0
    endloop
  endfacet
  facet normal 0 0 -1
    outer loop
      vertex -69 -6 0
      vertex -70 -5 0
      vertex -57 -5 0
    endloop
  endfacet
  facet normal 0 0 -1
    outer loop
      vertex -70 -5 0
      vertex -69 -6 0
      vertex -70 -10 0
    endloop
  endfacet
  facet normal -1 0 0
    outer loop
      vertex -70 -10 0
      vertex -70 -5 2
      vertex -70 -5 0
    endloop
  endfacet
  facet normal -1 -0 0
    outer loop
      vertex -70 -5 2
      vertex -70 -10 0
      vertex -70 -10 2
    endloop
  endfacet
  facet normal 0 1 -0
    outer loop
      vertex -57 -5 0
      vertex -70 -5 2
      vertex -57 -5 2
    endloop
  endfacet
  facet normal 0 1 0
    outer loop
      vertex -70 -5 2
      vertex -57 -5 0
      vertex -70 -5 0
    endloop
  endfacet
  facet normal 0 -1 0
    outer loop
      vertex -70 -10 0
      vertex -68 -10 2
      vertex -70 -10 2
    endloop
  endfacet
  facet normal 0 -1 -0
    outer loop
      vertex -68 -10 2
      vertex -70 -10 0
      vertex -68 -10 0
    endloop
  endfacet
  facet normal 0 -1 0
    outer loop
      vertex -59 -10 0
      vertex -57 -10 2
      vertex -59 -10 2
    endloop
  endfacet
  facet normal 0 -1 -0
    outer loop
      vertex -57 -10 2
      vertex -59 -10 0
      vertex -57 -10 0
    endloop
  endfacet
  facet normal -1 0 0
    outer loop
      vertex -59 -10 0
      vertex -59 -9 2
      vertex -59 -9 0
    endloop
  endfacet
  facet normal -1 -0 0
    outer loop
      vertex -59 -9 2
      vertex -59 -10 0
      vertex -59 -10 2
    endloop
  endfacet
  facet normal 1 -0 0
    outer loop
      vertex -68 -10 2
      vertex -68 -9 0
      vertex -68 -9 2
    endloop
  endfacet
  facet normal 1 0 0
    outer loop
      vertex -68 -9 0
      vertex -68 -10 2
      vertex -68 -10 0
    endloop
  endfacet
  facet normal -1 0 0
    outer loop
      vertex -58 -9 0
      vertex -58 -6 2
      vertex -58 -6 0
    endloop
  endfacet
  facet normal -1 -0 0
    outer loop
      vertex -58 -6 2
      vertex -58 -9 0
      vertex -58 -9 2
    endloop
  endfacet
  facet normal 1 -0 0
    outer loop
      vertex -69 -9 2
      vertex -69 -6 0
      vertex -69 -6 2
    endloop
  endfacet
  facet normal 1 0 0
    outer loop
      vertex -69 -6 0
      vertex -69 -9 2
      vertex -69 -9 0
    endloop
  endfacet
  facet normal 0 -1 0
    outer loop
      vertex -69 -6 0
      vertex -58 -6 2
      vertex -69 -6 2
    endloop
  endfacet
  facet normal 0 -1 -0
    outer loop
      vertex -58 -6 2
      vertex -69 -6 0
      vertex -58 -6 0
    endloop
  endfacet
  facet normal 0 1 -0
    outer loop
      vertex -68 -9 0
      vertex -69 -9 2
      vertex -68 -9 2
    endloop
  endfacet
  facet normal 0 1 0
    outer loop
      vertex -69 -9 2
      vertex -68 -9 0
      vertex -69 -9 0
    endloop
  endfacet
  facet normal 0 1 -0
    outer loop
      vertex -58 -9 0
      vertex -59 -9 2
      vertex -58 -9 2
    endloop
  endfacet
  facet normal 0 1 0
    outer loop
      vertex -59 -9 2
      vertex -58 -9 0
      vertex -59 -9 0
    endloop
  endfacet
  facet normal 1 -0 0
    outer loop
      vertex -57 -22 2
      vertex -57 -17 0
      vertex -57 -17 2
    endloop
  endfacet
  facet normal 1 0 0
    outer loop
      vertex -57 -17 0
      vertex -57 -22 2
      vertex -57 -22 0
    endloop
  endfacet
  facet normal 0 0 1
    outer loop
      vertex -57 -17 2
      vertex -58 -18 2
      vertex -57 -22 2
    endloop
  endfacet
  facet normal 0 0 1
    outer loop
      vertex -57 -17 2
      vertex -69 -18 2
      vertex -58 -18 2
    endloop
  endfacet
  facet normal 0 0 1
    outer loop
      vertex -69 -18 2
      vertex -70 -17 2
      vertex -69 -21 2
    endloop
  endfacet
  facet normal -0 0 1
    outer loop
      vertex -70 -17 2
      vertex -69 -18 2
      vertex -57 -17 2
    endloop
  endfacet
  facet normal -0 0 1
    outer loop
      vertex -58 -21 2
      vertex -57 -22 2
      vertex -58 -18 2
    endloop
  endfacet
  facet normal 0 0 1
    outer loop
      vertex -59 -22 2
      vertex -58 -21 2
      vertex -59 -21 2
    endloop
  endfacet
  facet normal 0 0 1
    outer loop
      vertex -58 -21 2
      vertex -59 -22 2
      vertex -57 -22 2
    endloop
  endfacet
  facet normal -0 0 1
    outer loop
      vertex -69 -21 2
      vertex -68 -22 2
      vertex -68 -21 2
    endloop
  endfacet
  facet normal 0 0 1
    outer loop
      vertex -69 -21 2
      vertex -70 -22 2
      vertex -68 -22 2
    endloop
  endfacet
  facet normal 0 0 1
    outer loop
      vertex -70 -22 2
      vertex -69 -21 2
      vertex -70 -17 2
    endloop
  endfacet
  facet normal 0 0 -1
    outer loop
      vertex -68 -22 0
      vertex -69 -21 0
      vertex -68 -21 0
    endloop
  endfacet
  facet normal -0 0 -1
    outer loop
      vertex -69 -21 0
      vertex -70 -22 0
      vertex -69 -18 0
    endloop
  endfacet
  facet normal 0 0 -1
    outer loop
      vertex -70 -22 0
      vertex -69 -21 0
      vertex -68 -22 0
    endloop
  endfacet
  facet normal 0 0 -1
    outer loop
      vertex -57 -22 0
      vertex -58 -21 0
      vertex -57 -17 0
    endloop
  endfacet
  facet normal 0 0 -1
    outer loop
      vertex -59 -22 0
      vertex -58 -21 0
      vertex -57 -22 0
    endloop
  endfacet
  facet normal -0 0 -1
    outer loop
      vertex -58 -21 0
      vertex -59 -22 0
      vertex -59 -21 0
    endloop
  endfacet
  facet normal 0 0 -1
    outer loop
      vertex -58 -18 0
      vertex -57 -17 0
      vertex -58 -21 0
    endloop
  endfacet
  facet normal 0 0 -1
    outer loop
      vertex -69 -18 0
      vertex -57 -17 0
      vertex -58 -18 0
    endloop
  endfacet
  facet normal 0 0 -1
    outer loop
      vertex -69 -18 0
      vertex -70 -17 0
      vertex -57 -17 0
    endloop
  endfacet
  facet normal 0 0 -1
    outer loop
      vertex -70 -17 0
      vertex -69 -18 0
      vertex -70 -22 0
    endloop
  endfacet
  facet normal -1 0 0
    outer loop
      vertex -70 -22 0
      vertex -70 -17 2
      vertex -70 -17 0
    endloop
  endfacet
  facet normal -1 -0 0
    outer loop
      vertex -70 -17 2
      vertex -70 -22 0
      vertex -70 -22 2
    endloop
  endfacet
  facet normal 0 1 -0
    outer loop
      vertex -57 -17 0
      vertex -70 -17 2
      vertex -57 -17 2
    endloop
  endfacet
  facet normal 0 1 0
    outer loop
      vertex -70 -17 2
      vertex -57 -17 0
      vertex -70 -17 0
    endloop
  endfacet
  facet normal 0 -1 0
    outer loop
      vertex -70 -22 0
      vertex -68 -22 2
      vertex -70 -22 2
    endloop
  endfacet
  facet normal 0 -1 -0
    outer loop
      vertex -68 -22 2
      vertex -70 -22 0
      vertex -68 -22 0
    endloop
  endfacet
  facet normal 0 -1 0
    outer loop
      vertex -59 -22 0
      vertex -57 -22 2
      vertex -59 -22 2
    endloop
  endfacet
  facet normal 0 -1 -0
    outer loop
      vertex -57 -22 2
      vertex -59 -22 0
      vertex -57 -22 0
    endloop
  endfacet
  facet normal -1 0 0
    outer loop
      vertex -59 -22 0
      vertex -59 -21 2
      vertex -59 -21 0
    endloop
  endfacet
  facet normal -1 -0 0
    outer loop
      vertex -59 -21 2
      vertex -59 -22 0
      vertex -59 -22 2
    endloop
  endfacet
  facet normal 1 -0 0
    outer loop
      vertex -68 -22 2
      vertex -68 -21 0
      vertex -68 -21 2
    endloop
  endfacet
  facet normal 1 0 0
    outer loop
      vertex -68 -21 0
      vertex -68 -22 2
      vertex -68 -22 0
    endloop
  endfacet
  facet normal -1 0 0
    outer loop
      vertex -58 -21 0
      vertex -58 -18 2
      vertex -58 -18 0
    endloop
  endfacet
  facet normal -1 -0 0
    outer loop
      vertex -58 -18 2
      vertex -58 -21 0
      vertex -58 -21 2
    endloop
  endfacet
  facet normal 1 -0 0
    outer loop
      vertex -69 -21 2
      vertex -69 -18 0
      vertex -69 -18 2
    endloop
  endfacet
  facet normal 1 0 0
    outer loop
      vertex -69 -18 0
      vertex -69 -21 2
      vertex -69 -21 0
    endloop
  endfacet
  facet normal 0 -1 0
    outer loop
      vertex -69 -18 0
      vertex -58 -18 2
      vertex -69 -18 2
    endloop
  endfacet
  facet normal 0 -1 -0
    outer loop
      vertex -58 -18 2
      vertex -69 -18 0
      vertex -58 -18 0
    endloop
  endfacet
  facet normal 0 1 -0
    outer loop
      vertex -68 -21 0
      vertex -69 -21 2
      vertex -68 -21 2
    endloop
  endfacet
  facet normal 0 1 0
    outer loop
      vertex -69 -21 2
      vertex -68 -21 0
      vertex -69 -21 0
    endloop
  endfacet
  facet normal 0 1 -0
    outer loop
      vertex -58 -21 0
      vertex -59 -21 2
      vertex -58 -21 2
    endloop
  endfacet
  facet normal 0 1 0
    outer loop
      vertex -59 -21 2
      vertex -58 -21 0
      vertex -59 -21 0
    endloop
  endfacet
  facet normal 1 -0 0
    outer loop
      vertex -57 -34 2
      vertex -57 -29 0
      vertex -57 -29 2
    endloop
  endfacet
  facet normal 1 0 0
    outer loop
      vertex -57 -29 0
      vertex -57 -34 2
      vertex -57 -34 0
    endloop
  endfacet
  facet normal 0 0 1
    outer loop
      vertex -57 -29 2
      vertex -58 -30 2
      vertex -57 -34 2
    endloop
  endfacet
  facet normal 0 0 1
    outer loop
      vertex -57 -29 2
      vertex -69 -30 2
      vertex -58 -30 2
    endloop
  endfacet
  facet normal 0 0 1
    outer loop
      vertex -69 -30 2
      vertex -70 -29 2
      vertex -69 -33 2
    endloop
  endfacet
  facet normal -0 0 1
    outer loop
      vertex -70 -29 2
      vertex -69 -30 2
      vertex -57 -29 2
    endloop
  endfacet
  facet normal -0 0 1
    outer loop
      vertex -58 -33 2
      vertex -57 -34 2
      vertex -58 -30 2
    endloop
  endfacet
  facet normal 0 0 1
    outer loop
      vertex -59 -34 2
      vertex -58 -33 2
      vertex -59 -33 2
    endloop
  endfacet
  facet normal 0 0 1
    outer loop
      vertex -58 -33 2
      vertex -59 -34 2
      vertex -57 -34 2
    endloop
  endfacet
  facet normal -0 0 1
    outer loop
      vertex -69 -33 2
      vertex -68 -34 2
      vertex -68 -33 2
    endloop
  endfacet
  facet normal 0 0 1
    outer loop
      vertex -69 -33 2
      vertex -70 -34 2
      vertex -68 -34 2
    endloop
  endfacet
  facet normal 0 0 1
    outer loop
      vertex -70 -34 2
      vertex -69 -33 2
      vertex -70 -29 2
    endloop
  endfacet
  facet normal 0 0 -1
    outer loop
      vertex -68 -34 0
      vertex -69 -33 0
      vertex -68 -33 0
    endloop
  endfacet
  facet normal -0 0 -1
    outer loop
      vertex -69 -33 0
      vertex -70 -34 0
      vertex -69 -30 0
    endloop
  endfacet
  facet normal 0 0 -1
    outer loop
      vertex -70 -34 0
      vertex -69 -33 0
      vertex -68 -34 0
    endloop
  endfacet
  facet normal 0 0 -1
    outer loop
      vertex -57 -34 0
      vertex -58 -33 0
      vertex -57 -29 0
    endloop
  endfacet
  facet normal 0 0 -1
    outer loop
      vertex -59 -34 0
      vertex -58 -33 0
      vertex -57 -34 0
    endloop
  endfacet
  facet normal -0 0 -1
    outer loop
      vertex -58 -33 0
      vertex -59 -34 0
      vertex -59 -33 0
    endloop
  endfacet
  facet normal 0 0 -1
    outer loop
      vertex -58 -30 0
      vertex -57 -29 0
      vertex -58 -33 0
    endloop
  endfacet
  facet normal 0 0 -1
    outer loop
      vertex -69 -30 0
      vertex -57 -29 0
      vertex -58 -30 0
    endloop
  endfacet
  facet normal 0 0 -1
    outer loop
      vertex -69 -30 0
      vertex -70 -29 0
      vertex -57 -29 0
    endloop
  endfacet
  facet normal 0 0 -1
    outer loop
      vertex -70 -29 0
      vertex -69 -30 0
      vertex -70 -34 0
    endloop
  endfacet
  facet normal -1 0 0
    outer loop
      vertex -70 -34 0
      vertex -70 -29 2
      vertex -70 -29 0
    endloop
  endfacet
  facet normal -1 -0 0
    outer loop
      vertex -70 -29 2
      vertex -70 -34 0
      vertex -70 -34 2
    endloop
  endfacet
  facet normal 0 1 -0
    outer loop
      vertex -57 -29 0
      vertex -70 -29 2
      vertex -57 -29 2
    endloop
  endfacet
  facet normal 0 1 0
    outer loop
      vertex -70 -29 2
      vertex -57 -29 0
      vertex -70 -29 0
    endloop
  endfacet
  facet normal 0 -1 0
    outer loop
      vertex -70 -34 0
      vertex -68 -34 2
      vertex -70 -34 2
    endloop
  endfacet
  facet normal 0 -1 -0
    outer loop
      vertex -68 -34 2
      vertex -70 -34 0
      vertex -68 -34 0
    endloop
  endfacet
  facet normal 0 -1 0
    outer loop
      vertex -59 -34 0
      vertex -57 -34 2
      vertex -59 -34 2
    endloop
  endfacet
  facet normal 0 -1 -0
    outer loop
      vertex -57 -34 2
      vertex -59 -34 0
      vertex -57 -34 0
    endloop
  endfacet
  facet normal -1 0 0
    outer loop
      vertex -59 -34 0
      vertex -59 -33 2
      vertex -59 -33 0
    endloop
  endfacet
  facet normal -1 -0 0
    outer loop
      vertex -59 -33 2
      vertex -59 -34 0
      vertex -59 -34 2
    endloop
  endfacet
  facet normal 1 -0 0
    outer loop
      vertex -68 -34 2
      vertex -68 -33 0
      vertex -68 -33 2
    endloop
  endfacet
  facet normal 1 0 0
    outer loop
      vertex -68 -33 0
      vertex -68 -34 2
      vertex -68 -34 0
    endloop
  endfacet
  facet normal -1 0 0
    outer loop
      vertex -58 -33 0
      vertex -58 -30 2
      vertex -58 -30 0
    endloop
  endfacet
  facet normal -1 -0 0
    outer loop
      vertex -58 -30 2
      vertex -58 -33 0
      vertex -58 -33 2
    endloop
  endfacet
  facet normal 1 -0 0
    outer loop
      vertex -69 -33 2
      vertex -69 -30 0
      vertex -69 -30 2
    endloop
  endfacet
  facet normal 1 0 0
    outer loop
      vertex -69 -30 0
      vertex -69 -33 2
      vertex -69 -33 0
    endloop
  endfacet
  facet normal 0 -1 0
    outer loop
      vertex -69 -30 0
      vertex -58 -30 2
      vertex -69 -30 2
    endloop
  endfacet
  facet normal 0 -1 -0
    outer loop
      vertex -58 -30 2
      vertex -69 -30 0
      vertex -58 -30 0
    endloop
  endfacet
  facet normal 0 1 -0
    outer loop
      vertex -68 -33 0
      vertex -69 -33 2
      vertex -68 -33 2
    endloop
  endfacet
  facet normal 0 1 0
    outer loop
      vertex -69 -33 2
      vertex -68 -33 0
      vertex -69 -33 0
    endloop
  endfacet
  facet normal 0 1 -0
    outer loop
      vertex -58 -33 0
      vertex -59 -33 2
      vertex -58 -33 2
    endloop
  endfacet
  facet normal 0 1 0
    outer loop
      vertex -59 -33 2
      vertex -58 -33 0
      vertex -59 -33 0
    endloop
  endfacet
  facet normal 1 -0 0
    outer loop
      vertex -57 -46 2
      vertex -57 -41 0
      vertex -57 -41 2
    endloop
  endfacet
  facet normal 1 0 0
    outer loop
      vertex -57 -41 0
      vertex -57 -46 2
      vertex -57 -46 0
    endloop
  endfacet
  facet normal 0 0 1
    outer loop
      vertex -57 -41 2
      vertex -58 -42 2
      vertex -57 -46 2
    endloop
  endfacet
  facet normal 0 0 1
    outer loop
      vertex -57 -41 2
      vertex -69 -42 2
      vertex -58 -42 2
    endloop
  endfacet
  facet normal 0 0 1
    outer loop
      vertex -69 -42 2
      vertex -70 -41 2
      vertex -69 -45 2
    endloop
  endfacet
  facet normal -0 0 1
    outer loop
      vertex -70 -41 2
      vertex -69 -42 2
      vertex -57 -41 2
    endloop
  endfacet
  facet normal -0 0 1
    outer loop
      vertex -58 -45 2
      vertex -57 -46 2
      vertex -58 -42 2
    endloop
  endfacet
  facet normal 0 0 1
    outer loop
      vertex -59 -46 2
      vertex -58 -45 2
      vertex -59 -45 2
    endloop
  endfacet
  facet normal 0 0 1
    outer loop
      vertex -58 -45 2
      vertex -59 -46 2
      vertex -57 -46 2
    endloop
  endfacet
  facet normal -0 0 1
    outer loop
      vertex -69 -45 2
      vertex -68 -46 2
      vertex -68 -45 2
    endloop
  endfacet
  facet normal 0 0 1
    outer loop
      vertex -69 -45 2
      vertex -70 -46 2
      vertex -68 -46 2
    endloop
  endfacet
  facet normal 0 0 1
    outer loop
      vertex -70 -46 2
      vertex -69 -45 2
      vertex -70 -41 2
    endloop
  endfacet
  facet normal 0 0 -1
    outer loop
      vertex -68 -46 0
      vertex -69 -45 0
      vertex -68 -45 0
    endloop
  endfacet
  facet normal -0 0 -1
    outer loop
      vertex -69 -45 0
      vertex -70 -46 0
      vertex -69 -42 0
    endloop
  endfacet
  facet normal 0 0 -1
    outer loop
      vertex -70 -46 0
      vertex -69 -45 0
      vertex -68 -46 0
    endloop
  endfacet
  facet normal 0 0 -1
    outer loop
      vertex -57 -46 0
      vertex -58 -45 0
      vertex -57 -41 0
    endloop
  endfacet
  facet normal 0 0 -1
    outer loop
      vertex -59 -46 0
      vertex -58 -45 0
      vertex -57 -46 0
    endloop
  endfacet
  facet normal -0 0 -1
    outer loop
      vertex -58 -45 0
      vertex -59 -46 0
      vertex -59 -45 0
    endloop
  endfacet
  facet normal 0 0 -1
    outer loop
      vertex -58 -42 0
      vertex -57 -41 0
      vertex -58 -45 0
    endloop
  endfacet
  facet normal 0 0 -1
    outer loop
      vertex -69 -42 0
      vertex -57 -41 0
      vertex -58 -42 0
    endloop
  endfacet
  facet normal 0 0 -1
    outer loop
      vertex -69 -42 0
      vertex -70 -41 0
      vertex -57 -41 0
    endloop
  endfacet
  facet normal 0 0 -1
    outer loop
      vertex -70 -41 0
      vertex -69 -42 0
      vertex -70 -46 0
    endloop
  endfacet
  facet normal -1 0 0
    outer loop
      vertex -70 -46 0
      vertex -70 -41 2
      vertex -70 -41 0
    endloop
  endfacet
  facet normal -1 -0 0
    outer loop
      vertex -70 -41 2
      vertex -70 -46 0
      vertex -70 -46 2
    endloop
  endfacet
  facet normal 0 1 -0
    outer loop
      vertex -57 -41 0
      vertex -70 -41 2
      vertex -57 -41 2
    endloop
  endfacet
  facet normal 0 1 0
    outer loop
      vertex -70 -41 2
      vertex -57 -41 0
      vertex -70 -41 0
    endloop
  endfacet
  facet normal 0 -1 0
    outer loop
      vertex -70 -46 0
      vertex -68 -46 2
      vertex -70 -46 2
    endloop
  endfacet
  facet normal 0 -1 -0
    outer loop
      vertex -68 -46 2
      vertex -70 -46 0
      vertex -68 -46 0
    endloop
  endfacet
  facet normal 0 -1 0
    outer loop
      vertex -59 -46 0
      vertex -57 -46 2
      vertex -59 -46 2
    endloop
  endfacet
  facet normal 0 -1 -0
    outer loop
      vertex -57 -46 2
      vertex -59 -46 0
      vertex -57 -46 0
    endloop
  endfacet
  facet normal -1 0 0
    outer loop
      vertex -59 -46 0
      vertex -59 -45 2
      vertex -59 -45 0
    endloop
  endfacet
  facet normal -1 -0 0
    outer loop
      vertex -59 -45 2
      vertex -59 -46 0
      vertex -59 -46 2
    endloop
  endfacet
  facet normal 1 -0 0
    outer loop
      vertex -68 -46 2
      vertex -68 -45 0
      vertex -68 -45 2
    endloop
  endfacet
  facet normal 1 0 0
    outer loop
      vertex -68 -45 0
      vertex -68 -46 2
      vertex -68 -46 0
    endloop
  endfacet
  facet normal -1 0 0
    outer loop
      vertex -58 -45 0
      vertex -58 -42 2
      vertex -58 -42 0
    endloop
  endfacet
  facet normal -1 -0 0
    outer loop
      vertex -58 -42 2
      vertex -58 -45 0
      vertex -58 -45 2
    endloop
  endfacet
  facet normal 1 -0 0
    outer loop
      vertex -69 -45 2
      vertex -69 -42 0
      vertex -69 -42 2
    endloop
  endfacet
  facet normal 1 0 0
    outer loop
      vertex -69 -42 0
      vertex -69 -45 2
      vertex -69 -45 0
    endloop
  endfacet
  facet normal 0 -1 0
    outer loop
      vertex -69 -42 0
      vertex -58 -42 2
      vertex -69 -42 2
    endloop
  endfacet
  facet normal 0 -1 -0
    outer loop
      vertex -58 -42 2
      vertex -69 -42 0
      vertex -58 -42 0
    endloop
  endfacet
  facet normal 0 1 -0
    outer loop
      vertex -68 -45 0
      vertex -69 -45 2
      vertex -68 -45 2
    endloop
  endfacet
  facet normal 0 1 0
    outer loop
      vertex -69 -45 2
      vertex -68 -45 0
      vertex -69 -45 0
    endloop
  endfacet
  facet normal 0 1 -0
    outer loop
      vertex -58 -45 0
      vertex -59 -45 2
      vertex -58 -45 2
    endloop
  endfacet
  facet normal 0 1 0
    outer loop
      vertex -59 -45 2
      vertex -58 -45 0
      vertex -59 -45 0
    endloop
  endfacet
endsolid OpenSCAD_Model
