solid OpenSCAD_Model
  facet normal 1 0 0
    outer loop
      vertex 50 50 20
      vertex 50 15 13
      vertex 50 50 0
    endloop
  endfacet
  facet normal 1 0 0
    outer loop
      vertex 50 50 20
      vertex 50 -13 13
      vertex 50 15 13
    endloop
  endfacet
  facet normal 1 0 0
    outer loop
      vertex 50 -50 0
      vertex 50 -13 13
      vertex 50 -50 20
    endloop
  endfacet
  facet normal 1 -0 0
    outer loop
      vertex 50 -50 20
      vertex 50 -13 13
      vertex 50 50 20
    endloop
  endfacet
  facet normal 1 -0 0
    outer loop
      vertex 50 15 5
      vertex 50 50 0
      vertex 50 15 13
    endloop
  endfacet
  facet normal 1 -0 0
    outer loop
      vertex 50 -13 5
      vertex 50 50 0
      vertex 50 15 5
    endloop
  endfacet
  facet normal 1 0 0
    outer loop
      vertex 50 -13 5
      vertex 50 -50 0
      vertex 50 50 0
    endloop
  endfacet
  facet normal 1 0 0
    outer loop
      vertex 50 -13 13
      vertex 50 -50 0
      vertex 50 -13 5
    endloop
  endfacet
  facet normal 0 0 1
    outer loop
      vertex 50 50 20
      vertex 49 49 20
      vertex 50 -50 20
    endloop
  endfacet
  facet normal 0 0 1
    outer loop
      vertex 50 50 20
      vertex -49 49 20
      vertex 49 49 20
    endloop
  endfacet
  facet normal 0 0 1
    outer loop
      vertex -49 49 20
      vertex -50 50 20
      vertex -49 -49 20
    endloop
  endfacet
  facet normal -0 0 1
    outer loop
      vertex -50 50 20
      vertex -49 49 20
      vertex 50 50 20
    endloop
  endfacet
  facet normal -0 0 1
    outer loop
      vertex 49 -49 20
      vertex 50 -50 20
      vertex 49 49 20
    endloop
  endfacet
  facet normal -0 0 1
    outer loop
      vertex -49 -49 20
      vertex 50 -50 20
      vertex 49 -49 20
    endloop
  endfacet
  facet normal 0 0 1
    outer loop
      vertex -49 -49 20
      vertex -50 -50 20
      vertex 50 -50 20
    endloop
  endfacet
  facet normal 0 0 1
    outer loop
      vertex -50 -50 20
      vertex -49 -49 20
      vertex -50 50 20
    endloop
  endfacet
  facet normal 0 0 -1
    outer loop
      vertex -50 -50 0
      vertex 50 50 0
      vertex 50 -50 0
    endloop
  endfacet
  facet normal -0 0 -1
    outer loop
      vertex 50 50 0
      vertex -50 -50 0
      vertex -50 50 0
    endloop
  endfacet
  facet normal -1 0 0
    outer loop
      vertex -50 -50 0
      vertex -50 50 20
      vertex -50 50 0
    endloop
  endfacet
  facet normal -1 -0 0
    outer loop
      vertex -50 50 20
      vertex -50 -50 0
      vertex -50 -50 20
    endloop
  endfacet
  facet normal 0 1 -0
    outer loop
      vertex 50 50 0
      vertex -50 50 20
      vertex 50 50 20
    endloop
  endfacet
  facet normal 0 1 0
    outer loop
      vertex -50 50 20
      vertex 50 50 0
      vertex -50 50 0
    endloop
  endfacet
  facet normal 0 -1 0
    outer loop
      vertex -50 -50 20
      vertex -0.188371 -50 8.49408
      vertex 50 -50 20
    endloop
  endfacet
  facet normal 0 -1 0
    outer loop
      vertex -50 -50 20
      vertex -0.562143 -50 8.44686
      vertex -0.188371 -50 8.49408
    endloop
  endfacet
  facet normal 0 -1 0
    outer loop
      vertex -50 -50 20
      vertex -0.927051 -50 8.35317
      vertex -0.562143 -50 8.44686
    endloop
  endfacet
  facet normal 0 -1 0
    outer loop
      vertex -50 -50 20
      vertex -1.27734 -50 8.21448
      vertex -0.927051 -50 8.35317
    endloop
  endfacet
  facet normal 0 -1 0
    outer loop
      vertex -50 -50 20
      vertex -1.60748 -50 8.03298
      vertex -1.27734 -50 8.21448
    endloop
  endfacet
  facet normal 0 -1 0
    outer loop
      vertex -50 -50 20
      vertex -1.91227 -50 7.81154
      vertex -1.60748 -50 8.03298
    endloop
  endfacet
  facet normal 0 -1 0
    outer loop
      vertex -50 -50 20
      vertex -2.18691 -50 7.55364
      vertex -1.91227 -50 7.81154
    endloop
  endfacet
  facet normal 0 -1 0
    outer loop
      vertex -50 -50 20
      vertex -2.42705 -50 7.26336
      vertex -2.18691 -50 7.55364
    endloop
  endfacet
  facet normal 0 -1 0
    outer loop
      vertex -50 -50 20
      vertex -2.62892 -50 6.94526
      vertex -2.42705 -50 7.26336
    endloop
  endfacet
  facet normal 0 -1 0
    outer loop
      vertex -50 -50 20
      vertex -2.78933 -50 6.60437
      vertex -2.62892 -50 6.94526
    endloop
  endfacet
  facet normal 0 -1 0
    outer loop
      vertex -50 -50 20
      vertex -2.90575 -50 6.24607
      vertex -2.78933 -50 6.60437
    endloop
  endfacet
  facet normal 0 -1 0
    outer loop
      vertex -50 -50 20
      vertex -2.97634 -50 5.876
      vertex -2.90575 -50 6.24607
    endloop
  endfacet
  facet normal 0 -1 0
    outer loop
      vertex -50 -50 0
      vertex -2.97634 -50 5.876
      vertex -50 -50 20
    endloop
  endfacet
  facet normal 0 -1 0
    outer loop
      vertex -2.97634 -50 5.876
      vertex -50 -50 0
      vertex -3 -50 5.5
    endloop
  endfacet
  facet normal 0 -1 -0
    outer loop
      vertex -3 -50 5.5
      vertex -50 -50 0
      vertex -2.97634 -50 5.124
    endloop
  endfacet
  facet normal 0 -1 -0
    outer loop
      vertex -2.97634 -50 5.124
      vertex -50 -50 0
      vertex -2.90575 -50 4.75393
    endloop
  endfacet
  facet normal 0 -1 -0
    outer loop
      vertex -2.90575 -50 4.75393
      vertex -50 -50 0
      vertex -2.78933 -50 4.39563
    endloop
  endfacet
  facet normal 0 -1 -0
    outer loop
      vertex -2.78933 -50 4.39563
      vertex -50 -50 0
      vertex -2.62892 -50 4.05474
    endloop
  endfacet
  facet normal 0 -1 -0
    outer loop
      vertex -2.62892 -50 4.05474
      vertex -50 -50 0
      vertex -2.42705 -50 3.73664
    endloop
  endfacet
  facet normal 0 -1 -0
    outer loop
      vertex -2.42705 -50 3.73664
      vertex -50 -50 0
      vertex -2.18691 -50 3.44636
    endloop
  endfacet
  facet normal 0 -1 -0
    outer loop
      vertex -2.18691 -50 3.44636
      vertex -50 -50 0
      vertex -1.91227 -50 3.18846
    endloop
  endfacet
  facet normal 0 -1 -0
    outer loop
      vertex -1.91227 -50 3.18846
      vertex -50 -50 0
      vertex -1.60748 -50 2.96702
    endloop
  endfacet
  facet normal 0 -1 -0
    outer loop
      vertex -1.60748 -50 2.96702
      vertex -50 -50 0
      vertex -1.27734 -50 2.78552
    endloop
  endfacet
  facet normal 0 -1 -0
    outer loop
      vertex -0.188371 -50 2.50592
      vertex -50 -50 0
      vertex 0.188371 -50 2.50592
    endloop
  endfacet
  facet normal 0 -1 -0
    outer loop
      vertex -0.562143 -50 2.55314
      vertex -50 -50 0
      vertex -0.188371 -50 2.50592
    endloop
  endfacet
  facet normal 0 -1 -0
    outer loop
      vertex -0.927051 -50 2.64683
      vertex -50 -50 0
      vertex -0.562143 -50 2.55314
    endloop
  endfacet
  facet normal 0 -1 -0
    outer loop
      vertex -1.27734 -50 2.78552
      vertex -50 -50 0
      vertex -0.927051 -50 2.64683
    endloop
  endfacet
  facet normal 0 -1 0
    outer loop
      vertex 0.188371 -50 8.49408
      vertex 50 -50 20
      vertex -0.188371 -50 8.49408
    endloop
  endfacet
  facet normal 0 -1 0
    outer loop
      vertex 0.562143 -50 8.44686
      vertex 50 -50 20
      vertex 0.188371 -50 8.49408
    endloop
  endfacet
  facet normal 0 -1 0
    outer loop
      vertex 0.927051 -50 8.35317
      vertex 50 -50 20
      vertex 0.562143 -50 8.44686
    endloop
  endfacet
  facet normal 0 -1 0
    outer loop
      vertex 1.27734 -50 8.21448
      vertex 50 -50 20
      vertex 0.927051 -50 8.35317
    endloop
  endfacet
  facet normal 0 -1 0
    outer loop
      vertex 1.60748 -50 8.03298
      vertex 50 -50 20
      vertex 1.27734 -50 8.21448
    endloop
  endfacet
  facet normal 0 -1 0
    outer loop
      vertex 1.91227 -50 7.81154
      vertex 50 -50 20
      vertex 1.60748 -50 8.03298
    endloop
  endfacet
  facet normal 0 -1 0
    outer loop
      vertex 2.18691 -50 7.55364
      vertex 50 -50 20
      vertex 1.91227 -50 7.81154
    endloop
  endfacet
  facet normal 0 -1 0
    outer loop
      vertex 2.42705 -50 7.26336
      vertex 50 -50 20
      vertex 2.18691 -50 7.55364
    endloop
  endfacet
  facet normal 0 -1 0
    outer loop
      vertex 2.62892 -50 6.94526
      vertex 50 -50 20
      vertex 2.42705 -50 7.26336
    endloop
  endfacet
  facet normal 0 -1 0
    outer loop
      vertex 2.78933 -50 6.60437
      vertex 50 -50 20
      vertex 2.62892 -50 6.94526
    endloop
  endfacet
  facet normal 0 -1 0
    outer loop
      vertex 2.90575 -50 6.24607
      vertex 50 -50 20
      vertex 2.78933 -50 6.60437
    endloop
  endfacet
  facet normal 0 -1 0
    outer loop
      vertex 2.97634 -50 5.876
      vertex 50 -50 20
      vertex 2.90575 -50 6.24607
    endloop
  endfacet
  facet normal 0 -1 0
    outer loop
      vertex 50 -50 0
      vertex 2.97634 -50 5.876
      vertex 3 -50 5.5
    endloop
  endfacet
  facet normal 0 -1 0
    outer loop
      vertex 50 -50 0
      vertex 3 -50 5.5
      vertex 2.97634 -50 5.124
    endloop
  endfacet
  facet normal 0 -1 0
    outer loop
      vertex 50 -50 0
      vertex 2.97634 -50 5.124
      vertex 2.90575 -50 4.75393
    endloop
  endfacet
  facet normal 0 -1 0
    outer loop
      vertex 50 -50 0
      vertex 2.90575 -50 4.75393
      vertex 2.78933 -50 4.39563
    endloop
  endfacet
  facet normal 0 -1 0
    outer loop
      vertex 50 -50 0
      vertex 2.78933 -50 4.39563
      vertex 2.62892 -50 4.05474
    endloop
  endfacet
  facet normal 0 -1 0
    outer loop
      vertex 50 -50 0
      vertex 2.62892 -50 4.05474
      vertex 2.42705 -50 3.73664
    endloop
  endfacet
  facet normal 0 -1 0
    outer loop
      vertex 50 -50 0
      vertex 2.42705 -50 3.73664
      vertex 2.18691 -50 3.44636
    endloop
  endfacet
  facet normal 0 -1 0
    outer loop
      vertex 50 -50 0
      vertex 2.18691 -50 3.44636
      vertex 1.91227 -50 3.18846
    endloop
  endfacet
  facet normal 0 -1 0
    outer loop
      vertex 50 -50 0
      vertex 1.91227 -50 3.18846
      vertex 1.60748 -50 2.96702
    endloop
  endfacet
  facet normal 0 -1 0
    outer loop
      vertex 50 -50 0
      vertex 1.60748 -50 2.96702
      vertex 1.27734 -50 2.78552
    endloop
  endfacet
  facet normal 0 -1 0
    outer loop
      vertex 50 -50 0
      vertex 1.27734 -50 2.78552
      vertex 0.927051 -50 2.64683
    endloop
  endfacet
  facet normal 0 -1 0
    outer loop
      vertex 2.97634 -50 5.876
      vertex 50 -50 0
      vertex 50 -50 20
    endloop
  endfacet
  facet normal 0 -1 0
    outer loop
      vertex 0.562143 -50 2.55314
      vertex 50 -50 0
      vertex 0.927051 -50 2.64683
    endloop
  endfacet
  facet normal 0 -1 0
    outer loop
      vertex 0.188371 -50 2.50592
      vertex 50 -50 0
      vertex 0.562143 -50 2.55314
    endloop
  endfacet
  facet normal 0 -1 0
    outer loop
      vertex 50 -50 0
      vertex 0.188371 -50 2.50592
      vertex -50 -50 0
    endloop
  endfacet
  facet normal -1 0 0
    outer loop
      vertex 49 -22 1
      vertex 49 -49 1
      vertex 49 -22 15
    endloop
  endfacet
  facet normal -1 0 0
    outer loop
      vertex 49 15 13
      vertex 49 19 4
      vertex 49 15 5
    endloop
  endfacet
  facet normal -1 0 0
    outer loop
      vertex 49 19 4
      vertex 49 -13 5
      vertex 49 15 5
    endloop
  endfacet
  facet normal -1 -0 0
    outer loop
      vertex 49 -13 5
      vertex 49 -20 4
      vertex 49 -13 13
    endloop
  endfacet
  facet normal -1 0 0
    outer loop
      vertex 49 -20 4
      vertex 49 -13 5
      vertex 49 19 4
    endloop
  endfacet
  facet normal -1 0 0
    outer loop
      vertex 49 20 15
      vertex 49 49 1
      vertex 49 20 1
    endloop
  endfacet
  facet normal -1 0 0
    outer loop
      vertex 49 49 1
      vertex 49 20 15
      vertex 49 49 20
    endloop
  endfacet
  facet normal -1 0 0
    outer loop
      vertex 49 19 15
      vertex 49 49 20
      vertex 49 20 15
    endloop
  endfacet
  facet normal -1 0 0
    outer loop
      vertex 49 19 4
      vertex 49 15 13
      vertex 49 19 15
    endloop
  endfacet
  facet normal -1 0 0
    outer loop
      vertex 49 -13 13
      vertex 49 19 15
      vertex 49 15 13
    endloop
  endfacet
  facet normal -1 0 0
    outer loop
      vertex 49 -20 15
      vertex 49 19 15
      vertex 49 -13 13
    endloop
  endfacet
  facet normal -1 0 0
    outer loop
      vertex 49 -20 15
      vertex 49 -13 13
      vertex 49 -20 4
    endloop
  endfacet
  facet normal -1 0 0
    outer loop
      vertex 49 19 15
      vertex 49 -20 15
      vertex 49 49 20
    endloop
  endfacet
  facet normal -1 0 0
    outer loop
      vertex 49 -49 20
      vertex 49 -20 15
      vertex 49 -22 15
    endloop
  endfacet
  facet normal -1 0 0
    outer loop
      vertex 49 -20 15
      vertex 49 -49 20
      vertex 49 49 20
    endloop
  endfacet
  facet normal -1 0 0
    outer loop
      vertex 49 -49 20
      vertex 49 -22 15
      vertex 49 -49 1
    endloop
  endfacet
  facet normal 0 0 1
    outer loop
      vertex 49 49 1
      vertex 44 20 1
      vertex 49 20 1
    endloop
  endfacet
  facet normal 0 0 1
    outer loop
      vertex 44 20 1
      vertex 4.5 -40.5 1
      vertex 44 -22 1
    endloop
  endfacet
  facet normal -0 0 1
    outer loop
      vertex -49 49 1
      vertex 44 20 1
      vertex 49 49 1
    endloop
  endfacet
  facet normal 0 0 1
    outer loop
      vertex 44 20 1
      vertex 1 -40.5 1
      vertex 4.5 -40.5 1
    endloop
  endfacet
  facet normal 0 0 1
    outer loop
      vertex 1 -40.5 1
      vertex -1 -40.5 1
      vertex 1 -41.5 1
    endloop
  endfacet
  facet normal 0 0 1
    outer loop
      vertex 44 20 1
      vertex -1 -40.5 1
      vertex 1 -40.5 1
    endloop
  endfacet
  facet normal 0 -0 1
    outer loop
      vertex -4.5 -40.5 1
      vertex 44 20 1
      vertex -49 49 1
    endloop
  endfacet
  facet normal 0 0 1
    outer loop
      vertex 44 20 1
      vertex -4.5 -40.5 1
      vertex -1 -40.5 1
    endloop
  endfacet
  facet normal 0 0 1
    outer loop
      vertex -49 -49 1
      vertex -4.5 -40.5 1
      vertex -49 49 1
    endloop
  endfacet
  facet normal 0 0 1
    outer loop
      vertex -4.5 -40.5 1
      vertex -49 -49 1
      vertex -4.5 -49 1
    endloop
  endfacet
  facet normal -0 0 1
    outer loop
      vertex 44 -22 1
      vertex 49 -49 1
      vertex 49 -22 1
    endloop
  endfacet
  facet normal -0 0 1
    outer loop
      vertex 4.5 -40.5 1
      vertex 49 -49 1
      vertex 44 -22 1
    endloop
  endfacet
  facet normal 0 0 1
    outer loop
      vertex 49 -49 1
      vertex 4.5 -40.5 1
      vertex 4.5 -49 1
    endloop
  endfacet
  facet normal -0 0 1
    outer loop
      vertex 1 -41.5 1
      vertex 3.5 -49 1
      vertex 3.5 -41.5 1
    endloop
  endfacet
  facet normal 0 0 1
    outer loop
      vertex -1 -41.5 1
      vertex 1 -41.5 1
      vertex -1 -40.5 1
    endloop
  endfacet
  facet normal 0 0 1
    outer loop
      vertex 1 -41.5 1
      vertex -1 -41.5 1
      vertex 3.5 -49 1
    endloop
  endfacet
  facet normal 0 0 1
    outer loop
      vertex -3.5 -49 1
      vertex -1 -41.5 1
      vertex -3.5 -41.5 1
    endloop
  endfacet
  facet normal 0 0 1
    outer loop
      vertex -1 -41.5 1
      vertex -3.5 -49 1
      vertex 3.5 -49 1
    endloop
  endfacet
  facet normal 1 -0 0
    outer loop
      vertex -49 -49 20
      vertex -49 49 1
      vertex -49 49 20
    endloop
  endfacet
  facet normal 1 0 0
    outer loop
      vertex -49 49 1
      vertex -49 -49 20
      vertex -49 -49 1
    endloop
  endfacet
  facet normal 0 -1 0
    outer loop
      vertex -49 49 1
      vertex 49 49 20
      vertex -49 49 20
    endloop
  endfacet
  facet normal 0 -1 -0
    outer loop
      vertex 49 49 20
      vertex -49 49 1
      vertex 49 49 1
    endloop
  endfacet
  facet normal 0 1 0
    outer loop
      vertex -4.5 -49 9
      vertex -4.5 -49 1
      vertex -5.5 -49 9
    endloop
  endfacet
  facet normal 0 1 0
    outer loop
      vertex 3.5 -49 10
      vertex 0.188371 -49 8.49408
      vertex -3.5 -49 10
    endloop
  endfacet
  facet normal 0 1 0
    outer loop
      vertex 3.5 -49 10
      vertex 0.562143 -49 8.44686
      vertex 0.188371 -49 8.49408
    endloop
  endfacet
  facet normal 0 1 0
    outer loop
      vertex 3.5 -49 10
      vertex 0.927051 -49 8.35317
      vertex 0.562143 -49 8.44686
    endloop
  endfacet
  facet normal 0 1 0
    outer loop
      vertex 3.5 -49 10
      vertex 1.27734 -49 8.21448
      vertex 0.927051 -49 8.35317
    endloop
  endfacet
  facet normal 0 1 0
    outer loop
      vertex 3.5 -49 10
      vertex 1.60748 -49 8.03298
      vertex 1.27734 -49 8.21448
    endloop
  endfacet
  facet normal 0 1 0
    outer loop
      vertex 3.5 -49 10
      vertex 1.91227 -49 7.81154
      vertex 1.60748 -49 8.03298
    endloop
  endfacet
  facet normal 0 1 0
    outer loop
      vertex 3.5 -49 10
      vertex 2.18691 -49 7.55364
      vertex 1.91227 -49 7.81154
    endloop
  endfacet
  facet normal 0 1 0
    outer loop
      vertex 3.5 -49 10
      vertex 2.42705 -49 7.26336
      vertex 2.18691 -49 7.55364
    endloop
  endfacet
  facet normal 0 1 0
    outer loop
      vertex 3.5 -49 10
      vertex 2.62892 -49 6.94526
      vertex 2.42705 -49 7.26336
    endloop
  endfacet
  facet normal 0 1 0
    outer loop
      vertex 3.5 -49 10
      vertex 2.78933 -49 6.60437
      vertex 2.62892 -49 6.94526
    endloop
  endfacet
  facet normal 0 1 0
    outer loop
      vertex 3.5 -49 10
      vertex 2.90575 -49 6.24607
      vertex 2.78933 -49 6.60437
    endloop
  endfacet
  facet normal 0 1 0
    outer loop
      vertex 3.5 -49 10
      vertex 2.97634 -49 5.876
      vertex 2.90575 -49 6.24607
    endloop
  endfacet
  facet normal 0 1 0
    outer loop
      vertex 3.5 -49 10
      vertex 3 -49 5.5
      vertex 2.97634 -49 5.876
    endloop
  endfacet
  facet normal 0 1 -0
    outer loop
      vertex 3.5 -49 1
      vertex 3 -49 5.5
      vertex 3.5 -49 10
    endloop
  endfacet
  facet normal 0 1 0
    outer loop
      vertex 0.188371 -49 2.50592
      vertex 3.5 -49 1
      vertex -0.188371 -49 2.50592
    endloop
  endfacet
  facet normal 0 1 0
    outer loop
      vertex 0.562143 -49 2.55314
      vertex 3.5 -49 1
      vertex 0.188371 -49 2.50592
    endloop
  endfacet
  facet normal 0 1 0
    outer loop
      vertex 0.927051 -49 2.64683
      vertex 3.5 -49 1
      vertex 0.562143 -49 2.55314
    endloop
  endfacet
  facet normal 0 1 0
    outer loop
      vertex 1.27734 -49 2.78552
      vertex 3.5 -49 1
      vertex 0.927051 -49 2.64683
    endloop
  endfacet
  facet normal 0 1 0
    outer loop
      vertex 1.60748 -49 2.96702
      vertex 3.5 -49 1
      vertex 1.27734 -49 2.78552
    endloop
  endfacet
  facet normal 0 1 0
    outer loop
      vertex 1.91227 -49 3.18846
      vertex 3.5 -49 1
      vertex 1.60748 -49 2.96702
    endloop
  endfacet
  facet normal 0 1 0
    outer loop
      vertex 2.18691 -49 3.44636
      vertex 3.5 -49 1
      vertex 1.91227 -49 3.18846
    endloop
  endfacet
  facet normal 0 1 0
    outer loop
      vertex 2.42705 -49 3.73664
      vertex 3.5 -49 1
      vertex 2.18691 -49 3.44636
    endloop
  endfacet
  facet normal 0 1 0
    outer loop
      vertex 2.62892 -49 4.05474
      vertex 3.5 -49 1
      vertex 2.42705 -49 3.73664
    endloop
  endfacet
  facet normal 0 1 0
    outer loop
      vertex 2.78933 -49 4.39563
      vertex 3.5 -49 1
      vertex 2.62892 -49 4.05474
    endloop
  endfacet
  facet normal 0 1 0
    outer loop
      vertex 2.90575 -49 4.75393
      vertex 3.5 -49 1
      vertex 2.78933 -49 4.39563
    endloop
  endfacet
  facet normal 0 1 0
    outer loop
      vertex 2.97634 -49 5.124
      vertex 3.5 -49 1
      vertex 2.90575 -49 4.75393
    endloop
  endfacet
  facet normal 0 1 0
    outer loop
      vertex 3 -49 5.5
      vertex 3.5 -49 1
      vertex 2.97634 -49 5.124
    endloop
  endfacet
  facet normal 0 1 0
    outer loop
      vertex 3.5 -49 10
      vertex 49 -49 20
      vertex 5.5 -49 10
    endloop
  endfacet
  facet normal 0 1 -0
    outer loop
      vertex 49 -49 1
      vertex 5.5 -49 10
      vertex 49 -49 20
    endloop
  endfacet
  facet normal 0 1 0
    outer loop
      vertex 5.5 -49 10
      vertex 49 -49 1
      vertex 5.5 -49 9
    endloop
  endfacet
  facet normal 0 1 0
    outer loop
      vertex 4.5 -49 1
      vertex 5.5 -49 9
      vertex 49 -49 1
    endloop
  endfacet
  facet normal 0 1 0
    outer loop
      vertex 5.5 -49 9
      vertex 4.5 -49 1
      vertex 4.5 -49 9
    endloop
  endfacet
  facet normal 0 1 0
    outer loop
      vertex 49 -49 20
      vertex 3.5 -49 10
      vertex -49 -49 20
    endloop
  endfacet
  facet normal 0 1 -0
    outer loop
      vertex -3.5 -49 10
      vertex -49 -49 20
      vertex 3.5 -49 10
    endloop
  endfacet
  facet normal 0 1 -0
    outer loop
      vertex -5.5 -49 10
      vertex -49 -49 20
      vertex -3.5 -49 10
    endloop
  endfacet
  facet normal 0 1 0
    outer loop
      vertex -49 -49 1
      vertex -5.5 -49 10
      vertex -5.5 -49 9
    endloop
  endfacet
  facet normal 0 1 0
    outer loop
      vertex -49 -49 1
      vertex -5.5 -49 9
      vertex -4.5 -49 1
    endloop
  endfacet
  facet normal 0 1 0
    outer loop
      vertex -5.5 -49 10
      vertex -49 -49 1
      vertex -49 -49 20
    endloop
  endfacet
  facet normal 0 1 -0
    outer loop
      vertex -0.188371 -49 8.49408
      vertex -3.5 -49 10
      vertex 0.188371 -49 8.49408
    endloop
  endfacet
  facet normal 0 1 -0
    outer loop
      vertex -0.562143 -49 8.44686
      vertex -3.5 -49 10
      vertex -0.188371 -49 8.49408
    endloop
  endfacet
  facet normal 0 1 -0
    outer loop
      vertex -0.927051 -49 8.35317
      vertex -3.5 -49 10
      vertex -0.562143 -49 8.44686
    endloop
  endfacet
  facet normal 0 1 -0
    outer loop
      vertex -1.27734 -49 8.21448
      vertex -3.5 -49 10
      vertex -0.927051 -49 8.35317
    endloop
  endfacet
  facet normal 0 1 -0
    outer loop
      vertex -1.60748 -49 8.03298
      vertex -3.5 -49 10
      vertex -1.27734 -49 8.21448
    endloop
  endfacet
  facet normal 0 1 -0
    outer loop
      vertex -1.91227 -49 7.81154
      vertex -3.5 -49 10
      vertex -1.60748 -49 8.03298
    endloop
  endfacet
  facet normal 0 1 -0
    outer loop
      vertex -2.18691 -49 7.55364
      vertex -3.5 -49 10
      vertex -1.91227 -49 7.81154
    endloop
  endfacet
  facet normal 0 1 -0
    outer loop
      vertex -2.42705 -49 7.26336
      vertex -3.5 -49 10
      vertex -2.18691 -49 7.55364
    endloop
  endfacet
  facet normal 0 1 -0
    outer loop
      vertex -2.62892 -49 6.94526
      vertex -3.5 -49 10
      vertex -2.42705 -49 7.26336
    endloop
  endfacet
  facet normal 0 1 -0
    outer loop
      vertex -2.78933 -49 6.60437
      vertex -3.5 -49 10
      vertex -2.62892 -49 6.94526
    endloop
  endfacet
  facet normal 0 1 -0
    outer loop
      vertex -2.90575 -49 6.24607
      vertex -3.5 -49 10
      vertex -2.78933 -49 6.60437
    endloop
  endfacet
  facet normal 0 1 -0
    outer loop
      vertex -2.97634 -49 5.876
      vertex -3.5 -49 10
      vertex -2.90575 -49 6.24607
    endloop
  endfacet
  facet normal 0 1 -0
    outer loop
      vertex -3 -49 5.5
      vertex -3.5 -49 10
      vertex -2.97634 -49 5.876
    endloop
  endfacet
  facet normal 0 1 0
    outer loop
      vertex -3.5 -49 1
      vertex -3 -49 5.5
      vertex -2.97634 -49 5.124
    endloop
  endfacet
  facet normal 0 1 0
    outer loop
      vertex -3.5 -49 1
      vertex -0.188371 -49 2.50592
      vertex 3.5 -49 1
    endloop
  endfacet
  facet normal 0 1 0
    outer loop
      vertex -0.188371 -49 2.50592
      vertex -3.5 -49 1
      vertex -0.562143 -49 2.55314
    endloop
  endfacet
  facet normal 0 1 0
    outer loop
      vertex -3 -49 5.5
      vertex -3.5 -49 1
      vertex -3.5 -49 10
    endloop
  endfacet
  facet normal 0 1 0
    outer loop
      vertex -2.90575 -49 4.75393
      vertex -3.5 -49 1
      vertex -2.97634 -49 5.124
    endloop
  endfacet
  facet normal 0 1 0
    outer loop
      vertex -2.78933 -49 4.39563
      vertex -3.5 -49 1
      vertex -2.90575 -49 4.75393
    endloop
  endfacet
  facet normal 0 1 0
    outer loop
      vertex -2.62892 -49 4.05474
      vertex -3.5 -49 1
      vertex -2.78933 -49 4.39563
    endloop
  endfacet
  facet normal 0 1 0
    outer loop
      vertex -2.42705 -49 3.73664
      vertex -3.5 -49 1
      vertex -2.62892 -49 4.05474
    endloop
  endfacet
  facet normal 0 1 0
    outer loop
      vertex -2.18691 -49 3.44636
      vertex -3.5 -49 1
      vertex -2.42705 -49 3.73664
    endloop
  endfacet
  facet normal 0 1 0
    outer loop
      vertex -1.91227 -49 3.18846
      vertex -3.5 -49 1
      vertex -2.18691 -49 3.44636
    endloop
  endfacet
  facet normal 0 1 0
    outer loop
      vertex -1.60748 -49 2.96702
      vertex -3.5 -49 1
      vertex -1.91227 -49 3.18846
    endloop
  endfacet
  facet normal 0 1 0
    outer loop
      vertex -1.27734 -49 2.78552
      vertex -3.5 -49 1
      vertex -1.60748 -49 2.96702
    endloop
  endfacet
  facet normal 0 1 0
    outer loop
      vertex -0.927051 -49 2.64683
      vertex -3.5 -49 1
      vertex -1.27734 -49 2.78552
    endloop
  endfacet
  facet normal 0 1 0
    outer loop
      vertex -0.562143 -49 2.55314
      vertex -3.5 -49 1
      vertex -0.927051 -49 2.64683
    endloop
  endfacet
  facet normal 0.248684 0 -0.968585
    outer loop
      vertex -0.927051 -50 8.35317
      vertex -0.562143 -49 8.44686
      vertex -0.562143 -50 8.44686
    endloop
  endfacet
  facet normal 0.248684 0 -0.968585
    outer loop
      vertex -0.562143 -49 8.44686
      vertex -0.927051 -50 8.35317
      vertex -0.927051 -49 8.35317
    endloop
  endfacet
  facet normal -0.98229 0 -0.187369
    outer loop
      vertex 2.97634 -50 5.876
      vertex 2.90575 -49 6.24607
      vertex 2.97634 -49 5.876
    endloop
  endfacet
  facet normal -0.98229 -0 -0.187369
    outer loop
      vertex 2.90575 -49 6.24607
      vertex 2.97634 -50 5.876
      vertex 2.90575 -50 6.24607
    endloop
  endfacet
  facet normal -0.998026 0 -0.0628013
    outer loop
      vertex 3 -50 5.5
      vertex 2.97634 -49 5.876
      vertex 3 -49 5.5
    endloop
  endfacet
  facet normal -0.998026 -0 -0.0628013
    outer loop
      vertex 2.97634 -49 5.876
      vertex 3 -50 5.5
      vertex 2.97634 -50 5.876
    endloop
  endfacet
  facet normal -0.368126 0 -0.929776
    outer loop
      vertex 0.927051 -50 8.35317
      vertex 1.27734 -49 8.21448
      vertex 1.27734 -50 8.21448
    endloop
  endfacet
  facet normal -0.368126 0 -0.929776
    outer loop
      vertex 1.27734 -49 8.21448
      vertex 0.927051 -50 8.35317
      vertex 0.927051 -49 8.35317
    endloop
  endfacet
  facet normal -0.684541 0 -0.728974
    outer loop
      vertex 1.91227 -50 7.81154
      vertex 2.18691 -49 7.55364
      vertex 2.18691 -50 7.55364
    endloop
  endfacet
  facet normal -0.684541 0 -0.728974
    outer loop
      vertex 2.18691 -49 7.55364
      vertex 1.91227 -50 7.81154
      vertex 1.91227 -49 7.81154
    endloop
  endfacet
  facet normal -0.770514 0 0.637423
    outer loop
      vertex 2.18691 -50 3.44636
      vertex 2.42705 -49 3.73664
      vertex 2.18691 -49 3.44636
    endloop
  endfacet
  facet normal -0.770514 0 0.637423
    outer loop
      vertex 2.42705 -49 3.73664
      vertex 2.18691 -50 3.44636
      vertex 2.42705 -50 3.73664
    endloop
  endfacet
  facet normal 0.248684 0 0.968585
    outer loop
      vertex -0.927051 -49 2.64683
      vertex -0.562143 -50 2.55314
      vertex -0.562143 -49 2.55314
    endloop
  endfacet
  facet normal 0.248684 0 0.968585
    outer loop
      vertex -0.562143 -50 2.55314
      vertex -0.927051 -49 2.64683
      vertex -0.927051 -50 2.64683
    endloop
  endfacet
  facet normal -0.58778 0 -0.809021
    outer loop
      vertex 1.60748 -50 8.03298
      vertex 1.91227 -49 7.81154
      vertex 1.91227 -50 7.81154
    endloop
  endfacet
  facet normal -0.58778 0 -0.809021
    outer loop
      vertex 1.91227 -49 7.81154
      vertex 1.60748 -50 8.03298
      vertex 1.60748 -49 8.03298
    endloop
  endfacet
  facet normal 0.368126 0 -0.929776
    outer loop
      vertex -1.27734 -50 8.21448
      vertex -0.927051 -49 8.35317
      vertex -0.927051 -50 8.35317
    endloop
  endfacet
  facet normal 0.368126 0 -0.929776
    outer loop
      vertex -0.927051 -49 8.35317
      vertex -1.27734 -50 8.21448
      vertex -1.27734 -49 8.21448
    endloop
  endfacet
  facet normal -0.844331 0 -0.535822
    outer loop
      vertex 2.62892 -50 6.94526
      vertex 2.42705 -49 7.26336
      vertex 2.62892 -49 6.94526
    endloop
  endfacet
  facet normal -0.844331 -0 -0.535822
    outer loop
      vertex 2.42705 -49 7.26336
      vertex 2.62892 -50 6.94526
      vertex 2.42705 -50 7.26336
    endloop
  endfacet
  facet normal 0.98229 -0 0.187369
    outer loop
      vertex -2.97634 -50 5.124
      vertex -2.90575 -49 4.75393
      vertex -2.97634 -49 5.124
    endloop
  endfacet
  facet normal 0.98229 0 0.187369
    outer loop
      vertex -2.90575 -49 4.75393
      vertex -2.97634 -50 5.124
      vertex -2.90575 -50 4.75393
    endloop
  endfacet
  facet normal 0.481762 0 0.876302
    outer loop
      vertex -1.60748 -49 2.96702
      vertex -1.27734 -50 2.78552
      vertex -1.27734 -49 2.78552
    endloop
  endfacet
  facet normal 0.481762 0 0.876302
    outer loop
      vertex -1.27734 -50 2.78552
      vertex -1.60748 -49 2.96702
      vertex -1.60748 -50 2.96702
    endloop
  endfacet
  facet normal -0.844331 0 0.535822
    outer loop
      vertex 2.42705 -50 3.73664
      vertex 2.62892 -49 4.05474
      vertex 2.42705 -49 3.73664
    endloop
  endfacet
  facet normal -0.844331 0 0.535822
    outer loop
      vertex 2.62892 -49 4.05474
      vertex 2.42705 -50 3.73664
      vertex 2.62892 -50 4.05474
    endloop
  endfacet
  facet normal 0.125337 0 -0.992114
    outer loop
      vertex -0.562143 -50 8.44686
      vertex -0.188371 -49 8.49408
      vertex -0.188371 -50 8.49408
    endloop
  endfacet
  facet normal 0.125337 0 -0.992114
    outer loop
      vertex -0.188371 -49 8.49408
      vertex -0.562143 -50 8.44686
      vertex -0.562143 -49 8.44686
    endloop
  endfacet
  facet normal 0.684541 0 0.728974
    outer loop
      vertex -2.18691 -49 3.44636
      vertex -1.91227 -50 3.18846
      vertex -1.91227 -49 3.18846
    endloop
  endfacet
  facet normal 0.684541 0 0.728974
    outer loop
      vertex -1.91227 -50 3.18846
      vertex -2.18691 -49 3.44636
      vertex -2.18691 -50 3.44636
    endloop
  endfacet
  facet normal 0.684541 0 -0.728974
    outer loop
      vertex -2.18691 -50 7.55364
      vertex -1.91227 -49 7.81154
      vertex -1.91227 -50 7.81154
    endloop
  endfacet
  facet normal 0.684541 0 -0.728974
    outer loop
      vertex -1.91227 -49 7.81154
      vertex -2.18691 -50 7.55364
      vertex -2.18691 -49 7.55364
    endloop
  endfacet
  facet normal -0.951056 0 -0.30902
    outer loop
      vertex 2.90575 -50 6.24607
      vertex 2.78933 -49 6.60437
      vertex 2.90575 -49 6.24607
    endloop
  endfacet
  facet normal -0.951056 -0 -0.30902
    outer loop
      vertex 2.78933 -49 6.60437
      vertex 2.90575 -50 6.24607
      vertex 2.78933 -50 6.60437
    endloop
  endfacet
  facet normal 0.481762 0 -0.876302
    outer loop
      vertex -1.60748 -50 8.03298
      vertex -1.27734 -49 8.21448
      vertex -1.27734 -50 8.21448
    endloop
  endfacet
  facet normal 0.481762 0 -0.876302
    outer loop
      vertex -1.27734 -49 8.21448
      vertex -1.60748 -50 8.03298
      vertex -1.60748 -49 8.03298
    endloop
  endfacet
  facet normal -0.368126 0 0.929776
    outer loop
      vertex 0.927051 -49 2.64683
      vertex 1.27734 -50 2.78552
      vertex 1.27734 -49 2.78552
    endloop
  endfacet
  facet normal -0.368126 0 0.929776
    outer loop
      vertex 1.27734 -50 2.78552
      vertex 0.927051 -49 2.64683
      vertex 0.927051 -50 2.64683
    endloop
  endfacet
  facet normal 0.998026 0 -0.0628013
    outer loop
      vertex -2.97634 -50 5.876
      vertex -3 -49 5.5
      vertex -2.97634 -49 5.876
    endloop
  endfacet
  facet normal 0.998026 0 -0.0628013
    outer loop
      vertex -3 -49 5.5
      vertex -2.97634 -50 5.876
      vertex -3 -50 5.5
    endloop
  endfacet
  facet normal -0.481762 0 0.876302
    outer loop
      vertex 1.27734 -49 2.78552
      vertex 1.60748 -50 2.96702
      vertex 1.60748 -49 2.96702
    endloop
  endfacet
  facet normal -0.481762 0 0.876302
    outer loop
      vertex 1.60748 -50 2.96702
      vertex 1.27734 -49 2.78552
      vertex 1.27734 -50 2.78552
    endloop
  endfacet
  facet normal -0.58778 0 0.809021
    outer loop
      vertex 1.60748 -49 2.96702
      vertex 1.91227 -50 3.18846
      vertex 1.91227 -49 3.18846
    endloop
  endfacet
  facet normal -0.58778 0 0.809021
    outer loop
      vertex 1.91227 -50 3.18846
      vertex 1.60748 -49 2.96702
      vertex 1.60748 -50 2.96702
    endloop
  endfacet
  facet normal 0.58778 0 0.809021
    outer loop
      vertex -1.91227 -49 3.18846
      vertex -1.60748 -50 2.96702
      vertex -1.60748 -49 2.96702
    endloop
  endfacet
  facet normal 0.58778 0 0.809021
    outer loop
      vertex -1.60748 -50 2.96702
      vertex -1.91227 -49 3.18846
      vertex -1.91227 -50 3.18846
    endloop
  endfacet
  facet normal 0.951056 -0 0.30902
    outer loop
      vertex -2.90575 -50 4.75393
      vertex -2.78933 -49 4.39563
      vertex -2.90575 -49 4.75393
    endloop
  endfacet
  facet normal 0.951056 0 0.30902
    outer loop
      vertex -2.78933 -49 4.39563
      vertex -2.90575 -50 4.75393
      vertex -2.78933 -50 4.39563
    endloop
  endfacet
  facet normal 0 0 -1
    outer loop
      vertex -0.188371 -50 8.49408
      vertex 0.188371 -49 8.49408
      vertex 0.188371 -50 8.49408
    endloop
  endfacet
  facet normal -0 0 -1
    outer loop
      vertex 0.188371 -49 8.49408
      vertex -0.188371 -50 8.49408
      vertex -0.188371 -49 8.49408
    endloop
  endfacet
  facet normal 0.58778 0 -0.809021
    outer loop
      vertex -1.91227 -50 7.81154
      vertex -1.60748 -49 8.03298
      vertex -1.60748 -50 8.03298
    endloop
  endfacet
  facet normal 0.58778 0 -0.809021
    outer loop
      vertex -1.60748 -49 8.03298
      vertex -1.91227 -50 7.81154
      vertex -1.91227 -49 7.81154
    endloop
  endfacet
  facet normal -0.951056 0 0.30902
    outer loop
      vertex 2.78933 -50 4.39563
      vertex 2.90575 -49 4.75393
      vertex 2.78933 -49 4.39563
    endloop
  endfacet
  facet normal -0.951056 0 0.30902
    outer loop
      vertex 2.90575 -49 4.75393
      vertex 2.78933 -50 4.39563
      vertex 2.90575 -50 4.75393
    endloop
  endfacet
  facet normal 0.904828 -0 0.425778
    outer loop
      vertex -2.78933 -50 4.39563
      vertex -2.62892 -49 4.05474
      vertex -2.78933 -49 4.39563
    endloop
  endfacet
  facet normal 0.904828 0 0.425778
    outer loop
      vertex -2.62892 -49 4.05474
      vertex -2.78933 -50 4.39563
      vertex -2.62892 -50 4.05474
    endloop
  endfacet
  facet normal 0.951056 0 -0.30902
    outer loop
      vertex -2.78933 -50 6.60437
      vertex -2.90575 -49 6.24607
      vertex -2.78933 -49 6.60437
    endloop
  endfacet
  facet normal 0.951056 0 -0.30902
    outer loop
      vertex -2.90575 -49 6.24607
      vertex -2.78933 -50 6.60437
      vertex -2.90575 -50 6.24607
    endloop
  endfacet
  facet normal 0.844331 0 -0.535822
    outer loop
      vertex -2.42705 -50 7.26336
      vertex -2.62892 -49 6.94526
      vertex -2.42705 -49 7.26336
    endloop
  endfacet
  facet normal 0.844331 0 -0.535822
    outer loop
      vertex -2.62892 -49 6.94526
      vertex -2.42705 -50 7.26336
      vertex -2.62892 -50 6.94526
    endloop
  endfacet
  facet normal -0.98229 0 0.187369
    outer loop
      vertex 2.90575 -50 4.75393
      vertex 2.97634 -49 5.124
      vertex 2.90575 -49 4.75393
    endloop
  endfacet
  facet normal -0.98229 0 0.187369
    outer loop
      vertex 2.97634 -49 5.124
      vertex 2.90575 -50 4.75393
      vertex 2.97634 -50 5.124
    endloop
  endfacet
  facet normal -0.125337 0 -0.992114
    outer loop
      vertex 0.188371 -50 8.49408
      vertex 0.562143 -49 8.44686
      vertex 0.562143 -50 8.44686
    endloop
  endfacet
  facet normal -0.125337 0 -0.992114
    outer loop
      vertex 0.562143 -49 8.44686
      vertex 0.188371 -50 8.49408
      vertex 0.188371 -49 8.49408
    endloop
  endfacet
  facet normal -0.904828 0 0.425778
    outer loop
      vertex 2.62892 -50 4.05474
      vertex 2.78933 -49 4.39563
      vertex 2.62892 -49 4.05474
    endloop
  endfacet
  facet normal -0.904828 0 0.425778
    outer loop
      vertex 2.78933 -49 4.39563
      vertex 2.62892 -50 4.05474
      vertex 2.78933 -50 4.39563
    endloop
  endfacet
  facet normal -0.904828 0 -0.425778
    outer loop
      vertex 2.78933 -50 6.60437
      vertex 2.62892 -49 6.94526
      vertex 2.78933 -49 6.60437
    endloop
  endfacet
  facet normal -0.904828 -0 -0.425778
    outer loop
      vertex 2.62892 -49 6.94526
      vertex 2.78933 -50 6.60437
      vertex 2.62892 -50 6.94526
    endloop
  endfacet
  facet normal -0.248684 0 0.968585
    outer loop
      vertex 0.562143 -49 2.55314
      vertex 0.927051 -50 2.64683
      vertex 0.927051 -49 2.64683
    endloop
  endfacet
  facet normal -0.248684 0 0.968585
    outer loop
      vertex 0.927051 -50 2.64683
      vertex 0.562143 -49 2.55314
      vertex 0.562143 -50 2.55314
    endloop
  endfacet
  facet normal -0.998026 0 0.0628013
    outer loop
      vertex 2.97634 -50 5.124
      vertex 3 -49 5.5
      vertex 2.97634 -49 5.124
    endloop
  endfacet
  facet normal -0.998026 0 0.0628013
    outer loop
      vertex 3 -49 5.5
      vertex 2.97634 -50 5.124
      vertex 3 -50 5.5
    endloop
  endfacet
  facet normal -0.481762 0 -0.876302
    outer loop
      vertex 1.27734 -50 8.21448
      vertex 1.60748 -49 8.03298
      vertex 1.60748 -50 8.03298
    endloop
  endfacet
  facet normal -0.481762 0 -0.876302
    outer loop
      vertex 1.60748 -49 8.03298
      vertex 1.27734 -50 8.21448
      vertex 1.27734 -49 8.21448
    endloop
  endfacet
  facet normal -0.684541 0 0.728974
    outer loop
      vertex 1.91227 -49 3.18846
      vertex 2.18691 -50 3.44636
      vertex 2.18691 -49 3.44636
    endloop
  endfacet
  facet normal -0.684541 0 0.728974
    outer loop
      vertex 2.18691 -50 3.44636
      vertex 1.91227 -49 3.18846
      vertex 1.91227 -50 3.18846
    endloop
  endfacet
  facet normal 0.770514 0 -0.637423
    outer loop
      vertex -2.18691 -50 7.55364
      vertex -2.42705 -49 7.26336
      vertex -2.18691 -49 7.55364
    endloop
  endfacet
  facet normal 0.770514 0 -0.637423
    outer loop
      vertex -2.42705 -49 7.26336
      vertex -2.18691 -50 7.55364
      vertex -2.42705 -50 7.26336
    endloop
  endfacet
  facet normal 0.368126 0 0.929776
    outer loop
      vertex -1.27734 -49 2.78552
      vertex -0.927051 -50 2.64683
      vertex -0.927051 -49 2.64683
    endloop
  endfacet
  facet normal 0.368126 0 0.929776
    outer loop
      vertex -0.927051 -50 2.64683
      vertex -1.27734 -49 2.78552
      vertex -1.27734 -50 2.78552
    endloop
  endfacet
  facet normal -0.770514 0 -0.637423
    outer loop
      vertex 2.42705 -50 7.26336
      vertex 2.18691 -49 7.55364
      vertex 2.42705 -49 7.26336
    endloop
  endfacet
  facet normal -0.770514 -0 -0.637423
    outer loop
      vertex 2.18691 -49 7.55364
      vertex 2.42705 -50 7.26336
      vertex 2.18691 -50 7.55364
    endloop
  endfacet
  facet normal 0.125337 0 0.992114
    outer loop
      vertex -0.562143 -49 2.55314
      vertex -0.188371 -50 2.50592
      vertex -0.188371 -49 2.50592
    endloop
  endfacet
  facet normal 0.125337 0 0.992114
    outer loop
      vertex -0.188371 -50 2.50592
      vertex -0.562143 -49 2.55314
      vertex -0.562143 -50 2.55314
    endloop
  endfacet
  facet normal -0.125337 0 0.992114
    outer loop
      vertex 0.188371 -49 2.50592
      vertex 0.562143 -50 2.55314
      vertex 0.562143 -49 2.55314
    endloop
  endfacet
  facet normal -0.125337 0 0.992114
    outer loop
      vertex 0.562143 -50 2.55314
      vertex 0.188371 -49 2.50592
      vertex 0.188371 -50 2.50592
    endloop
  endfacet
  facet normal 0.770514 -0 0.637423
    outer loop
      vertex -2.42705 -50 3.73664
      vertex -2.18691 -49 3.44636
      vertex -2.42705 -49 3.73664
    endloop
  endfacet
  facet normal 0.770514 0 0.637423
    outer loop
      vertex -2.18691 -49 3.44636
      vertex -2.42705 -50 3.73664
      vertex -2.18691 -50 3.44636
    endloop
  endfacet
  facet normal 0.998026 -0 0.0628013
    outer loop
      vertex -3 -50 5.5
      vertex -2.97634 -49 5.124
      vertex -3 -49 5.5
    endloop
  endfacet
  facet normal 0.998026 0 0.0628013
    outer loop
      vertex -2.97634 -49 5.124
      vertex -3 -50 5.5
      vertex -2.97634 -50 5.124
    endloop
  endfacet
  facet normal -0 0 1
    outer loop
      vertex -0.188371 -49 2.50592
      vertex 0.188371 -50 2.50592
      vertex 0.188371 -49 2.50592
    endloop
  endfacet
  facet normal 0 0 1
    outer loop
      vertex 0.188371 -50 2.50592
      vertex -0.188371 -49 2.50592
      vertex -0.188371 -50 2.50592
    endloop
  endfacet
  facet normal 0.904828 0 -0.425778
    outer loop
      vertex -2.62892 -50 6.94526
      vertex -2.78933 -49 6.60437
      vertex -2.62892 -49 6.94526
    endloop
  endfacet
  facet normal 0.904828 0 -0.425778
    outer loop
      vertex -2.78933 -49 6.60437
      vertex -2.62892 -50 6.94526
      vertex -2.78933 -50 6.60437
    endloop
  endfacet
  facet normal -0.248684 0 -0.968585
    outer loop
      vertex 0.562143 -50 8.44686
      vertex 0.927051 -49 8.35317
      vertex 0.927051 -50 8.35317
    endloop
  endfacet
  facet normal -0.248684 0 -0.968585
    outer loop
      vertex 0.927051 -49 8.35317
      vertex 0.562143 -50 8.44686
      vertex 0.562143 -49 8.44686
    endloop
  endfacet
  facet normal 0.98229 0 -0.187369
    outer loop
      vertex -2.90575 -50 6.24607
      vertex -2.97634 -49 5.876
      vertex -2.90575 -49 6.24607
    endloop
  endfacet
  facet normal 0.98229 0 -0.187369
    outer loop
      vertex -2.97634 -49 5.876
      vertex -2.90575 -50 6.24607
      vertex -2.97634 -50 5.876
    endloop
  endfacet
  facet normal 0.844331 -0 0.535822
    outer loop
      vertex -2.62892 -50 4.05474
      vertex -2.42705 -49 3.73664
      vertex -2.62892 -49 4.05474
    endloop
  endfacet
  facet normal 0.844331 0 0.535822
    outer loop
      vertex -2.42705 -49 3.73664
      vertex -2.62892 -50 4.05474
      vertex -2.42705 -50 3.73664
    endloop
  endfacet
  facet normal 0 0 -1
    outer loop
      vertex 49 -13 13
      vertex 50 15 13
      vertex 50 -13 13
    endloop
  endfacet
  facet normal -0 0 -1
    outer loop
      vertex 50 15 13
      vertex 49 -13 13
      vertex 49 15 13
    endloop
  endfacet
  facet normal 0 1 -0
    outer loop
      vertex 50 -13 5
      vertex 49 -13 13
      vertex 50 -13 13
    endloop
  endfacet
  facet normal 0 1 0
    outer loop
      vertex 49 -13 13
      vertex 50 -13 5
      vertex 49 -13 5
    endloop
  endfacet
  facet normal -0 0 1
    outer loop
      vertex 49 15 5
      vertex 50 -13 5
      vertex 50 15 5
    endloop
  endfacet
  facet normal 0 0 1
    outer loop
      vertex 50 -13 5
      vertex 49 15 5
      vertex 49 -13 5
    endloop
  endfacet
  facet normal 0 -1 0
    outer loop
      vertex 49 15 5
      vertex 50 15 13
      vertex 49 15 13
    endloop
  endfacet
  facet normal 0 -1 -0
    outer loop
      vertex 50 15 13
      vertex 49 15 5
      vertex 50 15 5
    endloop
  endfacet
  facet normal 1 0 0
    outer loop
      vertex 4.5 -41.5 9
      vertex 4.5 -49 9
      vertex 4.5 -41.5 2
    endloop
  endfacet
  facet normal 1 -0 0
    outer loop
      vertex 4.5 -41.5 2
      vertex 4.5 -40.5 1
      vertex 4.5 -40.5 2
    endloop
  endfacet
  facet normal 1 0 0
    outer loop
      vertex 4.5 -49 1
      vertex 4.5 -41.5 2
      vertex 4.5 -49 9
    endloop
  endfacet
  facet normal 1 0 0
    outer loop
      vertex 4.5 -41.5 2
      vertex 4.5 -49 1
      vertex 4.5 -40.5 1
    endloop
  endfacet
  facet normal 0 0 -1
    outer loop
      vertex 4.5 -49 9
      vertex 5.5 -41.5 9
      vertex 5.5 -49 9
    endloop
  endfacet
  facet normal -0 0 -1
    outer loop
      vertex 5.5 -41.5 9
      vertex 4.5 -49 9
      vertex 4.5 -41.5 9
    endloop
  endfacet
  facet normal 0 0 -1
    outer loop
      vertex -5.5 -49 9
      vertex -4.5 -41.5 9
      vertex -4.5 -49 9
    endloop
  endfacet
  facet normal -0 0 -1
    outer loop
      vertex -4.5 -41.5 9
      vertex -5.5 -49 9
      vertex -5.5 -41.5 9
    endloop
  endfacet
  facet normal -1 0 0
    outer loop
      vertex -4.5 -40.5 1
      vertex -4.5 -41.5 2
      vertex -4.5 -40.5 2
    endloop
  endfacet
  facet normal -1 0 0
    outer loop
      vertex -4.5 -49 1
      vertex -4.5 -41.5 2
      vertex -4.5 -40.5 1
    endloop
  endfacet
  facet normal -1 0 0
    outer loop
      vertex -4.5 -49 9
      vertex -4.5 -41.5 2
      vertex -4.5 -49 1
    endloop
  endfacet
  facet normal -1 0 0
    outer loop
      vertex -4.5 -41.5 2
      vertex -4.5 -49 9
      vertex -4.5 -41.5 9
    endloop
  endfacet
  facet normal 0 1 0
    outer loop
      vertex -3.5 -41.5 10
      vertex -4.5 -41.5 9
      vertex -5.5 -41.5 10
    endloop
  endfacet
  facet normal 0 1 -0
    outer loop
      vertex -3.5 -41.5 2
      vertex -4.5 -41.5 9
      vertex -3.5 -41.5 10
    endloop
  endfacet
  facet normal 0 1 0
    outer loop
      vertex -4.5 -41.5 9
      vertex -3.5 -41.5 2
      vertex -4.5 -41.5 2
    endloop
  endfacet
  facet normal 0 1 0
    outer loop
      vertex -5.5 -41.5 10
      vertex -4.5 -41.5 9
      vertex -5.5 -41.5 9
    endloop
  endfacet
  facet normal 0 1 0
    outer loop
      vertex 4.5 -41.5 9
      vertex 5.5 -41.5 10
      vertex 5.5 -41.5 9
    endloop
  endfacet
  facet normal 0 1 0
    outer loop
      vertex 5.5 -41.5 10
      vertex 4.5 -41.5 9
      vertex 3.5 -41.5 10
    endloop
  endfacet
  facet normal 0 1 0
    outer loop
      vertex 3.5 -41.5 2
      vertex 4.5 -41.5 9
      vertex 4.5 -41.5 2
    endloop
  endfacet
  facet normal 0 1 0
    outer loop
      vertex 4.5 -41.5 9
      vertex 3.5 -41.5 2
      vertex 3.5 -41.5 10
    endloop
  endfacet
  facet normal 0 -1 0
    outer loop
      vertex -3.5 -41.5 1
      vertex -1 -41.5 2
      vertex -3.5 -41.5 2
    endloop
  endfacet
  facet normal 0 -1 -0
    outer loop
      vertex -1 -41.5 2
      vertex -3.5 -41.5 1
      vertex -1 -41.5 1
    endloop
  endfacet
  facet normal 0 -1 0
    outer loop
      vertex 1 -41.5 1
      vertex 3.5 -41.5 2
      vertex 1 -41.5 2
    endloop
  endfacet
  facet normal 0 -1 -0
    outer loop
      vertex 3.5 -41.5 2
      vertex 1 -41.5 1
      vertex 3.5 -41.5 1
    endloop
  endfacet
  facet normal 1 -0 0
    outer loop
      vertex 5.5 -49 10
      vertex 5.5 -41.5 9
      vertex 5.5 -41.5 10
    endloop
  endfacet
  facet normal 1 0 0
    outer loop
      vertex 5.5 -41.5 9
      vertex 5.5 -49 10
      vertex 5.5 -49 9
    endloop
  endfacet
  facet normal -0 0 1
    outer loop
      vertex -5.5 -41.5 10
      vertex -3.5 -49 10
      vertex -3.5 -41.5 10
    endloop
  endfacet
  facet normal 0 0 1
    outer loop
      vertex -3.5 -49 10
      vertex -5.5 -41.5 10
      vertex -5.5 -49 10
    endloop
  endfacet
  facet normal -0 0 1
    outer loop
      vertex 3.5 -41.5 10
      vertex 5.5 -49 10
      vertex 5.5 -41.5 10
    endloop
  endfacet
  facet normal 0 0 1
    outer loop
      vertex 5.5 -49 10
      vertex 3.5 -41.5 10
      vertex 3.5 -49 10
    endloop
  endfacet
  facet normal -1 0 0
    outer loop
      vertex -5.5 -49 9
      vertex -5.5 -41.5 10
      vertex -5.5 -41.5 9
    endloop
  endfacet
  facet normal -1 -0 0
    outer loop
      vertex -5.5 -41.5 10
      vertex -5.5 -49 9
      vertex -5.5 -49 10
    endloop
  endfacet
  facet normal -0 0 1
    outer loop
      vertex -4.5 -40.5 2
      vertex -3.5 -41.5 2
      vertex -3.5 -40.5 2
    endloop
  endfacet
  facet normal 0 0 1
    outer loop
      vertex -3.5 -41.5 2
      vertex -4.5 -40.5 2
      vertex -4.5 -41.5 2
    endloop
  endfacet
  facet normal -0 0 1
    outer loop
      vertex 3.5 -40.5 2
      vertex 4.5 -41.5 2
      vertex 4.5 -40.5 2
    endloop
  endfacet
  facet normal 0 0 1
    outer loop
      vertex 4.5 -41.5 2
      vertex 3.5 -40.5 2
      vertex 3.5 -41.5 2
    endloop
  endfacet
  facet normal -0 0 1
    outer loop
      vertex -3.5 -40.5 2
      vertex -1 -41.5 2
      vertex -1 -40.5 2
    endloop
  endfacet
  facet normal 0 0 1
    outer loop
      vertex -1 -41.5 2
      vertex -3.5 -40.5 2
      vertex -3.5 -41.5 2
    endloop
  endfacet
  facet normal -0 0 1
    outer loop
      vertex 1 -40.5 2
      vertex 3.5 -41.5 2
      vertex 3.5 -40.5 2
    endloop
  endfacet
  facet normal 0 0 1
    outer loop
      vertex 3.5 -41.5 2
      vertex 1 -40.5 2
      vertex 1 -41.5 2
    endloop
  endfacet
  facet normal 0 1 -0
    outer loop
      vertex -1 -40.5 1
      vertex -3.5 -40.5 2
      vertex -1 -40.5 2
    endloop
  endfacet
  facet normal 0 1 0
    outer loop
      vertex -4.5 -40.5 1
      vertex -3.5 -40.5 2
      vertex -1 -40.5 1
    endloop
  endfacet
  facet normal 0 1 0
    outer loop
      vertex -3.5 -40.5 2
      vertex -4.5 -40.5 1
      vertex -4.5 -40.5 2
    endloop
  endfacet
  facet normal 0 1 -0
    outer loop
      vertex 4.5 -40.5 1
      vertex 3.5 -40.5 2
      vertex 4.5 -40.5 2
    endloop
  endfacet
  facet normal 0 1 0
    outer loop
      vertex 1 -40.5 1
      vertex 3.5 -40.5 2
      vertex 4.5 -40.5 1
    endloop
  endfacet
  facet normal 0 1 0
    outer loop
      vertex 3.5 -40.5 2
      vertex 1 -40.5 1
      vertex 1 -40.5 2
    endloop
  endfacet
  facet normal -1 0 0
    outer loop
      vertex 1 -41.5 1
      vertex 1 -40.5 2
      vertex 1 -40.5 1
    endloop
  endfacet
  facet normal -1 -0 0
    outer loop
      vertex 1 -40.5 2
      vertex 1 -41.5 1
      vertex 1 -41.5 2
    endloop
  endfacet
  facet normal 1 -0 0
    outer loop
      vertex -1 -41.5 2
      vertex -1 -40.5 1
      vertex -1 -40.5 2
    endloop
  endfacet
  facet normal 1 0 0
    outer loop
      vertex -1 -40.5 1
      vertex -1 -41.5 2
      vertex -1 -41.5 1
    endloop
  endfacet
  facet normal -1 0 0
    outer loop
      vertex 3.5 -49 1
      vertex 3.5 -41.5 2
      vertex 3.5 -41.5 1
    endloop
  endfacet
  facet normal -1 0 0
    outer loop
      vertex 3.5 -49 10
      vertex 3.5 -41.5 2
      vertex 3.5 -49 1
    endloop
  endfacet
  facet normal -1 0 0
    outer loop
      vertex 3.5 -41.5 2
      vertex 3.5 -49 10
      vertex 3.5 -41.5 10
    endloop
  endfacet
  facet normal 1 -0 0
    outer loop
      vertex -3.5 -49 10
      vertex -3.5 -41.5 2
      vertex -3.5 -41.5 10
    endloop
  endfacet
  facet normal 1 0 0
    outer loop
      vertex -3.5 -49 1
      vertex -3.5 -41.5 2
      vertex -3.5 -49 10
    endloop
  endfacet
  facet normal 1 0 0
    outer loop
      vertex -3.5 -41.5 2
      vertex -3.5 -49 1
      vertex -3.5 -41.5 1
    endloop
  endfacet
  facet normal 0 1 -0
    outer loop
      vertex 49 20 1
      vertex 44 20 15
      vertex 49 20 15
    endloop
  endfacet
  facet normal 0 1 0
    outer loop
      vertex 44 20 15
      vertex 49 20 1
      vertex 44 20 1
    endloop
  endfacet
  facet normal -0 0 1
    outer loop
      vertex 44 -20 15
      vertex 49 -22 15
      vertex 49 -20 15
    endloop
  endfacet
  facet normal 0 0 1
    outer loop
      vertex 49 -22 15
      vertex 44 -20 15
      vertex 44 -22 15
    endloop
  endfacet
  facet normal 0 0 1
    outer loop
      vertex 49 20 15
      vertex 45.5 19 15
      vertex 49 19 15
    endloop
  endfacet
  facet normal -0 0 1
    outer loop
      vertex 44 20 15
      vertex 45.5 19 15
      vertex 49 20 15
    endloop
  endfacet
  facet normal 0 0 1
    outer loop
      vertex 44 -17 15
      vertex 45.5 19 15
      vertex 44 20 15
    endloop
  endfacet
  facet normal 0 0 1
    outer loop
      vertex 45.5 19 15
      vertex 44 -17 15
      vertex 45.5 -17 15
    endloop
  endfacet
  facet normal 0 -1 0
    outer loop
      vertex 44 -22 1
      vertex 49 -22 15
      vertex 44 -22 15
    endloop
  endfacet
  facet normal 0 -1 -0
    outer loop
      vertex 49 -22 15
      vertex 44 -22 1
      vertex 49 -22 1
    endloop
  endfacet
  facet normal -1 0 0
    outer loop
      vertex 44 20 1
      vertex 44 -17 4
      vertex 44 20 15
    endloop
  endfacet
  facet normal -1 0 0
    outer loop
      vertex 44 -22 1
      vertex 44 -17 4
      vertex 44 20 1
    endloop
  endfacet
  facet normal -1 -0 0
    outer loop
      vertex 44 -17 4
      vertex 44 -22 1
      vertex 44 -20 4
    endloop
  endfacet
  facet normal -1 0 0
    outer loop
      vertex 44 -22 15
      vertex 44 -20 4
      vertex 44 -22 1
    endloop
  endfacet
  facet normal -1 0 0
    outer loop
      vertex 44 -20 4
      vertex 44 -22 15
      vertex 44 -20 15
    endloop
  endfacet
  facet normal -1 -0 0
    outer loop
      vertex 44 20 15
      vertex 44 -17 4
      vertex 44 -17 15
    endloop
  endfacet
  facet normal 0 -1 0
    outer loop
      vertex 45.5 19 4
      vertex 49 19 15
      vertex 45.5 19 15
    endloop
  endfacet
  facet normal 0 -1 -0
    outer loop
      vertex 49 19 15
      vertex 45.5 19 4
      vertex 49 19 4
    endloop
  endfacet
  facet normal 0 0 1
    outer loop
      vertex 45.5 -17 4
      vertex 49 19 4
      vertex 45.5 19 4
    endloop
  endfacet
  facet normal 0 0 1
    outer loop
      vertex 49 19 4
      vertex 45.5 -17 4
      vertex 49 -20 4
    endloop
  endfacet
  facet normal 0 0 1
    outer loop
      vertex 44 -20 4
      vertex 45.5 -17 4
      vertex 44 -17 4
    endloop
  endfacet
  facet normal 0 0 1
    outer loop
      vertex 45.5 -17 4
      vertex 44 -20 4
      vertex 49 -20 4
    endloop
  endfacet
  facet normal 0 1 -0
    outer loop
      vertex 49 -20 4
      vertex 44 -20 15
      vertex 49 -20 15
    endloop
  endfacet
  facet normal 0 1 0
    outer loop
      vertex 44 -20 15
      vertex 49 -20 4
      vertex 44 -20 4
    endloop
  endfacet
  facet normal 1 -0 0
    outer loop
      vertex 45.5 -17 15
      vertex 45.5 19 4
      vertex 45.5 19 15
    endloop
  endfacet
  facet normal 1 0 0
    outer loop
      vertex 45.5 19 4
      vertex 45.5 -17 15
      vertex 45.5 -17 4
    endloop
  endfacet
  facet normal 0 -1 0
    outer loop
      vertex 44 -17 4
      vertex 45.5 -17 15
      vertex 44 -17 15
    endloop
  endfacet
  facet normal 0 -1 -0
    outer loop
      vertex 45.5 -17 15
      vertex 44 -17 4
      vertex 45.5 -17 4
    endloop
  endfacet
  facet normal 1 -0 0
    outer loop
      vertex -57 -3 2
      vertex -57 0 0
      vertex -57 0 2
    endloop
  endfacet
  facet normal 1 0 0
    outer loop
      vertex -57 0 0
      vertex -57 -3 2
      vertex -57 -3 0
    endloop
  endfacet
  facet normal 0 -1 0
    outer loop
      vertex -70 -3 0
      vertex -57 -3 2
      vertex -70 -3 2
    endloop
  endfacet
  facet normal 0 -1 -0
    outer loop
      vertex -57 -3 2
      vertex -70 -3 0
      vertex -57 -3 0
    endloop
  endfacet
  facet normal 0 1 -0
    outer loop
      vertex -57 0 0
      vertex -58.8 0 2
      vertex -57 0 2
    endloop
  endfacet
  facet normal 0 1 0
    outer loop
      vertex -58.8 0 2
      vertex -57 0 0
      vertex -58.8 0 0
    endloop
  endfacet
  facet normal 0 1 -0
    outer loop
      vertex -68.2 0 0
      vertex -70 0 2
      vertex -68.2 0 2
    endloop
  endfacet
  facet normal 0 1 0
    outer loop
      vertex -70 0 2
      vertex -68.2 0 0
      vertex -70 0 0
    endloop
  endfacet
  facet normal -1 0 0
    outer loop
      vertex -70 -3 0
      vertex -70 0 2
      vertex -70 0 0
    endloop
  endfacet
  facet normal -1 -0 0
    outer loop
      vertex -70 0 2
      vertex -70 -3 0
      vertex -70 -3 2
    endloop
  endfacet
  facet normal 0 0 1
    outer loop
      vertex -68.2 0 2
      vertex -69 -1 2
      vertex -68.2 -1 2
    endloop
  endfacet
  facet normal 0 0 1
    outer loop
      vertex -69 -1 2
      vertex -70 0 2
      vertex -69 -2 2
    endloop
  endfacet
  facet normal -0 0 1
    outer loop
      vertex -70 0 2
      vertex -69 -1 2
      vertex -68.2 0 2
    endloop
  endfacet
  facet normal 0 0 1
    outer loop
      vertex -57 0 2
      vertex -58 -1 2
      vertex -57 -3 2
    endloop
  endfacet
  facet normal -0 0 1
    outer loop
      vertex -58.8 0 2
      vertex -58 -1 2
      vertex -57 0 2
    endloop
  endfacet
  facet normal 0 0 1
    outer loop
      vertex -58 -1 2
      vertex -58.8 0 2
      vertex -58.8 -1 2
    endloop
  endfacet
  facet normal -0 0 1
    outer loop
      vertex -58 -2 2
      vertex -57 -3 2
      vertex -58 -1 2
    endloop
  endfacet
  facet normal -0 0 1
    outer loop
      vertex -69 -2 2
      vertex -57 -3 2
      vertex -58 -2 2
    endloop
  endfacet
  facet normal 0 0 1
    outer loop
      vertex -69 -2 2
      vertex -70 -3 2
      vertex -57 -3 2
    endloop
  endfacet
  facet normal 0 0 1
    outer loop
      vertex -70 -3 2
      vertex -69 -2 2
      vertex -70 0 2
    endloop
  endfacet
  facet normal 0 0 -1
    outer loop
      vertex -57 -3 0
      vertex -58 -2 0
      vertex -57 0 0
    endloop
  endfacet
  facet normal 0 0 -1
    outer loop
      vertex -57 -3 0
      vertex -69 -2 0
      vertex -58 -2 0
    endloop
  endfacet
  facet normal -0 0 -1
    outer loop
      vertex -69 -2 0
      vertex -70 -3 0
      vertex -69 -1 0
    endloop
  endfacet
  facet normal 0 0 -1
    outer loop
      vertex -70 -3 0
      vertex -69 -2 0
      vertex -57 -3 0
    endloop
  endfacet
  facet normal 0 0 -1
    outer loop
      vertex -58 -1 0
      vertex -57 0 0
      vertex -58 -2 0
    endloop
  endfacet
  facet normal 0 0 -1
    outer loop
      vertex -58.8 0 0
      vertex -58 -1 0
      vertex -58.8 -1 0
    endloop
  endfacet
  facet normal 0 0 -1
    outer loop
      vertex -58 -1 0
      vertex -58.8 0 0
      vertex -57 0 0
    endloop
  endfacet
  facet normal 0 0 -1
    outer loop
      vertex -69 -1 0
      vertex -68.2 0 0
      vertex -68.2 -1 0
    endloop
  endfacet
  facet normal 0 0 -1
    outer loop
      vertex -69 -1 0
      vertex -70 0 0
      vertex -68.2 0 0
    endloop
  endfacet
  facet normal 0 0 -1
    outer loop
      vertex -70 0 0
      vertex -69 -1 0
      vertex -70 -3 0
    endloop
  endfacet
  facet normal -1 0 0
    outer loop
      vertex -58 -2 0
      vertex -58 -1 2
      vertex -58 -1 0
    endloop
  endfacet
  facet normal -1 -0 0
    outer loop
      vertex -58 -1 2
      vertex -58 -2 0
      vertex -58 -2 2
    endloop
  endfacet
  facet normal 0 1 -0
    outer loop
      vertex -58 -2 0
      vertex -69 -2 2
      vertex -58 -2 2
    endloop
  endfacet
  facet normal 0 1 0
    outer loop
      vertex -69 -2 2
      vertex -58 -2 0
      vertex -69 -2 0
    endloop
  endfacet
  facet normal 0 -1 0
    outer loop
      vertex -69 -1 0
      vertex -68.2 -1 2
      vertex -69 -1 2
    endloop
  endfacet
  facet normal 0 -1 -0
    outer loop
      vertex -68.2 -1 2
      vertex -69 -1 0
      vertex -68.2 -1 0
    endloop
  endfacet
  facet normal 0 -1 0
    outer loop
      vertex -58.8 -1 0
      vertex -58 -1 2
      vertex -58.8 -1 2
    endloop
  endfacet
  facet normal 0 -1 -0
    outer loop
      vertex -58 -1 2
      vertex -58.8 -1 0
      vertex -58 -1 0
    endloop
  endfacet
  facet normal 1 -0 0
    outer loop
      vertex -69 -2 2
      vertex -69 -1 0
      vertex -69 -1 2
    endloop
  endfacet
  facet normal 1 0 0
    outer loop
      vertex -69 -1 0
      vertex -69 -2 2
      vertex -69 -2 0
    endloop
  endfacet
  facet normal -1 0 0
    outer loop
      vertex -58.8 -1 0
      vertex -58.8 0 2
      vertex -58.8 0 0
    endloop
  endfacet
  facet normal -1 -0 0
    outer loop
      vertex -58.8 0 2
      vertex -58.8 -1 0
      vertex -58.8 -1 2
    endloop
  endfacet
  facet normal 1 -0 0
    outer loop
      vertex -68.2 -1 2
      vertex -68.2 0 0
      vertex -68.2 0 2
    endloop
  endfacet
  facet normal 1 0 0
    outer loop
      vertex -68.2 0 0
      vertex -68.2 -1 2
      vertex -68.2 -1 0
    endloop
  endfacet
  facet normal 1 -0 0
    outer loop
      vertex -59 -20 2
      vertex -59 -13 0
      vertex -59 -13 2
    endloop
  endfacet
  facet normal 1 0 0
    outer loop
      vertex -59 -13 0
      vertex -59 -20 2
      vertex -59 -20 0
    endloop
  endfacet
  facet normal 0 0 1
    outer loop
      vertex -59 -13 2
      vertex -60 -14 2
      vertex -59 -20 2
    endloop
  endfacet
  facet normal 0 0 1
    outer loop
      vertex -59 -13 2
      vertex -69 -14 2
      vertex -60 -14 2
    endloop
  endfacet
  facet normal -0 0 1
    outer loop
      vertex -70 -13 2
      vertex -69 -14 2
      vertex -59 -13 2
    endloop
  endfacet
  facet normal 0 0 1
    outer loop
      vertex -70 -20 2
      vertex -69 -14 2
      vertex -70 -13 2
    endloop
  endfacet
  facet normal 0 0 1
    outer loop
      vertex -69 -14 2
      vertex -70 -20 2
      vertex -69 -20 2
    endloop
  endfacet
  facet normal 0 0 1
    outer loop
      vertex -59 -20 2
      vertex -60 -14 2
      vertex -60 -20 2
    endloop
  endfacet
  facet normal 0 0 -1
    outer loop
      vertex -69 -20 0
      vertex -70 -20 0
      vertex -69 -14 0
    endloop
  endfacet
  facet normal 0 0 -1
    outer loop
      vertex -60 -14 0
      vertex -59 -20 0
      vertex -60 -20 0
    endloop
  endfacet
  facet normal 0 0 -1
    outer loop
      vertex -59 -20 0
      vertex -60 -14 0
      vertex -59 -13 0
    endloop
  endfacet
  facet normal 0 0 -1
    outer loop
      vertex -69 -14 0
      vertex -59 -13 0
      vertex -60 -14 0
    endloop
  endfacet
  facet normal 0 0 -1
    outer loop
      vertex -69 -14 0
      vertex -70 -13 0
      vertex -59 -13 0
    endloop
  endfacet
  facet normal 0 0 -1
    outer loop
      vertex -70 -13 0
      vertex -69 -14 0
      vertex -70 -20 0
    endloop
  endfacet
  facet normal -1 0 0
    outer loop
      vertex -70 -20 0
      vertex -70 -13 2
      vertex -70 -13 0
    endloop
  endfacet
  facet normal -1 -0 0
    outer loop
      vertex -70 -13 2
      vertex -70 -20 0
      vertex -70 -20 2
    endloop
  endfacet
  facet normal 0 1 -0
    outer loop
      vertex -59 -13 0
      vertex -70 -13 2
      vertex -59 -13 2
    endloop
  endfacet
  facet normal 0 1 0
    outer loop
      vertex -70 -13 2
      vertex -59 -13 0
      vertex -70 -13 0
    endloop
  endfacet
  facet normal 0 -1 0
    outer loop
      vertex -70 -20 0
      vertex -69 -20 2
      vertex -70 -20 2
    endloop
  endfacet
  facet normal 0 -1 -0
    outer loop
      vertex -69 -20 2
      vertex -70 -20 0
      vertex -69 -20 0
    endloop
  endfacet
  facet normal 0 -1 0
    outer loop
      vertex -60 -20 0
      vertex -59 -20 2
      vertex -60 -20 2
    endloop
  endfacet
  facet normal 0 -1 -0
    outer loop
      vertex -59 -20 2
      vertex -60 -20 0
      vertex -59 -20 0
    endloop
  endfacet
  facet normal -1 0 0
    outer loop
      vertex -60 -20 0
      vertex -60 -14 2
      vertex -60 -14 0
    endloop
  endfacet
  facet normal -1 -0 0
    outer loop
      vertex -60 -14 2
      vertex -60 -20 0
      vertex -60 -20 2
    endloop
  endfacet
  facet normal 1 -0 0
    outer loop
      vertex -69 -20 2
      vertex -69 -14 0
      vertex -69 -14 2
    endloop
  endfacet
  facet normal 1 0 0
    outer loop
      vertex -69 -14 0
      vertex -69 -20 2
      vertex -69 -20 0
    endloop
  endfacet
  facet normal 0 -1 0
    outer loop
      vertex -69 -14 0
      vertex -60 -14 2
      vertex -69 -14 2
    endloop
  endfacet
  facet normal 0 -1 -0
    outer loop
      vertex -60 -14 2
      vertex -69 -14 0
      vertex -60 -14 0
    endloop
  endfacet
  facet normal 1 -0 0
    outer loop
      vertex -57 7 2
      vertex -57 10 0
      vertex -57 10 2
    endloop
  endfacet
  facet normal 1 0 0
    outer loop
      vertex -57 10 0
      vertex -57 7 2
      vertex -57 7 0
    endloop
  endfacet
  facet normal 0 -1 0
    outer loop
      vertex -70 7 0
      vertex -57 7 2
      vertex -70 7 2
    endloop
  endfacet
  facet normal 0 -1 -0
    outer loop
      vertex -57 7 2
      vertex -70 7 0
      vertex -57 7 0
    endloop
  endfacet
  facet normal 0 1 -0
    outer loop
      vertex -57 10 0
      vertex -58.8 10 2
      vertex -57 10 2
    endloop
  endfacet
  facet normal 0 1 0
    outer loop
      vertex -58.8 10 2
      vertex -57 10 0
      vertex -58.8 10 0
    endloop
  endfacet
  facet normal 0 1 -0
    outer loop
      vertex -68.2 10 0
      vertex -70 10 2
      vertex -68.2 10 2
    endloop
  endfacet
  facet normal 0 1 0
    outer loop
      vertex -70 10 2
      vertex -68.2 10 0
      vertex -70 10 0
    endloop
  endfacet
  facet normal -1 0 0
    outer loop
      vertex -70 7 0
      vertex -70 10 2
      vertex -70 10 0
    endloop
  endfacet
  facet normal -1 -0 0
    outer loop
      vertex -70 10 2
      vertex -70 7 0
      vertex -70 7 2
    endloop
  endfacet
  facet normal 0 0 1
    outer loop
      vertex -68.2 10 2
      vertex -69 9 2
      vertex -68.2 9 2
    endloop
  endfacet
  facet normal 0 0 1
    outer loop
      vertex -69 9 2
      vertex -70 10 2
      vertex -69 8 2
    endloop
  endfacet
  facet normal -0 0 1
    outer loop
      vertex -70 10 2
      vertex -69 9 2
      vertex -68.2 10 2
    endloop
  endfacet
  facet normal 0 0 1
    outer loop
      vertex -57 10 2
      vertex -58 9 2
      vertex -57 7 2
    endloop
  endfacet
  facet normal -0 0 1
    outer loop
      vertex -58.8 10 2
      vertex -58 9 2
      vertex -57 10 2
    endloop
  endfacet
  facet normal 0 0 1
    outer loop
      vertex -58 9 2
      vertex -58.8 10 2
      vertex -58.8 9 2
    endloop
  endfacet
  facet normal -0 0 1
    outer loop
      vertex -58 8 2
      vertex -57 7 2
      vertex -58 9 2
    endloop
  endfacet
  facet normal -0 0 1
    outer loop
      vertex -69 8 2
      vertex -57 7 2
      vertex -58 8 2
    endloop
  endfacet
  facet normal 0 0 1
    outer loop
      vertex -69 8 2
      vertex -70 7 2
      vertex -57 7 2
    endloop
  endfacet
  facet normal 0 0 1
    outer loop
      vertex -70 7 2
      vertex -69 8 2
      vertex -70 10 2
    endloop
  endfacet
  facet normal 0 0 -1
    outer loop
      vertex -57 7 0
      vertex -58 8 0
      vertex -57 10 0
    endloop
  endfacet
  facet normal 0 0 -1
    outer loop
      vertex -57 7 0
      vertex -69 8 0
      vertex -58 8 0
    endloop
  endfacet
  facet normal -0 0 -1
    outer loop
      vertex -69 8 0
      vertex -70 7 0
      vertex -69 9 0
    endloop
  endfacet
  facet normal 0 0 -1
    outer loop
      vertex -70 7 0
      vertex -69 8 0
      vertex -57 7 0
    endloop
  endfacet
  facet normal 0 0 -1
    outer loop
      vertex -58 9 0
      vertex -57 10 0
      vertex -58 8 0
    endloop
  endfacet
  facet normal 0 0 -1
    outer loop
      vertex -58.8 10 0
      vertex -58 9 0
      vertex -58.8 9 0
    endloop
  endfacet
  facet normal 0 0 -1
    outer loop
      vertex -58 9 0
      vertex -58.8 10 0
      vertex -57 10 0
    endloop
  endfacet
  facet normal 0 0 -1
    outer loop
      vertex -69 9 0
      vertex -68.2 10 0
      vertex -68.2 9 0
    endloop
  endfacet
  facet normal 0 0 -1
    outer loop
      vertex -69 9 0
      vertex -70 10 0
      vertex -68.2 10 0
    endloop
  endfacet
  facet normal 0 0 -1
    outer loop
      vertex -70 10 0
      vertex -69 9 0
      vertex -70 7 0
    endloop
  endfacet
  facet normal -1 0 0
    outer loop
      vertex -58 8 0
      vertex -58 9 2
      vertex -58 9 0
    endloop
  endfacet
  facet normal -1 -0 0
    outer loop
      vertex -58 9 2
      vertex -58 8 0
      vertex -58 8 2
    endloop
  endfacet
  facet normal 0 1 -0
    outer loop
      vertex -58 8 0
      vertex -69 8 2
      vertex -58 8 2
    endloop
  endfacet
  facet normal 0 1 0
    outer loop
      vertex -69 8 2
      vertex -58 8 0
      vertex -69 8 0
    endloop
  endfacet
  facet normal 0 -1 0
    outer loop
      vertex -69 9 0
      vertex -68.2 9 2
      vertex -69 9 2
    endloop
  endfacet
  facet normal 0 -1 -0
    outer loop
      vertex -68.2 9 2
      vertex -69 9 0
      vertex -68.2 9 0
    endloop
  endfacet
  facet normal 0 -1 0
    outer loop
      vertex -58.8 9 0
      vertex -58 9 2
      vertex -58.8 9 2
    endloop
  endfacet
  facet normal 0 -1 -0
    outer loop
      vertex -58 9 2
      vertex -58.8 9 0
      vertex -58 9 0
    endloop
  endfacet
  facet normal 1 -0 0
    outer loop
      vertex -69 8 2
      vertex -69 9 0
      vertex -69 9 2
    endloop
  endfacet
  facet normal 1 0 0
    outer loop
      vertex -69 9 0
      vertex -69 8 2
      vertex -69 8 0
    endloop
  endfacet
  facet normal -1 0 0
    outer loop
      vertex -58.8 9 0
      vertex -58.8 10 2
      vertex -58.8 10 0
    endloop
  endfacet
  facet normal -1 -0 0
    outer loop
      vertex -58.8 10 2
      vertex -58.8 9 0
      vertex -58.8 9 2
    endloop
  endfacet
  facet normal 1 -0 0
    outer loop
      vertex -68.2 9 2
      vertex -68.2 10 0
      vertex -68.2 10 2
    endloop
  endfacet
  facet normal 1 0 0
    outer loop
      vertex -68.2 10 0
      vertex -68.2 9 2
      vertex -68.2 9 0
    endloop
  endfacet
  facet normal 1 -0 0
    outer loop
      vertex -59 -32 2
      vertex -59 -25 0
      vertex -59 -25 2
    endloop
  endfacet
  facet normal 1 0 0
    outer loop
      vertex -59 -25 0
      vertex -59 -32 2
      vertex -59 -32 0
    endloop
  endfacet
  facet normal 0 0 1
    outer loop
      vertex -59 -25 2
      vertex -60 -26 2
      vertex -59 -32 2
    endloop
  endfacet
  facet normal 0 0 1
    outer loop
      vertex -59 -25 2
      vertex -69 -26 2
      vertex -60 -26 2
    endloop
  endfacet
  facet normal -0 0 1
    outer loop
      vertex -70 -25 2
      vertex -69 -26 2
      vertex -59 -25 2
    endloop
  endfacet
  facet normal 0 0 1
    outer loop
      vertex -70 -32 2
      vertex -69 -26 2
      vertex -70 -25 2
    endloop
  endfacet
  facet normal 0 0 1
    outer loop
      vertex -69 -26 2
      vertex -70 -32 2
      vertex -69 -32 2
    endloop
  endfacet
  facet normal 0 0 1
    outer loop
      vertex -59 -32 2
      vertex -60 -26 2
      vertex -60 -32 2
    endloop
  endfacet
  facet normal 0 0 -1
    outer loop
      vertex -69 -32 0
      vertex -70 -32 0
      vertex -69 -26 0
    endloop
  endfacet
  facet normal 0 0 -1
    outer loop
      vertex -60 -26 0
      vertex -59 -32 0
      vertex -60 -32 0
    endloop
  endfacet
  facet normal 0 0 -1
    outer loop
      vertex -59 -32 0
      vertex -60 -26 0
      vertex -59 -25 0
    endloop
  endfacet
  facet normal 0 0 -1
    outer loop
      vertex -69 -26 0
      vertex -59 -25 0
      vertex -60 -26 0
    endloop
  endfacet
  facet normal 0 0 -1
    outer loop
      vertex -69 -26 0
      vertex -70 -25 0
      vertex -59 -25 0
    endloop
  endfacet
  facet normal 0 0 -1
    outer loop
      vertex -70 -25 0
      vertex -69 -26 0
      vertex -70 -32 0
    endloop
  endfacet
  facet normal -1 0 0
    outer loop
      vertex -70 -32 0
      vertex -70 -25 2
      vertex -70 -25 0
    endloop
  endfacet
  facet normal -1 -0 0
    outer loop
      vertex -70 -25 2
      vertex -70 -32 0
      vertex -70 -32 2
    endloop
  endfacet
  facet normal 0 1 -0
    outer loop
      vertex -59 -25 0
      vertex -70 -25 2
      vertex -59 -25 2
    endloop
  endfacet
  facet normal 0 1 0
    outer loop
      vertex -70 -25 2
      vertex -59 -25 0
      vertex -70 -25 0
    endloop
  endfacet
  facet normal 0 -1 0
    outer loop
      vertex -70 -32 0
      vertex -69 -32 2
      vertex -70 -32 2
    endloop
  endfacet
  facet normal 0 -1 -0
    outer loop
      vertex -69 -32 2
      vertex -70 -32 0
      vertex -69 -32 0
    endloop
  endfacet
  facet normal 0 -1 0
    outer loop
      vertex -60 -32 0
      vertex -59 -32 2
      vertex -60 -32 2
    endloop
  endfacet
  facet normal 0 -1 -0
    outer loop
      vertex -59 -32 2
      vertex -60 -32 0
      vertex -59 -32 0
    endloop
  endfacet
  facet normal -1 0 0
    outer loop
      vertex -60 -32 0
      vertex -60 -26 2
      vertex -60 -26 0
    endloop
  endfacet
  facet normal -1 -0 0
    outer loop
      vertex -60 -26 2
      vertex -60 -32 0
      vertex -60 -32 2
    endloop
  endfacet
  facet normal 1 -0 0
    outer loop
      vertex -69 -32 2
      vertex -69 -26 0
      vertex -69 -26 2
    endloop
  endfacet
  facet normal 1 0 0
    outer loop
      vertex -69 -26 0
      vertex -69 -32 2
      vertex -69 -32 0
    endloop
  endfacet
  facet normal 0 -1 0
    outer loop
      vertex -69 -26 0
      vertex -60 -26 2
      vertex -69 -26 2
    endloop
  endfacet
  facet normal 0 -1 -0
    outer loop
      vertex -60 -26 2
      vertex -69 -26 0
      vertex -60 -26 0
    endloop
  endfacet
endsolid OpenSCAD_Model
