999
"DXF R12 Output" (www.mydxf.blogspot.com)
 0 
SECTION
 2 
HEADER
 9 
$ACADVER
 1 
AC1009
 9 
$EXTMIN
 10 
 0 
 20 
 0 
 9 
$EXTMAX
 10 
 8.5 
 20 
 11 
 0 
ENDSEC
 0 
SECTION
 2 
ENTITIES
0
LINE
8
Image
10
294.569000
20
6.653990
11
294.984590
21
6.726789
0
LINE
8
Image
10
294.984590
20
6.726789
11
295.290218
21
6.624244
0
LINE
8
Image
10
295.290218
20
6.624244
11
295.238928
21
6.472408
0
LINE
8
Image
10
295.238928
20
6.472408
11
294.796329
21
6.426576
0
LINE
8
Image
10
294.796329
20
6.426576
11
294.405709
21
6.501985
0
LINE
8
Image
10
294.405709
20
6.501985
11
294.568999
21
6.653934
0
LINE
8
Image
10
294.568999
20
6.653934
11
294.569000
21
6.653990
0
LINE
8
Image
10
307.739300
20
6.653990
11
308.154893
21
6.726789
0
LINE
8
Image
10
308.154893
20
6.726789
11
308.460547
21
6.624244
0
LINE
8
Image
10
308.460547
20
6.624244
11
308.409246
21
6.472408
0
LINE
8
Image
10
308.409246
20
6.472408
11
307.966659
21
6.426576
0
LINE
8
Image
10
307.966659
20
6.426576
11
307.576025
21
6.501985
0
LINE
8
Image
10
307.576025
20
6.501985
11
307.739301
21
6.653934
0
LINE
8
Image
10
307.739301
20
6.653934
11
307.739300
21
6.653990
0
LINE
8
Image
10
297.367600
20
9.666680
11
298.684650
21
9.666680
0
LINE
8
Image
10
298.684650
20
9.666680
11
298.836412
21
9.599872
0
LINE
8
Image
10
298.836412
20
9.599872
11
298.762843
21
9.545159
0
LINE
8
Image
10
298.762843
20
9.545159
11
298.026141
21
9.494609
0
LINE
8
Image
10
298.026141
20
9.494609
11
297.289416
21
9.545159
0
LINE
8
Image
10
297.289416
20
9.545159
11
297.215843
21
9.599872
0
LINE
8
Image
10
297.215843
20
9.599872
11
297.367604
21
9.666680
0
LINE
8
Image
10
297.367604
20
9.666680
11
297.367600
21
9.666680
0
LINE
8
Image
10
304.517240
20
9.666680
11
305.834260
21
9.666680
0
LINE
8
Image
10
305.834260
20
9.666680
11
305.986039
21
9.599872
0
LINE
8
Image
10
305.986039
20
9.599872
11
305.912474
21
9.545159
0
LINE
8
Image
10
305.912474
20
9.545159
11
305.175751
21
9.494609
0
LINE
8
Image
10
305.175751
20
9.494609
11
304.439029
21
9.545159
0
LINE
8
Image
10
304.439029
20
9.545159
11
304.365465
21
9.599872
0
LINE
8
Image
10
304.365465
20
9.599872
11
304.517242
21
9.666680
0
LINE
8
Image
10
304.517242
20
9.666680
11
304.517240
21
9.666680
0
LINE
8
Image
10
103.034240
20
16.061380
11
103.449833
21
16.134186
0
LINE
8
Image
10
103.449833
20
16.134186
11
103.755475
21
16.031690
0
LINE
8
Image
10
103.755475
20
16.031690
11
103.704175
21
15.879858
0
LINE
8
Image
10
103.704175
20
15.879858
11
103.261587
21
15.834050
0
LINE
8
Image
10
103.261587
20
15.834050
11
102.870959
21
15.909449
0
LINE
8
Image
10
102.870959
20
15.909449
11
103.034240
21
16.061408
0
LINE
8
Image
10
103.034240
20
16.061408
11
103.034240
21
16.061380
0
LINE
8
Image
10
87.829040
20
18.908770
11
87.112199
21
19.755436
0
LINE
8
Image
10
87.112199
20
19.755436
11
87.958865
21
19.038592
0
LINE
8
Image
10
87.958865
20
19.038592
11
88.728579
21
18.297735
0
LINE
8
Image
10
88.728579
20
18.297735
11
88.802627
21
18.119950
0
LINE
8
Image
10
88.802627
20
18.119950
11
88.675706
21
18.062104
0
LINE
8
Image
10
88.675706
20
18.062104
11
87.829040
21
18.908770
0
LINE
8
Image
10
87.829040
20
18.908770
11
87.829040
21
18.908770
0
LINE
8
Image
10
245.444040
20
18.708421
11
247.325520
21
18.703341
0
LINE
8
Image
10
247.325520
20
18.703341
11
247.503797
21
18.640685
0
LINE
8
Image
10
247.503797
20
18.640685
11
247.367143
21
18.590145
0
LINE
8
Image
10
247.367143
20
18.590145
11
246.285530
21
18.546059
0
LINE
8
Image
10
246.285530
20
18.546059
11
245.262231
21
18.595995
0
LINE
8
Image
10
245.262231
20
18.595995
11
245.188689
21
18.647044
0
LINE
8
Image
10
245.188689
20
18.647044
11
245.444037
21
18.708478
0
LINE
8
Image
10
245.444037
20
18.708478
11
245.444040
21
18.708421
0
LINE
8
Image
10
95.885040
20
19.071754
11
96.300633
21
19.144550
0
LINE
8
Image
10
96.300633
20
19.144550
11
96.606275
21
19.042064
0
LINE
8
Image
10
96.606275
20
19.042064
11
96.554974
21
18.890221
0
LINE
8
Image
10
96.554974
20
18.890221
11
96.112387
21
18.844424
0
LINE
8
Image
10
96.112387
20
18.844424
11
95.721759
21
18.919820
0
LINE
8
Image
10
95.721759
20
18.919820
11
95.885040
21
19.071754
0
LINE
8
Image
10
95.885040
20
19.071754
11
95.885040
21
19.071754
0
LINE
8
Image
10
100.776890
20
19.071754
11
101.192483
21
19.144550
0
LINE
8
Image
10
101.192483
20
19.144550
11
101.498125
21
19.042064
0
LINE
8
Image
10
101.498125
20
19.042064
11
101.446825
21
18.890221
0
LINE
8
Image
10
101.446825
20
18.890221
11
101.004236
21
18.844424
0
LINE
8
Image
10
101.004236
20
18.844424
11
100.613608
21
18.919820
0
LINE
8
Image
10
100.613608
20
18.919820
11
100.776889
21
19.071754
0
LINE
8
Image
10
100.776889
20
19.071754
11
100.776890
21
19.071754
0
LINE
8
Image
10
238.124890
20
19.071754
11
238.540482
21
19.144550
0
LINE
8
Image
10
238.540482
20
19.144550
11
238.846125
21
19.042064
0
LINE
8
Image
10
238.846125
20
19.042064
11
238.794824
21
18.890221
0
LINE
8
Image
10
238.794824
20
18.890221
11
238.352237
21
18.844424
0
LINE
8
Image
10
238.352237
20
18.844424
11
237.961608
21
18.919820
0
LINE
8
Image
10
237.961608
20
18.919820
11
238.124890
21
19.071754
0
LINE
8
Image
10
238.124890
20
19.071754
11
238.124890
21
19.071754
0
LINE
8
Image
10
90.086890
20
21.166544
11
89.370049
21
22.013210
0
LINE
8
Image
10
89.370049
20
22.013210
11
90.216715
21
21.296366
0
LINE
8
Image
10
90.216715
20
21.296366
11
90.986429
21
20.555509
0
LINE
8
Image
10
90.986429
20
20.555509
11
91.060477
21
20.377724
0
LINE
8
Image
10
91.060477
20
20.377724
11
90.933556
21
20.319878
0
LINE
8
Image
10
90.933556
20
20.319878
11
90.086890
21
21.166544
0
LINE
8
Image
10
90.086890
20
21.166544
11
90.086890
21
21.166544
0
LINE
8
Image
10
221.567890
20
20.576926
11
221.983483
21
20.649732
0
LINE
8
Image
10
221.983483
20
20.649732
11
222.289125
21
20.547236
0
LINE
8
Image
10
222.289125
20
20.547236
11
222.237825
21
20.395404
0
LINE
8
Image
10
222.237825
20
20.395404
11
221.795236
21
20.349596
0
LINE
8
Image
10
221.795236
20
20.349596
11
221.404608
21
20.424995
0
LINE
8
Image
10
221.404608
20
20.424995
11
221.567889
21
20.576954
0
LINE
8
Image
10
221.567889
20
20.576954
11
221.567890
21
20.576926
0
LINE
8
Image
10
316.040790
20
31.514726
11
315.712495
21
31.985091
0
LINE
8
Image
10
315.712495
20
31.985091
11
316.182861
21
31.656797
0
LINE
8
Image
10
316.182861
20
31.656797
11
316.841370
21
30.998260
0
LINE
8
Image
10
316.841370
20
30.998260
11
316.785407
21
30.860165
0
LINE
8
Image
10
316.785407
20
30.860165
11
316.625421
21
30.905307
0
LINE
8
Image
10
316.625421
20
30.905307
11
316.040791
21
31.514726
0
LINE
8
Image
10
316.040791
20
31.514726
11
316.040790
21
31.514726
0
LINE
8
Image
10
106.491790
20
47.179026
11
107.150310
21
47.837535
0
LINE
8
Image
10
107.150310
20
47.837535
11
107.620680
21
48.165830
0
LINE
8
Image
10
107.620680
20
48.165830
11
107.292383
21
47.695464
0
LINE
8
Image
10
107.292383
20
47.695464
11
106.707743
21
47.086048
0
LINE
8
Image
10
106.707743
20
47.086048
11
106.547754
21
47.040915
0
LINE
8
Image
10
106.547754
20
47.040915
11
106.491790
21
47.179026
0
LINE
8
Image
10
106.491790
20
47.179026
11
106.491790
21
47.179026
0
LINE
8
Image
10
104.234010
20
49.436806
11
104.892530
21
50.095315
0
LINE
8
Image
10
104.892530
20
50.095315
11
105.362900
21
50.423609
0
LINE
8
Image
10
105.362900
20
50.423609
11
105.034603
21
49.953244
0
LINE
8
Image
10
105.034603
20
49.953244
11
104.449963
21
49.343828
0
LINE
8
Image
10
104.449963
20
49.343828
11
104.289974
21
49.298695
0
LINE
8
Image
10
104.289974
20
49.298695
11
104.234010
21
49.436806
0
LINE
8
Image
10
104.234010
20
49.436806
11
104.234010
21
49.436806
0
LINE
8
Image
10
131.121510
20
50.893976
11
129.634030
21
52.493246
0
LINE
8
Image
10
129.634030
20
52.493246
11
131.233290
21
51.005766
0
LINE
8
Image
10
131.233290
20
51.005766
11
132.832550
21
49.406496
0
LINE
8
Image
10
132.832550
20
49.406496
11
132.759732
21
49.309668
0
LINE
8
Image
10
132.759732
20
49.309668
11
132.495783
21
49.485751
0
LINE
8
Image
10
132.495783
20
49.485751
11
131.121510
21
50.893976
0
LINE
8
Image
10
131.121510
20
50.893976
11
131.121510
21
50.893976
0
LINE
8
Image
10
110.631110
20
51.694583
11
111.289627
21
52.353092
0
LINE
8
Image
10
111.289627
20
52.353092
11
111.760000
21
52.681387
0
LINE
8
Image
10
111.760000
20
52.681387
11
111.431703
21
52.211021
0
LINE
8
Image
10
111.431703
20
52.211021
11
110.847063
21
51.601605
0
LINE
8
Image
10
110.847063
20
51.601605
11
110.687074
21
51.556472
0
LINE
8
Image
10
110.687074
20
51.556472
11
110.631110
21
51.694583
0
LINE
8
Image
10
110.631110
20
51.694583
11
110.631110
21
51.694583
0
LINE
8
Image
10
108.373330
20
53.952363
11
109.031847
21
54.610872
0
LINE
8
Image
10
109.031847
20
54.610872
11
109.502220
21
54.939166
0
LINE
8
Image
10
109.502220
20
54.939166
11
109.173923
21
54.468801
0
LINE
8
Image
10
109.173923
20
54.468801
11
108.589283
21
53.859385
0
LINE
8
Image
10
108.589283
20
53.859385
11
108.429294
21
53.814252
0
LINE
8
Image
10
108.429294
20
53.814252
11
108.373330
21
53.952363
0
LINE
8
Image
10
108.373330
20
53.952363
11
108.373330
21
53.952363
0
LINE
8
Image
10
281.875330
20
57.040153
11
281.950730
21
57.430787
0
LINE
8
Image
10
281.950730
20
57.430787
11
282.102674
21
57.267511
0
LINE
8
Image
10
282.102674
20
57.267511
11
282.175476
21
56.851918
0
LINE
8
Image
10
282.175476
20
56.851918
11
282.072984
21
56.546264
0
LINE
8
Image
10
282.072984
20
56.546264
11
281.921147
21
56.597565
0
LINE
8
Image
10
281.921147
20
56.597565
11
281.875344
21
57.040153
0
LINE
8
Image
10
281.875344
20
57.040153
11
281.875330
21
57.040153
0
LINE
8
Image
10
111.760330
20
57.715313
11
112.418847
21
58.373822
0
LINE
8
Image
10
112.418847
20
58.373822
11
112.889220
21
58.702127
0
LINE
8
Image
10
112.889220
20
58.702127
11
112.560923
21
58.231751
0
LINE
8
Image
10
112.560923
20
58.231751
11
111.976283
21
57.622335
0
LINE
8
Image
10
111.976283
20
57.622335
11
111.816294
21
57.577202
0
LINE
8
Image
10
111.816294
20
57.577202
11
111.760330
21
57.715313
0
LINE
8
Image
10
111.760330
20
57.715313
11
111.760330
21
57.715313
0
LINE
8
Image
10
281.529330
20
62.841393
11
281.585084
21
63.367610
0
LINE
8
Image
10
281.585084
20
63.367610
11
281.719130
21
63.311744
0
LINE
8
Image
10
281.719130
20
63.311744
11
281.797421
21
62.841389
0
LINE
8
Image
10
281.797421
20
62.841389
11
281.719130
21
62.371013
0
LINE
8
Image
10
281.719130
20
62.371013
11
281.585085
21
62.315151
0
LINE
8
Image
10
281.585085
20
62.315151
11
281.529330
21
62.841392
0
LINE
8
Image
10
281.529330
20
62.841392
11
281.529330
21
62.841393
0
LINE
8
Image
10
281.123328
20
68.329033
11
281.198728
21
68.719667
0
LINE
8
Image
10
281.198728
20
68.719667
11
281.350672
21
68.556391
0
LINE
8
Image
10
281.350672
20
68.556391
11
281.423474
21
68.140798
0
LINE
8
Image
10
281.423474
20
68.140798
11
281.320982
21
67.835144
0
LINE
8
Image
10
281.320982
20
67.835144
11
281.169147
21
67.886445
0
LINE
8
Image
10
281.169147
20
67.886445
11
281.123345
21
68.329032
0
LINE
8
Image
10
281.123345
20
68.329032
11
281.123328
21
68.329033
0
LINE
8
Image
10
117.434328
20
70.963093
11
117.509727
21
71.353727
0
LINE
8
Image
10
117.509727
20
71.353727
11
117.661669
21
71.190451
0
LINE
8
Image
10
117.661669
20
71.190451
11
117.734471
21
70.774858
0
LINE
8
Image
10
117.734471
20
70.774858
11
117.631979
21
70.469204
0
LINE
8
Image
10
117.631979
20
70.469204
11
117.480145
21
70.520516
0
LINE
8
Image
10
117.480145
20
70.520516
11
117.434342
21
70.963093
0
LINE
8
Image
10
117.434342
20
70.963093
11
117.434328
21
70.963093
0
LINE
8
Image
10
280.776328
20
73.377673
11
280.832082
21
73.903894
0
LINE
8
Image
10
280.832082
20
73.903894
11
280.966128
21
73.848052
0
LINE
8
Image
10
280.966128
20
73.848052
11
281.044419
21
73.377672
0
LINE
8
Image
10
281.044419
20
73.377672
11
280.966128
21
72.907293
0
LINE
8
Image
10
280.966128
20
72.907293
11
280.832083
21
72.851452
0
LINE
8
Image
10
280.832083
20
72.851452
11
280.776328
21
73.377672
0
LINE
8
Image
10
280.776328
20
73.377672
11
280.776328
21
73.377673
0
LINE
8
Image
10
239.324328
20
80.293073
11
239.982845
21
80.951582
0
LINE
8
Image
10
239.982845
20
80.951582
11
240.453218
21
81.279887
0
LINE
8
Image
10
240.453218
20
81.279887
11
240.124921
21
80.809511
0
LINE
8
Image
10
240.124921
20
80.809511
11
239.540281
21
80.200095
0
LINE
8
Image
10
239.540281
20
80.200095
11
239.380292
21
80.154962
0
LINE
8
Image
10
239.380292
20
80.154962
11
239.324328
21
80.293073
0
LINE
8
Image
10
239.324328
20
80.293073
11
239.324328
21
80.293073
0
LINE
8
Image
10
279.994028
20
83.004573
11
280.069428
21
83.395207
0
LINE
8
Image
10
280.069428
20
83.395207
11
280.221372
21
83.231931
0
LINE
8
Image
10
280.221372
20
83.231931
11
280.294174
21
82.816338
0
LINE
8
Image
10
280.294174
20
82.816338
11
280.191682
21
82.510684
0
LINE
8
Image
10
280.191682
20
82.510684
11
280.039847
21
82.561985
0
LINE
8
Image
10
280.039847
20
82.561985
11
279.994045
21
83.004572
0
LINE
8
Image
10
279.994045
20
83.004572
11
279.994028
21
83.004573
0
LINE
8
Image
10
83.820028
20
84.932123
11
85.513358
21
84.932123
0
LINE
8
Image
10
85.513358
20
84.932123
11
85.708488
21
84.868801
0
LINE
8
Image
10
85.708488
20
84.868801
11
85.613899
21
84.816941
0
LINE
8
Image
10
85.613899
20
84.816941
11
84.666692
21
84.769027
0
LINE
8
Image
10
84.666692
20
84.769027
11
83.719485
21
84.816941
0
LINE
8
Image
10
83.719485
20
84.816941
11
83.624897
21
84.868801
0
LINE
8
Image
10
83.624897
20
84.868801
11
83.820026
21
84.932123
0
LINE
8
Image
10
83.820026
20
84.932123
11
83.820028
21
84.932123
0
LINE
8
Image
10
244.592028
20
85.160582
11
245.814988
21
86.383562
0
LINE
8
Image
10
245.814988
20
86.383562
11
247.037948
21
87.488772
0
LINE
8
Image
10
247.037948
20
87.488772
11
245.932728
21
86.265822
0
LINE
8
Image
10
245.932728
20
86.265822
11
244.876044
21
85.176701
0
LINE
8
Image
10
244.876044
20
85.176701
11
244.656631
21
85.050331
0
LINE
8
Image
10
244.656631
20
85.050331
11
244.592018
21
85.160582
0
LINE
8
Image
10
244.592018
20
85.160582
11
244.592028
21
85.160582
0
LINE
8
Image
10
118.939028
20
87.143842
11
119.014428
21
87.534462
0
LINE
8
Image
10
119.014428
20
87.534462
11
119.166372
21
87.371172
0
LINE
8
Image
10
119.166372
20
87.371172
11
119.239174
21
86.955582
0
LINE
8
Image
10
119.239174
20
86.955582
11
119.136682
21
86.649954
0
LINE
8
Image
10
119.136682
20
86.649954
11
118.984845
21
86.701244
0
LINE
8
Image
10
118.984845
20
86.701244
11
118.939042
21
87.143843
0
LINE
8
Image
10
118.939042
20
87.143843
11
118.939028
21
87.143842
0
LINE
8
Image
10
279.617028
20
87.520129
11
279.692428
21
87.910763
0
LINE
8
Image
10
279.692428
20
87.910763
11
279.844372
21
87.747487
0
LINE
8
Image
10
279.844372
20
87.747487
11
279.917174
21
87.331894
0
LINE
8
Image
10
279.917174
20
87.331894
11
279.814682
21
87.026240
0
LINE
8
Image
10
279.814682
20
87.026240
11
279.662845
21
87.077541
0
LINE
8
Image
10
279.662845
20
87.077541
11
279.617042
21
87.520128
0
LINE
8
Image
10
279.617042
20
87.520128
11
279.617028
21
87.520129
0
LINE
8
Image
10
252.117728
20
92.686509
11
253.340688
21
93.909459
0
LINE
8
Image
10
253.340688
20
93.909459
11
254.563648
21
95.014699
0
LINE
8
Image
10
254.563648
20
95.014699
11
253.458428
21
93.791719
0
LINE
8
Image
10
253.458428
20
93.791719
11
252.401740
21
92.702602
0
LINE
8
Image
10
252.401740
20
92.702602
11
252.182329
21
92.576241
0
LINE
8
Image
10
252.182329
20
92.576241
11
252.117718
21
92.686509
0
LINE
8
Image
10
252.117718
20
92.686509
11
252.117728
21
92.686509
0
LINE
8
Image
10
123.077728
20
99.561609
11
123.153127
21
99.952229
0
LINE
8
Image
10
123.153127
20
99.952229
11
123.305069
21
99.788939
0
LINE
8
Image
10
123.305069
20
99.788939
11
123.377871
21
99.373349
0
LINE
8
Image
10
123.377871
20
99.373349
11
123.275379
21
99.067721
0
LINE
8
Image
10
123.275379
20
99.067721
11
123.123545
21
99.119011
0
LINE
8
Image
10
123.123545
20
99.119011
11
123.077742
21
99.561609
0
LINE
8
Image
10
123.077742
20
99.561609
11
123.077728
21
99.561609
0
LINE
8
Image
10
123.483727
20
104.610239
11
123.539481
21
105.136465
0
LINE
8
Image
10
123.539481
20
105.136465
11
123.673527
21
105.080607
0
LINE
8
Image
10
123.673527
20
105.080607
11
123.751818
21
104.610238
0
LINE
8
Image
10
123.751818
20
104.610238
11
123.673527
21
104.139868
0
LINE
8
Image
10
123.673527
20
104.139868
11
123.539481
21
104.084011
0
LINE
8
Image
10
123.539481
20
104.084011
11
123.483727
21
104.610239
0
LINE
8
Image
10
123.483727
20
104.610239
11
123.483727
21
104.610239
0
LINE
8
Image
10
298.119727
20
104.879761
11
300.189347
21
104.879761
0
LINE
8
Image
10
300.189347
20
104.879761
11
300.427845
21
104.818893
0
LINE
8
Image
10
300.427845
20
104.818893
11
300.312240
21
104.769047
0
LINE
8
Image
10
300.312240
20
104.769047
11
299.154547
21
104.722998
0
LINE
8
Image
10
299.154547
20
104.722998
11
297.996836
21
104.769047
0
LINE
8
Image
10
297.996836
20
104.769047
11
297.881228
21
104.818893
0
LINE
8
Image
10
297.881228
20
104.818893
11
298.119727
21
104.879761
0
LINE
8
Image
10
298.119727
20
104.879761
11
298.119727
21
104.879761
0
LINE
8
Image
10
307.896657
20
112.136161
11
307.947207
21
112.872878
0
LINE
8
Image
10
307.947207
20
112.872878
11
308.001920
21
112.946447
0
LINE
8
Image
10
308.001920
20
112.946447
11
308.068728
21
112.794681
0
LINE
8
Image
10
308.068728
20
112.794681
11
308.068728
21
111.477641
0
LINE
8
Image
10
308.068728
20
111.477641
11
308.001920
21
111.325874
0
LINE
8
Image
10
308.001920
20
111.325874
11
307.947207
21
111.399443
0
LINE
8
Image
10
307.947207
20
111.399443
11
307.896657
21
112.136158
0
LINE
8
Image
10
307.896657
20
112.136158
11
307.896657
21
112.136161
0
LINE
8
Image
10
121.137657
20
112.794681
11
120.225400
21
113.829491
0
LINE
8
Image
10
120.225400
20
113.829491
11
121.260210
21
112.917234
0
LINE
8
Image
10
121.260210
20
112.917234
11
122.189706
21
112.018807
0
LINE
8
Image
10
122.189706
20
112.018807
11
122.290443
21
111.820800
0
LINE
8
Image
10
122.290443
20
111.820800
11
122.172467
21
111.759864
0
LINE
8
Image
10
122.172467
20
111.759864
11
121.137657
21
112.794674
0
LINE
8
Image
10
121.137657
20
112.794674
11
121.137657
21
112.794681
0
LINE
8
Image
10
124.235917
20
114.393941
11
124.291671
21
114.920169
0
LINE
8
Image
10
124.291671
20
114.920169
11
124.425717
21
114.864312
0
LINE
8
Image
10
124.425717
20
114.864312
11
124.504008
21
114.393942
0
LINE
8
Image
10
124.504008
20
114.393942
11
124.425717
21
113.923573
0
LINE
8
Image
10
124.425717
20
113.923573
11
124.291672
21
113.867716
0
LINE
8
Image
10
124.291672
20
113.867716
11
124.235917
21
114.393941
0
LINE
8
Image
10
124.235917
20
114.393941
11
124.235917
21
114.393941
0
LINE
8
Image
10
124.612212
20
120.414681
11
124.667966
21
120.940907
0
LINE
8
Image
10
124.667966
20
120.940907
11
124.802012
21
120.885049
0
LINE
8
Image
10
124.802012
20
120.885049
11
124.880303
21
120.414680
0
LINE
8
Image
10
124.880303
20
120.414680
11
124.802012
21
119.944310
0
LINE
8
Image
10
124.802012
20
119.944310
11
124.667967
21
119.888453
0
LINE
8
Image
10
124.667967
20
119.888453
11
124.612212
21
120.414681
0
LINE
8
Image
10
124.612212
20
120.414681
11
124.612212
21
120.414681
0
LINE
8
Image
10
125.002454
20
127.376151
11
125.063261
21
127.977886
0
LINE
8
Image
10
125.063261
20
127.977886
11
125.189864
21
127.839362
0
LINE
8
Image
10
125.189864
20
127.839362
11
125.175894
21
126.710472
0
LINE
8
Image
10
125.175894
20
126.710472
11
125.104224
21
126.619693
0
LINE
8
Image
10
125.104224
20
126.619693
11
125.047628
21
126.714940
0
LINE
8
Image
10
125.047628
20
126.714940
11
125.002423
21
127.376149
0
LINE
8
Image
10
125.002423
20
127.376149
11
125.002454
21
127.376151
0
LINE
8
Image
10
298.729454
20
132.738371
11
298.401149
21
133.208744
0
LINE
8
Image
10
298.401149
20
133.208744
11
298.871525
21
132.880447
0
LINE
8
Image
10
298.871525
20
132.880447
11
299.480941
21
132.295807
0
LINE
8
Image
10
299.480941
20
132.295807
11
299.526074
21
132.135818
0
LINE
8
Image
10
299.526074
20
132.135818
11
299.387963
21
132.079854
0
LINE
8
Image
10
299.387963
20
132.079854
11
298.729454
21
132.738371
0
LINE
8
Image
10
298.729454
20
132.738371
11
298.729454
21
132.738371
0
LINE
8
Image
10
125.378454
20
135.278371
11
125.439261
21
135.880106
0
LINE
8
Image
10
125.439261
20
135.880106
11
125.565866
21
135.741579
0
LINE
8
Image
10
125.565866
20
135.741579
11
125.551896
21
134.612689
0
LINE
8
Image
10
125.551896
20
134.612689
11
125.480226
21
134.521910
0
LINE
8
Image
10
125.480226
20
134.521910
11
125.423631
21
134.617157
0
LINE
8
Image
10
125.423631
20
134.617157
11
125.378428
21
135.278366
0
LINE
8
Image
10
125.378428
20
135.278366
11
125.378454
21
135.278371
0
LINE
8
Image
10
108.748054
20
137.866371
11
109.406574
21
138.524888
0
LINE
8
Image
10
109.406574
20
138.524888
11
109.876944
21
138.853187
0
LINE
8
Image
10
109.876944
20
138.853187
11
109.548647
21
138.382815
0
LINE
8
Image
10
109.548647
20
138.382815
11
108.964007
21
137.773397
0
LINE
8
Image
10
108.964007
20
137.773397
11
108.804018
21
137.728262
0
LINE
8
Image
10
108.804018
20
137.728262
11
108.748054
21
137.866371
0
LINE
8
Image
10
108.748054
20
137.866371
11
108.748054
21
137.866371
0
LINE
8
Image
10
291.956054
20
139.511701
11
291.627749
21
139.982073
0
LINE
8
Image
10
291.627749
20
139.982073
11
292.098125
21
139.653774
0
LINE
8
Image
10
292.098125
20
139.653774
11
292.707541
21
139.069137
0
LINE
8
Image
10
292.707541
20
139.069137
11
292.752674
21
138.909148
0
LINE
8
Image
10
292.752674
20
138.909148
11
292.614563
21
138.853184
0
LINE
8
Image
10
292.614563
20
138.853184
11
291.956054
21
139.511701
0
LINE
8
Image
10
291.956054
20
139.511701
11
291.956054
21
139.511701
0
LINE
8
Image
10
294.213834
20
141.769481
11
293.885529
21
142.239853
0
LINE
8
Image
10
293.885529
20
142.239853
11
294.355905
21
141.911554
0
LINE
8
Image
10
294.355905
20
141.911554
11
295.014414
21
141.253037
0
LINE
8
Image
10
295.014414
20
141.253037
11
294.958451
21
141.114927
0
LINE
8
Image
10
294.958451
20
141.114927
11
294.798465
21
141.160063
0
LINE
8
Image
10
294.798465
20
141.160063
11
294.213835
21
141.769481
0
LINE
8
Image
10
294.213835
20
141.769481
11
294.213834
21
141.769481
0
LINE
8
Image
10
112.889000
20
142.382000
11
113.547517
21
143.040517
0
LINE
8
Image
10
113.547517
20
143.040517
11
114.017890
21
143.368816
0
LINE
8
Image
10
114.017890
20
143.368816
11
113.689593
21
142.898444
0
LINE
8
Image
10
113.689593
20
142.898444
11
113.104953
21
142.289026
0
LINE
8
Image
10
113.104953
20
142.289026
11
112.944964
21
142.243891
0
LINE
8
Image
10
112.944964
20
142.243891
11
112.889000
21
142.382000
0
LINE
8
Image
10
112.889000
20
142.382000
11
112.889000
21
142.382000
0
LINE
8
Image
10
125.778000
20
144.685850
11
125.831437
21
145.498890
0
LINE
8
Image
10
125.831437
20
145.498890
11
125.885105
21
145.551661
0
LINE
8
Image
10
125.885105
20
145.551661
11
125.949247
21
145.339981
0
LINE
8
Image
10
125.949247
20
145.339981
11
125.941655
21
143.834801
0
LINE
8
Image
10
125.941655
20
143.834801
11
125.875764
21
143.699585
0
LINE
8
Image
10
125.875764
20
143.699585
11
125.822946
21
143.814977
0
LINE
8
Image
10
125.822946
20
143.814977
11
125.778006
21
144.685853
0
LINE
8
Image
10
125.778006
20
144.685853
11
125.778000
21
144.685850
0
LINE
8
Image
10
120.979410
20
150.894730
11
123.020750
21
152.776210
0
LINE
8
Image
10
123.020750
20
152.776210
11
122.609255
21
152.223525
0
LINE
8
Image
10
122.609255
20
152.223525
11
121.355710
21
150.894730
0
LINE
8
Image
10
121.355710
20
150.894730
11
119.314370
21
149.013250
0
LINE
8
Image
10
119.314370
20
149.013250
11
119.725864
21
149.565935
0
LINE
8
Image
10
119.725864
20
149.565935
11
120.979410
21
150.894730
0
LINE
8
Image
10
120.979410
20
150.894730
11
120.979410
21
150.894730
0
LINE
8
Image
10
126.172160
20
156.162870
11
126.218209
21
157.320565
0
LINE
8
Image
10
126.218209
20
157.320565
11
126.268055
21
157.436173
0
LINE
8
Image
10
126.268055
20
157.436173
11
126.328923
21
157.197680
0
LINE
8
Image
10
126.328923
20
157.197680
11
126.328923
21
155.128050
0
LINE
8
Image
10
126.328923
20
155.128050
11
126.268055
21
154.889559
0
LINE
8
Image
10
126.268055
20
154.889559
11
126.218209
21
155.005167
0
LINE
8
Image
10
126.218209
20
155.005167
11
126.172160
21
156.162860
0
LINE
8
Image
10
126.172160
20
156.162860
11
126.172160
21
156.162870
0
LINE
8
Image
10
199.466860
20
158.263850
11
199.542259
21
158.654479
0
LINE
8
Image
10
199.542259
20
158.654479
11
199.694201
21
158.491197
0
LINE
8
Image
10
199.694201
20
158.491197
11
199.767003
21
158.075605
0
LINE
8
Image
10
199.767003
20
158.075605
11
199.664511
21
157.769962
0
LINE
8
Image
10
199.664511
20
157.769962
11
199.512677
21
157.821263
0
LINE
8
Image
10
199.512677
20
157.821263
11
199.466874
21
158.263850
0
LINE
8
Image
10
199.466874
20
158.263850
11
199.466860
21
158.263850
0
LINE
8
Image
10
166.382560
20
159.925820
11
166.438314
21
160.452048
0
LINE
8
Image
10
166.438314
20
160.452048
11
166.572360
21
160.396191
0
LINE
8
Image
10
166.572360
20
160.396191
11
166.650651
21
159.925821
0
LINE
8
Image
10
166.650651
20
159.925821
11
166.572360
21
159.455452
0
LINE
8
Image
10
166.572360
20
159.455452
11
166.438315
21
159.399595
0
LINE
8
Image
10
166.438315
20
159.399595
11
166.382560
21
159.925820
0
LINE
8
Image
10
166.382560
20
159.925820
11
166.382560
21
159.925820
0
LINE
8
Image
10
162.257250
20
163.124340
11
162.318057
21
163.726073
0
LINE
8
Image
10
162.318057
20
163.726073
11
162.444660
21
163.587548
0
LINE
8
Image
10
162.444660
20
163.587548
11
162.430690
21
162.458658
0
LINE
8
Image
10
162.430690
20
162.458658
11
162.359021
21
162.367879
0
LINE
8
Image
10
162.359021
20
162.367879
11
162.302426
21
162.463128
0
LINE
8
Image
10
162.302426
20
162.463128
11
162.257222
21
163.124338
0
LINE
8
Image
10
162.257222
20
163.124338
11
162.257250
21
163.124340
0
LINE
8
Image
10
123.184750
20
165.946560
11
123.226150
21
167.946219
0
LINE
8
Image
10
123.226150
20
167.946219
11
123.270963
21
168.145908
0
LINE
8
Image
10
123.270963
20
168.145908
11
123.325686
21
167.733970
0
LINE
8
Image
10
123.325686
20
167.733970
11
123.325686
21
164.159160
0
LINE
8
Image
10
123.325686
20
164.159160
11
123.270963
21
163.747219
0
LINE
8
Image
10
123.270963
20
163.747219
11
123.226150
21
163.946907
0
LINE
8
Image
10
123.226150
20
163.946907
11
123.184750
21
165.946570
0
LINE
8
Image
10
123.184750
20
165.946570
11
123.184750
21
165.946560
0
LINE
8
Image
10
166.382550
20
164.065080
11
166.438304
21
164.591306
0
LINE
8
Image
10
166.438304
20
164.591306
11
166.572350
21
164.535451
0
LINE
8
Image
10
166.572350
20
164.535451
11
166.650641
21
164.065080
0
LINE
8
Image
10
166.650641
20
164.065080
11
166.572350
21
163.594709
0
LINE
8
Image
10
166.572350
20
163.594709
11
166.438305
21
163.538854
0
LINE
8
Image
10
166.438305
20
163.538854
11
166.382550
21
164.065080
0
LINE
8
Image
10
166.382550
20
164.065080
11
166.382550
21
164.065080
0
LINE
8
Image
10
249.920250
20
173.096180
11
249.976004
21
173.622406
0
LINE
8
Image
10
249.976004
20
173.622406
11
250.110050
21
173.566548
0
LINE
8
Image
10
250.110050
20
173.566548
11
250.188341
21
173.096179
0
LINE
8
Image
10
250.188341
20
173.096179
11
250.110050
21
172.625809
0
LINE
8
Image
10
250.110050
20
172.625809
11
249.976005
21
172.569954
0
LINE
8
Image
10
249.976005
20
172.569954
11
249.920250
21
173.096180
0
LINE
8
Image
10
249.920250
20
173.096180
11
249.920250
21
173.096180
0
LINE
8
Image
10
245.781000
20
173.848770
11
245.836754
21
174.374998
0
LINE
8
Image
10
245.836754
20
174.374998
11
245.970800
21
174.319141
0
LINE
8
Image
10
245.970800
20
174.319141
11
246.049091
21
173.848771
0
LINE
8
Image
10
246.049091
20
173.848771
11
245.970800
21
173.378402
0
LINE
8
Image
10
245.970800
20
173.378402
11
245.836755
21
173.322545
0
LINE
8
Image
10
245.836755
20
173.322545
11
245.781000
21
173.848770
0
LINE
8
Image
10
245.781000
20
173.848770
11
245.781000
21
173.848770
0
LINE
8
Image
10
123.183000
20
188.712470
11
123.223683
21
190.637857
0
LINE
8
Image
10
123.223683
20
190.637857
11
123.268856
21
190.860556
0
LINE
8
Image
10
123.268856
20
190.860556
11
123.324402
21
190.511230
0
LINE
8
Image
10
123.324402
20
190.511230
11
123.326660
21
187.124570
0
LINE
8
Image
10
123.326660
20
187.124570
11
123.271491
21
186.693376
0
LINE
8
Image
10
123.271491
20
186.693376
11
123.226030
21
186.849031
0
LINE
8
Image
10
123.226030
20
186.849031
11
123.183001
21
188.712480
0
LINE
8
Image
10
123.183001
20
188.712480
11
123.183000
21
188.712470
0
LINE
8
Image
10
242.111000
20
196.144320
11
241.394159
21
196.990986
0
LINE
8
Image
10
241.394159
20
196.990986
11
242.240825
21
196.274148
0
LINE
8
Image
10
242.240825
20
196.274148
11
243.087491
21
195.427482
0
LINE
8
Image
10
243.087491
20
195.427482
11
243.029647
21
195.300559
0
LINE
8
Image
10
243.029647
20
195.300559
11
242.851865
21
195.374607
0
LINE
8
Image
10
242.851865
20
195.374607
11
242.111000
21
196.144320
0
LINE
8
Image
10
242.111000
20
196.144320
11
242.111000
21
196.144320
0
LINE
8
Image
10
126.167000
20
197.743000
11
126.216897
21
198.766295
0
LINE
8
Image
10
126.216897
20
198.766295
11
126.267960
21
198.839837
0
LINE
8
Image
10
126.267960
20
198.839837
11
126.329399
21
198.584493
0
LINE
8
Image
10
126.329399
20
198.584493
11
126.324291
21
196.703013
0
LINE
8
Image
10
126.324291
20
196.703013
11
126.261641
21
196.524740
0
LINE
8
Image
10
126.261641
20
196.524740
11
126.211107
21
196.661401
0
LINE
8
Image
10
126.211107
20
196.661401
11
126.167028
21
197.743003
0
LINE
8
Image
10
126.167028
20
197.743003
11
126.167000
21
197.743000
0
LINE
8
Image
10
212.160600
20
198.940790
11
212.576192
21
199.013592
0
LINE
8
Image
10
212.576192
20
199.013592
11
212.881835
21
198.911100
0
LINE
8
Image
10
212.881835
20
198.911100
11
212.830534
21
198.759263
0
LINE
8
Image
10
212.830534
20
198.759263
11
212.387947
21
198.713460
0
LINE
8
Image
10
212.387947
20
198.713460
11
211.997318
21
198.788860
0
LINE
8
Image
10
211.997318
20
198.788860
11
212.160600
21
198.940804
0
LINE
8
Image
10
212.160600
20
198.940804
11
212.160600
21
198.940790
0
LINE
8
Image
10
218.733620
20
199.337089
11
222.120280
21
199.334831
0
LINE
8
Image
10
222.120280
20
199.334831
11
222.469604
21
199.279283
0
LINE
8
Image
10
222.469604
20
199.279283
11
222.246905
21
199.234106
0
LINE
8
Image
10
222.246905
20
199.234106
11
220.321520
21
199.193429
0
LINE
8
Image
10
220.321520
20
199.193429
11
218.458072
21
199.236433
0
LINE
8
Image
10
218.458072
20
199.236433
11
218.302418
21
199.281846
0
LINE
8
Image
10
218.302418
20
199.281846
11
218.733610
21
199.336916
0
LINE
8
Image
10
218.733610
20
199.336916
11
218.733620
21
199.337089
0
LINE
8
Image
10
122.760000
20
204.329000
11
122.810552
21
205.065717
0
LINE
8
Image
10
122.810552
20
205.065717
11
122.865272
21
205.139286
0
LINE
8
Image
10
122.865272
20
205.139286
11
122.932091
21
204.987520
0
LINE
8
Image
10
122.932091
20
204.987520
11
122.932091
21
203.670480
0
LINE
8
Image
10
122.932091
20
203.670480
11
122.865272
21
203.518713
0
LINE
8
Image
10
122.865272
20
203.518713
11
122.810552
21
203.592282
0
LINE
8
Image
10
122.810552
20
203.592282
11
122.760000
21
204.328997
0
LINE
8
Image
10
122.760000
20
204.328997
11
122.760000
21
204.329000
0
LINE
8
Image
10
219.293400
20
203.472826
11
221.551180
21
203.468988
0
LINE
8
Image
10
221.551180
20
203.468988
11
221.772210
21
203.408675
0
LINE
8
Image
10
221.772210
20
203.408675
11
221.614037
21
203.359861
0
LINE
8
Image
10
221.614037
20
203.359861
11
220.321480
21
203.316715
0
LINE
8
Image
10
220.321480
20
203.316715
11
219.088149
21
203.364211
0
LINE
8
Image
10
219.088149
20
203.364211
11
218.994085
21
203.413419
0
LINE
8
Image
10
218.994085
20
203.413419
11
219.293400
21
203.472826
0
LINE
8
Image
10
219.293400
20
203.472826
11
219.293400
21
203.472826
0
LINE
8
Image
10
125.756400
20
209.032696
11
125.817207
21
209.634431
0
LINE
8
Image
10
125.817207
20
209.634431
11
125.943810
21
209.495904
0
LINE
8
Image
10
125.943810
20
209.495904
11
125.929840
21
208.367014
0
LINE
8
Image
10
125.929840
20
208.367014
11
125.858171
21
208.276236
0
LINE
8
Image
10
125.858171
20
208.276236
11
125.801576
21
208.371485
0
LINE
8
Image
10
125.801576
20
208.371485
11
125.756372
21
209.032694
0
LINE
8
Image
10
125.756372
20
209.032694
11
125.756400
21
209.032696
0
LINE
8
Image
10
204.987400
20
209.470058
11
205.457769
21
209.548349
0
LINE
8
Image
10
205.457769
20
209.548349
11
205.928139
21
209.470058
0
LINE
8
Image
10
205.928139
20
209.470058
11
205.983996
21
209.336013
0
LINE
8
Image
10
205.983996
20
209.336013
11
205.457768
21
209.280258
0
LINE
8
Image
10
205.457768
20
209.280258
11
204.931542
21
209.336012
0
LINE
8
Image
10
204.931542
20
209.336012
11
204.987400
21
209.470058
0
LINE
8
Image
10
204.987400
20
209.470058
11
204.987400
21
209.470058
0
LINE
8
Image
10
122.370000
20
213.548000
11
122.430807
21
214.149734
0
LINE
8
Image
10
122.430807
20
214.149734
11
122.557410
21
214.011208
0
LINE
8
Image
10
122.557410
20
214.011208
11
122.543440
21
212.882318
0
LINE
8
Image
10
122.543440
20
212.882318
11
122.471771
21
212.791539
0
LINE
8
Image
10
122.471771
20
212.791539
11
122.415176
21
212.886788
0
LINE
8
Image
10
122.415176
20
212.886788
11
122.369972
21
213.547998
0
LINE
8
Image
10
122.369972
20
213.547998
11
122.370000
21
213.548000
0
LINE
8
Image
10
125.366420
20
217.122810
11
125.422174
21
217.649038
0
LINE
8
Image
10
125.422174
20
217.649038
11
125.556220
21
217.593181
0
LINE
8
Image
10
125.556220
20
217.593181
11
125.634511
21
217.122811
0
LINE
8
Image
10
125.634511
20
217.122811
11
125.556220
21
216.652442
0
LINE
8
Image
10
125.556220
20
216.652442
11
125.422175
21
216.596585
0
LINE
8
Image
10
125.422175
20
216.596585
11
125.366420
21
217.122810
0
LINE
8
Image
10
125.366420
20
217.122810
11
125.366420
21
217.122810
0
LINE
8
Image
10
227.342420
20
219.004290
11
227.398174
21
219.530516
0
LINE
8
Image
10
227.398174
20
219.530516
11
227.532220
21
219.474661
0
LINE
8
Image
10
227.532220
20
219.474661
11
227.610511
21
219.004290
0
LINE
8
Image
10
227.610511
20
219.004290
11
227.532220
21
218.533919
0
LINE
8
Image
10
227.532220
20
218.533919
11
227.398175
21
218.478064
0
LINE
8
Image
10
227.398175
20
218.478064
11
227.342420
21
219.004290
0
LINE
8
Image
10
227.342420
20
219.004290
11
227.342420
21
219.004290
0
LINE
8
Image
10
121.979420
20
220.509470
11
122.035174
21
221.035698
0
LINE
8
Image
10
122.035174
20
221.035698
11
122.169220
21
220.979841
0
LINE
8
Image
10
122.169220
20
220.979841
11
122.247511
21
220.509471
0
LINE
8
Image
10
122.247511
20
220.509471
11
122.169220
21
220.039102
0
LINE
8
Image
10
122.169220
20
220.039102
11
122.035175
21
219.983245
0
LINE
8
Image
10
122.035175
20
219.983245
11
121.979420
21
220.509470
0
LINE
8
Image
10
121.979420
20
220.509470
11
121.979420
21
220.509470
0
LINE
8
Image
10
227.312420
20
222.234160
11
227.387820
21
222.624789
0
LINE
8
Image
10
227.387820
20
222.624789
11
227.539764
21
222.461507
0
LINE
8
Image
10
227.539764
20
222.461507
11
227.612566
21
222.045915
0
LINE
8
Image
10
227.612566
20
222.045915
11
227.510074
21
221.740272
0
LINE
8
Image
10
227.510074
20
221.740272
11
227.358237
21
221.791573
0
LINE
8
Image
10
227.358237
20
221.791573
11
227.312434
21
222.234161
0
LINE
8
Image
10
227.312434
20
222.234161
11
227.312420
21
222.234160
0
LINE
8
Image
10
121.573000
20
226.373000
11
121.648400
21
226.763628
0
LINE
8
Image
10
121.648400
20
226.763628
11
121.800344
21
226.600347
0
LINE
8
Image
10
121.800344
20
226.600347
11
121.873146
21
226.184754
0
LINE
8
Image
10
121.873146
20
226.184754
11
121.770654
21
225.879112
0
LINE
8
Image
10
121.770654
20
225.879112
11
121.618819
21
225.930412
0
LINE
8
Image
10
121.618819
20
225.930412
11
121.573017
21
226.373000
0
LINE
8
Image
10
121.573017
20
226.373000
11
121.573000
21
226.373000
0
LINE
8
Image
10
121.196705
20
231.641140
11
121.272105
21
232.031769
0
LINE
8
Image
10
121.272105
20
232.031769
11
121.424049
21
231.868487
0
LINE
8
Image
10
121.424049
20
231.868487
11
121.496851
21
231.452896
0
LINE
8
Image
10
121.496851
20
231.452896
11
121.394359
21
231.147252
0
LINE
8
Image
10
121.394359
20
231.147252
11
121.242522
21
231.198554
0
LINE
8
Image
10
121.242522
20
231.198554
11
121.196719
21
231.641141
0
LINE
8
Image
10
121.196719
20
231.641141
11
121.196705
21
231.641140
0
LINE
8
Image
10
163.399405
20
232.926820
11
163.449957
21
233.663537
0
LINE
8
Image
10
163.449957
20
233.663537
11
163.504677
21
233.737106
0
LINE
8
Image
10
163.504677
20
233.737106
11
163.571496
21
233.585340
0
LINE
8
Image
10
163.571496
20
233.585340
11
163.571496
21
232.268300
0
LINE
8
Image
10
163.571496
20
232.268300
11
163.504677
21
232.116533
0
LINE
8
Image
10
163.504677
20
232.116533
11
163.449957
21
232.190102
0
LINE
8
Image
10
163.449957
20
232.190102
11
163.399405
21
232.926817
0
LINE
8
Image
10
163.399405
20
232.926817
11
163.399405
21
232.926820
0
LINE
8
Image
10
182.590505
20
232.926820
11
182.641057
21
233.663537
0
LINE
8
Image
10
182.641057
20
233.663537
11
182.695777
21
233.737106
0
LINE
8
Image
10
182.695777
20
233.737106
11
182.762598
21
233.585340
0
LINE
8
Image
10
182.762598
20
233.585340
11
182.762598
21
232.268300
0
LINE
8
Image
10
182.762598
20
232.268300
11
182.695777
21
232.116533
0
LINE
8
Image
10
182.695777
20
232.116533
11
182.641057
21
232.190102
0
LINE
8
Image
10
182.641057
20
232.190102
11
182.590505
21
232.926817
0
LINE
8
Image
10
182.590505
20
232.926817
11
182.590505
21
232.926820
0
LINE
8
Image
10
133.020305
20
232.926820
11
133.889543
21
233.679413
0
LINE
8
Image
10
133.889543
20
233.679413
11
133.822353
21
233.458339
0
LINE
8
Image
10
133.822353
20
233.458339
11
133.396603
21
232.926820
0
LINE
8
Image
10
133.396603
20
232.926820
11
132.527365
21
232.174230
0
LINE
8
Image
10
132.527365
20
232.174230
11
132.594555
21
232.395303
0
LINE
8
Image
10
132.594555
20
232.395303
11
133.020305
21
232.926820
0
LINE
8
Image
10
133.020305
20
232.926820
11
133.020305
21
232.926820
0
LINE
8
Image
10
228.881705
20
235.067690
11
230.198745
21
235.067690
0
LINE
8
Image
10
230.198745
20
235.067690
11
230.350512
21
235.000869
0
LINE
8
Image
10
230.350512
20
235.000869
11
230.276943
21
234.946149
0
LINE
8
Image
10
230.276943
20
234.946149
11
229.540225
21
234.895597
0
LINE
8
Image
10
229.540225
20
234.895597
11
228.803510
21
234.946149
0
LINE
8
Image
10
228.803510
20
234.946149
11
228.729941
21
235.000869
0
LINE
8
Image
10
228.729941
20
235.000869
11
228.881708
21
235.067690
0
LINE
8
Image
10
228.881708
20
235.067690
11
228.881705
21
235.067690
0
LINE
8
Image
10
206.891905
20
235.817940
11
207.307496
21
235.890742
0
LINE
8
Image
10
207.307496
20
235.890742
11
207.613140
21
235.788250
0
LINE
8
Image
10
207.613140
20
235.788250
11
207.561838
21
235.636415
0
LINE
8
Image
10
207.561838
20
235.636415
11
207.119252
21
235.590613
0
LINE
8
Image
10
207.119252
20
235.590613
11
206.728623
21
235.666012
0
LINE
8
Image
10
206.728623
20
235.666012
11
206.891905
21
235.817954
0
LINE
8
Image
10
206.891905
20
235.817954
11
206.891905
21
235.817940
0
LINE
8
Image
10
212.160045
20
235.817940
11
212.575637
21
235.890742
0
LINE
8
Image
10
212.575637
20
235.890742
11
212.881280
21
235.788250
0
LINE
8
Image
10
212.881280
20
235.788250
11
212.829979
21
235.636415
0
LINE
8
Image
10
212.829979
20
235.636415
11
212.387391
21
235.590613
0
LINE
8
Image
10
212.387391
20
235.590613
11
211.996762
21
235.666012
0
LINE
8
Image
10
211.996762
20
235.666012
11
212.160044
21
235.817954
0
LINE
8
Image
10
212.160044
20
235.817954
11
212.160045
21
235.817940
0
LINE
8
Image
10
139.041000
20
238.948000
11
139.910238
21
239.700590
0
LINE
8
Image
10
139.910238
20
239.700590
11
139.843048
21
239.479517
0
LINE
8
Image
10
139.843048
20
239.479517
11
139.417298
21
238.948000
0
LINE
8
Image
10
139.417298
20
238.948000
11
138.548060
21
238.195407
0
LINE
8
Image
10
138.548060
20
238.195407
11
138.615250
21
238.416481
0
LINE
8
Image
10
138.615250
20
238.416481
11
139.041000
21
238.948000
0
LINE
8
Image
10
139.041000
20
238.948000
11
139.041000
21
238.948000
0
LINE
8
Image
10
120.067800
20
244.435650
11
120.143200
21
244.826278
0
LINE
8
Image
10
120.143200
20
244.826278
11
120.295144
21
244.662997
0
LINE
8
Image
10
120.295144
20
244.662997
11
120.367946
21
244.247404
0
LINE
8
Image
10
120.367946
20
244.247404
11
120.265454
21
243.941762
0
LINE
8
Image
10
120.265454
20
243.941762
11
120.113617
21
243.993062
0
LINE
8
Image
10
120.113617
20
243.993062
11
120.067814
21
244.435650
0
LINE
8
Image
10
120.067814
20
244.435650
11
120.067800
21
244.435650
0
LINE
8
Image
10
219.815900
20
244.592441
11
219.871654
21
245.118667
0
LINE
8
Image
10
219.871654
20
245.118667
11
220.005700
21
245.062809
0
LINE
8
Image
10
220.005700
20
245.062809
11
220.083991
21
244.592440
0
LINE
8
Image
10
220.083991
20
244.592440
11
220.005700
21
244.122070
0
LINE
8
Image
10
220.005700
20
244.122070
11
219.871655
21
244.066213
0
LINE
8
Image
10
219.871655
20
244.066213
11
219.815900
21
244.592441
0
LINE
8
Image
10
219.815900
20
244.592441
11
219.815900
21
244.592441
0
LINE
8
Image
10
221.261670
20
249.632171
11
221.845658
21
250.004159
0
LINE
8
Image
10
221.845658
20
250.004159
11
222.197716
21
250.058393
0
LINE
8
Image
10
222.197716
20
250.058393
11
222.199745
21
249.856272
0
LINE
8
Image
10
222.199745
20
249.856272
11
221.647839
21
249.495849
0
LINE
8
Image
10
221.647839
20
249.495849
11
221.377168
21
249.488332
0
LINE
8
Image
10
221.377168
20
249.488332
11
221.261670
21
249.632171
0
LINE
8
Image
10
221.261670
20
249.632171
11
221.261670
21
249.632171
0
LINE
8
Image
10
222.390560
20
251.131541
11
223.049077
21
251.790061
0
LINE
8
Image
10
223.049077
20
251.790061
11
223.519450
21
252.118357
0
LINE
8
Image
10
223.519450
20
252.118357
11
223.191153
21
251.647985
0
LINE
8
Image
10
223.191153
20
251.647985
11
222.606513
21
251.038568
0
LINE
8
Image
10
222.606513
20
251.038568
11
222.446524
21
250.993433
0
LINE
8
Image
10
222.446524
20
250.993433
11
222.390560
21
251.131541
0
LINE
8
Image
10
222.390560
20
251.131541
11
222.390560
21
251.131541
0
LINE
8
Image
10
228.881670
20
254.259231
11
230.198710
21
254.259231
0
LINE
8
Image
10
230.198710
20
254.259231
11
230.350477
21
254.192412
0
LINE
8
Image
10
230.350477
20
254.192412
11
230.276908
21
254.137692
0
LINE
8
Image
10
230.276908
20
254.137692
11
229.540190
21
254.087140
0
LINE
8
Image
10
229.540190
20
254.087140
11
228.803475
21
254.137692
0
LINE
8
Image
10
228.803475
20
254.137692
11
228.729906
21
254.192412
0
LINE
8
Image
10
228.729906
20
254.192412
11
228.881673
21
254.259231
0
LINE
8
Image
10
228.881673
20
254.259231
11
228.881670
21
254.259231
0
LINE
8
Image
10
206.515570
20
269.308731
11
206.931163
21
269.381533
0
LINE
8
Image
10
206.931163
20
269.381533
11
207.236805
21
269.279041
0
LINE
8
Image
10
207.236805
20
269.279041
11
207.185505
21
269.127207
0
LINE
8
Image
10
207.185505
20
269.127207
11
206.742917
21
269.081404
0
LINE
8
Image
10
206.742917
20
269.081404
11
206.352289
21
269.156804
0
LINE
8
Image
10
206.352289
20
269.156804
11
206.515570
21
269.308748
0
LINE
8
Image
10
206.515570
20
269.308748
11
206.515570
21
269.308731
0
LINE
8
Image
10
224.577770
20
269.308731
11
224.993362
21
269.381533
0
LINE
8
Image
10
224.993362
20
269.381533
11
225.299005
21
269.279041
0
LINE
8
Image
10
225.299005
20
269.279041
11
225.247704
21
269.127207
0
LINE
8
Image
10
225.247704
20
269.127207
11
224.805116
21
269.081404
0
LINE
8
Image
10
224.805116
20
269.081404
11
224.414487
21
269.156804
0
LINE
8
Image
10
224.414487
20
269.156804
11
224.577769
21
269.308748
0
LINE
8
Image
10
224.577769
20
269.308748
11
224.577770
21
269.308731
0
LINE
8
Image
10
214.770560
20
269.693541
11
216.463890
21
269.693541
0
LINE
8
Image
10
216.463890
20
269.693541
11
216.659020
21
269.630222
0
LINE
8
Image
10
216.659020
20
269.630222
11
216.564431
21
269.578369
0
LINE
8
Image
10
216.564431
20
269.578369
11
215.617224
21
269.530465
0
LINE
8
Image
10
215.617224
20
269.530465
11
214.670017
21
269.578369
0
LINE
8
Image
10
214.670017
20
269.578369
11
214.575429
21
269.630222
0
LINE
8
Image
10
214.575429
20
269.630222
11
214.770558
21
269.693541
0
LINE
8
Image
10
214.770558
20
269.693541
11
214.770560
21
269.693541
0
LINE
8
Image
10
215.405404
20
319.945741
11
214.300184
21
321.168701
0
LINE
8
Image
10
214.300184
20
321.168701
11
215.523144
21
320.063481
0
LINE
8
Image
10
215.523144
20
320.063481
11
216.746104
21
318.840521
0
LINE
8
Image
10
216.746104
20
318.840521
11
216.681492
21
318.730257
0
LINE
8
Image
10
216.681492
20
318.730257
11
216.462081
21
318.856618
0
LINE
8
Image
10
216.462081
20
318.856618
11
215.405394
21
319.945741
0
LINE
8
Image
10
215.405394
20
319.945741
11
215.405404
21
319.945741
0
LINE
8
Image
10
211.081414
20
324.273141
11
209.784634
21
325.684251
0
LINE
8
Image
10
209.784634
20
325.684251
11
211.195744
21
324.387471
0
LINE
8
Image
10
211.195744
20
324.387471
11
212.444426
21
323.172122
0
LINE
8
Image
10
212.444426
20
323.172122
11
212.595829
21
322.930645
0
LINE
8
Image
10
212.595829
20
322.930645
11
212.492524
21
322.862031
0
LINE
8
Image
10
212.492524
20
322.862031
11
211.081414
21
324.273141
0
LINE
8
Image
10
211.081414
20
324.273141
11
211.081414
21
324.273141
0
LINE
8
Image
10
206.161824
20
328.788691
11
205.833528
21
329.259063
0
LINE
8
Image
10
205.833528
20
329.259063
11
206.303897
21
328.930764
0
LINE
8
Image
10
206.303897
20
328.930764
11
206.962417
21
328.272247
0
LINE
8
Image
10
206.962417
20
328.272247
11
206.906453
21
328.134137
0
LINE
8
Image
10
206.906453
20
328.134137
11
206.746464
21
328.179273
0
LINE
8
Image
10
206.746464
20
328.179273
11
206.161824
21
328.788691
0
LINE
8
Image
10
206.161824
20
328.788691
11
206.161824
21
328.788691
0
LINE
8
Image
10
87.230100
20
377.682000
11
87.645689
21
377.754799
0
LINE
8
Image
10
87.645689
20
377.754799
11
87.951335
21
377.652292
0
LINE
8
Image
10
87.951335
20
377.652292
11
87.900033
21
377.500455
0
LINE
8
Image
10
87.900033
20
377.500455
11
87.457447
21
377.454654
0
LINE
8
Image
10
87.457447
20
377.454654
11
87.066818
21
377.530050
0
LINE
8
Image
10
87.066818
20
377.530050
11
87.230100
21
377.682000
0
LINE
8
Image
10
87.230100
20
377.682000
11
87.230100
21
377.682000
0
LINE
8
Image
10
82.714550
20
378.058296
11
83.130139
21
378.131095
0
LINE
8
Image
10
83.130139
20
378.131095
11
83.435785
21
378.028587
0
LINE
8
Image
10
83.435785
20
378.028587
11
83.384483
21
377.876751
0
LINE
8
Image
10
83.384483
20
377.876751
11
82.941897
21
377.830949
0
LINE
8
Image
10
82.941897
20
377.830949
11
82.551268
21
377.906346
0
LINE
8
Image
10
82.551268
20
377.906346
11
82.714550
21
378.058295
0
LINE
8
Image
10
82.714550
20
378.058295
11
82.714550
21
378.058296
0
LINE
8
Image
10
73.288020
20
378.443678
11
74.793200
21
378.436083
0
LINE
8
Image
10
74.793200
20
378.436083
11
74.928416
21
378.370192
0
LINE
8
Image
10
74.928416
20
378.370192
11
74.813023
21
378.317374
0
LINE
8
Image
10
74.813023
20
378.317374
11
73.942145
21
378.272433
0
LINE
8
Image
10
73.942145
20
378.272433
11
73.129106
21
378.325869
0
LINE
8
Image
10
73.129106
20
378.325869
11
73.076336
21
378.379536
0
LINE
8
Image
10
73.076336
20
378.379536
11
73.288016
21
378.443677
0
LINE
8
Image
10
73.288016
20
378.443677
11
73.288020
21
378.443678
0
LINE
8
Image
10
318.520000
20
29.068800
11
316.652680
21
31.044350
0
LINE
8
Image
10
316.652680
20
31.044350
11
318.628230
21
29.177030
0
LINE
8
Image
10
318.628230
20
29.177030
11
320.355574
21
27.484439
0
LINE
8
Image
10
320.355574
20
27.484439
11
320.580382
21
27.174821
0
LINE
8
Image
10
320.580382
20
27.174821
11
320.495550
21
27.093240
0
LINE
8
Image
10
320.495550
20
27.093240
11
318.520000
21
29.068790
0
LINE
8
Image
10
318.520000
20
29.068790
11
318.520000
21
29.068800
0
LINE
8
Image
10
98.589000
20
43.462100
11
101.201330
21
45.908030
0
LINE
8
Image
10
101.201330
20
45.908030
11
100.622106
21
45.189538
0
LINE
8
Image
10
100.622106
20
45.189538
11
98.965300
21
43.462100
0
LINE
8
Image
10
98.965300
20
43.462100
11
96.352970
21
41.016170
0
LINE
8
Image
10
96.352970
20
41.016170
11
96.932194
21
41.734662
0
LINE
8
Image
10
96.932194
20
41.734662
11
98.589000
21
43.462100
0
LINE
8
Image
10
98.589000
20
43.462100
11
98.589000
21
43.462100
0
LINE
8
Image
10
105.550480
20
46.284320
11
106.419715
21
47.036921
0
LINE
8
Image
10
106.419715
20
47.036921
11
106.352525
21
46.815846
0
LINE
8
Image
10
106.352525
20
46.815846
11
105.926775
21
46.284320
0
LINE
8
Image
10
105.926775
20
46.284320
11
105.057540
21
45.531719
0
LINE
8
Image
10
105.057540
20
45.531719
11
105.124730
21
45.752794
0
LINE
8
Image
10
105.124730
20
45.752794
11
105.550480
21
46.284320
0
LINE
8
Image
10
105.550480
20
46.284320
11
105.550480
21
46.284320
0
LINE
8
Image
10
105.362331
20
50.565660
11
106.020851
21
51.224169
0
LINE
8
Image
10
106.020851
20
51.224169
11
106.491221
21
51.552464
0
LINE
8
Image
10
106.491221
20
51.552464
11
106.162924
21
51.082098
0
LINE
8
Image
10
106.162924
20
51.082098
11
105.578284
21
50.472682
0
LINE
8
Image
10
105.578284
20
50.472682
11
105.418295
21
50.427549
0
LINE
8
Image
10
105.418295
20
50.427549
11
105.362331
21
50.565660
0
LINE
8
Image
10
105.362331
20
50.565660
11
105.362331
21
50.565660
0
LINE
8
Image
10
276.953331
20
50.917619
11
278.176291
21
52.140569
0
LINE
8
Image
10
278.176291
20
52.140569
11
279.399251
21
53.245809
0
LINE
8
Image
10
279.399251
20
53.245809
11
278.294031
21
52.022829
0
LINE
8
Image
10
278.294031
20
52.022829
11
277.237344
21
50.933712
0
LINE
8
Image
10
277.237344
20
50.933712
11
277.017932
21
50.807351
0
LINE
8
Image
10
277.017932
20
50.807351
11
276.953321
21
50.917619
0
LINE
8
Image
10
276.953321
20
50.917619
11
276.953331
21
50.917619
0
LINE
8
Image
10
243.651131
20
84.290219
11
244.520369
21
85.042792
0
LINE
8
Image
10
244.520369
20
85.042792
11
244.453179
21
84.821721
0
LINE
8
Image
10
244.453179
20
84.821721
11
244.027429
21
84.290219
0
LINE
8
Image
10
244.027429
20
84.290219
11
243.158191
21
83.537618
0
LINE
8
Image
10
243.158191
20
83.537618
11
243.225381
21
83.758693
0
LINE
8
Image
10
243.225381
20
83.758693
11
243.651131
21
84.290219
0
LINE
8
Image
10
243.651131
20
84.290219
11
243.651131
21
84.290219
0
LINE
8
Image
10
254.375531
20
94.968519
11
255.034048
21
95.627028
0
LINE
8
Image
10
255.034048
20
95.627028
11
255.504420
21
95.955333
0
LINE
8
Image
10
255.504420
20
95.955333
11
255.176124
21
95.484957
0
LINE
8
Image
10
255.176124
20
95.484957
11
254.591484
21
94.875541
0
LINE
8
Image
10
254.591484
20
94.875541
11
254.431495
21
94.830408
0
LINE
8
Image
10
254.431495
20
94.830408
11
254.375531
21
94.968519
0
LINE
8
Image
10
254.375531
20
94.968519
11
254.375531
21
94.968519
0
LINE
8
Image
10
119.613531
20
114.299719
11
119.285234
21
114.770091
0
LINE
8
Image
10
119.285234
20
114.770091
11
119.755604
21
114.441792
0
LINE
8
Image
10
119.755604
20
114.441792
11
120.414124
21
113.783275
0
LINE
8
Image
10
120.414124
20
113.783275
11
120.358160
21
113.645165
0
LINE
8
Image
10
120.358160
20
113.645165
11
120.198171
21
113.690301
0
LINE
8
Image
10
120.198171
20
113.690301
11
119.613531
21
114.299719
0
LINE
8
Image
10
119.613531
20
114.299719
11
119.613531
21
114.299719
0
LINE
8
Image
10
299.859531
20
136.124919
11
299.531226
21
136.595291
0
LINE
8
Image
10
299.531226
20
136.595291
11
300.001602
21
136.266992
0
LINE
8
Image
10
300.001602
20
136.266992
11
300.660111
21
135.608475
0
LINE
8
Image
10
300.660111
20
135.608475
11
300.604148
21
135.470365
0
LINE
8
Image
10
300.604148
20
135.470365
11
300.444162
21
135.515501
0
LINE
8
Image
10
300.444162
20
135.515501
11
299.859532
21
136.124919
0
LINE
8
Image
10
299.859532
20
136.124919
11
299.859531
21
136.124919
0
LINE
8
Image
10
295.343981
20
140.640469
11
295.015676
21
141.110841
0
LINE
8
Image
10
295.015676
20
141.110841
11
295.486052
21
140.782542
0
LINE
8
Image
10
295.486052
20
140.782542
11
296.144561
21
140.124025
0
LINE
8
Image
10
296.144561
20
140.124025
11
296.088598
21
139.985915
0
LINE
8
Image
10
296.088598
20
139.985915
11
295.928612
21
140.031051
0
LINE
8
Image
10
295.928612
20
140.031051
11
295.343982
21
140.640469
0
LINE
8
Image
10
295.343982
20
140.640469
11
295.343981
21
140.640469
0
LINE
8
Image
10
114.582000
20
144.121000
11
115.451235
21
144.873593
0
LINE
8
Image
10
115.451235
20
144.873593
11
115.384045
21
144.652519
0
LINE
8
Image
10
115.384045
20
144.652519
11
114.958295
21
144.121000
0
LINE
8
Image
10
114.958295
20
144.121000
11
114.089060
21
143.368410
0
LINE
8
Image
10
114.089060
20
143.368410
11
114.156250
21
143.589484
0
LINE
8
Image
10
114.156250
20
143.589484
11
114.582000
21
144.121000
0
LINE
8
Image
10
114.582000
20
144.121000
11
114.582000
21
144.121000
0
LINE
8
Image
10
239.276000
20
193.322000
11
238.947703
21
193.792372
0
LINE
8
Image
10
238.947703
20
193.792372
11
239.418073
21
193.464076
0
LINE
8
Image
10
239.418073
20
193.464076
11
240.076593
21
192.805556
0
LINE
8
Image
10
240.076593
20
192.805556
11
240.020629
21
192.667448
0
LINE
8
Image
10
240.020629
20
192.667448
11
239.860640
21
192.712583
0
LINE
8
Image
10
239.860640
20
192.712583
11
239.276000
21
193.322000
0
LINE
8
Image
10
239.276000
20
193.322000
11
239.276000
21
193.322000
0
LINE
8
Image
10
131.327000
20
231.188000
11
131.985520
21
231.846517
0
LINE
8
Image
10
131.985520
20
231.846517
11
132.455890
21
232.174816
0
LINE
8
Image
10
132.455890
20
232.174816
11
132.127593
21
231.704444
0
LINE
8
Image
10
132.127593
20
231.704444
11
131.542953
21
231.095026
0
LINE
8
Image
10
131.542953
20
231.095026
11
131.382964
21
231.049891
0
LINE
8
Image
10
131.382964
20
231.049891
11
131.327000
21
231.188000
0
LINE
8
Image
10
131.327000
20
231.188000
11
131.327000
21
231.188000
0
LINE
8
Image
10
165.946200
20
239.466510
11
166.604717
21
240.125030
0
LINE
8
Image
10
166.604717
20
240.125030
11
167.075089
21
240.453326
0
LINE
8
Image
10
167.075089
20
240.453326
11
166.746790
21
239.982954
0
LINE
8
Image
10
166.746790
20
239.982954
11
166.162153
21
239.373537
0
LINE
8
Image
10
166.162153
20
239.373537
11
166.002164
21
239.328402
0
LINE
8
Image
10
166.002164
20
239.328402
11
165.946200
21
239.466510
0
LINE
8
Image
10
165.946200
20
239.466510
11
165.946200
21
239.466510
0
LINE
8
Image
10
213.331000
20
322.015510
11
212.418743
21
323.050320
0
LINE
8
Image
10
212.418743
20
323.050320
11
213.453553
21
322.138063
0
LINE
8
Image
10
213.453553
20
322.138063
11
214.488363
21
321.103253
0
LINE
8
Image
10
214.488363
20
321.103253
11
214.427427
21
320.985278
0
LINE
8
Image
10
214.427427
20
320.985278
11
214.229420
21
321.086015
0
LINE
8
Image
10
214.229420
20
321.086015
11
213.330993
21
322.015510
0
LINE
8
Image
10
213.330993
20
322.015510
11
213.331000
21
322.015510
0
LINE
8
Image
10
296.074000
20
6.653990
11
296.489593
21
6.726789
0
LINE
8
Image
10
296.489593
20
6.726789
11
296.795247
21
6.624244
0
LINE
8
Image
10
296.795247
20
6.624244
11
296.743935
21
6.472408
0
LINE
8
Image
10
296.743935
20
6.472408
11
296.301358
21
6.426576
0
LINE
8
Image
10
296.301358
20
6.426576
11
295.910724
21
6.501985
0
LINE
8
Image
10
295.910724
20
6.501985
11
296.074000
21
6.653934
0
LINE
8
Image
10
296.074000
20
6.653934
11
296.074000
21
6.653990
0
LINE
8
Image
10
306.610300
20
6.653990
11
307.025893
21
6.726789
0
LINE
8
Image
10
307.025893
20
6.726789
11
307.331547
21
6.624244
0
LINE
8
Image
10
307.331547
20
6.624244
11
307.280246
21
6.472408
0
LINE
8
Image
10
307.280246
20
6.472408
11
306.837658
21
6.426576
0
LINE
8
Image
10
306.837658
20
6.426576
11
306.447024
21
6.501985
0
LINE
8
Image
10
306.447024
20
6.501985
11
306.610300
21
6.653934
0
LINE
8
Image
10
306.610300
20
6.653934
11
306.610300
21
6.653990
0
LINE
8
Image
10
295.674200
20
9.656520
11
296.144579
21
9.734815
0
LINE
8
Image
10
296.144579
20
9.734815
11
296.614959
21
9.656520
0
LINE
8
Image
10
296.614959
20
9.656520
11
296.670800
21
9.522475
0
LINE
8
Image
10
296.670800
20
9.522475
11
296.144580
21
9.466726
0
LINE
8
Image
10
296.144580
20
9.466726
11
295.618359
21
9.522475
0
LINE
8
Image
10
295.618359
20
9.522475
11
295.674201
21
9.656520
0
LINE
8
Image
10
295.674201
20
9.656520
11
295.674200
21
9.656520
0
LINE
8
Image
10
306.610300
20
9.664422
11
307.025893
21
9.737228
0
LINE
8
Image
10
307.025893
20
9.737228
11
307.331547
21
9.634732
0
LINE
8
Image
10
307.331547
20
9.634732
11
307.280246
21
9.482901
0
LINE
8
Image
10
307.280246
20
9.482901
11
306.837658
21
9.437092
0
LINE
8
Image
10
306.837658
20
9.437092
11
306.447024
21
9.512491
0
LINE
8
Image
10
306.447024
20
9.512491
11
306.610300
21
9.664450
0
LINE
8
Image
10
306.610300
20
9.664450
11
306.610300
21
9.664422
0
LINE
8
Image
10
322.558700
20
16.745142
11
322.619484
21
17.346878
0
LINE
8
Image
10
322.619484
20
17.346878
11
322.746095
21
17.208353
0
LINE
8
Image
10
322.746095
20
17.208353
11
322.732266
21
16.079463
0
LINE
8
Image
10
322.732266
20
16.079463
11
322.660586
21
15.988685
0
LINE
8
Image
10
322.660586
20
15.988685
11
322.603986
21
16.083933
0
LINE
8
Image
10
322.603986
20
16.083933
11
322.558784
21
16.745140
0
LINE
8
Image
10
322.558784
20
16.745140
11
322.558700
21
16.745142
0
LINE
8
Image
10
325.569050
20
16.745142
11
325.629837
21
17.346878
0
LINE
8
Image
10
325.629837
20
17.346878
11
325.756474
21
17.208353
0
LINE
8
Image
10
325.756474
20
17.208353
11
325.823904
21
16.602147
0
LINE
8
Image
10
325.823904
20
16.602147
11
325.742363
21
16.079463
0
LINE
8
Image
10
325.742363
20
16.079463
11
325.670700
21
15.988685
0
LINE
8
Image
10
325.670700
20
15.988685
11
325.614107
21
16.083933
0
LINE
8
Image
10
325.614107
20
16.083933
11
325.568909
21
16.745140
0
LINE
8
Image
10
325.568909
20
16.745140
11
325.569050
21
16.745142
0
LINE
8
Image
10
249.201650
20
18.707992
11
251.271280
21
18.707992
0
LINE
8
Image
10
251.271280
20
18.707992
11
251.509773
21
18.647127
0
LINE
8
Image
10
251.509773
20
18.647127
11
251.394165
21
18.597287
0
LINE
8
Image
10
251.394165
20
18.597287
11
250.236470
21
18.551246
0
LINE
8
Image
10
250.236470
20
18.551246
11
249.078771
21
18.597287
0
LINE
8
Image
10
249.078771
20
18.597287
11
248.963165
21
18.647127
0
LINE
8
Image
10
248.963165
20
18.647127
11
249.201660
21
18.707992
0
LINE
8
Image
10
249.201660
20
18.707992
11
249.201650
21
18.707992
0
LINE
8
Image
10
239.629620
20
19.071833
11
240.045213
21
19.144629
0
LINE
8
Image
10
240.045213
20
19.144629
11
240.350855
21
19.042143
0
LINE
8
Image
10
240.350855
20
19.042143
11
240.299555
21
18.890301
0
LINE
8
Image
10
240.299555
20
18.890301
11
239.856966
21
18.844503
0
LINE
8
Image
10
239.856966
20
18.844503
11
239.466338
21
18.919899
0
LINE
8
Image
10
239.466338
20
18.919899
11
239.629619
21
19.071833
0
LINE
8
Image
10
239.629619
20
19.071833
11
239.629620
21
19.071833
0
LINE
8
Image
10
229.845930
20
19.824406
11
230.261521
21
19.897212
0
LINE
8
Image
10
230.261521
20
19.897212
11
230.567165
21
19.794716
0
LINE
8
Image
10
230.567165
20
19.794716
11
230.515863
21
19.642899
0
LINE
8
Image
10
230.515863
20
19.642899
11
230.073276
21
19.597104
0
LINE
8
Image
10
230.073276
20
19.597104
11
229.682647
21
19.672500
0
LINE
8
Image
10
229.682647
20
19.672500
11
229.845929
21
19.824434
0
LINE
8
Image
10
229.845929
20
19.824434
11
229.845930
21
19.824406
0
LINE
8
Image
10
85.824930
20
23.549826
11
85.900330
21
23.940460
0
LINE
8
Image
10
85.900330
20
23.940460
11
86.052274
21
23.777184
0
LINE
8
Image
10
86.052274
20
23.777184
11
86.125076
21
23.361591
0
LINE
8
Image
10
86.125076
20
23.361591
11
86.022584
21
23.055937
0
LINE
8
Image
10
86.022584
20
23.055937
11
85.870746
21
23.107249
0
LINE
8
Image
10
85.870746
20
23.107249
11
85.824944
21
23.549825
0
LINE
8
Image
10
85.824944
20
23.549825
11
85.824930
21
23.549826
0
LINE
8
Image
10
85.824930
20
25.055026
11
85.900330
21
25.445646
0
LINE
8
Image
10
85.900330
20
25.445646
11
86.052274
21
25.282356
0
LINE
8
Image
10
86.052274
20
25.282356
11
86.125076
21
24.866767
0
LINE
8
Image
10
86.125076
20
24.866767
11
86.022584
21
24.561138
0
LINE
8
Image
10
86.022584
20
24.561138
11
85.870746
21
24.612428
0
LINE
8
Image
10
85.870746
20
24.612428
11
85.824944
21
25.055027
0
LINE
8
Image
10
85.824944
20
25.055027
11
85.824930
21
25.055026
0
LINE
8
Image
10
281.874930
20
55.535026
11
281.950330
21
55.925646
0
LINE
8
Image
10
281.950330
20
55.925646
11
282.102274
21
55.762356
0
LINE
8
Image
10
282.102274
20
55.762356
11
282.175076
21
55.346767
0
LINE
8
Image
10
282.175076
20
55.346767
11
282.072584
21
55.041138
0
LINE
8
Image
10
282.072584
20
55.041138
11
281.920747
21
55.092428
0
LINE
8
Image
10
281.920747
20
55.092428
11
281.874944
21
55.535026
0
LINE
8
Image
10
281.874944
20
55.535026
11
281.874930
21
55.535026
0
LINE
8
Image
10
281.529000
20
61.336100
11
281.584754
21
61.862342
0
LINE
8
Image
10
281.584754
20
61.862342
11
281.718800
21
61.806479
0
LINE
8
Image
10
281.718800
20
61.806479
11
281.797091
21
61.336103
0
LINE
8
Image
10
281.797091
20
61.336103
11
281.718800
21
60.865748
0
LINE
8
Image
10
281.718800
20
60.865748
11
281.584754
21
60.809882
0
LINE
8
Image
10
281.584754
20
60.809882
11
281.529000
21
61.336099
0
LINE
8
Image
10
281.529000
20
61.336099
11
281.529000
21
61.336100
0
LINE
8
Image
10
281.122998
20
66.823770
11
281.198398
21
67.214390
0
LINE
8
Image
10
281.198398
20
67.214390
11
281.350342
21
67.051100
0
LINE
8
Image
10
281.350342
20
67.051100
11
281.423144
21
66.635510
0
LINE
8
Image
10
281.423144
20
66.635510
11
281.320652
21
66.329882
0
LINE
8
Image
10
281.320652
20
66.329882
11
281.168817
21
66.381172
0
LINE
8
Image
10
281.168817
20
66.381172
11
281.123015
21
66.823770
0
LINE
8
Image
10
281.123015
20
66.823770
11
281.122998
21
66.823770
0
LINE
8
Image
10
280.746703
20
72.091900
11
280.822103
21
72.482534
0
LINE
8
Image
10
280.822103
20
72.482534
11
280.974047
21
72.319258
0
LINE
8
Image
10
280.974047
20
72.319258
11
281.046849
21
71.903665
0
LINE
8
Image
10
281.046849
20
71.903665
11
280.944357
21
71.598011
0
LINE
8
Image
10
280.944357
20
71.598011
11
280.792520
21
71.649323
0
LINE
8
Image
10
280.792520
20
71.649323
11
280.746717
21
72.091900
0
LINE
8
Image
10
280.746717
20
72.091900
11
280.746703
21
72.091900
0
LINE
8
Image
10
280.370408
20
76.983770
11
280.445807
21
77.374390
0
LINE
8
Image
10
280.445807
20
77.374390
11
280.597749
21
77.211100
0
LINE
8
Image
10
280.597749
20
77.211100
11
280.670551
21
76.795510
0
LINE
8
Image
10
280.670551
20
76.795510
11
280.568059
21
76.489882
0
LINE
8
Image
10
280.568059
20
76.489882
11
280.416225
21
76.541172
0
LINE
8
Image
10
280.416225
20
76.541172
11
280.370422
21
76.983771
0
LINE
8
Image
10
280.370422
20
76.983771
11
280.370408
21
76.983770
0
LINE
8
Image
10
118.186408
20
77.736343
11
118.261808
21
78.126977
0
LINE
8
Image
10
118.261808
20
78.126977
11
118.413752
21
77.963701
0
LINE
8
Image
10
118.413752
20
77.963701
11
118.486554
21
77.548108
0
LINE
8
Image
10
118.486554
20
77.548108
11
118.384062
21
77.242454
0
LINE
8
Image
10
118.384062
20
77.242454
11
118.232227
21
77.293766
0
LINE
8
Image
10
118.232227
20
77.293766
11
118.186425
21
77.736343
0
LINE
8
Image
10
118.186425
20
77.736343
11
118.186408
21
77.736343
0
LINE
8
Image
10
279.993408
20
81.875613
11
280.068808
21
82.266247
0
LINE
8
Image
10
280.068808
20
82.266247
11
280.220752
21
82.102971
0
LINE
8
Image
10
280.220752
20
82.102971
11
280.293554
21
81.687378
0
LINE
8
Image
10
280.293554
20
81.687378
11
280.191062
21
81.381724
0
LINE
8
Image
10
280.191062
20
81.381724
11
280.039227
21
81.433025
0
LINE
8
Image
10
280.039227
20
81.433025
11
279.993425
21
81.875613
0
LINE
8
Image
10
279.993425
20
81.875613
11
279.993408
21
81.875613
0
LINE
8
Image
10
86.477408
20
81.913177
11
86.892997
21
81.985972
0
LINE
8
Image
10
86.892997
20
81.985972
11
87.198643
21
81.883487
0
LINE
8
Image
10
87.198643
20
81.883487
11
87.147342
21
81.731644
0
LINE
8
Image
10
87.147342
20
81.731644
11
86.704755
21
81.685847
0
LINE
8
Image
10
86.704755
20
81.685847
11
86.314126
21
81.761242
0
LINE
8
Image
10
86.314126
20
81.761242
11
86.477408
21
81.913177
0
LINE
8
Image
10
86.477408
20
81.913177
11
86.477408
21
81.913177
0
LINE
8
Image
10
118.939108
20
86.014877
11
119.014508
21
86.405510
0
LINE
8
Image
10
119.014508
20
86.405510
11
119.166452
21
86.242235
0
LINE
8
Image
10
119.166452
20
86.242235
11
119.239254
21
85.826631
0
LINE
8
Image
10
119.239254
20
85.826631
11
119.136762
21
85.520988
0
LINE
8
Image
10
119.136762
20
85.520988
11
118.984925
21
85.572278
0
LINE
8
Image
10
118.984925
20
85.572278
11
118.939122
21
86.014877
0
LINE
8
Image
10
118.939122
20
86.014877
11
118.939108
21
86.014877
0
LINE
8
Image
10
279.617108
20
86.391164
11
279.692508
21
86.781797
0
LINE
8
Image
10
279.692508
20
86.781797
11
279.844452
21
86.618522
0
LINE
8
Image
10
279.844452
20
86.618522
11
279.917254
21
86.202928
0
LINE
8
Image
10
279.917254
20
86.202928
11
279.814762
21
85.897275
0
LINE
8
Image
10
279.814762
20
85.897275
11
279.662925
21
85.948586
0
LINE
8
Image
10
279.662925
20
85.948586
11
279.617122
21
86.391163
0
LINE
8
Image
10
279.617122
20
86.391163
11
279.617108
21
86.391164
0
LINE
8
Image
10
296.450108
20
101.856864
11
296.865701
21
101.929670
0
LINE
8
Image
10
296.865701
20
101.929670
11
297.171355
21
101.827174
0
LINE
8
Image
10
297.171355
20
101.827174
11
297.120054
21
101.675342
0
LINE
8
Image
10
297.120054
20
101.675342
11
296.677466
21
101.629534
0
LINE
8
Image
10
296.677466
20
101.629534
11
296.286832
21
101.704943
0
LINE
8
Image
10
296.286832
20
101.704943
11
296.450108
21
101.856892
0
LINE
8
Image
10
296.450108
20
101.856892
11
296.450108
21
101.856864
0
LINE
8
Image
10
123.454108
20
103.324504
11
123.529508
21
103.715133
0
LINE
8
Image
10
123.529508
20
103.715133
11
123.681452
21
103.551851
0
LINE
8
Image
10
123.681452
20
103.551851
11
123.754254
21
103.136262
0
LINE
8
Image
10
123.754254
20
103.136262
11
123.651762
21
102.830610
0
LINE
8
Image
10
123.651762
20
102.830610
11
123.499925
21
102.881922
0
LINE
8
Image
10
123.499925
20
102.881922
11
123.454122
21
103.324504
0
LINE
8
Image
10
123.454122
20
103.324504
11
123.454108
21
103.324504
0
LINE
8
Image
10
123.830403
20
108.592644
11
123.905803
21
108.983273
0
LINE
8
Image
10
123.905803
20
108.983273
11
124.057747
21
108.819991
0
LINE
8
Image
10
124.057747
20
108.819991
11
124.130549
21
108.404399
0
LINE
8
Image
10
124.130549
20
108.404399
11
124.028057
21
108.098756
0
LINE
8
Image
10
124.028057
20
108.098756
11
123.876222
21
108.150057
0
LINE
8
Image
10
123.876222
20
108.150057
11
123.830420
21
108.592645
0
LINE
8
Image
10
123.830420
20
108.592645
11
123.830403
21
108.592644
0
LINE
8
Image
10
124.236405
20
115.899054
11
124.292159
21
116.425279
0
LINE
8
Image
10
124.292159
20
116.425279
11
124.426205
21
116.369422
0
LINE
8
Image
10
124.426205
20
116.369422
11
124.504496
21
115.899053
0
LINE
8
Image
10
124.504496
20
115.899053
11
124.426205
21
115.428683
0
LINE
8
Image
10
124.426205
20
115.428683
11
124.292159
21
115.372826
0
LINE
8
Image
10
124.292159
20
115.372826
11
124.236405
21
115.899054
0
LINE
8
Image
10
124.236405
20
115.899054
11
124.236405
21
115.899054
0
LINE
8
Image
10
124.612700
20
122.296084
11
124.668454
21
122.822312
0
LINE
8
Image
10
124.668454
20
122.822312
11
124.802500
21
122.766455
0
LINE
8
Image
10
124.802500
20
122.766455
11
124.880791
21
122.296084
0
LINE
8
Image
10
124.880791
20
122.296084
11
124.802500
21
121.825716
0
LINE
8
Image
10
124.802500
20
121.825716
11
124.668454
21
121.769858
0
LINE
8
Image
10
124.668454
20
121.769858
11
124.612700
21
122.296084
0
LINE
8
Image
10
124.612700
20
122.296084
11
124.612700
21
122.296084
0
LINE
8
Image
10
125.002942
20
129.257564
11
125.063749
21
129.859298
0
LINE
8
Image
10
125.063749
20
129.859298
11
125.190352
21
129.720772
0
LINE
8
Image
10
125.190352
20
129.720772
11
125.176382
21
128.591882
0
LINE
8
Image
10
125.176382
20
128.591882
11
125.104712
21
128.501104
0
LINE
8
Image
10
125.104712
20
128.501104
11
125.048116
21
128.596353
0
LINE
8
Image
10
125.048116
20
128.596353
11
125.002911
21
129.257562
0
LINE
8
Image
10
125.002911
20
129.257562
11
125.002942
21
129.257564
0
LINE
8
Image
10
125.379237
20
137.536074
11
125.440044
21
138.137808
0
LINE
8
Image
10
125.440044
20
138.137808
11
125.566649
21
137.999282
0
LINE
8
Image
10
125.566649
20
137.999282
11
125.552679
21
136.870392
0
LINE
8
Image
10
125.552679
20
136.870392
11
125.481009
21
136.779614
0
LINE
8
Image
10
125.481009
20
136.779614
11
125.424414
21
136.874863
0
LINE
8
Image
10
125.424414
20
136.874863
11
125.379211
21
137.536072
0
LINE
8
Image
10
125.379211
20
137.536072
11
125.379237
21
137.536074
0
LINE
8
Image
10
125.777068
20
147.319774
11
125.830505
21
148.132812
0
LINE
8
Image
10
125.830505
20
148.132812
11
125.884173
21
148.185583
0
LINE
8
Image
10
125.884173
20
148.185583
11
125.948315
21
147.973903
0
LINE
8
Image
10
125.948315
20
147.973903
11
125.940723
21
146.468723
0
LINE
8
Image
10
125.940723
20
146.468723
11
125.874832
21
146.333507
0
LINE
8
Image
10
125.874832
20
146.333507
11
125.822014
21
146.448899
0
LINE
8
Image
10
125.822014
20
146.448899
11
125.777074
21
147.319778
0
LINE
8
Image
10
125.777074
20
147.319778
11
125.777068
21
147.319774
0
LINE
8
Image
10
123.168548
20
159.925674
11
123.213131
21
161.293862
0
LINE
8
Image
10
123.213131
20
161.293862
11
123.261389
21
161.430489
0
LINE
8
Image
10
123.261389
20
161.430489
11
123.320319
21
161.148634
0
LINE
8
Image
10
123.320319
20
161.148634
11
123.320319
21
158.702714
0
LINE
8
Image
10
123.320319
20
158.702714
11
123.261390
21
158.420860
0
LINE
8
Image
10
123.261390
20
158.420860
11
123.213131
21
158.557488
0
LINE
8
Image
10
123.213131
20
158.557488
11
123.168548
21
159.925674
0
LINE
8
Image
10
123.168548
20
159.925674
11
123.168548
21
159.925674
0
LINE
8
Image
10
166.351848
20
158.639994
11
166.427247
21
159.030623
0
LINE
8
Image
10
166.427247
20
159.030623
11
166.579189
21
158.867341
0
LINE
8
Image
10
166.579189
20
158.867341
11
166.651991
21
158.451750
0
LINE
8
Image
10
166.651991
20
158.451750
11
166.549499
21
158.146106
0
LINE
8
Image
10
166.549499
20
158.146106
11
166.397665
21
158.197408
0
LINE
8
Image
10
166.397665
20
158.197408
11
166.351862
21
158.639994
0
LINE
8
Image
10
166.351862
20
158.639994
11
166.351848
21
158.639994
0
LINE
8
Image
10
126.178948
20
160.678264
11
126.223531
21
162.046452
0
LINE
8
Image
10
126.223531
20
162.046452
11
126.271789
21
162.183079
0
LINE
8
Image
10
126.271789
20
162.183079
11
126.330719
21
161.901224
0
LINE
8
Image
10
126.330719
20
161.901224
11
126.330719
21
159.455304
0
LINE
8
Image
10
126.330719
20
159.455304
11
126.271790
21
159.173448
0
LINE
8
Image
10
126.271790
20
159.173448
11
126.223531
21
159.310075
0
LINE
8
Image
10
126.223531
20
159.310075
11
126.178948
21
160.678264
0
LINE
8
Image
10
126.178948
20
160.678264
11
126.178948
21
160.678264
0
LINE
8
Image
10
219.033348
20
160.145178
11
219.108747
21
160.535806
0
LINE
8
Image
10
219.108747
20
160.535806
11
219.260689
21
160.372525
0
LINE
8
Image
10
219.260689
20
160.372525
11
219.333491
21
159.956932
0
LINE
8
Image
10
219.333491
20
159.956932
11
219.230999
21
159.651290
0
LINE
8
Image
10
219.230999
20
159.651290
11
219.079165
21
159.702590
0
LINE
8
Image
10
219.079165
20
159.702590
11
219.033362
21
160.145179
0
LINE
8
Image
10
219.033362
20
160.145179
11
219.033348
21
160.145178
0
LINE
8
Image
10
249.933248
20
171.402678
11
249.994055
21
172.004412
0
LINE
8
Image
10
249.994055
20
172.004412
11
250.120658
21
171.865886
0
LINE
8
Image
10
250.120658
20
171.865886
11
250.106688
21
170.736996
0
LINE
8
Image
10
250.106688
20
170.736996
11
250.035019
21
170.646218
0
LINE
8
Image
10
250.035019
20
170.646218
11
249.978424
21
170.741467
0
LINE
8
Image
10
249.978424
20
170.741467
11
249.933220
21
171.402676
0
LINE
8
Image
10
249.933220
20
171.402676
11
249.933248
21
171.402678
0
LINE
8
Image
10
245.750338
20
175.196998
11
245.825738
21
175.587626
0
LINE
8
Image
10
245.825738
20
175.587626
11
245.977682
21
175.424345
0
LINE
8
Image
10
245.977682
20
175.424345
11
246.050484
21
175.008752
0
LINE
8
Image
10
246.050484
20
175.008752
11
245.947992
21
174.703110
0
LINE
8
Image
10
245.947992
20
174.703110
11
245.796157
21
174.754410
0
LINE
8
Image
10
245.796157
20
174.754410
11
245.750355
21
175.196998
0
LINE
8
Image
10
245.750355
20
175.196998
11
245.750338
21
175.196998
0
LINE
8
Image
10
126.180000
20
193.792000
11
126.224583
21
195.160189
0
LINE
8
Image
10
126.224583
20
195.160189
11
126.272841
21
195.296815
0
LINE
8
Image
10
126.272841
20
195.296815
11
126.331771
21
195.014960
0
LINE
8
Image
10
126.331771
20
195.014960
11
126.331771
21
192.569040
0
LINE
8
Image
10
126.331771
20
192.569040
11
126.272842
21
192.287184
0
LINE
8
Image
10
126.272842
20
192.287184
11
126.224583
21
192.423812
0
LINE
8
Image
10
126.224583
20
192.423812
11
126.180000
21
193.792000
0
LINE
8
Image
10
126.180000
20
193.792000
11
126.180000
21
193.792000
0
LINE
8
Image
10
123.165790
20
194.356444
11
123.213286
21
195.589775
0
LINE
8
Image
10
123.213286
20
195.589775
11
123.262494
21
195.683839
0
LINE
8
Image
10
123.262494
20
195.683839
11
123.321901
21
195.384524
0
LINE
8
Image
10
123.321901
20
195.384524
11
123.318063
21
193.126744
0
LINE
8
Image
10
123.318063
20
193.126744
11
123.257750
21
192.905713
0
LINE
8
Image
10
123.257750
20
192.905713
11
123.208936
21
193.063886
0
LINE
8
Image
10
123.208936
20
193.063886
11
123.165790
21
194.356444
0
LINE
8
Image
10
123.165790
20
194.356444
11
123.165790
21
194.356444
0
LINE
8
Image
10
215.923690
20
199.317194
11
216.339283
21
199.389996
0
LINE
8
Image
10
216.339283
20
199.389996
11
216.644925
21
199.287504
0
LINE
8
Image
10
216.644925
20
199.287504
11
216.593625
21
199.135669
0
LINE
8
Image
10
216.593625
20
199.135669
11
216.151036
21
199.089867
0
LINE
8
Image
10
216.151036
20
199.089867
11
215.760408
21
199.165266
0
LINE
8
Image
10
215.760408
20
199.165266
11
215.923689
21
199.317208
0
LINE
8
Image
10
215.923689
20
199.317208
11
215.923690
21
199.317194
0
LINE
8
Image
10
223.825910
20
199.317194
11
224.241503
21
199.389996
0
LINE
8
Image
10
224.241503
20
199.389996
11
224.547145
21
199.287504
0
LINE
8
Image
10
224.547145
20
199.287504
11
224.495845
21
199.135669
0
LINE
8
Image
10
224.495845
20
199.135669
11
224.053256
21
199.089867
0
LINE
8
Image
10
224.053256
20
199.089867
11
223.662628
21
199.165266
0
LINE
8
Image
10
223.662628
20
199.165266
11
223.825909
21
199.317208
0
LINE
8
Image
10
223.825909
20
199.317208
11
223.825910
21
199.317194
0
LINE
8
Image
10
125.770000
20
206.586000
11
125.820552
21
207.322717
0
LINE
8
Image
10
125.820552
20
207.322717
11
125.875272
21
207.396286
0
LINE
8
Image
10
125.875272
20
207.396286
11
125.942091
21
207.244520
0
LINE
8
Image
10
125.942091
20
207.244520
11
125.942091
21
205.927480
0
LINE
8
Image
10
125.942091
20
205.927480
11
125.875272
21
205.775713
0
LINE
8
Image
10
125.875272
20
205.775713
11
125.820552
21
205.849282
0
LINE
8
Image
10
125.820552
20
205.849282
11
125.770000
21
206.585997
0
LINE
8
Image
10
125.770000
20
206.585997
11
125.770000
21
206.586000
0
LINE
8
Image
10
122.759630
20
206.962298
11
122.810182
21
207.699013
0
LINE
8
Image
10
122.810182
20
207.699013
11
122.864902
21
207.772582
0
LINE
8
Image
10
122.864902
20
207.772582
11
122.931721
21
207.620815
0
LINE
8
Image
10
122.931721
20
207.620815
11
122.931721
21
206.303775
0
LINE
8
Image
10
122.931721
20
206.303775
11
122.864902
21
206.152008
0
LINE
8
Image
10
122.864902
20
206.152008
11
122.810182
21
206.225577
0
LINE
8
Image
10
122.810182
20
206.225577
11
122.759630
21
206.962295
0
LINE
8
Image
10
122.759630
20
206.962295
11
122.759630
21
206.962298
0
LINE
8
Image
10
206.515730
20
209.477128
11
206.931323
21
209.549930
0
LINE
8
Image
10
206.931323
20
209.549930
11
207.236965
21
209.447438
0
LINE
8
Image
10
207.236965
20
209.447438
11
207.185665
21
209.295603
0
LINE
8
Image
10
207.185665
20
209.295603
11
206.743076
21
209.249801
0
LINE
8
Image
10
206.743076
20
209.249801
11
206.352448
21
209.325200
0
LINE
8
Image
10
206.352448
20
209.325200
11
206.515729
21
209.477142
0
LINE
8
Image
10
206.515729
20
209.477142
11
206.515730
21
209.477128
0
LINE
8
Image
10
122.370000
20
215.429000
11
122.430807
21
216.030735
0
LINE
8
Image
10
122.430807
20
216.030735
11
122.557410
21
215.892211
0
LINE
8
Image
10
122.557410
20
215.892211
11
122.543440
21
214.763321
0
LINE
8
Image
10
122.543440
20
214.763321
11
122.471771
21
214.672542
0
LINE
8
Image
10
122.471771
20
214.672542
11
122.415176
21
214.767789
0
LINE
8
Image
10
122.415176
20
214.767789
11
122.369972
21
215.428998
0
LINE
8
Image
10
122.369972
20
215.428998
11
122.370000
21
215.429000
0
LINE
8
Image
10
125.366420
20
215.240854
11
125.422174
21
215.767080
0
LINE
8
Image
10
125.422174
20
215.767080
11
125.556220
21
215.711222
0
LINE
8
Image
10
125.556220
20
215.711222
11
125.634511
21
215.240853
0
LINE
8
Image
10
125.634511
20
215.240853
11
125.556220
21
214.770483
0
LINE
8
Image
10
125.556220
20
214.770483
11
125.422175
21
214.714626
0
LINE
8
Image
10
125.422175
20
214.714626
11
125.366420
21
215.240854
0
LINE
8
Image
10
125.366420
20
215.240854
11
125.366420
21
215.240854
0
LINE
8
Image
10
227.313420
20
220.728504
11
227.388820
21
221.119132
0
LINE
8
Image
10
227.388820
20
221.119132
11
227.540764
21
220.955851
0
LINE
8
Image
10
227.540764
20
220.955851
11
227.613566
21
220.540258
0
LINE
8
Image
10
227.613566
20
220.540258
11
227.511074
21
220.234616
0
LINE
8
Image
10
227.511074
20
220.234616
11
227.359237
21
220.285916
0
LINE
8
Image
10
227.359237
20
220.285916
11
227.313434
21
220.728504
0
LINE
8
Image
10
227.313434
20
220.728504
11
227.313420
21
220.728504
0
LINE
8
Image
10
121.980420
20
222.014184
11
122.036174
21
222.540410
0
LINE
8
Image
10
122.036174
20
222.540410
11
122.170220
21
222.484552
0
LINE
8
Image
10
122.170220
20
222.484552
11
122.248511
21
222.014183
0
LINE
8
Image
10
122.248511
20
222.014183
11
122.170220
21
221.543813
0
LINE
8
Image
10
122.170220
20
221.543813
11
122.036175
21
221.487956
0
LINE
8
Image
10
122.036175
20
221.487956
11
121.980420
21
222.014184
0
LINE
8
Image
10
121.980420
20
222.014184
11
121.980420
21
222.014184
0
LINE
8
Image
10
124.990790
20
222.014184
11
125.046544
21
222.540410
0
LINE
8
Image
10
125.046544
20
222.540410
11
125.180590
21
222.484552
0
LINE
8
Image
10
125.180590
20
222.484552
11
125.258881
21
222.014183
0
LINE
8
Image
10
125.258881
20
222.014183
11
125.180590
21
221.543813
0
LINE
8
Image
10
125.180590
20
221.543813
11
125.046545
21
221.487956
0
LINE
8
Image
10
125.046545
20
221.487956
11
124.990790
21
222.014184
0
LINE
8
Image
10
124.990790
20
222.014184
11
124.990790
21
222.014184
0
LINE
8
Image
10
121.574420
20
227.878124
11
121.649820
21
228.268753
0
LINE
8
Image
10
121.649820
20
228.268753
11
121.801764
21
228.105471
0
LINE
8
Image
10
121.801764
20
228.105471
11
121.874566
21
227.689879
0
LINE
8
Image
10
121.874566
20
227.689879
11
121.772074
21
227.384236
0
LINE
8
Image
10
121.772074
20
227.384236
11
121.620239
21
227.435537
0
LINE
8
Image
10
121.620239
20
227.435537
11
121.574437
21
227.878124
0
LINE
8
Image
10
121.574437
20
227.878124
11
121.574420
21
227.878124
0
LINE
8
Image
10
166.982420
20
233.552274
11
167.452791
21
233.630565
0
LINE
8
Image
10
167.452791
20
233.630565
11
167.923162
21
233.552274
0
LINE
8
Image
10
167.923162
20
233.552274
11
167.979017
21
233.418229
0
LINE
8
Image
10
167.979017
20
233.418229
11
167.452791
21
233.362474
0
LINE
8
Image
10
167.452791
20
233.362474
11
166.926565
21
233.418228
0
LINE
8
Image
10
166.926565
20
233.418228
11
166.982420
21
233.552274
0
LINE
8
Image
10
166.982420
20
233.552274
11
166.982420
21
233.552274
0
LINE
8
Image
10
164.329350
20
236.065324
11
164.291243
21
236.577404
0
LINE
8
Image
10
164.291243
20
236.577404
11
164.471477
21
237.100134
0
LINE
8
Image
10
164.471477
20
237.100134
11
164.732267
21
237.275039
0
LINE
8
Image
10
164.732267
20
237.275039
11
164.812957
21
236.595640
0
LINE
8
Image
10
164.812957
20
236.595640
11
164.687999
21
235.610694
0
LINE
8
Image
10
164.687999
20
235.610694
11
164.534610
21
235.654466
0
LINE
8
Image
10
164.534610
20
235.654466
11
164.329350
21
236.065319
0
LINE
8
Image
10
164.329350
20
236.065319
11
164.329350
21
236.065324
0
LINE
8
Image
10
208.563150
20
235.830354
11
210.632780
21
235.830354
0
LINE
8
Image
10
210.632780
20
235.830354
11
210.871271
21
235.769486
0
LINE
8
Image
10
210.871271
20
235.769486
11
210.755663
21
235.719640
0
LINE
8
Image
10
210.755663
20
235.719640
11
209.597970
21
235.673591
0
LINE
8
Image
10
209.597970
20
235.673591
11
208.440275
21
235.719640
0
LINE
8
Image
10
208.440275
20
235.719640
11
208.324667
21
235.769486
0
LINE
8
Image
10
208.324667
20
235.769486
11
208.563160
21
235.830354
0
LINE
8
Image
10
208.563160
20
235.830354
11
208.563150
21
235.830354
0
LINE
8
Image
10
172.626000
20
242.584000
11
173.096370
21
242.662291
0
LINE
8
Image
10
173.096370
20
242.662291
11
173.566739
21
242.584000
0
LINE
8
Image
10
173.566739
20
242.584000
11
173.622596
21
242.449955
0
LINE
8
Image
10
173.622596
20
242.449955
11
173.096371
21
242.394200
0
LINE
8
Image
10
173.096371
20
242.394200
11
172.570145
21
242.449954
0
LINE
8
Image
10
172.570145
20
242.449954
11
172.626000
21
242.584000
0
LINE
8
Image
10
172.626000
20
242.584000
11
172.626000
21
242.584000
0
LINE
8
Image
10
238.977900
20
244.812070
11
239.053300
21
245.202699
0
LINE
8
Image
10
239.053300
20
245.202699
11
239.205244
21
245.039417
0
LINE
8
Image
10
239.205244
20
245.039417
11
239.278046
21
244.623825
0
LINE
8
Image
10
239.278046
20
244.623825
11
239.175554
21
244.318182
0
LINE
8
Image
10
239.175554
20
244.318182
11
239.023719
21
244.369483
0
LINE
8
Image
10
239.023719
20
244.369483
11
238.977917
21
244.812071
0
LINE
8
Image
10
238.977917
20
244.812071
11
238.977900
21
244.812070
0
LINE
8
Image
10
226.560100
20
247.822440
11
226.635500
21
248.213068
0
LINE
8
Image
10
226.635500
20
248.213068
11
226.787444
21
248.049787
0
LINE
8
Image
10
226.787444
20
248.049787
11
226.860246
21
247.634194
0
LINE
8
Image
10
226.860246
20
247.634194
11
226.757754
21
247.328552
0
LINE
8
Image
10
226.757754
20
247.328552
11
226.605919
21
247.379852
0
LINE
8
Image
10
226.605919
20
247.379852
11
226.560117
21
247.822441
0
LINE
8
Image
10
226.560117
20
247.822441
11
226.560100
21
247.822440
0
LINE
8
Image
10
205.387300
20
269.308840
11
205.802893
21
269.381642
0
LINE
8
Image
10
205.802893
20
269.381642
11
206.108535
21
269.279150
0
LINE
8
Image
10
206.108535
20
269.279150
11
206.057235
21
269.127316
0
LINE
8
Image
10
206.057235
20
269.127316
11
205.614647
21
269.081513
0
LINE
8
Image
10
205.614647
20
269.081513
11
205.224019
21
269.156913
0
LINE
8
Image
10
205.224019
20
269.156913
11
205.387300
21
269.308857
0
LINE
8
Image
10
205.387300
20
269.308857
11
205.387300
21
269.308840
0
LINE
8
Image
10
211.577840
20
269.698109
11
213.459320
21
269.693001
0
LINE
8
Image
10
213.459320
20
269.693001
11
213.637597
21
269.630351
0
LINE
8
Image
10
213.637597
20
269.630351
11
213.500943
21
269.579818
0
LINE
8
Image
10
213.500943
20
269.579818
11
212.419330
21
269.535741
0
LINE
8
Image
10
212.419330
20
269.535741
11
211.396035
21
269.585638
0
LINE
8
Image
10
211.396035
20
269.585638
11
211.322493
21
269.636699
0
LINE
8
Image
10
211.322493
20
269.636699
11
211.577837
21
269.698137
0
LINE
8
Image
10
211.577837
20
269.698137
11
211.577840
21
269.698109
0
LINE
8
Image
10
218.351170
20
269.698109
11
220.232650
21
269.693001
0
LINE
8
Image
10
220.232650
20
269.693001
11
220.410927
21
269.630351
0
LINE
8
Image
10
220.410927
20
269.630351
11
220.274273
21
269.579818
0
LINE
8
Image
10
220.274273
20
269.579818
11
219.192660
21
269.535741
0
LINE
8
Image
10
219.192660
20
269.535741
11
218.169361
21
269.585638
0
LINE
8
Image
10
218.169361
20
269.585638
11
218.095819
21
269.636699
0
LINE
8
Image
10
218.095819
20
269.636699
11
218.351167
21
269.698137
0
LINE
8
Image
10
218.351167
20
269.698137
11
218.351170
21
269.698109
0
LINE
8
Image
10
81.004900
20
378.062000
11
82.133790
21
378.048058
0
LINE
8
Image
10
82.133790
20
378.048058
11
82.224568
21
377.976390
0
LINE
8
Image
10
82.224568
20
377.976390
11
82.129319
21
377.919795
0
LINE
8
Image
10
82.129319
20
377.919795
11
81.468110
21
377.874590
0
LINE
8
Image
10
81.468110
20
377.874590
11
80.866375
21
377.935393
0
LINE
8
Image
10
80.866375
20
377.935393
11
81.004902
21
378.062001
0
LINE
8
Image
10
81.004902
20
378.062001
11
81.004900
21
378.062000
0
LINE
8
Image
10
96.316000
20
36.971000
11
97.849356
21
38.538782
0
LINE
8
Image
10
97.849356
20
38.538782
11
98.136046
21
38.739312
0
LINE
8
Image
10
98.136046
20
38.739312
11
98.213200
21
38.648610
0
LINE
8
Image
10
98.213200
20
38.648610
11
96.425790
21
36.861190
0
LINE
8
Image
10
96.425790
20
36.861190
11
94.638380
21
35.183610
0
LINE
8
Image
10
94.638380
20
35.183610
11
96.316000
21
36.971000
0
LINE
8
Image
10
92.945060
20
37.771579
11
93.603577
21
38.430116
0
LINE
8
Image
10
93.603577
20
38.430116
11
94.073949
21
38.758410
0
LINE
8
Image
10
94.073949
20
38.758410
11
93.745650
21
38.288045
0
LINE
8
Image
10
93.745650
20
38.288045
11
93.161012
21
37.678626
0
LINE
8
Image
10
93.161012
20
37.678626
11
93.001024
21
37.633484
0
LINE
8
Image
10
93.001024
20
37.633484
11
92.945060
21
37.771579
0
LINE
8
Image
10
92.945060
20
37.771579
11
92.945060
21
37.771579
0
LINE
8
Image
10
95.390980
20
40.263599
11
96.260218
21
41.016172
0
LINE
8
Image
10
96.260218
20
41.016172
11
96.193028
21
40.795101
0
LINE
8
Image
10
96.193028
20
40.795101
11
95.767278
21
40.263599
0
LINE
8
Image
10
95.767278
20
40.263599
11
94.898040
21
39.510998
0
LINE
8
Image
10
94.898040
20
39.510998
11
94.965230
21
39.732073
0
LINE
8
Image
10
94.965230
20
39.732073
11
95.390980
21
40.263599
0
LINE
8
Image
10
95.390980
20
40.263599
11
95.390980
21
40.263599
0
LINE
8
Image
10
104.045790
20
44.779149
11
104.915025
21
45.531722
0
LINE
8
Image
10
104.915025
20
45.531722
11
104.847835
21
45.310651
0
LINE
8
Image
10
104.847835
20
45.310651
11
104.422085
21
44.779149
0
LINE
8
Image
10
104.422085
20
44.779149
11
103.552850
21
44.026548
0
LINE
8
Image
10
103.552850
20
44.026548
11
103.620040
21
44.247623
0
LINE
8
Image
10
103.620040
20
44.247623
11
104.045790
21
44.779149
0
LINE
8
Image
10
104.045790
20
44.779149
11
104.045790
21
44.779149
0
LINE
8
Image
10
101.976160
20
46.848769
11
103.048090
21
47.789500
0
LINE
8
Image
10
103.048090
20
47.789500
11
102.921359
21
47.513159
0
LINE
8
Image
10
102.921359
20
47.513159
11
102.352458
21
46.848769
0
LINE
8
Image
10
102.352458
20
46.848769
11
101.280528
21
45.908038
0
LINE
8
Image
10
101.280528
20
45.908038
11
101.407259
21
46.184379
0
LINE
8
Image
10
101.407259
20
46.184379
11
101.976160
21
46.848769
0
LINE
8
Image
10
101.976160
20
46.848769
11
101.976160
21
46.848769
0
LINE
8
Image
10
275.448160
20
49.436769
11
276.106677
21
50.095278
0
LINE
8
Image
10
276.106677
20
50.095278
11
276.577049
21
50.423573
0
LINE
8
Image
10
276.577049
20
50.423573
11
276.248750
21
49.953207
0
LINE
8
Image
10
276.248750
20
49.953207
11
275.664112
21
49.343791
0
LINE
8
Image
10
275.664112
20
49.343791
11
275.504124
21
49.298658
0
LINE
8
Image
10
275.504124
20
49.298658
11
275.448160
21
49.436769
0
LINE
8
Image
10
275.448160
20
49.436769
11
275.448160
21
49.436769
0
LINE
8
Image
10
106.491160
20
51.694549
11
107.149680
21
52.353058
0
LINE
8
Image
10
107.149680
20
52.353058
11
107.620050
21
52.681353
0
LINE
8
Image
10
107.620050
20
52.681353
11
107.291753
21
52.210987
0
LINE
8
Image
10
107.291753
20
52.210987
11
106.707113
21
51.601571
0
LINE
8
Image
10
106.707113
20
51.601571
11
106.547124
21
51.556438
0
LINE
8
Image
10
106.547124
20
51.556438
11
106.491160
21
51.694549
0
LINE
8
Image
10
106.491160
20
51.694549
11
106.491160
21
51.694549
0
LINE
8
Image
10
198.471860
20
67.450949
11
197.366640
21
68.673899
0
LINE
8
Image
10
197.366640
20
68.673899
11
198.589600
21
67.568689
0
LINE
8
Image
10
198.589600
20
67.568689
11
199.678715
21
66.512006
0
LINE
8
Image
10
199.678715
20
66.512006
11
199.805081
21
66.292599
0
LINE
8
Image
10
199.805081
20
66.292599
11
199.694820
21
66.227989
0
LINE
8
Image
10
199.694820
20
66.227989
11
198.471860
21
67.450939
0
LINE
8
Image
10
198.471860
20
67.450939
11
198.471860
21
67.450949
0
LINE
8
Image
10
241.957760
20
82.550749
11
242.616280
21
83.209258
0
LINE
8
Image
10
242.616280
20
83.209258
11
243.086650
21
83.537563
0
LINE
8
Image
10
243.086650
20
83.537563
11
242.758353
21
83.067187
0
LINE
8
Image
10
242.758353
20
83.067187
11
242.173713
21
82.457771
0
LINE
8
Image
10
242.173713
20
82.457771
11
242.013724
21
82.412638
0
LINE
8
Image
10
242.013724
20
82.412638
11
241.957760
21
82.550749
0
LINE
8
Image
10
241.957760
20
82.550749
11
241.957760
21
82.550749
0
LINE
8
Image
10
295.563000
20
136.313000
11
294.075000
21
137.912000
0
LINE
8
Image
10
294.075000
20
137.912000
11
295.674240
21
136.424520
0
LINE
8
Image
10
295.674240
20
136.424520
11
297.082484
21
135.050248
0
LINE
8
Image
10
297.082484
20
135.050248
11
297.258562
21
134.786298
0
LINE
8
Image
10
297.258562
20
134.786298
11
297.161720
21
134.713480
0
LINE
8
Image
10
297.161720
20
134.713480
11
295.562480
21
136.312740
0
LINE
8
Image
10
295.562480
20
136.312740
11
295.563000
21
136.313000
0
LINE
8
Image
10
297.630080
20
138.382630
11
296.333300
21
139.793740
0
LINE
8
Image
10
296.333300
20
139.793740
11
297.744410
21
138.496960
0
LINE
8
Image
10
297.744410
20
138.496960
11
298.993085
21
137.281611
0
LINE
8
Image
10
298.993085
20
137.281611
11
299.144487
21
137.040134
0
LINE
8
Image
10
299.144487
20
137.040134
11
299.041190
21
136.971520
0
LINE
8
Image
10
299.041190
20
136.971520
11
297.630080
21
138.382630
0
LINE
8
Image
10
297.630080
20
138.382630
11
297.630080
21
138.382630
0
LINE
8
Image
10
116.087000
20
145.626000
11
116.956238
21
146.378590
0
LINE
8
Image
10
116.956238
20
146.378590
11
116.889048
21
146.157517
0
LINE
8
Image
10
116.889048
20
146.157517
11
116.463298
21
145.626000
0
LINE
8
Image
10
116.463298
20
145.626000
11
115.594060
21
144.873407
0
LINE
8
Image
10
115.594060
20
144.873407
11
115.661250
21
145.094481
0
LINE
8
Image
10
115.661250
20
145.094481
11
116.087000
21
145.626000
0
LINE
8
Image
10
116.087000
20
145.626000
11
116.087000
21
145.626000
0
LINE
8
Image
10
175.730000
20
184.573000
11
177.194670
21
185.890040
0
LINE
8
Image
10
177.194670
20
185.890040
11
176.952572
21
185.503160
0
LINE
8
Image
10
176.952572
20
185.503160
11
176.106300
21
184.573000
0
LINE
8
Image
10
176.106300
20
184.573000
11
174.641630
21
183.255970
0
LINE
8
Image
10
174.641630
20
183.255970
11
174.883728
21
183.642849
0
LINE
8
Image
10
174.883728
20
183.642849
11
175.730000
21
184.573000
0
LINE
8
Image
10
175.730000
20
184.573000
11
175.730000
21
184.573000
0
LINE
8
Image
10
218.204000
20
316.747000
11
217.875704
21
317.217370
0
LINE
8
Image
10
217.875704
20
317.217370
11
218.346076
21
316.889073
0
LINE
8
Image
10
218.346076
20
316.889073
11
218.955493
21
316.304433
0
LINE
8
Image
10
218.955493
20
316.304433
11
219.000628
21
316.144444
0
LINE
8
Image
10
219.000628
20
316.144444
11
218.862520
21
316.088480
0
LINE
8
Image
10
218.862520
20
316.088480
11
218.204000
21
316.747000
0
LINE
8
Image
10
218.204000
20
316.747000
11
218.204000
21
316.747000
0
LINE
8
Image
10
79.562900
20
371.498000
11
78.457680
21
372.720960
0
LINE
8
Image
10
78.457680
20
372.720960
11
79.680640
21
371.615740
0
LINE
8
Image
10
79.680640
20
371.615740
11
80.769755
21
370.559053
0
LINE
8
Image
10
80.769755
20
370.559053
11
80.896121
21
370.339641
0
LINE
8
Image
10
80.896121
20
370.339641
11
80.785860
21
370.275030
0
LINE
8
Image
10
80.785860
20
370.275030
11
79.562900
21
371.497990
0
LINE
8
Image
10
79.562900
20
371.497990
11
79.562900
21
371.498000
0
LINE
8
Image
10
297.751000
20
6.657720
11
298.879890
21
6.643891
0
LINE
8
Image
10
298.879890
20
6.643891
11
298.970680
21
6.572232
0
LINE
8
Image
10
298.970680
20
6.572232
11
298.875431
21
6.515646
0
LINE
8
Image
10
298.875431
20
6.515646
11
298.214213
21
6.470437
0
LINE
8
Image
10
298.214213
20
6.470437
11
297.612488
21
6.531224
0
LINE
8
Image
10
297.612488
20
6.531224
11
297.751002
21
6.657861
0
LINE
8
Image
10
297.751002
20
6.657861
11
297.751000
21
6.657720
0
LINE
8
Image
10
304.524330
20
6.657720
11
305.653220
21
6.643891
0
LINE
8
Image
10
305.653220
20
6.643891
11
305.744010
21
6.572232
0
LINE
8
Image
10
305.744010
20
6.572232
11
305.648761
21
6.515646
0
LINE
8
Image
10
305.648761
20
6.515646
11
304.987543
21
6.470437
0
LINE
8
Image
10
304.987543
20
6.470437
11
304.385818
21
6.531224
0
LINE
8
Image
10
304.385818
20
6.531224
11
304.524332
21
6.657861
0
LINE
8
Image
10
304.524332
20
6.657861
11
304.524330
21
6.657720
0
LINE
8
Image
10
294.568860
20
9.664340
11
294.984450
21
9.737146
0
LINE
8
Image
10
294.984450
20
9.737146
11
295.290078
21
9.634650
0
LINE
8
Image
10
295.290078
20
9.634650
11
295.238788
21
9.482833
0
LINE
8
Image
10
295.238788
20
9.482833
11
294.796190
21
9.437038
0
LINE
8
Image
10
294.796190
20
9.437038
11
294.405570
21
9.512434
0
LINE
8
Image
10
294.405570
20
9.512434
11
294.568860
21
9.664368
0
LINE
8
Image
10
294.568860
20
9.664368
11
294.568860
21
9.664340
0
LINE
8
Image
10
95.884860
20
16.061380
11
96.300453
21
16.134186
0
LINE
8
Image
10
96.300453
20
16.134186
11
96.606095
21
16.031690
0
LINE
8
Image
10
96.606095
20
16.031690
11
96.554794
21
15.879858
0
LINE
8
Image
10
96.554794
20
15.879858
11
96.112207
21
15.834050
0
LINE
8
Image
10
96.112207
20
15.834050
11
95.721579
21
15.909449
0
LINE
8
Image
10
95.721579
20
15.909449
11
95.884860
21
16.061408
0
LINE
8
Image
10
95.884860
20
16.061408
11
95.884860
21
16.061380
0
LINE
8
Image
10
100.776710
20
16.061380
11
101.192303
21
16.134186
0
LINE
8
Image
10
101.192303
20
16.134186
11
101.497945
21
16.031690
0
LINE
8
Image
10
101.497945
20
16.031690
11
101.446645
21
15.879858
0
LINE
8
Image
10
101.446645
20
15.879858
11
101.004057
21
15.834050
0
LINE
8
Image
10
101.004057
20
15.834050
11
100.613429
21
15.909449
0
LINE
8
Image
10
100.613429
20
15.909449
11
100.776710
21
16.061408
0
LINE
8
Image
10
100.776710
20
16.061408
11
100.776710
21
16.061380
0
LINE
8
Image
10
241.111710
20
19.063910
11
241.582081
21
19.142205
0
LINE
8
Image
10
241.582081
20
19.142205
11
242.052452
21
19.063910
0
LINE
8
Image
10
242.052452
20
19.063910
11
242.108307
21
18.929865
0
LINE
8
Image
10
242.108307
20
18.929865
11
241.582081
21
18.874116
0
LINE
8
Image
10
241.582081
20
18.874116
11
241.055855
21
18.929865
0
LINE
8
Image
10
241.055855
20
18.929865
11
241.111710
21
19.063910
0
LINE
8
Image
10
241.111710
20
19.063910
11
241.111710
21
19.063910
0
LINE
8
Image
10
235.490790
20
19.448042
11
235.906381
21
19.520848
0
LINE
8
Image
10
235.906381
20
19.520848
11
236.212025
21
19.418352
0
LINE
8
Image
10
236.212025
20
19.418352
11
236.160723
21
19.266520
0
LINE
8
Image
10
236.160723
20
19.266520
11
235.718137
21
19.220712
0
LINE
8
Image
10
235.718137
20
19.220712
11
235.327508
21
19.296111
0
LINE
8
Image
10
235.327508
20
19.296111
11
235.490790
21
19.448070
0
LINE
8
Image
10
235.490790
20
19.448070
11
235.490790
21
19.448042
0
LINE
8
Image
10
281.499190
20
60.050442
11
281.574589
21
60.441062
0
LINE
8
Image
10
281.574589
20
60.441062
11
281.726531
21
60.277772
0
LINE
8
Image
10
281.726531
20
60.277772
11
281.799333
21
59.862182
0
LINE
8
Image
10
281.799333
20
59.862182
11
281.696841
21
59.556554
0
LINE
8
Image
10
281.696841
20
59.556554
11
281.545007
21
59.607844
0
LINE
8
Image
10
281.545007
20
59.607844
11
281.499204
21
60.050442
0
LINE
8
Image
10
281.499204
20
60.050442
11
281.499190
21
60.050442
0
LINE
8
Image
10
281.122892
20
65.694882
11
281.198292
21
66.085502
0
LINE
8
Image
10
281.198292
20
66.085502
11
281.350236
21
65.922212
0
LINE
8
Image
10
281.350236
20
65.922212
11
281.423038
21
65.506622
0
LINE
8
Image
10
281.423038
20
65.506622
11
281.320546
21
65.200994
0
LINE
8
Image
10
281.320546
20
65.200994
11
281.168711
21
65.252284
0
LINE
8
Image
10
281.168711
20
65.252284
11
281.122909
21
65.694882
0
LINE
8
Image
10
281.122909
20
65.694882
11
281.122892
21
65.694882
0
LINE
8
Image
10
280.746597
20
70.963012
11
280.821997
21
71.353646
0
LINE
8
Image
10
280.821997
20
71.353646
11
280.973941
21
71.190370
0
LINE
8
Image
10
280.973941
20
71.190370
11
281.046743
21
70.774777
0
LINE
8
Image
10
281.046743
20
70.774777
11
280.944251
21
70.469123
0
LINE
8
Image
10
280.944251
20
70.469123
11
280.792414
21
70.520435
0
LINE
8
Image
10
280.792414
20
70.520435
11
280.746611
21
70.963012
0
LINE
8
Image
10
280.746611
20
70.963012
11
280.746597
21
70.963012
0
LINE
8
Image
10
280.370302
20
75.854882
11
280.445701
21
76.245502
0
LINE
8
Image
10
280.445701
20
76.245502
11
280.597643
21
76.082212
0
LINE
8
Image
10
280.597643
20
76.082212
11
280.670445
21
75.666622
0
LINE
8
Image
10
280.670445
20
75.666622
11
280.567953
21
75.360994
0
LINE
8
Image
10
280.567953
20
75.360994
11
280.416119
21
75.412284
0
LINE
8
Image
10
280.416119
20
75.412284
11
280.370316
21
75.854883
0
LINE
8
Image
10
280.370316
20
75.854883
11
280.370302
21
75.854882
0
LINE
8
Image
10
83.819900
20
81.921700
11
85.513230
21
81.921700
0
LINE
8
Image
10
85.513230
20
81.921700
11
85.708360
21
81.858383
0
LINE
8
Image
10
85.708360
20
81.858383
11
85.613771
21
81.806532
0
LINE
8
Image
10
85.613771
20
81.806532
11
84.666564
21
81.758632
0
LINE
8
Image
10
84.666564
20
81.758632
11
83.719357
21
81.806532
0
LINE
8
Image
10
83.719357
20
81.806532
11
83.624769
21
81.858383
0
LINE
8
Image
10
83.624769
20
81.858383
11
83.819898
21
81.921700
0
LINE
8
Image
10
83.819898
20
81.921700
11
83.819900
21
81.921700
0
LINE
8
Image
10
279.617900
20
85.262310
11
279.693300
21
85.652944
0
LINE
8
Image
10
279.693300
20
85.652944
11
279.845244
21
85.489668
0
LINE
8
Image
10
279.845244
20
85.489668
11
279.918046
21
85.074075
0
LINE
8
Image
10
279.918046
20
85.074075
11
279.815554
21
84.768421
0
LINE
8
Image
10
279.815554
20
84.768421
11
279.663717
21
84.819722
0
LINE
8
Image
10
279.663717
20
84.819722
11
279.617914
21
85.262309
0
LINE
8
Image
10
279.617914
20
85.262309
11
279.617900
21
85.262310
0
LINE
8
Image
10
298.125900
20
101.869910
11
300.007390
21
101.864830
0
LINE
8
Image
10
300.007390
20
101.864830
11
300.185676
21
101.802191
0
LINE
8
Image
10
300.185676
20
101.802191
11
300.049042
21
101.751659
0
LINE
8
Image
10
300.049042
20
101.751659
11
298.967400
21
101.707576
0
LINE
8
Image
10
298.967400
20
101.707576
11
297.944100
21
101.757508
0
LINE
8
Image
10
297.944100
20
101.757508
11
297.870558
21
101.808549
0
LINE
8
Image
10
297.870558
20
101.808549
11
298.125899
21
101.869967
0
LINE
8
Image
10
298.125899
20
101.869967
11
298.125900
21
101.869910
0
LINE
8
Image
10
123.831000
20
107.464000
11
123.906400
21
107.854629
0
LINE
8
Image
10
123.906400
20
107.854629
11
124.058344
21
107.691347
0
LINE
8
Image
10
124.058344
20
107.691347
11
124.131146
21
107.275756
0
LINE
8
Image
10
124.131146
20
107.275756
11
124.028654
21
106.970112
0
LINE
8
Image
10
124.028654
20
106.970112
11
123.876819
21
107.021414
0
LINE
8
Image
10
123.876819
20
107.021414
11
123.831017
21
107.464001
0
LINE
8
Image
10
123.831017
20
107.464001
11
123.831000
21
107.464000
0
LINE
8
Image
10
310.908000
20
112.136340
11
310.958553
21
112.873057
0
LINE
8
Image
10
310.958553
20
112.873057
11
311.013275
21
112.946626
0
LINE
8
Image
10
311.013275
20
112.946626
11
311.080099
21
112.794860
0
LINE
8
Image
10
311.080099
20
112.794860
11
311.080099
21
111.477820
0
LINE
8
Image
10
311.080099
20
111.477820
11
311.013275
21
111.326053
0
LINE
8
Image
10
311.013275
20
111.326053
11
310.958553
21
111.399622
0
LINE
8
Image
10
310.958553
20
111.399622
11
310.908000
21
112.136337
0
LINE
8
Image
10
310.908000
20
112.136337
11
310.908000
21
112.136340
0
LINE
8
Image
10
124.207000
20
117.247000
11
124.282399
21
117.637629
0
LINE
8
Image
10
124.282399
20
117.637629
11
124.434341
21
117.474347
0
LINE
8
Image
10
124.434341
20
117.474347
11
124.507143
21
117.058755
0
LINE
8
Image
10
124.507143
20
117.058755
11
124.404651
21
116.753112
0
LINE
8
Image
10
124.404651
20
116.753112
11
124.252817
21
116.804413
0
LINE
8
Image
10
124.252817
20
116.804413
11
124.207014
21
117.247000
0
LINE
8
Image
10
124.207014
20
117.247000
11
124.207000
21
117.247000
0
LINE
8
Image
10
124.612999
20
123.800820
11
124.668753
21
124.327046
0
LINE
8
Image
10
124.668753
20
124.327046
11
124.802799
21
124.271188
0
LINE
8
Image
10
124.802799
20
124.271188
11
124.881090
21
123.800819
0
LINE
8
Image
10
124.881090
20
123.800819
11
124.802799
21
123.330449
0
LINE
8
Image
10
124.802799
20
123.330449
11
124.668753
21
123.274592
0
LINE
8
Image
10
124.668753
20
123.274592
11
124.612999
21
123.800820
0
LINE
8
Image
10
124.612999
20
123.800820
11
124.612999
21
123.800820
0
LINE
8
Image
10
125.003241
20
131.138590
11
125.064048
21
131.740323
0
LINE
8
Image
10
125.064048
20
131.740323
11
125.190651
21
131.601798
0
LINE
8
Image
10
125.190651
20
131.601798
11
125.176681
21
130.472908
0
LINE
8
Image
10
125.176681
20
130.472908
11
125.105011
21
130.382129
0
LINE
8
Image
10
125.105011
20
130.382129
11
125.048415
21
130.477378
0
LINE
8
Image
10
125.048415
20
130.477378
11
125.003210
21
131.138588
0
LINE
8
Image
10
125.003210
20
131.138588
11
125.003241
21
131.138590
0
LINE
8
Image
10
125.393478
20
139.605250
11
125.444030
21
140.341967
0
LINE
8
Image
10
125.444030
20
140.341967
11
125.498750
21
140.415536
0
LINE
8
Image
10
125.498750
20
140.415536
11
125.565571
21
140.263770
0
LINE
8
Image
10
125.565571
20
140.263770
11
125.565571
21
138.946730
0
LINE
8
Image
10
125.565571
20
138.946730
11
125.498750
21
138.794963
0
LINE
8
Image
10
125.498750
20
138.794963
11
125.444030
21
138.868532
0
LINE
8
Image
10
125.444030
20
138.868532
11
125.393478
21
139.605247
0
LINE
8
Image
10
125.393478
20
139.605247
11
125.393478
21
139.605250
0
LINE
8
Image
10
125.769776
20
150.141550
11
125.820328
21
150.878265
0
LINE
8
Image
10
125.820328
20
150.878265
11
125.875048
21
150.951834
0
LINE
8
Image
10
125.875048
20
150.951834
11
125.941867
21
150.800067
0
LINE
8
Image
10
125.941867
20
150.800067
11
125.941867
21
149.483027
0
LINE
8
Image
10
125.941867
20
149.483027
11
125.875048
21
149.331260
0
LINE
8
Image
10
125.875048
20
149.331260
11
125.820328
21
149.404829
0
LINE
8
Image
10
125.820328
20
149.404829
11
125.769776
21
150.141547
0
LINE
8
Image
10
125.769776
20
150.141547
11
125.769776
21
150.141550
0
LINE
8
Image
10
123.161166
20
155.785990
11
123.207215
21
156.943685
0
LINE
8
Image
10
123.207215
20
156.943685
11
123.257060
21
157.059293
0
LINE
8
Image
10
123.257060
20
157.059293
11
123.317926
21
156.820800
0
LINE
8
Image
10
123.317926
20
156.820800
11
123.317926
21
154.751170
0
LINE
8
Image
10
123.317926
20
154.751170
11
123.257060
21
154.512677
0
LINE
8
Image
10
123.257060
20
154.512677
11
123.207215
21
154.628285
0
LINE
8
Image
10
123.207215
20
154.628285
11
123.161166
21
155.785980
0
LINE
8
Image
10
123.161166
20
155.785980
11
123.161166
21
155.785990
0
LINE
8
Image
10
163.594266
20
157.916680
11
164.064637
21
157.994971
0
LINE
8
Image
10
164.064637
20
157.994971
11
164.535008
21
157.916680
0
LINE
8
Image
10
164.535008
20
157.916680
11
164.590863
21
157.782635
0
LINE
8
Image
10
164.590863
20
157.782635
11
164.064637
21
157.726880
0
LINE
8
Image
10
164.064637
20
157.726880
11
163.538411
21
157.782634
0
LINE
8
Image
10
163.538411
20
157.782634
11
163.594266
21
157.916680
0
LINE
8
Image
10
163.594266
20
157.916680
11
163.594266
21
157.916680
0
LINE
8
Image
10
126.197966
20
167.074870
11
126.238564
21
169.285021
0
LINE
8
Image
10
126.238564
20
169.285021
11
126.282509
21
169.505726
0
LINE
8
Image
10
126.282509
20
169.505726
11
126.336170
21
169.050420
0
LINE
8
Image
10
126.336170
20
169.050420
11
126.336170
21
165.099310
0
LINE
8
Image
10
126.336170
20
165.099310
11
126.282509
21
164.644009
0
LINE
8
Image
10
126.282509
20
164.644009
11
126.238564
21
164.864714
0
LINE
8
Image
10
126.238564
20
164.864714
11
126.197966
21
167.074860
0
LINE
8
Image
10
126.197966
20
167.074860
11
126.197966
21
167.074870
0
LINE
8
Image
10
246.126966
20
170.681040
11
246.202365
21
171.071669
0
LINE
8
Image
10
246.202365
20
171.071669
11
246.354307
21
170.908387
0
LINE
8
Image
10
246.354307
20
170.908387
11
246.427109
21
170.492795
0
LINE
8
Image
10
246.427109
20
170.492795
11
246.324617
21
170.187152
0
LINE
8
Image
10
246.324617
20
170.187152
11
246.172783
21
170.238453
0
LINE
8
Image
10
246.172783
20
170.238453
11
246.126980
21
170.681041
0
LINE
8
Image
10
246.126980
20
170.681041
11
246.126966
21
170.681040
0
LINE
8
Image
10
126.195000
20
187.772000
11
126.236400
21
189.771659
0
LINE
8
Image
10
126.236400
20
189.771659
11
126.281214
21
189.971348
0
LINE
8
Image
10
126.281214
20
189.971348
11
126.335939
21
189.559410
0
LINE
8
Image
10
126.335939
20
189.559410
11
126.335939
21
185.984600
0
LINE
8
Image
10
126.335939
20
185.984600
11
126.281214
21
185.572659
0
LINE
8
Image
10
126.281214
20
185.572659
11
126.236400
21
185.772347
0
LINE
8
Image
10
126.236400
20
185.772347
11
126.195000
21
187.772010
0
LINE
8
Image
10
126.195000
20
187.772010
11
126.195000
21
187.772000
0
LINE
8
Image
10
123.156600
20
198.120100
11
123.206497
21
199.143399
0
LINE
8
Image
10
123.206497
20
199.143399
11
123.257558
21
199.216941
0
LINE
8
Image
10
123.257558
20
199.216941
11
123.318996
21
198.961593
0
LINE
8
Image
10
123.318996
20
198.961593
11
123.313888
21
197.080113
0
LINE
8
Image
10
123.313888
20
197.080113
11
123.251238
21
196.901840
0
LINE
8
Image
10
123.251238
20
196.901840
11
123.200704
21
197.038501
0
LINE
8
Image
10
123.200704
20
197.038501
11
123.156625
21
198.120103
0
LINE
8
Image
10
123.156625
20
198.120103
11
123.156600
21
198.120100
0
LINE
8
Image
10
125.777940
20
204.140840
11
125.831377
21
204.953879
0
LINE
8
Image
10
125.831377
20
204.953879
11
125.885045
21
205.006649
0
LINE
8
Image
10
125.885045
20
205.006649
11
125.949187
21
204.794969
0
LINE
8
Image
10
125.949187
20
204.794969
11
125.941595
21
203.289789
0
LINE
8
Image
10
125.941595
20
203.289789
11
125.875704
21
203.154573
0
LINE
8
Image
10
125.875704
20
203.154573
11
125.822886
21
203.269966
0
LINE
8
Image
10
125.822886
20
203.269966
11
125.777946
21
204.140844
0
LINE
8
Image
10
125.777946
20
204.140844
11
125.777940
21
204.140840
0
LINE
8
Image
10
122.759980
20
209.220840
11
122.810532
21
209.957555
0
LINE
8
Image
10
122.810532
20
209.957555
11
122.865252
21
210.031124
0
LINE
8
Image
10
122.865252
20
210.031124
11
122.932071
21
209.879357
0
LINE
8
Image
10
122.932071
20
209.879357
11
122.932071
21
208.562317
0
LINE
8
Image
10
122.932071
20
208.562317
11
122.865252
21
208.410550
0
LINE
8
Image
10
122.865252
20
208.410550
11
122.810532
21
208.484119
0
LINE
8
Image
10
122.810532
20
208.484119
11
122.759980
21
209.220837
0
LINE
8
Image
10
122.759980
20
209.220837
11
122.759980
21
209.220840
0
LINE
8
Image
10
202.753180
20
209.101596
11
203.168772
21
209.174398
0
LINE
8
Image
10
203.168772
20
209.174398
11
203.474415
21
209.071906
0
LINE
8
Image
10
203.474415
20
209.071906
11
203.423114
21
208.920069
0
LINE
8
Image
10
203.423114
20
208.920069
11
202.980527
21
208.874266
0
LINE
8
Image
10
202.980527
20
208.874266
11
202.589898
21
208.949666
0
LINE
8
Image
10
202.589898
20
208.949666
11
202.753180
21
209.101610
0
LINE
8
Image
10
202.753180
20
209.101610
11
202.753180
21
209.101596
0
LINE
8
Image
10
125.366000
20
213.360000
11
125.421754
21
213.886226
0
LINE
8
Image
10
125.421754
20
213.886226
11
125.555800
21
213.830371
0
LINE
8
Image
10
125.555800
20
213.830371
11
125.634091
21
213.360000
0
LINE
8
Image
10
125.634091
20
213.360000
11
125.555800
21
212.889629
0
LINE
8
Image
10
125.555800
20
212.889629
11
125.421754
21
212.833774
0
LINE
8
Image
10
125.421754
20
212.833774
11
125.366000
21
213.360000
0
LINE
8
Image
10
125.366000
20
213.360000
11
125.366000
21
213.360000
0
LINE
8
Image
10
122.355630
20
217.122960
11
122.411384
21
217.649188
0
LINE
8
Image
10
122.411384
20
217.649188
11
122.545430
21
217.593331
0
LINE
8
Image
10
122.545430
20
217.593331
11
122.623721
21
217.122961
0
LINE
8
Image
10
122.623721
20
217.122961
11
122.545430
21
216.652592
0
LINE
8
Image
10
122.545430
20
216.652592
11
122.411384
21
216.596735
0
LINE
8
Image
10
122.411384
20
216.596735
11
122.355630
21
217.122960
0
LINE
8
Image
10
122.355630
20
217.122960
11
122.355630
21
217.122960
0
LINE
8
Image
10
124.960000
20
220.352830
11
125.035400
21
220.743459
0
LINE
8
Image
10
125.035400
20
220.743459
11
125.187344
21
220.580177
0
LINE
8
Image
10
125.187344
20
220.580177
11
125.260146
21
220.164586
0
LINE
8
Image
10
125.260146
20
220.164586
11
125.157654
21
219.858942
0
LINE
8
Image
10
125.157654
20
219.858942
11
125.005819
21
219.910244
0
LINE
8
Image
10
125.005819
20
219.910244
11
124.960017
21
220.352831
0
LINE
8
Image
10
124.960017
20
220.352831
11
124.960000
21
220.352830
0
LINE
8
Image
10
219.786600
20
220.729128
11
219.862000
21
221.119756
0
LINE
8
Image
10
219.862000
20
221.119756
11
220.013944
21
220.956475
0
LINE
8
Image
10
220.013944
20
220.956475
11
220.086746
21
220.540882
0
LINE
8
Image
10
220.086746
20
220.540882
11
219.984254
21
220.235240
0
LINE
8
Image
10
219.984254
20
220.235240
11
219.832419
21
220.286540
0
LINE
8
Image
10
219.832419
20
220.286540
11
219.786617
21
220.729129
0
LINE
8
Image
10
219.786617
20
220.729129
11
219.786600
21
220.729128
0
LINE
8
Image
10
121.950000
20
223.739000
11
122.025399
21
224.129629
0
LINE
8
Image
10
122.025399
20
224.129629
11
122.177341
21
223.966347
0
LINE
8
Image
10
122.177341
20
223.966347
11
122.250143
21
223.550756
0
LINE
8
Image
10
122.250143
20
223.550756
11
122.147651
21
223.245112
0
LINE
8
Image
10
122.147651
20
223.245112
11
121.995817
21
223.296414
0
LINE
8
Image
10
121.995817
20
223.296414
11
121.950014
21
223.739000
0
LINE
8
Image
10
121.950014
20
223.739000
11
121.950000
21
223.739000
0
LINE
8
Image
10
198.614100
20
226.786920
11
199.029693
21
226.859722
0
LINE
8
Image
10
199.029693
20
226.859722
11
199.335335
21
226.757230
0
LINE
8
Image
10
199.335335
20
226.757230
11
199.284035
21
226.605395
0
LINE
8
Image
10
199.284035
20
226.605395
11
198.841446
21
226.559593
0
LINE
8
Image
10
198.841446
20
226.559593
11
198.450818
21
226.634992
0
LINE
8
Image
10
198.450818
20
226.634992
11
198.614099
21
226.786934
0
LINE
8
Image
10
198.614099
20
226.786934
11
198.614100
21
226.786920
0
LINE
8
Image
10
208.943900
20
228.305070
11
210.825380
21
228.299962
0
LINE
8
Image
10
210.825380
20
228.299962
11
211.003657
21
228.237312
0
LINE
8
Image
10
211.003657
20
228.237312
11
210.867003
21
228.186778
0
LINE
8
Image
10
210.867003
20
228.186778
11
209.785390
21
228.142699
0
LINE
8
Image
10
209.785390
20
228.142699
11
208.762091
21
228.192596
0
LINE
8
Image
10
208.762091
20
228.192596
11
208.688549
21
228.243659
0
LINE
8
Image
10
208.688549
20
228.243659
11
208.943897
21
228.305098
0
LINE
8
Image
10
208.943897
20
228.305098
11
208.943900
21
228.305070
0
LINE
8
Image
10
121.573700
20
229.007145
11
121.649100
21
229.397774
0
LINE
8
Image
10
121.649100
20
229.397774
11
121.801044
21
229.234492
0
LINE
8
Image
10
121.801044
20
229.234492
11
121.873846
21
228.818900
0
LINE
8
Image
10
121.873846
20
228.818900
11
121.771354
21
228.513257
0
LINE
8
Image
10
121.771354
20
228.513257
11
121.619519
21
228.564558
0
LINE
8
Image
10
121.619519
20
228.564558
11
121.573717
21
229.007146
0
LINE
8
Image
10
121.573717
20
229.007146
11
121.573700
21
229.007145
0
LINE
8
Image
10
194.951400
20
230.512325
11
195.026799
21
230.902954
0
LINE
8
Image
10
195.026799
20
230.902954
11
195.178741
21
230.739672
0
LINE
8
Image
10
195.178741
20
230.739672
11
195.251543
21
230.324081
0
LINE
8
Image
10
195.251543
20
230.324081
11
195.149051
21
230.018437
0
LINE
8
Image
10
195.149051
20
230.018437
11
194.997217
21
230.069739
0
LINE
8
Image
10
194.997217
20
230.069739
11
194.951414
21
230.512325
0
LINE
8
Image
10
194.951414
20
230.512325
11
194.951400
21
230.512325
0
LINE
8
Image
10
209.322200
20
269.688325
11
210.451090
21
269.674355
0
LINE
8
Image
10
210.451090
20
269.674355
11
210.541869
21
269.602686
0
LINE
8
Image
10
210.541869
20
269.602686
11
210.446622
21
269.546091
0
LINE
8
Image
10
210.446622
20
269.546091
11
209.785413
21
269.500887
0
LINE
8
Image
10
209.785413
20
269.500887
11
209.183678
21
269.561694
0
LINE
8
Image
10
209.183678
20
269.561694
11
209.322202
21
269.688297
0
LINE
8
Image
10
209.322202
20
269.688297
11
209.322200
21
269.688325
0
LINE
8
Image
10
221.168400
20
269.676782
11
221.638769
21
269.755073
0
LINE
8
Image
10
221.638769
20
269.755073
11
222.109139
21
269.676782
0
LINE
8
Image
10
222.109139
20
269.676782
11
222.164996
21
269.542737
0
LINE
8
Image
10
222.164996
20
269.542737
11
221.638768
21
269.486982
0
LINE
8
Image
10
221.638768
20
269.486982
11
221.112542
21
269.542736
0
LINE
8
Image
10
221.112542
20
269.542736
11
221.168400
21
269.676782
0
LINE
8
Image
10
221.168400
20
269.676782
11
221.168400
21
269.676782
0
LINE
8
Image
10
78.556200
20
378.067000
11
80.061390
21
378.059405
0
LINE
8
Image
10
80.061390
20
378.059405
11
80.196604
21
377.993514
0
LINE
8
Image
10
80.196604
20
377.993514
11
80.081212
21
377.940695
0
LINE
8
Image
10
80.081212
20
377.940695
11
79.210335
21
377.895755
0
LINE
8
Image
10
79.210335
20
377.895755
11
78.397296
21
377.949191
0
LINE
8
Image
10
78.397296
20
377.949191
11
78.344525
21
378.002858
0
LINE
8
Image
10
78.344525
20
378.002858
11
78.556204
21
378.066999
0
LINE
8
Image
10
78.556204
20
378.066999
11
78.556200
21
378.067000
0
LINE
8
Image
10
295.111000
20
6.809330
11
290.728770
21
7.247670
0
LINE
8
Image
10
290.728770
20
7.247670
11
286.189066
21
7.935397
0
LINE
8
Image
10
286.189066
20
7.935397
11
281.547554
21
8.857715
0
LINE
8
Image
10
281.547554
20
8.857715
11
276.859900
21
9.999831
0
LINE
8
Image
10
276.859900
20
9.999831
11
272.181771
21
11.346949
0
LINE
8
Image
10
272.181771
20
11.346949
11
267.568834
21
12.884277
0
LINE
8
Image
10
267.568834
20
12.884277
11
263.076755
21
14.597018
0
LINE
8
Image
10
263.076755
20
14.597018
11
258.761200
21
16.470380
0
LINE
8
Image
10
258.761200
20
16.470380
11
256.067925
21
17.688321
0
LINE
8
Image
10
256.067925
20
17.688321
11
254.267705
21
18.329851
0
LINE
8
Image
10
254.267705
20
18.329851
11
252.583105
21
18.597883
0
LINE
8
Image
10
252.583105
20
18.597883
11
250.236690
21
18.695330
0
LINE
8
Image
10
250.236690
20
18.695330
11
243.407709
21
18.952616
0
LINE
8
Image
10
243.407709
20
18.952616
11
236.301735
21
19.394246
0
LINE
8
Image
10
236.301735
20
19.394246
11
228.352886
21
20.085707
0
LINE
8
Image
10
228.352886
20
20.085707
11
218.995277
21
21.092485
0
LINE
8
Image
10
218.995277
20
21.092485
11
193.790251
21
24.313947
0
LINE
8
Image
10
193.790251
20
24.313947
11
156.159590
21
29.582530
0
LINE
8
Image
10
156.159590
20
29.582530
11
143.550590
21
31.380450
0
LINE
8
Image
10
143.550590
20
31.380450
11
139.780500
21
29.063660
0
LINE
8
Image
10
139.780500
20
29.063660
11
136.429841
21
27.120607
0
LINE
8
Image
10
136.429841
20
27.120607
11
132.843482
21
25.253961
0
LINE
8
Image
10
132.843482
20
25.253961
11
129.097033
21
23.494063
0
LINE
8
Image
10
129.097033
20
23.494063
11
125.266109
21
21.871255
0
LINE
8
Image
10
125.266109
20
21.871255
11
121.426321
21
20.415879
0
LINE
8
Image
10
121.426321
20
20.415879
11
117.653281
21
19.158277
0
LINE
8
Image
10
117.653281
20
19.158277
11
114.022604
21
18.128790
0
LINE
8
Image
10
114.022604
20
18.128790
11
110.609900
21
17.357760
0
LINE
8
Image
10
110.609900
20
17.357760
11
104.883958
21
16.435794
0
LINE
8
Image
10
104.883958
20
16.435794
11
99.920775
21
16.023228
0
LINE
8
Image
10
99.920775
20
16.023228
11
95.720567
21
16.120002
0
LINE
8
Image
10
95.720567
20
16.120002
11
93.906646
21
16.359372
0
LINE
8
Image
10
93.906646
20
16.359372
11
92.283550
21
16.726055
0
LINE
8
Image
10
92.283550
20
16.726055
11
90.851305
21
17.220043
0
LINE
8
Image
10
90.851305
20
17.220043
11
89.609939
21
17.841328
0
LINE
8
Image
10
89.609939
20
17.841328
11
88.559478
21
18.589902
0
LINE
8
Image
10
88.559478
20
18.589902
11
87.699950
21
19.465760
0
LINE
8
Image
10
87.699950
20
19.465760
11
87.031381
21
20.468891
0
LINE
8
Image
10
87.031381
20
20.468891
11
86.553798
21
21.599290
0
LINE
8
Image
10
86.553798
20
21.599290
11
86.267229
21
22.856949
0
LINE
8
Image
10
86.267229
20
22.856949
11
86.171700
21
24.241860
0
LINE
8
Image
10
86.171700
20
24.241860
11
86.311891
21
25.940909
0
LINE
8
Image
10
86.311891
20
25.940909
11
86.734602
21
27.702454
0
LINE
8
Image
10
86.734602
20
27.702454
11
87.443041
21
29.531945
0
LINE
8
Image
10
87.443041
20
29.531945
11
88.440414
21
31.434829
0
LINE
8
Image
10
88.440414
20
31.434829
11
89.729928
21
33.416554
0
LINE
8
Image
10
89.729928
20
33.416554
11
91.314791
21
35.482569
0
LINE
8
Image
10
91.314791
20
35.482569
11
93.198209
21
37.638322
0
LINE
8
Image
10
93.198209
20
37.638322
11
95.383390
21
39.889260
0
LINE
8
Image
10
95.383390
20
39.889260
11
103.730574
21
48.559148
0
LINE
8
Image
10
103.730574
20
48.559148
11
114.110490
21
59.864160
0
LINE
8
Image
10
114.110490
20
59.864160
11
117.009970
21
63.095910
0
LINE
8
Image
10
117.009970
20
63.095910
11
117.932805
21
72.470080
0
LINE
8
Image
10
117.932805
20
72.470080
11
119.346084
21
87.383755
0
LINE
8
Image
10
119.346084
20
87.383755
11
119.614735
21
91.980580
0
LINE
8
Image
10
119.614735
20
91.980580
11
115.017295
21
90.277480
0
LINE
8
Image
10
115.017295
20
90.277480
11
105.665967
21
86.700829
0
LINE
8
Image
10
105.665967
20
86.700829
11
101.397894
21
85.284978
0
LINE
8
Image
10
101.397894
20
85.284978
11
97.414120
21
84.120841
0
LINE
8
Image
10
97.414120
20
84.120841
11
93.724074
21
83.210966
0
LINE
8
Image
10
93.724074
20
83.210966
11
90.337186
21
82.557900
0
LINE
8
Image
10
90.337186
20
82.557900
11
87.262883
21
82.164192
0
LINE
8
Image
10
87.262883
20
82.164192
11
84.510595
21
82.032390
0
LINE
8
Image
10
84.510595
20
82.032390
11
81.327462
21
82.204845
0
LINE
8
Image
10
81.327462
20
82.204845
11
80.246069
21
82.496031
0
LINE
8
Image
10
80.246069
20
82.496031
11
79.127385
21
82.991070
0
LINE
8
Image
10
79.127385
20
82.991070
11
77.741587
21
83.804796
0
LINE
8
Image
10
77.741587
20
83.804796
11
76.775412
21
84.710941
0
LINE
8
Image
10
76.775412
20
84.710941
11
76.119959
21
85.846634
0
LINE
8
Image
10
76.119959
20
85.846634
11
75.666325
21
87.349000
0
LINE
8
Image
10
75.666325
20
87.349000
11
75.488569
21
88.734726
0
LINE
8
Image
10
75.488569
20
88.734726
11
75.573010
21
90.237296
0
LINE
8
Image
10
75.573010
20
90.237296
11
75.940283
21
91.906762
0
LINE
8
Image
10
75.940283
20
91.906762
11
76.611026
21
93.793177
0
LINE
8
Image
10
76.611026
20
93.793177
11
77.605875
21
95.946596
0
LINE
8
Image
10
77.605875
20
95.946596
11
78.945466
21
98.417071
0
LINE
8
Image
10
78.945466
20
98.417071
11
82.741425
21
104.509400
0
LINE
8
Image
10
82.741425
20
104.509400
11
85.922567
21
109.187962
0
LINE
8
Image
10
85.922567
20
109.187962
11
89.383539
21
113.980917
0
LINE
8
Image
10
89.383539
20
113.980917
11
93.139601
21
118.906892
0
LINE
8
Image
10
93.139601
20
118.906892
11
97.206012
21
123.984512
0
LINE
8
Image
10
97.206012
20
123.984512
11
106.330917
21
134.669202
0
LINE
8
Image
10
106.330917
20
134.669202
11
116.880325
21
146.184000
0
LINE
8
Image
10
116.880325
20
146.184000
11
123.236775
21
152.921280
0
LINE
8
Image
10
123.236775
20
152.921280
11
123.226869
21
179.095280
0
LINE
8
Image
10
123.226869
20
179.095280
11
123.095945
21
198.889681
0
LINE
8
Image
10
123.095945
20
198.889681
11
122.649234
21
214.810035
0
LINE
8
Image
10
122.649234
20
214.810035
11
121.781373
21
229.294192
0
LINE
8
Image
10
121.781373
20
229.294192
11
120.387000
21
244.780000
0
LINE
8
Image
10
120.387000
20
244.780000
11
119.344484
21
254.248829
0
LINE
8
Image
10
119.344484
20
254.248829
11
118.149953
21
263.483010
0
LINE
8
Image
10
118.149953
20
263.483010
11
116.806616
21
272.471205
0
LINE
8
Image
10
116.806616
20
272.471205
11
115.317684
21
281.202078
0
LINE
8
Image
10
115.317684
20
281.202078
11
113.686369
21
289.664293
0
LINE
8
Image
10
113.686369
20
289.664293
11
111.915880
21
297.846514
0
LINE
8
Image
10
111.915880
20
297.846514
11
110.009429
21
305.737403
0
LINE
8
Image
10
110.009429
20
305.737403
11
107.970225
21
313.325625
0
LINE
8
Image
10
107.970225
20
313.325625
11
105.801480
21
320.599843
0
LINE
8
Image
10
105.801480
20
320.599843
11
103.506404
21
327.548721
0
LINE
8
Image
10
103.506404
20
327.548721
11
101.088208
21
334.160922
0
LINE
8
Image
10
101.088208
20
334.160922
11
98.550103
21
340.425109
0
LINE
8
Image
10
98.550103
20
340.425109
11
95.895299
21
346.329948
0
LINE
8
Image
10
95.895299
20
346.329948
11
93.127007
21
351.864100
0
LINE
8
Image
10
93.127007
20
351.864100
11
90.248437
21
357.016229
0
LINE
8
Image
10
90.248437
20
357.016229
11
87.262800
21
361.775000
0
LINE
8
Image
10
87.262800
20
361.775000
11
84.279567
21
366.064312
0
LINE
8
Image
10
84.279567
20
366.064312
11
81.641587
21
369.382750
0
LINE
8
Image
10
81.641587
20
369.382750
11
79.008914
21
372.121062
0
LINE
8
Image
10
79.008914
20
372.121062
11
76.041600
21
374.670000
0
LINE
8
Image
10
76.041600
20
374.670000
11
72.060710
21
377.897470
0
LINE
8
Image
10
72.060710
20
377.897470
11
72.096903
21
378.047073
0
LINE
8
Image
10
72.096903
20
378.047073
11
72.549842
21
378.143713
0
LINE
8
Image
10
72.549842
20
378.143713
11
74.546200
21
378.190618
0
LINE
8
Image
10
74.546200
20
378.190618
11
81.782510
21
377.786509
0
LINE
8
Image
10
81.782510
20
377.786509
11
91.213469
21
376.885328
0
LINE
8
Image
10
91.213469
20
376.885328
11
100.282910
21
375.687260
0
LINE
8
Image
10
100.282910
20
375.687260
11
109.372332
21
374.065796
0
LINE
8
Image
10
109.372332
20
374.065796
11
118.313641
21
372.123409
0
LINE
8
Image
10
118.313641
20
372.123409
11
127.091431
21
369.867875
0
LINE
8
Image
10
127.091431
20
369.867875
11
135.690296
21
367.306973
0
LINE
8
Image
10
135.690296
20
367.306973
11
144.094831
21
364.448482
0
LINE
8
Image
10
144.094831
20
364.448482
11
152.289630
21
361.300180
0
LINE
8
Image
10
152.289630
20
361.300180
11
160.259287
21
357.869845
0
LINE
8
Image
10
160.259287
20
357.869845
11
167.988397
21
354.165255
0
LINE
8
Image
10
167.988397
20
354.165255
11
175.461555
21
350.194189
0
LINE
8
Image
10
175.461555
20
350.194189
11
182.663354
21
345.964424
0
LINE
8
Image
10
182.663354
20
345.964424
11
189.578390
21
341.483740
0
LINE
8
Image
10
189.578390
20
341.483740
11
196.191255
21
336.759914
0
LINE
8
Image
10
196.191255
20
336.759914
11
202.486546
21
331.800725
0
LINE
8
Image
10
202.486546
20
331.800725
11
208.448856
21
326.613951
0
LINE
8
Image
10
208.448856
20
326.613951
11
214.062779
21
321.207370
0
LINE
8
Image
10
214.062779
20
321.207370
11
219.312910
21
315.588760
0
LINE
8
Image
10
219.312910
20
315.588760
11
222.600425
21
311.761185
0
LINE
8
Image
10
222.600425
20
311.761185
11
225.735343
21
307.879645
0
LINE
8
Image
10
225.735343
20
307.879645
11
228.721018
21
303.937516
0
LINE
8
Image
10
228.721018
20
303.937516
11
231.560805
21
299.928172
0
LINE
8
Image
10
231.560805
20
299.928172
11
234.258058
21
295.844992
0
LINE
8
Image
10
234.258058
20
295.844992
11
236.816129
21
291.681350
0
LINE
8
Image
10
236.816129
20
291.681350
11
239.238375
21
287.430622
0
LINE
8
Image
10
239.238375
20
287.430622
11
241.528147
21
283.086185
0
LINE
8
Image
10
241.528147
20
283.086185
11
243.688802
21
278.641414
0
LINE
8
Image
10
243.688802
20
278.641414
11
245.723692
21
274.089686
0
LINE
8
Image
10
245.723692
20
274.089686
11
247.636172
21
269.424376
0
LINE
8
Image
10
247.636172
20
269.424376
11
249.429596
21
264.638860
0
LINE
8
Image
10
249.429596
20
264.638860
11
252.672691
21
254.680715
0
LINE
8
Image
10
252.672691
20
254.680715
11
255.479810
21
244.162260
0
LINE
8
Image
10
255.479810
20
244.162260
11
259.202193
21
227.216751
0
LINE
8
Image
10
259.202193
20
227.216751
11
263.543775
21
205.438935
0
LINE
8
Image
10
263.543775
20
205.438935
11
267.576350
21
183.657032
0
LINE
8
Image
10
267.576350
20
183.657032
11
270.371710
21
166.699260
0
LINE
8
Image
10
270.371710
20
166.699260
11
271.501110
21
159.549640
0
LINE
8
Image
10
271.501110
20
159.549640
11
272.126863
21
158.836085
0
LINE
8
Image
10
272.126863
20
158.836085
11
273.380220
21
157.913140
0
LINE
8
Image
10
273.380220
20
157.913140
11
279.347090
21
153.752177
0
LINE
8
Image
10
279.347090
20
153.752177
11
286.290760
21
148.317470
0
LINE
8
Image
10
286.290760
20
148.317470
11
293.087610
21
142.526948
0
LINE
8
Image
10
293.087610
20
142.526948
11
298.614020
21
137.298540
0
LINE
8
Image
10
298.614020
20
137.298540
11
301.694282
21
133.978214
0
LINE
8
Image
10
301.694282
20
133.978214
11
304.257757
21
130.856125
0
LINE
8
Image
10
304.257757
20
130.856125
11
306.337314
21
127.864377
0
LINE
8
Image
10
306.337314
20
127.864377
11
307.965820
21
124.935076
0
LINE
8
Image
10
307.965820
20
124.935076
11
309.176145
21
122.000327
0
LINE
8
Image
10
309.176145
20
122.000327
11
310.001158
21
118.992235
0
LINE
8
Image
10
310.001158
20
118.992235
11
310.473726
21
115.842904
0
LINE
8
Image
10
310.473726
20
115.842904
11
310.626720
21
112.484440
0
LINE
8
Image
10
310.626720
20
112.484440
11
310.605999
21
109.998218
0
LINE
8
Image
10
310.605999
20
109.998218
11
310.474013
21
108.482889
0
LINE
8
Image
10
310.474013
20
108.482889
11
310.137455
21
107.426093
0
LINE
8
Image
10
310.137455
20
107.426093
11
309.503020
21
106.315470
0
LINE
8
Image
10
309.503020
20
106.315470
11
308.149626
21
104.656342
0
LINE
8
Image
10
308.149626
20
104.656342
11
306.304510
21
103.335090
0
LINE
8
Image
10
306.304510
20
103.335090
11
305.062889
21
102.694327
0
LINE
8
Image
10
305.062889
20
102.694327
11
303.901909
21
102.326327
0
LINE
8
Image
10
303.901909
20
102.326327
11
302.365327
21
102.136802
0
LINE
8
Image
10
302.365327
20
102.136802
11
299.996900
21
102.031460
0
LINE
8
Image
10
299.996900
20
102.031460
11
296.343425
21
102.070797
0
LINE
8
Image
10
296.343425
20
102.070797
11
292.521819
21
102.457050
0
LINE
8
Image
10
292.521819
20
102.457050
11
288.207079
21
103.236791
0
LINE
8
Image
10
288.207079
20
103.236791
11
283.074200
21
104.456590
0
LINE
8
Image
10
283.074200
20
104.456590
11
277.983770
21
105.739290
0
LINE
8
Image
10
277.983770
20
105.739290
11
278.536287
21
98.683750
0
LINE
8
Image
10
278.536287
20
98.683750
11
280.154695
21
79.751151
0
LINE
8
Image
10
280.154695
20
79.751151
11
281.508517
21
61.645750
0
LINE
8
Image
10
281.508517
20
61.645750
11
281.963639
21
54.617350
0
LINE
8
Image
10
281.963639
20
54.617350
11
287.154399
21
51.555100
0
LINE
8
Image
10
287.154399
20
51.555100
11
293.927266
21
47.420005
0
LINE
8
Image
10
293.927266
20
47.420005
11
300.251341
21
43.282487
0
LINE
8
Image
10
300.251341
20
43.282487
11
306.040486
21
39.211157
0
LINE
8
Image
10
306.040486
20
39.211157
11
311.208562
21
35.274625
0
LINE
8
Image
10
311.208562
20
35.274625
11
315.669429
21
31.541502
0
LINE
8
Image
10
315.669429
20
31.541502
11
319.336951
21
28.080400
0
LINE
8
Image
10
319.336951
20
28.080400
11
322.124987
21
24.959929
0
LINE
8
Image
10
322.124987
20
24.959929
11
323.947399
21
22.248700
0
LINE
8
Image
10
323.947399
20
22.248700
11
324.960968
21
19.848117
0
LINE
8
Image
10
324.960968
20
19.848117
11
325.440399
21
17.534079
0
LINE
8
Image
10
325.440399
20
17.534079
11
325.379733
21
15.370339
0
LINE
8
Image
10
325.379733
20
15.370339
11
325.145001
21
14.364754
0
LINE
8
Image
10
325.145001
20
14.364754
11
324.773011
21
13.420650
0
LINE
8
Image
10
324.773011
20
13.420650
11
323.905917
21
12.017631
0
LINE
8
Image
10
323.905917
20
12.017631
11
322.735786
21
10.807279
0
LINE
8
Image
10
322.735786
20
10.807279
11
321.225011
21
9.775378
0
LINE
8
Image
10
321.225011
20
9.775378
11
319.335983
21
8.907712
0
LINE
8
Image
10
319.335983
20
8.907712
11
317.031097
21
8.190067
0
LINE
8
Image
10
317.031097
20
8.190067
11
314.272745
21
7.608225
0
LINE
8
Image
10
314.272745
20
7.608225
11
311.023318
21
7.147971
0
LINE
8
Image
10
311.023318
20
7.147971
11
307.245211
21
6.795090
0
LINE
8
Image
10
307.245211
20
6.795090
11
301.339027
21
6.473728
0
LINE
8
Image
10
301.339027
20
6.473728
11
295.110711
21
6.809483
0
LINE
8
Image
10
295.110711
20
6.809483
11
295.111000
21
6.809330
0
LINE
8
Image
10
314.078000
20
10.297760
11
317.036566
21
11.073883
0
LINE
8
Image
10
317.036566
20
11.073883
11
319.374117
21
12.038554
0
LINE
8
Image
10
319.374117
20
12.038554
11
321.095219
21
13.200130
0
LINE
8
Image
10
321.095219
20
13.200130
11
321.726028
21
13.857369
0
LINE
8
Image
10
321.726028
20
13.857369
11
322.204439
21
14.566968
0
LINE
8
Image
10
322.204439
20
14.566968
11
322.531020
21
15.329971
0
LINE
8
Image
10
322.531020
20
15.329971
11
322.706344
21
16.147423
0
LINE
8
Image
10
322.706344
20
16.147423
11
322.605501
21
17.949852
0
LINE
8
Image
10
322.605501
20
17.949852
11
321.906478
21
19.982613
0
LINE
8
Image
10
321.906478
20
19.982613
11
320.613840
21
22.254060
0
LINE
8
Image
10
320.613840
20
22.254060
11
318.831779
21
24.439508
0
LINE
8
Image
10
318.831779
20
24.439508
11
316.032917
21
27.326116
0
LINE
8
Image
10
316.032917
20
27.326116
11
312.699842
21
30.441522
0
LINE
8
Image
10
312.699842
20
30.441522
11
309.315140
21
33.313360
0
LINE
8
Image
10
309.315140
20
33.313360
11
303.108805
21
37.855288
0
LINE
8
Image
10
303.108805
20
37.855288
11
294.806056
21
43.446451
0
LINE
8
Image
10
294.806056
20
43.446451
11
286.449699
21
48.750794
0
LINE
8
Image
10
286.449699
20
48.750794
11
280.082540
21
52.432260
0
LINE
8
Image
10
280.082540
20
52.432260
11
278.883960
21
53.051681
0
LINE
8
Image
10
278.883960
20
53.051681
11
275.774850
21
49.661351
0
LINE
8
Image
10
275.774850
20
49.661351
11
273.079111
21
46.604128
0
LINE
8
Image
10
273.079111
20
46.604128
11
270.813086
21
43.773232
0
LINE
8
Image
10
270.813086
20
43.773232
11
268.932255
21
41.109671
0
LINE
8
Image
10
268.932255
20
41.109671
11
267.392100
21
38.554451
0
LINE
8
Image
10
267.392100
20
38.554451
11
264.533251
21
33.771359
0
LINE
8
Image
10
264.533251
20
33.771359
11
261.556298
21
29.557700
0
LINE
8
Image
10
261.556298
20
29.557700
11
258.627295
21
26.128366
0
LINE
8
Image
10
258.627295
20
26.128366
11
257.232668
21
24.774975
0
LINE
8
Image
10
257.232668
20
24.774975
11
255.912300
21
23.698251
0
LINE
8
Image
10
255.912300
20
23.698251
11
253.623380
21
21.925111
0
LINE
8
Image
10
253.623380
20
21.925111
11
257.535980
21
20.011667
0
LINE
8
Image
10
257.535980
20
20.011667
11
264.830480
21
16.900991
0
LINE
8
Image
10
264.830480
20
16.900991
11
271.065004
21
14.624958
0
LINE
8
Image
10
271.065004
20
14.624958
11
277.551340
21
12.680763
0
LINE
8
Image
10
277.551340
20
12.680763
11
284.094721
21
11.120783
0
LINE
8
Image
10
284.094721
20
11.120783
11
290.500380
21
9.997391
0
LINE
8
Image
10
290.500380
20
9.997391
11
295.771849
21
9.622374
0
LINE
8
Image
10
295.771849
20
9.622374
11
302.700650
21
9.563249
0
LINE
8
Image
10
302.700650
20
9.563249
11
309.423741
21
9.796287
0
LINE
8
Image
10
309.423741
20
9.796287
11
312.125944
21
10.014952
0
LINE
8
Image
10
312.125944
20
10.014952
11
314.078080
21
10.297760
0
LINE
8
Image
10
314.078080
20
10.297760
11
314.078000
21
10.297760
0
LINE
8
Image
10
110.255000
20
20.123040
11
116.296227
21
21.666417
0
LINE
8
Image
10
116.296227
20
21.666417
11
122.379421
21
23.676787
0
LINE
8
Image
10
122.379421
20
23.676787
11
128.233005
21
26.054324
0
LINE
8
Image
10
128.233005
20
26.054324
11
133.585400
21
28.699200
0
LINE
8
Image
10
133.585400
20
28.699200
11
138.375106
21
31.507526
0
LINE
8
Image
10
138.375106
20
31.507526
11
141.808400
21
33.701130
0
LINE
8
Image
10
141.808400
20
33.701130
11
140.535810
21
37.444950
0
LINE
8
Image
10
140.535810
20
37.444950
11
139.490567
21
39.908746
0
LINE
8
Image
10
139.490567
20
39.908746
11
138.309030
21
42.203636
0
LINE
8
Image
10
138.309030
20
42.203636
11
136.932341
21
44.402026
0
LINE
8
Image
10
136.932341
20
44.402026
11
135.301639
21
46.576321
0
LINE
8
Image
10
135.301639
20
46.576321
11
133.358064
21
48.798926
0
LINE
8
Image
10
133.358064
20
48.798926
11
131.042758
21
51.142245
0
LINE
8
Image
10
131.042758
20
51.142245
11
125.061510
21
56.480650
0
LINE
8
Image
10
125.061510
20
56.480650
11
119.258570
21
61.386880
0
LINE
8
Image
10
119.258570
20
61.386880
11
117.484940
21
59.392360
0
LINE
8
Image
10
117.484940
20
59.392360
11
107.663004
21
48.555273
0
LINE
8
Image
10
107.663004
20
48.555273
11
99.480140
21
40.022560
0
LINE
8
Image
10
99.480140
20
40.022560
11
95.368527
21
35.723087
0
LINE
8
Image
10
95.368527
20
35.723087
11
92.441607
21
32.256321
0
LINE
8
Image
10
92.441607
20
32.256321
11
90.503830
21
29.366750
0
LINE
8
Image
10
90.503830
20
29.366750
11
89.359640
21
26.798860
0
LINE
8
Image
10
89.359640
20
26.798860
11
89.029063
21
25.478927
0
LINE
8
Image
10
89.029063
20
25.478927
11
88.926789
21
24.257821
0
LINE
8
Image
10
88.926789
20
24.257821
11
89.049717
21
23.141990
0
LINE
8
Image
10
89.049717
20
23.141990
11
89.394747
21
22.137882
0
LINE
8
Image
10
89.394747
20
22.137882
11
89.958777
21
21.251946
0
LINE
8
Image
10
89.958777
20
21.251946
11
90.738707
21
20.490628
0
LINE
8
Image
10
90.738707
20
20.490628
11
91.731435
21
19.860377
0
LINE
8
Image
10
91.731435
20
19.860377
11
92.933860
21
19.367640
0
LINE
8
Image
10
92.933860
20
19.367640
11
94.225564
21
19.094000
0
LINE
8
Image
10
94.225564
20
19.094000
11
95.973989
21
18.934554
0
LINE
8
Image
10
95.973989
20
18.934554
11
100.426664
21
18.940176
0
LINE
8
Image
10
100.426664
20
18.940176
11
105.463211
21
19.348371
0
LINE
8
Image
10
105.463211
20
19.348371
11
110.254960
21
20.123007
0
LINE
8
Image
10
110.254960
20
20.123007
11
110.255000
21
20.123040
0
LINE
8
Image
10
214.269000
20
59.388540
11
223.251606
21
66.335185
0
LINE
8
Image
10
223.251606
20
66.335185
11
231.616325
21
73.242005
0
LINE
8
Image
10
231.616325
20
73.242005
11
239.579756
21
80.294168
0
LINE
8
Image
10
239.579756
20
80.294168
11
247.358500
21
87.676840
0
LINE
8
Image
10
247.358500
20
87.676840
11
254.776855
21
95.192726
0
LINE
8
Image
10
254.776855
20
95.192726
11
261.012562
21
102.054603
0
LINE
8
Image
10
261.012562
20
102.054603
11
266.286414
21
108.518098
0
LINE
8
Image
10
266.286414
20
108.518098
11
270.819200
21
114.838840
0
LINE
8
Image
10
270.819200
20
114.838840
11
273.444370
21
118.764700
0
LINE
8
Image
10
273.444370
20
118.764700
11
273.896292
21
114.429220
0
LINE
8
Image
10
273.896292
20
114.429220
11
274.345808
21
111.262784
0
LINE
8
Image
10
274.345808
20
111.262784
11
274.791782
21
109.819600
0
LINE
8
Image
10
274.791782
20
109.819600
11
276.896988
21
109.105585
0
LINE
8
Image
10
276.896988
20
109.105585
11
281.123868
21
107.902386
0
LINE
8
Image
10
281.123868
20
107.902386
11
289.806182
21
105.708610
0
LINE
8
Image
10
289.806182
20
105.708610
11
293.504226
21
105.088945
0
LINE
8
Image
10
293.504226
20
105.088945
11
297.195932
21
104.740606
0
LINE
8
Image
10
297.195932
20
104.740606
11
300.437713
21
104.689168
0
LINE
8
Image
10
300.437713
20
104.689168
11
302.785982
21
104.960208
0
LINE
8
Image
10
302.785982
20
104.960208
11
304.197113
21
105.419876
0
LINE
8
Image
10
304.197113
20
105.419876
11
305.382854
21
106.037753
0
LINE
8
Image
10
305.382854
20
106.037753
11
306.348576
21
106.822586
0
LINE
8
Image
10
306.348576
20
106.822586
11
307.099651
21
107.783124
0
LINE
8
Image
10
307.099651
20
107.783124
11
307.641449
21
108.928114
0
LINE
8
Image
10
307.641449
20
108.928114
11
307.979341
21
110.266303
0
LINE
8
Image
10
307.979341
20
110.266303
11
308.118698
21
111.806438
0
LINE
8
Image
10
308.118698
20
111.806438
11
308.064892
21
113.557268
0
LINE
8
Image
10
308.064892
20
113.557268
11
307.703201
21
116.463062
0
LINE
8
Image
10
307.703201
20
116.463062
11
307.080943
21
119.231067
0
LINE
8
Image
10
307.080943
20
119.231067
11
306.175619
21
121.904093
0
LINE
8
Image
10
306.175619
20
121.904093
11
304.964728
21
124.524953
0
LINE
8
Image
10
304.964728
20
124.524953
11
303.425770
21
127.136459
0
LINE
8
Image
10
303.425770
20
127.136459
11
301.536244
21
129.781422
0
LINE
8
Image
10
301.536244
20
129.781422
11
299.273652
21
132.502654
0
LINE
8
Image
10
299.273652
20
132.502654
11
296.615492
21
135.342968
0
LINE
8
Image
10
296.615492
20
135.342968
11
290.499594
21
141.143976
0
LINE
8
Image
10
290.499594
20
141.143976
11
288.004877
21
143.279033
0
LINE
8
Image
10
288.004877
20
143.279033
11
286.763972
21
144.121158
0
LINE
8
Image
10
286.763972
20
144.121158
11
286.117290
21
143.657089
0
LINE
8
Image
10
286.117290
20
143.657089
11
284.915407
21
142.392660
0
LINE
8
Image
10
284.915407
20
142.392660
11
281.454110
21
138.229370
0
LINE
8
Image
10
281.454110
20
138.229370
11
277.596219
21
133.164600
0
LINE
8
Image
10
277.596219
20
133.164600
11
274.557872
21
128.731658
0
LINE
8
Image
10
274.557872
20
128.731658
11
272.917282
21
126.070688
0
LINE
8
Image
10
272.917282
20
126.070688
11
272.467637
21
130.110028
0
LINE
8
Image
10
272.467637
20
130.110028
11
270.619881
21
144.877708
0
LINE
8
Image
10
270.619881
20
144.877708
11
268.417327
21
160.974028
0
LINE
8
Image
10
268.417327
20
160.974028
11
267.483921
21
166.572317
0
LINE
8
Image
10
267.483921
20
166.572317
11
267.160000
21
167.485903
0
LINE
8
Image
10
267.160000
20
167.485903
11
266.996994
21
167.623806
0
LINE
8
Image
10
266.996994
20
167.623806
11
266.819297
21
167.607208
0
LINE
8
Image
10
266.819297
20
167.607208
11
262.343307
21
165.978911
0
LINE
8
Image
10
262.343307
20
165.978911
11
256.642233
21
164.201228
0
LINE
8
Image
10
256.642233
20
164.201228
11
251.408067
21
162.770577
0
LINE
8
Image
10
251.408067
20
162.770577
11
248.332797
21
162.183378
0
LINE
8
Image
10
248.332797
20
162.183378
11
248.051494
21
162.305921
0
LINE
8
Image
10
248.051494
20
162.305921
11
247.783895
21
162.674081
0
LINE
8
Image
10
247.783895
20
162.674081
11
247.289050
21
164.150438
0
LINE
8
Image
10
247.289050
20
164.150438
11
246.846749
21
166.618820
0
LINE
8
Image
10
246.846749
20
166.618820
11
246.455477
21
170.085598
0
LINE
8
Image
10
246.455477
20
170.085598
11
245.731002
21
177.203786
0
LINE
8
Image
10
245.731002
20
177.203786
11
245.016673
21
181.962848
0
LINE
8
Image
10
245.016673
20
181.962848
11
244.108374
21
185.392911
0
LINE
8
Image
10
244.108374
20
185.392911
11
242.801987
21
188.524098
0
LINE
8
Image
10
242.801987
20
188.524098
11
241.807619
21
190.347790
0
LINE
8
Image
10
241.807619
20
190.347790
11
240.626828
21
192.011141
0
LINE
8
Image
10
240.626828
20
192.011141
11
239.260765
21
193.513271
0
LINE
8
Image
10
239.260765
20
193.513271
11
237.710582
21
194.853296
0
LINE
8
Image
10
237.710582
20
194.853296
11
235.977431
21
196.030333
0
LINE
8
Image
10
235.977431
20
196.030333
11
234.062464
21
197.043501
0
LINE
8
Image
10
234.062464
20
197.043501
11
231.966832
21
197.891917
0
LINE
8
Image
10
231.966832
20
197.891917
11
229.691687
21
198.574698
0
LINE
8
Image
10
229.691687
20
198.574698
11
228.095994
21
198.846465
0
LINE
8
Image
10
228.095994
20
198.846465
11
225.842442
21
199.049977
0
LINE
8
Image
10
225.842442
20
199.049977
11
220.113697
21
199.245894
0
LINE
8
Image
10
220.113697
20
199.245894
11
214.009322
21
199.149768
0
LINE
8
Image
10
214.009322
20
199.149768
11
209.033187
21
198.748916
0
LINE
8
Image
10
209.033187
20
198.748916
11
204.886791
21
198.070419
0
LINE
8
Image
10
204.886791
20
198.070419
11
200.943765
21
197.246229
0
LINE
8
Image
10
200.943765
20
197.246229
11
197.204744
21
196.276775
0
LINE
8
Image
10
197.204744
20
196.276775
11
193.670362
21
195.162486
0
LINE
8
Image
10
193.670362
20
195.162486
11
190.341255
21
193.903792
0
LINE
8
Image
10
190.341255
20
193.903792
11
187.218059
21
192.501120
0
LINE
8
Image
10
187.218059
20
192.501120
11
184.301408
21
190.954902
0
LINE
8
Image
10
184.301408
20
190.954902
11
181.591937
21
189.265565
0
LINE
8
Image
10
181.591937
20
189.265565
11
179.090282
21
187.433539
0
LINE
8
Image
10
179.090282
20
187.433539
11
176.797078
21
185.459253
0
LINE
8
Image
10
176.797078
20
185.459253
11
174.712959
21
183.343137
0
LINE
8
Image
10
174.712959
20
183.343137
11
172.838562
21
181.085619
0
LINE
8
Image
10
172.838562
20
181.085619
11
171.174521
21
178.687128
0
LINE
8
Image
10
171.174521
20
178.687128
11
169.721471
21
176.148095
0
LINE
8
Image
10
169.721471
20
176.148095
11
168.480048
21
173.468948
0
LINE
8
Image
10
168.480048
20
173.468948
11
167.450887
21
170.650116
0
LINE
8
Image
10
167.450887
20
170.650116
11
167.041048
21
169.139691
0
LINE
8
Image
10
167.041048
20
169.139691
11
166.749881
21
167.467853
0
LINE
8
Image
10
166.749881
20
167.467853
11
166.418317
21
162.844346
0
LINE
8
Image
10
166.418317
20
162.844346
11
166.227272
21
157.672646
0
LINE
8
Image
10
166.227272
20
157.672646
11
164.111732
21
157.887138
0
LINE
8
Image
10
164.111732
20
157.887138
11
161.461137
21
158.345279
0
LINE
8
Image
10
161.461137
20
158.345279
11
158.435575
21
159.224118
0
LINE
8
Image
10
158.435575
20
159.224118
11
155.019986
21
160.530988
0
LINE
8
Image
10
155.019986
20
160.530988
11
151.199314
21
162.273226
0
LINE
8
Image
10
151.199314
20
162.273226
11
146.958501
21
164.458164
0
LINE
8
Image
10
146.958501
20
164.458164
11
142.282488
21
167.093140
0
LINE
8
Image
10
142.282488
20
167.093140
11
137.156218
21
170.185486
0
LINE
8
Image
10
137.156218
20
170.185486
11
131.564632
21
173.742538
0
LINE
8
Image
10
131.564632
20
173.742538
11
128.096888
21
175.920556
0
LINE
8
Image
10
128.096888
20
175.920556
11
126.560942
21
176.732838
0
LINE
8
Image
10
126.560942
20
176.732838
11
126.052384
21
160.629138
0
LINE
8
Image
10
126.052384
20
160.629138
11
125.437548
21
139.531238
0
LINE
8
Image
10
125.437548
20
139.531238
11
124.545304
21
121.355338
0
LINE
8
Image
10
124.545304
20
121.355338
11
124.180185
21
114.123538
0
LINE
8
Image
10
124.180185
20
114.123538
11
124.327699
21
113.347955
0
LINE
8
Image
10
124.327699
20
113.347955
11
124.989961
21
112.416357
0
LINE
8
Image
10
124.989961
20
112.416357
11
129.164355
21
108.652038
0
LINE
8
Image
10
129.164355
20
108.652038
11
136.457476
21
102.661159
0
LINE
8
Image
10
136.457476
20
102.661159
11
139.481681
21
100.475573
0
LINE
8
Image
10
139.481681
20
100.475573
11
143.004655
21
98.135638
0
LINE
8
Image
10
143.004655
20
98.135638
11
149.739817
21
93.969313
0
LINE
8
Image
10
149.739817
20
93.969313
11
156.137732
21
90.529181
0
LINE
8
Image
10
156.137732
20
90.529181
11
163.351059
21
87.245877
0
LINE
8
Image
10
163.351059
20
87.245877
11
172.532455
21
83.550038
0
LINE
8
Image
10
172.532455
20
83.550038
11
178.211821
21
81.114903
0
LINE
8
Image
10
178.211821
20
81.114903
11
183.579286
21
78.350775
0
LINE
8
Image
10
183.579286
20
78.350775
11
188.579223
21
75.301142
0
LINE
8
Image
10
188.579223
20
75.301142
11
193.156005
21
72.009496
0
LINE
8
Image
10
193.156005
20
72.009496
11
197.254006
21
68.519323
0
LINE
8
Image
10
197.254006
20
68.519323
11
200.817599
21
64.874113
0
LINE
8
Image
10
200.817599
20
64.874113
11
203.791157
21
61.117355
0
LINE
8
Image
10
203.791157
20
61.117355
11
205.039290
21
59.210736
0
LINE
8
Image
10
205.039290
20
59.210736
11
206.119055
21
57.292538
0
LINE
8
Image
10
206.119055
20
57.292538
11
207.683785
21
54.564378
0
LINE
8
Image
10
207.683785
20
54.564378
11
214.268965
21
59.388538
0
LINE
8
Image
10
214.268965
20
59.388538
11
214.269000
21
59.388540
0
LINE
8
Image
10
203.012400
20
154.695840
11
201.683525
21
155.294398
0
LINE
8
Image
10
201.683525
20
155.294398
11
200.676156
21
156.148221
0
LINE
8
Image
10
200.676156
20
156.148221
11
200.037280
21
157.202841
0
LINE
8
Image
10
200.037280
20
157.202841
11
199.813880
21
158.403790
0
LINE
8
Image
10
199.813880
20
158.403790
11
200.031710
21
159.071578
0
LINE
8
Image
10
200.031710
20
159.071578
11
200.883132
21
159.566318
0
LINE
8
Image
10
200.883132
20
159.566318
11
202.665040
21
159.991753
0
LINE
8
Image
10
202.665040
20
159.991753
11
205.674330
21
160.451630
0
LINE
8
Image
10
205.674330
20
160.451630
11
209.161861
21
161.096257
0
LINE
8
Image
10
209.161861
20
161.096257
11
211.695070
21
161.841630
0
LINE
8
Image
10
211.695070
20
161.841630
11
213.091317
21
162.350194
0
LINE
8
Image
10
213.091317
20
162.350194
11
214.427341
21
162.635695
0
LINE
8
Image
10
214.427341
20
162.635695
11
215.664323
21
162.707045
0
LINE
8
Image
10
215.664323
20
162.707045
11
216.763445
21
162.573156
0
LINE
8
Image
10
216.763445
20
162.573156
11
217.685890
21
162.242939
0
LINE
8
Image
10
217.685890
20
162.242939
11
218.392839
21
161.725306
0
LINE
8
Image
10
218.392839
20
161.725306
11
218.845475
21
161.029169
0
LINE
8
Image
10
218.845475
20
161.029169
11
219.004980
21
160.163440
0
LINE
8
Image
10
219.004980
20
160.163440
11
218.812125
21
159.088750
0
LINE
8
Image
10
218.812125
20
159.088750
11
218.315952
21
158.289840
0
LINE
8
Image
10
218.315952
20
158.289840
11
217.038528
21
157.569090
0
LINE
8
Image
10
217.038528
20
157.569090
11
214.788752
21
156.717792
0
LINE
8
Image
10
214.788752
20
156.717792
11
211.885553
21
155.842790
0
LINE
8
Image
10
211.885553
20
155.842790
11
208.647862
21
155.050930
0
LINE
8
Image
10
208.647862
20
155.050930
11
204.972451
21
154.368762
0
LINE
8
Image
10
204.972451
20
154.368762
11
204.027761
21
154.421886
0
LINE
8
Image
10
204.027761
20
154.421886
11
203.012402
21
154.695850
0
LINE
8
Image
10
203.012402
20
154.695850
11
203.012400
21
154.695840
0
LINE
8
Image
10
90.183900
20
85.229000
11
95.772156
21
86.579481
0
LINE
8
Image
10
95.772156
20
86.579481
11
102.605600
21
88.693275
0
LINE
8
Image
10
102.605600
20
88.693275
11
110.228869
21
91.417974
0
LINE
8
Image
10
110.228869
20
91.417974
11
118.186600
21
94.601170
0
LINE
8
Image
10
118.186600
20
94.601170
11
123.296200
21
96.755480
0
LINE
8
Image
10
123.296200
20
96.755480
11
123.762355
21
103.410990
0
LINE
8
Image
10
123.762355
20
103.410990
11
124.228510
21
110.066500
0
LINE
8
Image
10
124.228510
20
110.066500
11
120.718410
21
113.453160
0
LINE
8
Image
10
120.718410
20
113.453160
11
117.448845
21
116.445630
0
LINE
8
Image
10
117.448845
20
116.445630
11
113.660676
21
119.656020
0
LINE
8
Image
10
113.660676
20
119.656020
11
109.784272
21
122.731440
0
LINE
8
Image
10
109.784272
20
122.731440
11
106.250000
21
125.319000
0
LINE
8
Image
10
106.250000
20
125.319000
11
103.531620
21
127.198210
0
LINE
8
Image
10
103.531620
20
127.198210
11
99.714290
21
122.583280
0
LINE
8
Image
10
99.714290
20
122.583280
11
95.317023
21
117.122356
0
LINE
8
Image
10
95.317023
20
117.122356
11
91.256273
21
111.795985
0
LINE
8
Image
10
91.256273
20
111.795985
11
87.609028
21
106.723496
0
LINE
8
Image
10
87.609028
20
106.723496
11
84.452278
21
102.024217
0
LINE
8
Image
10
84.452278
20
102.024217
11
81.863010
21
97.817478
0
LINE
8
Image
10
81.863010
20
97.817478
11
79.918213
21
94.222607
0
LINE
8
Image
10
79.918213
20
94.222607
11
78.694877
21
91.358931
0
LINE
8
Image
10
78.694877
20
91.358931
11
78.377816
21
90.238582
0
LINE
8
Image
10
78.377816
20
90.238582
11
78.269990
21
89.345780
0
LINE
8
Image
10
78.269990
20
89.345780
11
78.376908
21
87.890365
0
LINE
8
Image
10
78.376908
20
87.890365
11
78.753623
21
86.839575
0
LINE
8
Image
10
78.753623
20
86.839575
11
79.484074
21
86.054210
0
LINE
8
Image
10
79.484074
20
86.054210
11
80.652200
21
85.395070
0
LINE
8
Image
10
80.652200
20
85.395070
11
82.388247
21
84.887590
0
LINE
8
Image
10
82.388247
20
84.887590
11
84.618674
21
84.689593
0
LINE
8
Image
10
84.618674
20
84.689593
11
87.248886
21
84.802735
0
LINE
8
Image
10
87.248886
20
84.802735
11
90.184290
21
85.228672
0
LINE
8
Image
10
90.184290
20
85.228672
11
90.183900
21
85.229000
0
LINE
8
Image
10
162.700000
20
164.779000
11
163.123955
21
168.026772
0
LINE
8
Image
10
163.123955
20
168.026772
11
163.853733
21
171.178904
0
LINE
8
Image
10
163.853733
20
171.178904
11
164.905463
21
174.292108
0
LINE
8
Image
10
164.905463
20
174.292108
11
166.295270
21
177.423100
0
LINE
8
Image
10
166.295270
20
177.423100
11
168.626906
21
181.466742
0
LINE
8
Image
10
168.626906
20
181.466742
11
171.455911
21
185.187950
0
LINE
8
Image
10
171.455911
20
185.187950
11
174.778895
21
188.584295
0
LINE
8
Image
10
174.778895
20
188.584295
11
178.592465
21
191.653350
0
LINE
8
Image
10
178.592465
20
191.653350
11
182.893229
21
194.392686
0
LINE
8
Image
10
182.893229
20
194.392686
11
187.677796
21
196.799875
0
LINE
8
Image
10
187.677796
20
196.799875
11
192.942774
21
198.872489
0
LINE
8
Image
10
192.942774
20
198.872489
11
198.684770
21
200.608100
0
LINE
8
Image
10
198.684770
20
200.608100
11
200.378100
21
201.051665
0
LINE
8
Image
10
200.378100
20
201.051665
11
199.178810
21
201.377552
0
LINE
8
Image
10
199.178810
20
201.377552
11
198.001550
21
201.914010
0
LINE
8
Image
10
198.001550
20
201.914010
11
197.159552
21
202.731529
0
LINE
8
Image
10
197.159552
20
202.731529
11
196.653047
21
203.738627
0
LINE
8
Image
10
196.653047
20
203.738627
11
196.482265
21
204.843821
0
LINE
8
Image
10
196.482265
20
204.843821
11
196.647439
21
205.955628
0
LINE
8
Image
10
196.647439
20
205.955628
11
197.148799
21
206.982566
0
LINE
8
Image
10
197.148799
20
206.982566
11
197.986576
21
207.833151
0
LINE
8
Image
10
197.986576
20
207.833151
11
199.161002
21
208.415902
0
LINE
8
Image
10
199.161002
20
208.415902
11
201.553503
21
208.805350
0
LINE
8
Image
10
201.553503
20
208.805350
11
205.596602
21
209.209239
0
LINE
8
Image
10
205.596602
20
209.209239
11
210.770929
21
209.758945
0
LINE
8
Image
10
210.770929
20
209.758945
11
212.707974
21
210.107523
0
LINE
8
Image
10
212.707974
20
210.107523
11
214.286796
21
210.529924
0
LINE
8
Image
10
214.286796
20
210.529924
11
215.563787
21
211.044653
0
LINE
8
Image
10
215.563787
20
211.044653
11
216.595340
21
211.670215
0
LINE
8
Image
10
216.595340
20
211.670215
11
217.437848
21
212.425115
0
LINE
8
Image
10
217.437848
20
212.425115
11
218.147702
21
213.327859
0
LINE
8
Image
10
218.147702
20
213.327859
11
218.770810
21
214.480136
0
LINE
8
Image
10
218.770810
20
214.480136
11
219.263521
21
215.851114
0
LINE
8
Image
10
219.263521
20
215.851114
11
219.619381
21
217.366568
0
LINE
8
Image
10
219.619381
20
217.366568
11
219.831938
21
218.952270
0
LINE
8
Image
10
219.831938
20
218.952270
11
219.894739
21
220.533996
0
LINE
8
Image
10
219.894739
20
220.533996
11
219.801332
21
222.037520
0
LINE
8
Image
10
219.801332
20
222.037520
11
219.545263
21
223.388617
0
LINE
8
Image
10
219.545263
20
223.388617
11
219.120081
21
224.513059
0
LINE
8
Image
10
219.120081
20
224.513059
11
218.240640
21
225.730837
0
LINE
8
Image
10
218.240640
20
225.730837
11
216.996984
21
226.708406
0
LINE
8
Image
10
216.996984
20
226.708406
11
215.399134
21
227.444011
0
LINE
8
Image
10
215.399134
20
227.444011
11
213.457110
21
227.935898
0
LINE
8
Image
10
213.457110
20
227.935898
11
211.180932
21
228.182313
0
LINE
8
Image
10
211.180932
20
228.182313
11
208.580621
21
228.181503
0
LINE
8
Image
10
208.580621
20
228.181503
11
205.666197
21
227.931713
0
LINE
8
Image
10
205.666197
20
227.931713
11
202.447681
21
227.431189
0
LINE
8
Image
10
202.447681
20
227.431189
11
199.916088
21
227.022711
0
LINE
8
Image
10
199.916088
20
227.022711
11
198.219987
21
226.941090
0
LINE
8
Image
10
198.219987
20
226.941090
11
197.081235
21
227.204127
0
LINE
8
Image
10
197.081235
20
227.204127
11
196.221691
21
227.829622
0
LINE
8
Image
10
196.221691
20
227.829622
11
195.782761
21
228.349498
0
LINE
8
Image
10
195.782761
20
228.349498
11
195.500050
21
228.902819
0
LINE
8
Image
10
195.500050
20
228.902819
11
195.310018
21
230.369622
0
LINE
8
Image
10
195.310018
20
230.369622
11
195.529051
21
232.007342
0
LINE
8
Image
10
195.529051
20
232.007342
11
195.838724
21
232.621540
0
LINE
8
Image
10
195.838724
20
232.621540
11
196.323393
21
233.132682
0
LINE
8
Image
10
196.323393
20
233.132682
11
197.014230
21
233.565807
0
LINE
8
Image
10
197.014230
20
233.565807
11
197.942403
21
233.945955
0
LINE
8
Image
10
197.942403
20
233.945955
11
200.635438
21
234.647472
0
LINE
8
Image
10
200.635438
20
234.647472
11
204.018518
21
235.164596
0
LINE
8
Image
10
204.018518
20
235.164596
11
207.923107
21
235.448950
0
LINE
8
Image
10
207.923107
20
235.448950
11
211.698835
21
235.474308
0
LINE
8
Image
10
211.698835
20
235.474308
11
214.695338
21
235.214445
0
LINE
8
Image
10
214.695338
20
235.214445
11
216.399556
21
234.847129
0
LINE
8
Image
10
216.399556
20
234.847129
11
217.988834
21
234.353430
0
LINE
8
Image
10
217.988834
20
234.353430
11
219.460950
21
233.736813
0
LINE
8
Image
10
219.460950
20
233.736813
11
220.813686
21
233.000744
0
LINE
8
Image
10
220.813686
20
233.000744
11
222.044823
21
232.148690
0
LINE
8
Image
10
222.044823
20
232.148690
11
223.152139
21
231.184118
0
LINE
8
Image
10
223.152139
20
231.184118
11
224.133417
21
230.110492
0
LINE
8
Image
10
224.133417
20
230.110492
11
224.986437
21
228.931281
0
LINE
8
Image
10
224.986437
20
228.931281
11
225.708978
21
227.649950
0
LINE
8
Image
10
225.708978
20
227.649950
11
226.298821
21
226.269965
0
LINE
8
Image
10
226.298821
20
226.269965
11
226.753748
21
224.794793
0
LINE
8
Image
10
226.753748
20
224.794793
11
227.071537
21
223.227900
0
LINE
8
Image
10
227.071537
20
223.227900
11
227.286828
21
219.832817
0
LINE
8
Image
10
227.286828
20
219.832817
11
226.926938
21
216.112445
0
LINE
8
Image
10
226.926938
20
216.112445
11
226.498897
21
214.136834
0
LINE
8
Image
10
226.498897
20
214.136834
11
225.906978
21
212.307974
0
LINE
8
Image
10
225.906978
20
212.307974
11
225.153148
21
210.628737
0
LINE
8
Image
10
225.153148
20
210.628737
11
224.239376
21
209.101996
0
LINE
8
Image
10
224.239376
20
209.101996
11
223.167631
21
207.730624
0
LINE
8
Image
10
223.167631
20
207.730624
11
221.939881
21
206.517493
0
LINE
8
Image
10
221.939881
20
206.517493
11
220.558093
21
205.465476
0
LINE
8
Image
10
220.558093
20
205.465476
11
219.024238
21
204.577445
0
LINE
8
Image
10
219.024238
20
204.577445
11
216.483738
21
203.306485
0
LINE
8
Image
10
216.483738
20
203.306485
11
221.601228
21
203.095840
0
LINE
8
Image
10
221.601228
20
203.095840
11
226.149162
21
202.783538
0
LINE
8
Image
10
226.149162
20
202.783538
11
229.847389
21
202.215070
0
LINE
8
Image
10
229.847389
20
202.215070
11
233.053760
21
201.314289
0
LINE
8
Image
10
233.053760
20
201.314289
11
236.126128
21
200.005050
0
LINE
8
Image
10
236.126128
20
200.005050
11
238.840167
21
198.515731
0
LINE
8
Image
10
238.840167
20
198.515731
11
241.051288
21
196.943079
0
LINE
8
Image
10
241.051288
20
196.943079
11
242.875754
21
195.191317
0
LINE
8
Image
10
242.875754
20
195.191317
11
244.429828
21
193.164670
0
LINE
8
Image
10
244.429828
20
193.164670
11
245.543435
21
191.323182
0
LINE
8
Image
10
245.543435
20
191.323182
11
246.513816
21
189.356516
0
LINE
8
Image
10
246.513816
20
189.356516
11
247.350056
21
187.230857
0
LINE
8
Image
10
247.350056
20
187.230857
11
248.061237
21
184.912386
0
LINE
8
Image
10
248.061237
20
184.912386
11
248.656443
21
182.367289
0
LINE
8
Image
10
248.656443
20
182.367289
11
249.144758
21
179.561748
0
LINE
8
Image
10
249.144758
20
179.561748
11
249.837048
21
173.034070
0
LINE
8
Image
10
249.837048
20
173.034070
11
250.450949
21
166.955790
0
LINE
8
Image
10
250.450949
20
166.955790
11
250.708149
21
166.704489
0
LINE
8
Image
10
250.708149
20
166.704489
11
251.354365
21
166.686704
0
LINE
8
Image
10
251.354365
20
166.686704
11
254.715639
21
167.457838
0
LINE
8
Image
10
254.715639
20
167.457838
11
261.914815
21
169.708312
0
LINE
8
Image
10
261.914815
20
169.708312
11
265.008442
21
170.852957
0
LINE
8
Image
10
265.008442
20
170.852957
11
266.541139
21
171.583628
0
LINE
8
Image
10
266.541139
20
171.583628
11
266.300775
21
174.245094
0
LINE
8
Image
10
266.300775
20
174.245094
11
265.150262
21
181.348195
0
LINE
8
Image
10
265.150262
20
181.348195
11
260.546099
21
206.397828
0
LINE
8
Image
10
260.546099
20
206.397828
11
257.002664
21
224.307730
0
LINE
8
Image
10
257.002664
20
224.307730
11
253.879390
21
238.613440
0
LINE
8
Image
10
253.879390
20
238.613440
11
251.009970
21
250.028745
0
LINE
8
Image
10
251.009970
20
250.028745
11
248.228099
21
259.267428
0
LINE
8
Image
10
248.228099
20
259.267428
11
245.909759
21
266.228908
0
LINE
8
Image
10
245.909759
20
266.228908
11
241.017909
21
267.212090
0
LINE
8
Image
10
241.017909
20
267.212090
11
234.710246
21
268.357707
0
LINE
8
Image
10
234.710246
20
268.357707
11
228.985723
21
269.087624
0
LINE
8
Image
10
228.985723
20
269.087624
11
223.068417
21
269.476401
0
LINE
8
Image
10
223.068417
20
269.476401
11
216.182409
21
269.598600
0
LINE
8
Image
10
216.182409
20
269.598600
11
209.468443
21
269.526141
0
LINE
8
Image
10
209.468443
20
269.526141
11
204.109859
21
269.216263
0
LINE
8
Image
10
204.109859
20
269.216263
11
199.049024
21
268.572126
0
LINE
8
Image
10
199.049024
20
268.572126
11
193.228309
21
267.496890
0
LINE
8
Image
10
193.228309
20
267.496890
11
187.084804
21
266.045088
0
LINE
8
Image
10
187.084804
20
266.045088
11
180.940407
21
264.177717
0
LINE
8
Image
10
180.940407
20
264.177717
11
174.836621
21
261.914397
0
LINE
8
Image
10
174.836621
20
261.914397
11
168.814946
21
259.274750
0
LINE
8
Image
10
168.814946
20
259.274750
11
162.916886
21
256.278395
0
LINE
8
Image
10
162.916886
20
256.278395
11
157.183942
21
252.944953
0
LINE
8
Image
10
157.183942
20
252.944953
11
151.657615
21
249.294045
0
LINE
8
Image
10
151.657615
20
249.294045
11
146.379409
21
245.345290
0
LINE
8
Image
10
146.379409
20
245.345290
11
142.088997
21
241.664164
0
LINE
8
Image
10
142.088997
20
241.664164
11
137.231318
21
237.079120
0
LINE
8
Image
10
137.231318
20
237.079120
11
132.462834
21
232.233286
0
LINE
8
Image
10
132.462834
20
232.233286
11
128.440009
21
227.769790
0
LINE
8
Image
10
128.440009
20
227.769790
11
124.875039
21
223.553670
0
LINE
8
Image
10
124.875039
20
223.553670
11
125.283719
21
216.669060
0
LINE
8
Image
10
125.283719
20
216.669060
11
125.889088
21
198.683760
0
LINE
8
Image
10
125.889088
20
198.683760
11
126.293092
21
184.495960
0
LINE
8
Image
10
126.293092
20
184.495960
11
126.500401
21
181.408870
0
LINE
8
Image
10
126.500401
20
181.408870
11
131.781851
21
177.976470
0
LINE
8
Image
10
131.781851
20
177.976470
11
143.048026
21
170.961480
0
LINE
8
Image
10
143.048026
20
170.961480
11
148.010229
21
168.089022
0
LINE
8
Image
10
148.010229
20
168.089022
11
152.023851
21
165.938070
0
LINE
8
Image
10
152.023851
20
165.938070
11
158.073905
21
163.197225
0
LINE
8
Image
10
158.073905
20
163.197225
11
160.601792
21
162.222592
0
LINE
8
Image
10
160.601792
20
162.222592
11
162.035651
21
161.825100
0
LINE
8
Image
10
162.035651
20
161.825100
11
162.224216
21
162.030202
0
LINE
8
Image
10
162.224216
20
162.030202
11
162.405762
21
162.626467
0
LINE
8
Image
10
162.405762
20
162.626467
11
162.699787
21
164.778940
0
LINE
8
Image
10
162.699787
20
164.778940
11
162.700000
21
164.779000
0
LINE
8
Image
10
170.169720
20
224.050300
11
168.579860
21
224.728437
0
LINE
8
Image
10
168.579860
20
224.728437
11
167.187428
21
225.647304
0
LINE
8
Image
10
167.187428
20
225.647304
11
166.008457
21
226.779776
0
LINE
8
Image
10
166.008457
20
226.779776
11
165.058979
21
228.098726
0
LINE
8
Image
10
165.058979
20
228.098726
11
164.355028
21
229.577030
0
LINE
8
Image
10
164.355028
20
229.577030
11
163.912637
21
231.187560
0
LINE
8
Image
10
163.912637
20
231.187560
11
163.747840
21
232.903192
0
LINE
8
Image
10
163.747840
20
232.903192
11
163.876670
21
234.696800
0
LINE
8
Image
10
163.876670
20
234.696800
11
164.154755
21
236.501530
0
LINE
8
Image
10
164.154755
20
236.501530
11
164.732621
21
235.300180
0
LINE
8
Image
10
164.732621
20
235.300180
11
165.221893
21
234.521822
0
LINE
8
Image
10
165.221893
20
234.521822
11
165.820246
21
233.951908
0
LINE
8
Image
10
165.820246
20
233.951908
11
166.496244
21
233.592198
0
LINE
8
Image
10
166.496244
20
233.592198
11
167.218448
21
233.444455
0
LINE
8
Image
10
167.218448
20
233.444455
11
167.955424
21
233.510439
0
LINE
8
Image
10
167.955424
20
233.510439
11
168.675732
21
233.791913
0
LINE
8
Image
10
168.675732
20
233.791913
11
169.347937
21
234.290636
0
LINE
8
Image
10
169.347937
20
234.290636
11
169.940601
21
235.008371
0
LINE
8
Image
10
169.940601
20
235.008371
11
170.321899
21
235.949322
0
LINE
8
Image
10
170.321899
20
235.949322
11
170.261523
21
236.901731
0
LINE
8
Image
10
170.261523
20
236.901731
11
169.769353
21
237.831933
0
LINE
8
Image
10
169.769353
20
237.831933
11
168.855271
21
238.706261
0
LINE
8
Image
10
168.855271
20
238.706261
11
168.270318
21
239.096682
0
LINE
8
Image
10
168.270318
20
239.096682
11
167.789373
21
239.269753
0
LINE
8
Image
10
167.789373
20
239.269753
11
167.286936
21
239.244314
0
LINE
8
Image
10
167.286936
20
239.244314
11
166.637511
21
239.039207
0
LINE
8
Image
10
166.637511
20
239.039207
11
165.462601
21
238.595729
0
LINE
8
Image
10
165.462601
20
238.595729
11
166.363318
21
239.573984
0
LINE
8
Image
10
166.363318
20
239.573984
11
167.361463
21
240.463731
0
LINE
8
Image
10
167.361463
20
240.463731
11
168.539221
21
241.186815
0
LINE
8
Image
10
168.539221
20
241.186815
11
169.851626
21
241.734764
0
LINE
8
Image
10
169.851626
20
241.734764
11
171.253714
21
242.099111
0
LINE
8
Image
10
171.253714
20
242.099111
11
172.700522
21
242.271386
0
LINE
8
Image
10
172.700522
20
242.271386
11
174.147085
21
242.243120
0
LINE
8
Image
10
174.147085
20
242.243120
11
175.548438
21
242.005842
0
LINE
8
Image
10
175.548438
20
242.005842
11
176.859618
21
241.551084
0
LINE
8
Image
10
176.859618
20
241.551084
11
178.400193
21
240.694155
0
LINE
8
Image
10
178.400193
20
240.694155
11
179.683759
21
239.656895
0
LINE
8
Image
10
179.683759
20
239.656895
11
180.715784
21
238.470517
0
LINE
8
Image
10
180.715784
20
238.470517
11
181.501733
21
237.166238
0
LINE
8
Image
10
181.501733
20
237.166238
11
182.047076
21
235.775271
0
LINE
8
Image
10
182.047076
20
235.775271
11
182.357280
21
234.328831
0
LINE
8
Image
10
182.357280
20
234.328831
11
182.437812
21
232.858133
0
LINE
8
Image
10
182.437812
20
232.858133
11
182.294139
21
231.394393
0
LINE
8
Image
10
182.294139
20
231.394393
11
181.931730
21
229.968824
0
LINE
8
Image
10
181.931730
20
229.968824
11
181.356051
21
228.612641
0
LINE
8
Image
10
181.356051
20
228.612641
11
180.572570
21
227.357059
0
LINE
8
Image
10
180.572570
20
227.357059
11
179.586754
21
226.233294
0
LINE
8
Image
10
179.586754
20
226.233294
11
178.404072
21
225.272558
0
LINE
8
Image
10
178.404072
20
225.272558
11
177.029990
21
224.506069
0
LINE
8
Image
10
177.029990
20
224.506069
11
175.469976
21
223.965039
0
LINE
8
Image
10
175.469976
20
223.965039
11
173.729498
21
223.680684
0
LINE
8
Image
10
173.729498
20
223.680684
11
171.878332
21
223.722867
0
LINE
8
Image
10
171.878332
20
223.722867
11
170.169748
21
224.050251
0
LINE
8
Image
10
170.169748
20
224.050251
11
170.169720
21
224.050300
0
LINE
8
Image
10
226.186520
20
235.807700
11
224.683636
21
236.551580
0
LINE
8
Image
10
224.683636
20
236.551580
11
223.348913
21
237.588303
0
LINE
8
Image
10
223.348913
20
237.588303
11
222.211046
21
238.862358
0
LINE
8
Image
10
222.211046
20
238.862358
11
221.298729
21
240.318232
0
LINE
8
Image
10
221.298729
20
240.318232
11
220.640655
21
241.900415
0
LINE
8
Image
10
220.640655
20
241.900415
11
220.265520
21
243.553395
0
LINE
8
Image
10
220.265520
20
243.553395
11
220.202017
21
245.221661
0
LINE
8
Image
10
220.202017
20
245.221661
11
220.478840
21
246.849700
0
LINE
8
Image
10
220.478840
20
246.849700
11
220.749059
21
247.790439
0
LINE
8
Image
10
220.749059
20
247.790439
11
221.368152
21
246.613079
0
LINE
8
Image
10
221.368152
20
246.613079
11
221.951775
21
245.808964
0
LINE
8
Image
10
221.951775
20
245.808964
11
222.676071
21
245.270694
0
LINE
8
Image
10
222.676071
20
245.270694
11
223.482937
21
244.991447
0
LINE
8
Image
10
223.482937
20
244.991447
11
224.314271
21
244.964399
0
LINE
8
Image
10
224.314271
20
244.964399
11
225.111970
21
245.182728
0
LINE
8
Image
10
225.111970
20
245.182728
11
225.817933
21
245.639613
0
LINE
8
Image
10
225.817933
20
245.639613
11
226.374058
21
246.328230
0
LINE
8
Image
10
226.374058
20
246.328230
11
226.722242
21
247.241757
0
LINE
8
Image
10
226.722242
20
247.241757
11
226.781998
21
248.050135
0
LINE
8
Image
10
226.781998
20
248.050135
11
226.620831
21
248.804846
0
LINE
8
Image
10
226.620831
20
248.804846
11
226.272048
21
249.476920
0
LINE
8
Image
10
226.272048
20
249.476920
11
225.768960
21
250.037385
0
LINE
8
Image
10
225.768960
20
250.037385
11
225.144877
21
250.457270
0
LINE
8
Image
10
225.144877
20
250.457270
11
224.433108
21
250.707606
0
LINE
8
Image
10
224.433108
20
250.707606
11
223.666963
21
250.759422
0
LINE
8
Image
10
223.666963
20
250.759422
11
222.879752
21
250.583747
0
LINE
8
Image
10
222.879752
20
250.583747
11
221.862952
21
250.197156
0
LINE
8
Image
10
221.862952
20
250.197156
11
222.597074
21
251.008355
0
LINE
8
Image
10
222.597074
20
251.008355
11
223.613101
21
251.873786
0
LINE
8
Image
10
223.613101
20
251.873786
11
225.024994
21
252.815365
0
LINE
8
Image
10
225.024994
20
252.815365
11
225.958952
21
253.255327
0
LINE
8
Image
10
225.958952
20
253.255327
11
227.034309
21
253.577660
0
LINE
8
Image
10
227.034309
20
253.577660
11
229.424406
21
253.865780
0
LINE
8
Image
10
229.424406
20
253.865780
11
231.825653
21
253.672414
0
LINE
8
Image
10
231.825653
20
253.672414
11
232.914946
21
253.392890
0
LINE
8
Image
10
232.914946
20
253.392890
11
233.868414
21
252.990252
0
LINE
8
Image
10
233.868414
20
252.990252
11
235.079498
21
252.233023
0
LINE
8
Image
10
235.079498
20
252.233023
11
236.125028
21
251.354409
0
LINE
8
Image
10
236.125028
20
251.354409
11
237.005324
21
250.371828
0
LINE
8
Image
10
237.005324
20
250.371828
11
237.720704
21
249.302697
0
LINE
8
Image
10
237.720704
20
249.302697
11
238.271487
21
248.164433
0
LINE
8
Image
10
238.271487
20
248.164433
11
238.657995
21
246.974453
0
LINE
8
Image
10
238.657995
20
246.974453
11
238.880544
21
245.750175
0
LINE
8
Image
10
238.880544
20
245.750175
11
238.939456
21
244.509015
0
LINE
8
Image
10
238.939456
20
244.509015
11
238.835048
21
243.268390
0
LINE
8
Image
10
238.835048
20
243.268390
11
238.567641
21
242.045718
0
LINE
8
Image
10
238.567641
20
242.045718
11
238.137553
21
240.858416
0
LINE
8
Image
10
238.137553
20
240.858416
11
237.545105
21
239.723900
0
LINE
8
Image
10
237.545105
20
239.723900
11
236.790614
21
238.659589
0
LINE
8
Image
10
236.790614
20
238.659589
11
235.874402
21
237.682899
0
LINE
8
Image
10
235.874402
20
237.682899
11
234.796786
21
236.811248
0
LINE
8
Image
10
234.796786
20
236.811248
11
233.558086
21
236.062052
0
LINE
8
Image
10
233.558086
20
236.062052
11
231.982869
21
235.553117
0
LINE
8
Image
10
231.982869
20
235.553117
11
229.999086
21
235.333133
0
LINE
8
Image
10
229.999086
20
235.333133
11
227.951913
21
235.414011
0
LINE
8
Image
10
227.951913
20
235.414011
11
226.186526
21
235.807663
0
LINE
8
Image
10
226.186526
20
235.807663
11
226.186520
21
235.807700
 0 
ENDSEC
 0 
EOF