<svg id="artwork" xmlns="http://www.w3.org/2000/svg" viewBox="0 0 1024 1024"><defs><style>.cls-1{fill:#fff;}</style></defs><path d="M162.8,1,182,16.49c.57.47,25.16,21.39,52,81.67,15.89,35.71,29.43,78,40.24,125.76C287.74,283.63,297,352,301.74,427.22c2.29,36.22,3.55,74.62,3.76,114.13v.21c.13,25.62-.18,52.39-.94,79.65-11,11.11-34.71,35.6-59.71,64.91-26.3,30.82-46.67,58.34-60.54,81.78-1.73,2.93-3.11,5.32-4.33,7.53-7.23,13.1-8.59,23.09-4.19,30.56,3.91,6.61,11.61,10,22.9,10,24.67,0,67-16,96.43-28.47-2.18,26.28-4.72,53.06-7.55,79.85-16.15,18.37-43.47,48.92-57.64,61.9A118.18,118.18,0,0,0,209.83,953c-7.76,12.59-9.36,23.16-4.75,31.43,4.74,8.5,15.37,12.8,31.6,12.8a131.81,131.81,0,0,0,14.84-.93c52.8-6,93.53-31.1,108.59-41.61l45.6,6.48c132.41,18.81,198.88,28.26,250,28.26h2.16a20.79,20.79,0,0,0,4.56-.55c26.69,13.45,76.9,34.18,132.76,34.18a214.13,214.13,0,0,0,33.21-2.55c17.34-2.73,27.6-8.65,31.36-18.09,3.45-8.68.67-18.94-8.25-30.51-22.89-29.66-85.56-67.11-110.14-81.14-2.85-46.51-6.63-93.77-11.28-140.76,26.31,7.64,45,11.22,58.3,11.22,12.76,0,21.62-3.31,27.07-10.11,7.94-9.92,5.84-24.52,3.57-34.63-.7-3.13-1.59-6.53-2.65-10.13-5.5-18.68-24.65-41.65-56.94-68.26-16.88-13.92-34.36-26.36-46.94-34.91l-3.6-24.4c-1-6.69-1.77-12-1.78-12.07v-.12c-.93-5.49-23-135.3-41.35-208.19-2.91-11.58-11.34-38.61-11.34-38.61l-4.95-13.36C612.72,209.37,545.71,132.87,450.3,79,372.27,35,292.35,15.81,239,7.49c-31.25-4.88-50.74-5.6-51.56-5.63L162.8,1Z"/><path class="cls-1" d="M811,718.23q-1-4.51-2.51-9.6c-5.89-20-29.3-43.62-54.18-64.15-11,11.87-27.14,31-38.24,51.44-3.23-28.3-7.37-60.79-11.63-91-.78-5.24-2.4-16.26-3.68-24.92-16.6,7.06-31.44,11.07-48.59,14.9L647.09,596l-1.41-5a105.76,105.76,0,0,1-2.95-18.27v-.28c-1-23.49-3.57-49.83-20.63-64.92-13.39-11.84-34.59-16.44-64.81-14.06-50.39,3.18-89.11,18.79-112.08,45.16-15.53,17.84-23.15,40.15-21.45,62.84l.45,6-6-.11c-17.84-.32-51.07-17.14-104.4-52.85q0,33.75-1.06,70.16l-.07.08c-1,32.72-2.61,69.07-5,105.32.42.36,27.26,23.33,28.62,24.37a368.24,368.24,0,0,0,96.66,53.24c88.67,32.39,103.63,83,103.63,83S664.9,801.74,718,712.77q1.44,13.1,2.85,25.79C801.13,763.34,819.41,755.76,811,718.23Z"/><path d="M562.85,594a12.55,12.55,0,0,0-6.44-.8,67.29,67.29,0,0,0-9.7,3.15c-1.49.53-2.87,1.55-4.39,1.78q-10.71,1.67-21.47,3c-2.57.32-5.29.94-5.59,3.62a9.6,9.6,0,0,0,1.92,6.52c3.09,3.73,7.66,5,12.79,5.59,11.24-2.34,22.92-4.58,33.88-9.32a7.42,7.42,0,0,0,4.73-7.18C568.43,596.81,565.7,595,562.85,594Z"/><path class="cls-1" d="M845,976.89c-23.41-30.34-91.61-70-111.85-81.37l.26-.26h0s-22.77,22.3-29.63,35.76c-6.51,12.8-24.91,42.72-40.55,49,30.66,15.85,95.63,43.1,163.91,32.34C857.2,1007.57,857.93,993.65,845,976.89ZM733.12,895.53l-.4.4Z"/><path class="cls-1" d="M353.21,941.18c-2.65-7.27-5.86-20-26.7-40.85q-1.67-1.65-3.47-3.21C313.29,888.64,300,878,294.1,872.38c-16.06,18.27-44,49.57-58.61,62.93a110.13,110.13,0,0,0-18.64,22c-11.08,18-10.78,35.88,33.73,30.8,52.09-6,92.17-31.27,105.52-40.69A32.57,32.57,0,0,1,353.21,941.18Z"/><path class="cls-1" d="M250.88,691.75c-21.49,25.2-43.82,53.88-59.48,80.34-1.45,2.46-2.87,4.91-4.2,7.33-31.89,57.78,79.33,11.89,117.26-5,0,.17,0,.35,0,.52l.06-.52q1.45-18.45,2.64-36.35A367.19,367.19,0,0,0,250.88,691.75Z"/><circle class="cls-1" cx="581.62" cy="359.41" r="7.62"/><path class="cls-1" d="M699,567.92S676.32,434,657.77,360.36c-4.77-19-15.92-50.81-15.92-50.81q-17.05-4-33.24-6.25l-.6-.08a352.76,352.76,0,0,0-39.88-3.4c-109.83-3-185.36,49.12-230,94.59A353.55,353.55,0,0,0,310,426.7h0c2.23,35.32,3.55,73.45,3.77,114.59l3.07,2.06c46.11,31.06,78.24,48.61,95.72,52.31-.11-23.31,8.42-45.9,24.39-64.23,13.52-15.53,37.64-33.92,79.38-43.32h-.17a10.61,10.61,0,0,1-1.86-21.05,159.14,159.14,0,0,1,17.33-1.78c25.08-1.66,38.18-3.78,38.62-30.73.15-9.64-3.34-13.45-6-15.47-12-9.17-39.89-4-48.73-1.42a10.61,10.61,0,0,1-5.91-20.38,137,137,0,0,1,24-4.24c18.82-1.59,33.46,1.5,43.51,9.17,6.7,5.11,14.62,14.93,14.34,32.68-.49,30.22-14.57,42.22-30.66,47.35,31-1.82,53.55,3.76,68.6,17.07,20.25,17.91,23.18,46.81,24.32,72.53.35,3.66.75,7.45,1.42,11.11,14.47-3.38,27.44-7.12,41.68-13.21l2.32-1C699,568.25,699,568,699,567.92Zm-257-141.22a26.32,26.32,0,1,1,26.32-26.32A26.32,26.32,0,0,1,441.93,426.7Zm155.28-31.91a26.32,26.32,0,1,1,26.32-26.32A26.32,26.32,0,0,1,597.21,394.79Z"/><circle class="cls-1" cx="426.33" cy="391.32" r="7.62"/></svg>