<svg id="artwork" xmlns="http://www.w3.org/2000/svg" viewBox="0 0 1024 1024"><defs><style>.cls-1{fill:#fff;}</style></defs><path d="M190.1,18.67l18.56,15c.55.46,24.33,20.69,50.26,79,15.37,34.53,28.46,75.44,38.91,121.59,13.07,57.74,22,123.88,26.61,196.58,2.21,35,3.43,72.14,3.63,110.34v.21c.12,24.76-.18,50.66-.91,77-10.64,10.75-33.56,34.42-57.74,62.76-25.43,29.8-45.12,56.4-58.53,79.07-1.68,2.83-3,5.15-4.19,7.29-7,12.66-8.31,22.32-4.05,29.54,3.78,6.39,11.23,9.63,22.14,9.63,23.86,0,64.79-15.42,93.24-27.53-2.11,25.41-4.56,51.31-7.3,77.21-15.62,17.76-42,47.3-55.74,59.85a114.37,114.37,0,0,0-19.42,22.93c-7.51,12.18-9.06,22.4-4.6,30.39,4.58,8.22,14.86,12.39,30.55,12.39a129.64,129.64,0,0,0,14.35-.9c51.05-5.84,90.43-30.08,105-40.24L425,947c128,18.19,192.3,27.33,241.74,27.33h2.09a20,20,0,0,0,4.41-.53c25.8,13,74.35,33.05,128.36,33.05a206.4,206.4,0,0,0,32.11-2.47c16.77-2.64,26.69-8.36,30.32-17.49,3.34-8.39.65-18.31-8-29.5-22.13-28.67-82.72-64.89-106.49-78.45-2.75-45-6.41-90.67-10.9-136.1,25.43,7.38,43.52,10.85,56.36,10.85,12.35,0,20.91-3.2,26.17-9.78,7.68-9.59,5.66-23.71,3.46-33.49-.67-3-1.53-6.31-2.56-9.78-5.32-18.07-23.84-40.27-55-66-16.32-13.46-33.23-25.49-45.4-33.75-.79-5.37-2.34-15.92-3.48-23.59-1-6.47-1.7-11.56-1.72-11.68v-.11c-.9-5.31-22.22-130.82-40-201.3-2.82-11.2-11-37.33-11-37.33l-4.78-12.92C625.12,220.14,560.33,146.17,468.08,94.1,392.63,51.51,315.36,33,263.82,24.94,233.6,20.22,214.75,19.52,214,19.5l-23.87-.83Z"/><path class="cls-1" d="M190.1,18.67,214,19.5c.78,0,19.63.72,49.85,5.44,51.54,8,128.81,26.57,204.26,69.16,92.25,52.07,157,126,192.58,219.83l4.78,12.92s8.15,26.13,11,37.33c17.75,70.48,39.07,196,40,201.3v.11c0,.12.77,5.21,1.72,11.68,1.14,7.67,2.69,18.22,3.48,23.59,12.17,8.26,29.08,20.29,45.4,33.75,31.21,25.74,49.73,47.94,55,66,1,3.47,1.89,6.76,2.56,9.78,2.2,9.78,4.22,23.9-3.46,33.49-5.26,6.58-13.83,9.78-26.17,9.78-12.84,0-30.93-3.47-56.36-10.85,4.49,45.43,8.15,91.13,10.9,136.1,23.77,13.56,84.36,49.78,106.49,78.45,8.63,11.19,11.32,21.11,8,29.5-3.63,9.13-13.55,14.85-30.32,17.49a206.4,206.4,0,0,1-32.11,2.47c-54,0-102.56-20.05-128.36-33.05a20,20,0,0,1-4.41.53H666.7C617.26,974.32,553,965.18,425,947l-44.09-6.26c-14.56,10.16-53.94,34.4-105,40.24a129.64,129.64,0,0,1-14.35.9c-15.69,0-26-4.17-30.55-12.39-4.46-8-2.91-18.21,4.6-30.39A114.37,114.37,0,0,1,255,916.16c13.71-12.55,40.12-42.09,55.74-59.85,2.74-25.9,5.19-51.8,7.3-77.21-28.45,12.11-69.38,27.53-93.24,27.53-10.91,0-18.36-3.24-22.14-9.63-4.26-7.22-2.94-16.88,4.05-29.54,1.18-2.14,2.51-4.46,4.19-7.29,13.41-22.67,33.1-49.27,58.53-79.07,24.18-28.34,47.1-52,57.74-62.76.73-26.35,1-52.25.91-77v-.21c-.2-38.2-1.42-75.33-3.63-110.34-4.58-72.7-13.54-138.84-26.61-196.58-10.45-46.15-23.54-87.06-38.91-121.59-25.93-58.28-49.71-78.51-50.26-79l-18.56-15"/><path class="cls-1" d="M142.7,1l55.69,44.93c94.93,107.34,112.45,342.91,113.68,495.86v.06c.11,22.49-.14,45.92-.74,69.76C280.6,641.89,217.69,714.46,197.12,752c-11.62,17.89-17.58,38.55-8.24,53.12,20.21,31.46,67.71,14.15,110.94-1.38-1.38,15.19-2.88,30.5-4.47,45.8-15.07,17.07-38.82,43.5-51.15,54.79A130.26,130.26,0,0,0,222,930.69c-13.43,21.78-10.11,37.36-4.95,46.59,8.4,16.38,32.05,23.6,60.7,19.59,49.34-5.64,88.42-27.28,107-39.42,115.34,16.44,238.17,34.81,285.72,32.83,33.82,17.72,107.63,40.83,165.72,29.9,22.51-3.55,36.88-12.76,42.7-27.4C897.73,944,802.14,892.85,765,869.34c-2.21-34.77-5-70-8.21-105.14,15.72,3.71,28.14,5.48,38.23,5.48,17.28,0,30.29-5.31,38.67-15.79,15.45-21.17,7.31-43.42,3.76-57.8-7.3-32.63-64.94-80.46-101-104.48-1-7-3.33-22.59-4.23-28.66-1.3-7.56-30.64-182.16-51.59-241.26C612.53,112,385.62,6.13,190.65,2.67L142.7,1Z"/><path d="M190.1,18.67l18.56,15c.55.46,24.33,20.69,50.26,79,15.37,34.53,28.46,75.44,38.91,121.59,13.07,57.74,22,123.88,26.61,196.58,2.21,35,3.43,72.14,3.63,110.34v.21c.12,24.76-.18,50.66-.91,77-10.64,10.75-33.56,34.42-57.74,62.76-25.43,29.8-45.12,56.4-58.53,79.07-1.68,2.83-3,5.15-4.19,7.29-7,12.66-8.31,22.32-4.05,29.54,3.78,6.39,11.23,9.63,22.14,9.63,23.86,0,64.79-15.42,93.24-27.53-2.11,25.41-4.56,51.31-7.3,77.21-15.62,17.76-42,47.3-55.74,59.85a114.37,114.37,0,0,0-19.42,22.93c-7.51,12.18-9.06,22.4-4.6,30.39,4.58,8.22,14.86,12.39,30.55,12.39a129.64,129.64,0,0,0,14.35-.9c51.05-5.84,90.43-30.08,105-40.24L425,947c128,18.19,192.3,27.33,241.74,27.33h2.09a20,20,0,0,0,4.41-.53c25.8,13,74.35,33.05,128.36,33.05a206.4,206.4,0,0,0,32.11-2.47c16.77-2.64,26.69-8.36,30.32-17.49,3.34-8.39.65-18.31-8-29.5-22.13-28.67-82.72-64.89-106.49-78.45-2.75-45-6.41-90.67-10.9-136.1,25.43,7.38,43.52,10.85,56.36,10.85,12.35,0,20.91-3.2,26.17-9.78,7.68-9.59,5.66-23.71,3.46-33.49-.67-3-1.53-6.31-2.56-9.78-5.32-18.07-23.84-40.27-55-66-16.32-13.46-33.23-25.49-45.4-33.75-.79-5.37-2.34-15.92-3.48-23.59-1-6.47-1.7-11.56-1.72-11.68v-.11c-.9-5.31-22.22-130.82-40-201.3-2.82-11.2-11-37.33-11-37.33l-4.78-12.92C625.12,220.14,560.33,146.17,468.08,94.1,392.63,51.51,315.36,33,263.82,24.94,233.6,20.22,214.75,19.52,214,19.5l-23.87-.83Z"/><path class="cls-1" d="M816.84,712.14c-.65-2.9-1.47-6-2.43-9.27-5.69-19.33-28.33-42.18-52.38-62-10.61,11.48-26.25,30-37,49.73-3.12-27.36-7.13-58.77-11.25-88-.74-5.07-2.32-15.73-3.55-24.1-16,6.83-30.4,10.71-47,14.41l-4.92,1.1L657,589.15a102.55,102.55,0,0,1-2.85-17.66l0-.27c-1-22.72-3.44-48.18-19.94-62.78-12.94-11.44-33.44-15.89-62.67-13.59-48.71,3.07-86.16,18.17-108.36,43.66-15,17.25-22.39,38.83-20.74,60.76l.43,5.82L437,605c-17.25-.32-49.38-16.58-100.94-51.1q0,32.63-1,67.84l-.08.07c-.94,31.64-2.52,66.78-4.8,101.83.4.36,26.35,22.56,27.67,23.57a355.93,355.93,0,0,0,93.45,51.47C537,830,551.49,878.88,551.49,878.88s124.08-86,175.38-172q1.38,12.66,2.75,24.94C807.29,755.76,825,748.43,816.84,712.14Z"/><path d="M576.9,592a12,12,0,0,0-6.22-.78,63.7,63.7,0,0,0-9.38,3c-1.44.51-2.78,1.5-4.24,1.73q-10.37,1.6-20.77,2.88c-2.48.31-5.11.91-5.4,3.51a9.2,9.2,0,0,0,1.86,6.3c3,3.61,7.4,4.81,12.36,5.41,10.87-2.26,22.17-4.43,32.76-9a7.17,7.17,0,0,0,4.58-6.94C582.3,594.75,579.66,593,576.9,592Z"/><path class="cls-1" d="M849.7,962.24c-22.63-29.34-88.57-67.67-108.15-78.68l.25-.24h0s-22,21.56-28.64,34.57c-6.3,12.38-24.09,41.31-39.21,47.33,29.64,15.33,92.46,41.67,158.48,31.27C861.51,991.91,862.21,978.45,849.7,962.24ZM741.54,883.58c-.1.1-.24.23-.39.39C741.31,883.81,741.43,883.68,741.54,883.58Z"/><path class="cls-1" d="M374.2,927.71c-2.56-7-5.66-19.29-25.82-39.49-1.06-1.07-2.18-2.1-3.34-3.11-9.43-8.2-22.33-18.45-28-23.92-15.52,17.67-42.55,47.93-56.67,60.85a106,106,0,0,0-18,21.24C231.65,960.64,231.94,978,275,973.05c50.37-5.76,89.12-30.24,102-39.34A31.94,31.94,0,0,1,374.2,927.71Z"/><path class="cls-1" d="M275.26,686.54c-20.77,24.37-42.37,52.1-57.5,77.69-1.41,2.37-2.78,4.74-4.07,7.08-30.83,55.87,76.7,11.5,113.37-4.82,0,.16,0,.33,0,.5,0-.17,0-.34.05-.5q1.43-17.84,2.56-35.15A355.76,355.76,0,0,0,275.26,686.54Z"/><circle class="cls-1" cx="595.05" cy="365.21" r="7.37"/><path class="cls-1" d="M708.53,566.82s-21.91-129.5-39.85-200.69C664.06,347.8,653.29,317,653.29,317q-16.5-3.83-32.15-6.05l-.58-.07A337.71,337.71,0,0,0,582,307.6c-106.2-2.89-179.23,47.49-222.44,91.45a342,342,0,0,0-27.17,31.22h0c2.15,34.15,3.43,71,3.64,110.79l3,2c44.59,30,75.65,47,92.55,50.58-.11-22.54,8.14-44.38,23.58-62.11,13.08-15,36.39-32.79,76.75-41.88h-.16a10.26,10.26,0,0,1-1.8-20.35,153.9,153.9,0,0,1,16.76-1.72c24.25-1.6,36.92-3.65,37.34-29.71.14-9.32-3.23-13-5.79-15-11.58-8.86-38.57-3.83-47.12-1.37a10.26,10.26,0,0,1-5.71-19.7,131.06,131.06,0,0,1,23.19-4.11c18.2-1.53,32.36,1.45,42.07,8.87,6.48,4.94,14.14,14.44,13.86,31.6-.46,29.22-14.08,40.82-29.64,45.78,30-1.76,51.78,3.63,66.33,16.5,19.58,17.32,22.41,45.27,23.51,70.13.34,3.54.73,7.21,1.38,10.74a231.93,231.93,0,0,0,40.3-12.77l2.24-1C708.57,567.13,708.53,566.84,708.53,566.82ZM460,430.27a25.45,25.45,0,1,1,25.45-25.45A25.45,25.45,0,0,1,460,430.27Zm150.15-30.85A25.45,25.45,0,1,1,635.58,374,25.45,25.45,0,0,1,610.13,399.42Z"/><circle class="cls-1" cx="444.9" cy="396.07" r="7.37"/></svg>